<?xml version="1.0" encoding="UTF-8" standalone="no"?>
<!-- Created with Inkscape (http://www.inkscape.org/) -->

<svg
   xmlns:dc="http://purl.org/dc/elements/1.1/"
   xmlns:cc="http://creativecommons.org/ns#"
   xmlns:rdf="http://www.w3.org/1999/02/22-rdf-syntax-ns#"
   xmlns:svg="http://www.w3.org/2000/svg"
   xmlns="http://www.w3.org/2000/svg"
   xmlns:sodipodi="http://sodipodi.sourceforge.net/DTD/sodipodi-0.dtd"
   xmlns:inkscape="http://www.inkscape.org/namespaces/inkscape"
   id="svg2"
   version="1.1"
   inkscape:version="0.48.4 r9939"
   width="1000"
   height="1000"
   xml:space="preserve"
   sodipodi:docname="04.eps"><metadata
     id="metadata8"><rdf:RDF><cc:Work
         rdf:about=""><dc:format>image/svg+xml</dc:format><dc:type
           rdf:resource="http://purl.org/dc/dcmitype/StillImage" /><dc:title></dc:title></cc:Work></rdf:RDF></metadata><defs
     id="defs6" /><sodipodi:namedview
     pagecolor="#ffffff"
     bordercolor="#666666"
     borderopacity="1"
     objecttolerance="10"
     gridtolerance="10"
     guidetolerance="10"
     inkscape:pageopacity="0"
     inkscape:pageshadow="2"
     inkscape:window-width="1366"
     inkscape:window-height="716"
     id="namedview4"
     showgrid="false"
     inkscape:zoom="0.944"
     inkscape:cx="614.3175"
     inkscape:cy="745.90701"
     inkscape:window-x="0"
     inkscape:window-y="0"
     inkscape:window-maximized="1"
     inkscape:current-layer="g12" /><g
     id="g10"
     inkscape:groupmode="layer"
     inkscape:label="ink_ext_XXXXXX"
     transform="matrix(1.25,0,0,-1.25,0,1000)"><g
       id="g12"
       transform="scale(0.1,0.1)"><path
         d="m 0,0 8000,0 0,8000 L 0,8000 0,0 z"
         style="fill:#bbdabc;fill-opacity:1;fill-rule:nonzero;stroke:none"
         id="path14" /><path
         d="m 7478.32,0 -94.02,0 0,1442.83 615.7,0 0,-54.85 -521.68,0 0,-1387.98 m -4688.33,0 -94.02,0 0,1442.83 4278.96,0 0,-54.85 -4184.94,0 0,-1387.98 m -1670.9,0 -94.02,0 0,1442.83 1295.92,0 0,-54.85 -1201.9,0 0,-1387.98 m -503.387,1387.98 -615.703,0 0,54.85 615.703,0 0,-54.85"
         style="fill:#a3ac9e;fill-opacity:1;fill-rule:nonzero;stroke:none"
         id="path16" /><path
         d="m 3896.84,1812.83 -29.65,0 0,143.5 29.65,0 0,-143.5 m 262.68,174.31 -29.66,0 0,420.67 -877.95,0 c -48.2,0 -92.53,16.64 -127.54,44.48 l 83.45,0 c 22.88,-8.83 47.75,-13.67 73.75,-13.67 l 877.95,0 0,-451.48 m 1316.38,420.67 -529.28,0 0,30.81 529.28,0 0,-30.81"
         style="fill:#a3ac9e;fill-opacity:1;fill-rule:nonzero;stroke:none"
         id="path18" /><path
         d="m 3124.37,2452.29 -2331.585,0 0,342.34 58.27,0 0,-104.8 2195.785,0 0,-76.95 c 0,-65.05 30.28,-123.03 77.53,-160.59"
         style="fill:#a3ac9e;fill-opacity:1;fill-rule:nonzero;stroke:none"
         id="path20" /><path
         d="m 3207.82,2452.29 -83.45,0 c -47.25,37.56 -77.53,95.54 -77.53,160.59 l 0,76.95 29.66,0 0,-46.14 c 0,-87.25 54.5,-161.78 131.32,-191.4"
         style="fill:#8d8a87;fill-opacity:1;fill-rule:nonzero;stroke:none"
         id="path22" /><path
         d="m 8000,5925.09 -2469.72,0 0,357.17 216.36,0 0,776.4 193.45,0 0,163.7 386.89,0 0,71.81 193.45,0 0,-71.81 232.74,0 0,-73.99 193.45,0 0,145.8 154.15,0 0,-201.87 193.45,0 0,257.93 96.73,0 0,-1067.97 2.68,0 0,940.1 287.48,0 0,-214.18 318.89,0 0,-1083.09"
         style="fill:#a3ac9e;fill-opacity:1;fill-rule:nonzero;stroke:none"
         id="path24" /><path
         d="m 6558.71,4382.2 c -287.29,0 -520.19,232.9 -520.19,520.19 0,287.3 232.9,520.2 520.19,520.2 287.3,0 520.2,-232.9 520.2,-520.2 0,-287.29 -232.9,-520.19 -520.2,-520.19"
         style="fill:#a3ac9e;fill-opacity:1;fill-rule:nonzero;stroke:none"
         id="path26" /><path
         d="m 2509.32,2138.86 c 0,82.97 -67.26,150.23 -150.23,150.23 -82.96,0 -150.22,-67.26 -150.22,-150.23 0,-82.97 67.26,-150.23 150.22,-150.23 82.97,0 150.23,67.26 150.23,150.23"
         style="fill:#594973;fill-opacity:1;fill-rule:nonzero;stroke:none"
         id="path28" /><path
         d="m 2439.65,2138.86 c 0,44.49 -36.07,80.55 -80.56,80.55 -44.49,0 -80.55,-36.06 -80.55,-80.55 0,-44.49 36.06,-80.56 80.55,-80.56 44.49,0 80.56,36.07 80.56,80.56"
         style="fill:#bbdabc;fill-opacity:1;fill-rule:nonzero;stroke:none"
         id="path30" /><path
         d="m 1842.88,2414.68 0,-515.99 c 0,-77.69 63.01,-140.71 140.72,-140.71 l 191.63,0 c 77.71,0 140.73,63.02 140.73,140.71 l 0,515.99 -473.08,0"
         style="fill:#594973;fill-opacity:1;fill-rule:nonzero;stroke:none"
         id="path32" /><path
         d="m 851.055,2689.83 3060.68,0 0,4425.13 -3060.68,0 0,-4425.13 z"
         style="fill:#ffffff;fill-opacity:1;fill-rule:nonzero;stroke:none"
         id="path34" /><path
         d="m 1002.78,4970.3 2757.22,0 0,1756.91 -2757.22,0 0,-1756.91 z"
         style="fill:#bbdabc;fill-opacity:1;fill-rule:nonzero;stroke:none"
         id="path36" /><path
         d="m 1002.78,2977.1 2757.22,0 0,1756.92 -2757.22,0 0,-1756.92 z"
         style="fill:#bbdabc;fill-opacity:1;fill-rule:nonzero;stroke:none"
         id="path38" /><path
         d="m 4000,6794.75 -88.27,0 0,320.21 -3060.675,0 0,-320.21 -88.27,0 0,342.34 3237.215,0 0,-342.34"
         style="fill:#a3ac9e;fill-opacity:1;fill-rule:nonzero;stroke:none"
         id="path40" /><path
         d="m 851.055,6794.75 3060.68,0 0,320.207 -3060.68,0 0,-320.207 z"
         style="fill:#d6c9d0;fill-opacity:1;fill-rule:nonzero;stroke:none"
         id="path42" /><path
         d="m 3072.67,372.672 c 0,-4.992 0.76,-9.281 2.32,-12.793 1.56,-3.539 3.71,-6.16 6.39,-7.981 2.71,-1.777 5.66,-2.699 8.88,-2.699 3.25,0 6.21,0.922 8.91,2.59 2.7,1.68 4.84,4.242 6.45,7.75 1.58,3.563 2.4,7.891 2.4,13.133 0,4.949 -0.82,9.16 -2.4,12.68 -1.61,3.57 -3.75,6.308 -6.51,8.179 -2.73,1.891 -5.72,2.801 -8.98,2.801 -3.38,0 -6.41,-0.973 -9.09,-2.84 -2.63,-1.961 -4.7,-4.75 -6.19,-8.34 -1.46,-3.57 -2.18,-7.742 -2.18,-12.48 z m 36.36,-27.16 0,1.859 c -2.48,-2.891 -4.94,-5.18 -7.32,-6.949 -2.42,-1.832 -5.06,-3.152 -7.89,-4.09 -2.83,-0.91 -5.92,-1.402 -9.24,-1.402 -4.41,0 -8.55,0.941 -12.3,2.832 -3.77,1.84 -7.06,4.527 -9.79,8.039 -2.77,3.398 -4.86,7.508 -6.27,12.23 -1.44,4.688 -2.13,9.789 -2.13,15.239 0,11.582 2.83,20.589 8.46,27.05 5.64,6.461 13.07,9.672 22.28,9.672 5.36,0 9.85,-0.933 13.5,-2.73 3.67,-1.852 7.25,-4.66 10.7,-8.391 l 0,27.25 c 0,3.789 0.78,6.617 2.31,8.621 1.5,1.977 3.67,2.91 6.42,2.91 2.82,0 4.98,-0.91 6.49,-2.711 1.54,-1.769 2.28,-4.41 2.28,-7.859 l 0,-81.57 c 0,-3.532 -0.82,-6.18 -2.44,-7.953 -1.66,-1.727 -3.73,-2.629 -6.33,-2.629 -2.52,0 -4.61,0.902 -6.23,2.742 -1.66,1.797 -2.5,4.457 -2.5,7.84"
         style="fill:#594973;fill-opacity:1;fill-rule:nonzero;stroke:none"
         id="path44" /><path
         d="m 3160.58,378.48 33.51,0 c -0.43,6.372 -2.15,11.02 -5.13,14.192 -2.95,3.137 -6.86,4.719 -11.68,4.719 -4.59,0 -8.4,-1.582 -11.35,-4.739 -2.95,-3.222 -4.77,-7.902 -5.35,-14.172 z m 36.17,-10.488 -36.17,0 c 0.02,-4.203 0.88,-7.902 2.5,-11.101 1.66,-3.243 3.82,-5.649 6.6,-7.231 2.73,-1.668 5.74,-2.43 9.04,-2.43 2.21,0 4.24,0.211 6.06,0.731 1.81,0.508 3.57,1.391 5.31,2.449 1.72,1.07 3.3,2.289 4.76,3.578 1.43,1.242 3.28,2.973 5.61,5.121 0.94,0.789 2.3,1.262 4.06,1.262 1.92,0 3.42,-0.519 4.61,-1.539 1.15,-1.051 1.76,-2.57 1.76,-4.434 0,-1.699 -0.65,-3.636 -1.95,-5.878 -1.31,-2.258 -3.29,-4.399 -5.96,-6.43 -2.62,-2.039 -5.94,-3.738 -9.96,-5.168 -3.97,-1.313 -8.58,-1.992 -13.79,-1.992 -11.88,0 -21.08,3.422 -27.72,10.16 -6.58,6.769 -9.88,15.93 -9.88,27.582 0,5.457 0.82,10.547 2.44,15.199 1.66,4.668 3.99,8.731 7.11,12.027 3.13,3.364 6.97,5.903 11.54,7.743 4.56,1.757 9.61,2.578 15.2,2.578 7.23,0 13.4,-1.457 18.55,-4.547 5.2,-3 9.11,-6.961 11.66,-11.793 2.58,-4.809 3.85,-9.777 3.85,-14.789 0,-4.649 -1.35,-7.688 -4,-9.039 -2.66,-1.36 -6.43,-2.059 -11.23,-2.059"
         style="fill:#594973;fill-opacity:1;fill-rule:nonzero;stroke:none"
         id="path46" /><path
         d="m 3287.12,359.109 c 0,-5.089 -1.25,-9.449 -3.71,-13.07 -2.5,-3.687 -6.15,-6.437 -11.02,-8.277 -4.84,-1.891 -10.74,-2.832 -17.71,-2.832 -6.62,0 -12.35,1.011 -17.09,3.05 -4.77,2.032 -8.24,4.59 -10.51,7.602 -2.23,3.059 -3.38,6.148 -3.38,9.207 0,2.043 0.72,3.75 2.17,5.203 1.46,1.457 3.26,2.18 5.53,2.18 1.91,0 3.39,-0.473 4.41,-1.442 1.06,-0.878 2.07,-2.269 3.01,-3.968 1.91,-3.293 4.16,-5.723 6.8,-7.371 2.63,-1.61 6.28,-2.45 10.84,-2.45 3.69,0 6.69,0.84 9.1,2.45 2.38,1.668 3.55,3.558 3.55,5.609 0,3.309 -1.25,5.719 -3.69,7.172 -2.46,1.488 -6.52,2.957 -12.19,4.277 -6.33,1.582 -11.52,3.203 -15.51,4.953 -4,1.758 -7.2,4.028 -9.6,6.887 -2.37,2.859 -3.58,6.363 -3.58,10.5 0,3.672 1.08,7.223 3.3,10.543 2.19,3.27 5.49,5.867 9.77,7.848 4.35,1.992 9.55,2.941 15.62,2.941 4.79,0 9.1,-0.469 12.93,-1.492 3.83,-0.949 6.99,-2.309 9.55,-4.008 2.56,-1.652 4.5,-3.519 5.84,-5.539 1.31,-2.023 1.98,-3.992 1.98,-5.953 0,-2.109 -0.71,-3.899 -2.11,-5.168 -1.43,-1.379 -3.46,-2.059 -6.08,-2.059 -1.89,0 -3.51,0.5 -4.86,1.61 -1.33,1.047 -2.83,2.687 -4.55,4.886 -1.41,1.793 -3.07,3.25 -4.96,4.344 -1.88,1.067 -4.48,1.629 -7.74,1.629 -3.34,0 -6.09,-0.762 -8.32,-2.18 -2.22,-1.402 -3.3,-3.179 -3.3,-5.3 0,-1.93 0.82,-3.512 2.4,-4.731 1.66,-1.269 3.83,-2.34 6.61,-3.121 2.71,-0.789 6.56,-1.769 11.4,-3 5.69,-1.41 10.41,-3.07 14.02,-4.98 3.66,-1.969 6.41,-4.258 8.27,-6.879 1.89,-2.68 2.81,-5.711 2.81,-9.071"
         style="fill:#594973;fill-opacity:1;fill-rule:nonzero;stroke:none"
         id="path48" /><path
         d="m 3321.28,399.641 0,-53.469 c 0,-3.672 -0.88,-6.492 -2.62,-8.371 -1.78,-1.93 -4,-2.871 -6.72,-2.871 -2.71,0 -4.92,0.941 -6.62,2.922 -1.68,1.937 -2.52,4.718 -2.52,8.32 l 0,52.91 c 0,3.656 0.84,6.438 2.52,8.219 1.7,1.91 3.91,2.82 6.62,2.82 2.72,0 4.94,-0.91 6.72,-2.82 1.74,-1.781 2.62,-4.332 2.62,-7.66 z m -9.1,19.058 c -2.64,0 -4.83,0.86 -6.62,2.371 -1.84,1.621 -2.76,3.84 -2.76,6.731 0,2.629 0.92,4.828 2.83,6.5 1.86,1.668 4.01,2.539 6.55,2.539 2.36,0 4.47,-0.789 6.33,-2.301 1.87,-1.57 2.77,-3.82 2.77,-6.738 0,-2.84 -0.88,-5.063 -2.7,-6.692 -1.81,-1.55 -3.92,-2.41 -6.4,-2.41"
         style="fill:#594973;fill-opacity:1;fill-rule:nonzero;stroke:none"
         id="path50" /><path
         d="m 3354.85,373.09 c 0,-7.461 1.64,-13.141 4.91,-16.949 3.28,-3.801 7.5,-5.77 12.71,-5.77 3.07,0 5.98,0.828 8.69,2.52 2.72,1.66 4.98,4.109 6.68,7.418 1.74,3.332 2.6,7.371 2.6,12.062 0,7.578 -1.68,13.438 -5,17.621 -3.32,4.227 -7.72,6.34 -13.13,6.34 -5.27,0 -9.53,-2.012 -12.69,-6.102 -3.2,-3.98 -4.77,-9.667 -4.77,-17.14 z m 53.58,23.512 0,-53.762 c 0,-6.098 -0.63,-11.41 -1.97,-15.809 -1.27,-4.48 -3.38,-8.062 -6.27,-11 -2.91,-2.851 -6.66,-5.031 -11.37,-6.461 -4.69,-1.359 -10.51,-2.058 -17.42,-2.058 -6.39,0 -12.09,0.879 -17.11,2.64 -5,1.797 -8.85,4.149 -11.62,6.95 -2.66,2.808 -4.03,5.687 -4.03,8.699 0,2.301 0.78,4.109 2.31,5.5 1.52,1.437 3.38,2.179 5.56,2.179 2.7,0 5.08,-1.21 7.11,-3.628 0.98,-1.211 2,-2.43 3.07,-3.704 1.09,-1.199 2.25,-2.277 3.55,-3.148 1.27,-0.898 2.84,-1.539 4.61,-1.969 1.82,-0.422 3.89,-0.652 6.23,-0.652 4.81,0 8.54,0.652 11.2,1.973 2.63,1.328 4.49,3.218 5.56,5.589 1.04,2.399 1.62,4.981 1.82,7.668 0.17,2.762 0.33,7.129 0.43,13.223 -2.85,-3.941 -6.13,-7.031 -9.88,-9.062 -3.72,-2.098 -8.15,-3.188 -13.31,-3.188 -6.17,0 -11.58,1.637 -16.23,4.797 -4.64,3.121 -8.2,7.582 -10.66,13.301 -2.5,5.691 -3.75,12.242 -3.75,19.742 0,5.488 0.78,10.5 2.27,15 1.54,4.457 3.65,8.25 6.5,11.297 2.79,3.113 6.03,5.371 9.71,6.992 3.63,1.5 7.63,2.281 12.03,2.281 5.23,0 9.78,-0.972 13.63,-3.023 3.83,-1.977 7.38,-5.129 10.7,-9.387 l 0,2.438 c 0,3.242 0.78,5.718 2.37,7.48 1.62,1.77 3.59,2.621 6.11,2.621 3.55,0 5.92,-1.16 7.13,-3.473 1.15,-2.328 1.72,-5.628 1.72,-10.046"
         style="fill:#594973;fill-opacity:1;fill-rule:nonzero;stroke:none"
         id="path52" /><path
         d="m 3443.96,399.898 0,-2.226 c 3.26,4.289 6.81,7.449 10.68,9.43 3.89,2.027 8.28,3.019 13.32,3.019 4.86,0 9.24,-1.062 13.08,-3.152 3.81,-2.149 6.68,-5.129 8.6,-9.028 1.21,-2.261 2.03,-4.722 2.36,-7.293 0.37,-2.668 0.55,-5.968 0.55,-10.046 l 0,-34.43 c 0,-3.672 -0.86,-6.492 -2.54,-8.371 -1.7,-1.93 -3.91,-2.871 -6.6,-2.871 -2.79,0 -5,0.941 -6.72,2.922 -1.72,1.937 -2.58,4.718 -2.58,8.32 l 0,30.797 c 0,6.113 -0.84,10.801 -2.56,14.051 -1.66,3.199 -5.08,4.789 -10.11,4.789 -3.31,0 -6.31,-0.938 -9.03,-2.938 -2.71,-1.891 -4.7,-4.59 -5.94,-8.019 -0.89,-2.84 -1.36,-7.981 -1.36,-15.473 l 0,-23.207 c 0,-3.742 -0.88,-6.57 -2.62,-8.41 -1.76,-1.891 -3.98,-2.832 -6.74,-2.832 -2.67,0 -4.86,0.941 -6.56,2.922 -1.74,1.937 -2.56,4.718 -2.56,8.32 l 0,53.469 c 0,3.531 0.74,6.16 2.31,7.871 1.52,1.758 3.63,2.609 6.28,2.609 1.61,0 3.09,-0.371 4.38,-1.101 1.31,-0.84 2.4,-1.989 3.14,-3.5 0.82,-1.54 1.22,-3.418 1.22,-5.622"
         style="fill:#594973;fill-opacity:1;fill-rule:nonzero;stroke:none"
         id="path54" /><path
         d="m 3526.44,378.48 33.53,0 c -0.47,6.372 -2.17,11.02 -5.12,14.192 -2.95,3.137 -6.85,4.719 -11.7,4.719 -4.59,0 -8.37,-1.582 -11.34,-4.739 -2.91,-3.222 -4.73,-7.902 -5.37,-14.172 z m 36.17,-10.488 -36.17,0 c 0.03,-4.203 0.85,-7.902 2.52,-11.101 1.64,-3.243 3.84,-5.649 6.58,-7.231 2.75,-1.668 5.76,-2.43 9.06,-2.43 2.21,0 4.24,0.211 6.05,0.731 1.84,0.508 3.58,1.391 5.36,2.449 1.68,1.07 3.28,2.289 4.68,3.578 1.49,1.242 3.34,2.973 5.65,5.121 0.95,0.789 2.32,1.262 4.08,1.262 1.89,0 3.42,-0.519 4.57,-1.539 1.21,-1.051 1.78,-2.57 1.78,-4.434 0,-1.699 -0.63,-3.636 -1.94,-5.878 -1.32,-2.258 -3.3,-4.399 -5.95,-6.43 -2.62,-2.039 -5.94,-3.738 -9.98,-5.168 -3.97,-1.313 -8.6,-1.992 -13.77,-1.992 -11.88,0 -21.1,3.422 -27.72,10.16 -6.58,6.769 -9.9,15.93 -9.9,27.582 0,5.457 0.84,10.547 2.44,15.199 1.62,4.668 4.04,8.731 7.13,12.027 3.13,3.364 6.95,5.903 11.5,7.743 4.55,1.757 9.63,2.578 15.2,2.578 7.21,0 13.44,-1.457 18.59,-4.547 5.18,-3 9.07,-6.961 11.66,-11.793 2.54,-4.809 3.83,-9.777 3.83,-14.789 0,-4.649 -1.35,-7.688 -4,-9.039 -2.64,-1.36 -6.39,-2.059 -11.25,-2.059"
         style="fill:#594973;fill-opacity:1;fill-rule:nonzero;stroke:none"
         id="path56" /><path
         d="m 3607.76,372.672 c 0,-4.992 0.8,-9.281 2.35,-12.793 1.56,-3.539 3.69,-6.16 6.4,-7.981 2.7,-1.777 5.67,-2.699 8.85,-2.699 3.26,0 6.23,0.922 8.95,2.59 2.63,1.68 4.8,4.242 6.4,7.75 1.6,3.563 2.42,7.891 2.42,13.133 0,4.949 -0.82,9.16 -2.42,12.68 -1.6,3.57 -3.77,6.308 -6.52,8.179 -2.7,1.891 -5.7,2.801 -8.95,2.801 -3.39,0 -6.4,-0.973 -9.1,-2.84 -2.65,-1.961 -4.7,-4.75 -6.15,-8.34 -1.5,-3.57 -2.23,-7.742 -2.23,-12.48 z m 36.39,-27.16 0,1.859 c -2.5,-2.891 -4.94,-5.18 -7.36,-6.949 -2.44,-1.832 -5.06,-3.152 -7.85,-4.09 -2.84,-0.91 -5.9,-1.402 -9.26,-1.402 -4.44,0 -8.54,0.941 -12.33,2.832 -3.75,1.84 -7.01,4.527 -9.78,8.039 -2.76,3.398 -4.83,7.508 -6.25,12.23 -1.45,4.688 -2.15,9.789 -2.15,15.239 0,11.582 2.83,20.589 8.48,27.05 5.68,6.461 13.12,9.672 22.3,9.672 5.33,0 9.83,-0.933 13.46,-2.73 3.69,-1.852 7.26,-4.66 10.74,-8.391 l 0,27.25 c 0,3.789 0.76,6.617 2.27,8.621 1.52,1.977 3.67,2.91 6.48,2.91 2.81,0 4.92,-0.91 6.47,-2.711 1.5,-1.769 2.26,-4.41 2.26,-7.859 l 0,-81.57 c 0,-3.532 -0.82,-6.18 -2.44,-7.953 -1.62,-1.727 -3.75,-2.629 -6.29,-2.629 -2.56,0 -4.63,0.902 -6.29,2.742 -1.64,1.797 -2.46,4.457 -2.46,7.84"
         style="fill:#594973;fill-opacity:1;fill-rule:nonzero;stroke:none"
         id="path58" /><path
         d="m 3732.86,372.141 c 0,-7.379 1.68,-13.032 5.06,-16.981 3.36,-3.961 7.73,-5.961 13.24,-5.961 4.63,0 8.63,2.043 12.01,6.071 3.4,4.089 5.08,9.859 5.08,17.402 0,4.918 -0.74,9.07 -2.11,12.617 -1.4,3.5 -3.43,6.242 -5.99,8.203 -2.54,1.867 -5.57,2.84 -8.99,2.84 -3.51,0 -6.64,-0.973 -9.41,-2.84 -2.76,-1.961 -4.94,-4.75 -6.54,-8.402 -1.55,-3.66 -2.35,-7.969 -2.35,-12.949 z m -0.88,54.941 0,-28.211 c 3.5,3.539 7.01,6.328 10.63,8.231 3.65,1.957 8.1,2.89 13.42,2.89 6.15,0 11.54,-1.461 16.17,-4.363 4.63,-2.891 8.24,-7.129 10.74,-12.719 2.6,-5.488 3.87,-12.031 3.87,-19.64 0,-5.59 -0.73,-10.731 -2.13,-15.379 -1.45,-4.672 -3.5,-8.77 -6.23,-12.161 -2.7,-3.441 -5.98,-6.128 -9.85,-7.968 -3.86,-1.891 -8.1,-2.832 -12.77,-2.832 -2.87,0 -5.51,0.351 -8.03,1.011 -2.5,0.641 -4.65,1.598 -6.42,2.707 -1.76,1.122 -3.23,2.231 -4.51,3.383 -1.22,1.199 -2.86,2.981 -4.89,5.34 l 0,-1.859 c 0,-3.481 -0.84,-6.133 -2.54,-7.953 -1.64,-1.727 -3.75,-2.629 -6.38,-2.629 -2.56,0 -4.69,0.902 -6.25,2.629 -1.55,1.82 -2.33,4.472 -2.33,7.953 l 0,80.777 c 0,3.723 0.74,6.551 2.27,8.473 1.54,1.957 3.63,2.89 6.31,2.89 2.87,0 5.07,-0.91 6.62,-2.781 1.52,-1.801 2.3,-4.441 2.3,-7.789"
         style="fill:#594973;fill-opacity:1;fill-rule:nonzero;stroke:none"
         id="path60" /><path
         d="m 3816.9,332.652 1.66,4.137 -22.75,57.281 c -1.41,3.321 -2.09,5.649 -2.09,7.192 0,1.539 0.41,3.058 1.23,4.41 0.78,1.359 1.9,2.41 3.32,3.238 1.45,0.809 2.89,1.211 4.47,1.211 2.66,0 4.65,-0.851 6,-2.48 1.37,-1.75 2.58,-4.172 3.61,-7.321 l 15.67,-45.531 14.8,42.363 c 1.19,3.438 2.29,6.11 3.19,8.047 0.93,1.903 1.99,3.231 3.04,3.93 1.06,0.652 2.54,0.992 4.51,0.992 1.37,0 2.74,-0.371 4.01,-1.101 1.31,-0.77 2.3,-1.758 2.97,-3.028 0.76,-1.273 1.07,-2.582 1.07,-3.98 -0.17,-0.84 -0.49,-2.02 -0.86,-3.641 -0.41,-1.59 -0.94,-3.23 -1.5,-4.84 l -24.14,-63.109 c -2.09,-5.594 -4.1,-9.942 -6.12,-13.082 -1.95,-3.199 -4.57,-5.559 -7.85,-7.301 -3.3,-1.648 -7.71,-2.527 -13.26,-2.527 -5.43,0 -9.49,0.597 -12.19,1.73 -2.73,1.207 -4.06,3.317 -4.06,6.449 0,2.129 0.63,3.75 1.91,4.918 1.29,1.18 3.21,1.731 5.75,1.731 0.97,0 1.95,-0.129 2.91,-0.399 1.15,-0.281 2.15,-0.371 3.04,-0.371 2.11,0 3.79,0.289 5,0.899 1.23,0.64 2.33,1.742 3.29,3.312 0.97,1.539 2.1,3.848 3.37,6.871"
         style="fill:#594973;fill-opacity:1;fill-rule:nonzero;stroke:none"
         id="path62" /><path
         d="m 4159.25,408.531 4.39,0 0,5.528 c 0,5.781 0.73,10.402 2.27,13.761 1.4,3.45 3.9,5.899 7.42,7.461 3.5,1.598 8.26,2.371 14.43,2.371 10.75,0 16.18,-2.652 16.18,-7.941 0,-1.711 -0.61,-3.172 -1.74,-4.43 -1.12,-1.222 -2.42,-1.82 -3.97,-1.82 -0.76,0 -2.01,0.129 -3.77,0.449 -1.72,0.238 -3.22,0.371 -4.43,0.371 -3.38,0 -5.51,-0.98 -6.47,-2.922 -0.93,-2.007 -1.4,-4.82 -1.4,-8.41 l 0,-4.418 4.55,0 c 7.05,0 10.57,-2.152 10.57,-6.429 0,-2.993 -0.9,-4.891 -2.82,-5.731 -1.87,-0.789 -4.43,-1.23 -7.75,-1.23 l -4.55,0 0,-48.969 c 0,-3.621 -0.88,-6.402 -2.58,-8.352 -1.78,-1.949 -4,-2.89 -6.78,-2.89 -2.61,0 -4.8,0.941 -6.56,2.89 -1.72,1.95 -2.6,4.731 -2.6,8.352 l 0,48.969 -5.1,0 c -2.75,0 -4.82,0.609 -6.32,1.918 -1.53,1.203 -2.25,2.812 -2.25,4.82 0,4.441 3.11,6.652 9.28,6.652"
         style="fill:#594973;fill-opacity:1;fill-rule:nonzero;stroke:none"
         id="path64" /><path
         d="m 4225.34,361.68 0,-15.508 c 0,-3.742 -0.88,-6.57 -2.62,-8.41 -1.79,-1.891 -4.04,-2.832 -6.75,-2.832 -2.62,0 -4.85,0.941 -6.53,2.871 -1.77,1.879 -2.61,4.699 -2.61,8.371 l 0,51.5 c 0,8.32 2.96,12.449 9,12.449 3.05,0 5.29,-0.949 6.62,-2.902 1.39,-1.918 2.13,-4.828 2.27,-8.59 2.22,3.762 4.49,6.672 6.81,8.59 2.33,1.953 5.41,2.902 9.32,2.902 3.87,0 7.64,-0.949 11.31,-2.902 3.67,-1.918 5.47,-4.508 5.47,-7.68 0,-2.328 -0.75,-4.117 -2.31,-5.66 -1.56,-1.418 -3.22,-2.137 -5.08,-2.137 -0.66,0 -2.28,0.387 -4.88,1.168 -2.6,0.91 -4.86,1.309 -6.91,1.309 -2.68,0 -4.91,-0.688 -6.62,-2.16 -1.72,-1.411 -3.01,-3.52 -4.03,-6.309 -0.93,-2.789 -1.6,-6.16 -1.97,-10.02 -0.35,-3.839 -0.49,-8.55 -0.49,-14.05"
         style="fill:#594973;fill-opacity:1;fill-rule:nonzero;stroke:none"
         id="path66" /><path
         d="m 4279.74,378.48 33.55,0 c -0.49,6.372 -2.11,11.02 -5.06,14.192 -3.02,3.137 -6.91,4.719 -11.74,4.719 -4.62,0 -8.37,-1.582 -11.38,-4.739 -2.93,-3.222 -4.71,-7.902 -5.37,-14.172 z m 36.19,-10.488 -36.19,0 c 0.09,-4.203 0.89,-7.902 2.55,-11.101 1.63,-3.243 3.81,-5.649 6.59,-7.231 2.71,-1.668 5.72,-2.43 9,-2.43 2.23,0 4.28,0.211 6.09,0.731 1.86,0.508 3.6,1.391 5.32,2.449 1.75,1.07 3.3,2.289 4.74,3.578 1.47,1.242 3.36,2.973 5.67,5.121 0.93,0.789 2.3,1.262 4.06,1.262 1.89,0 3.42,-0.519 4.55,-1.539 1.15,-1.051 1.8,-2.57 1.8,-4.434 0,-1.699 -0.65,-3.636 -1.98,-5.878 -1.34,-2.258 -3.32,-4.399 -5.87,-6.43 -2.66,-2.039 -6.02,-3.738 -10.02,-5.168 -4.01,-1.313 -8.62,-1.992 -13.77,-1.992 -11.94,0 -21.16,3.422 -27.74,10.16 -6.6,6.769 -9.88,15.93 -9.88,27.582 0,5.457 0.8,10.547 2.46,15.199 1.58,4.668 3.97,8.731 7.09,12.027 3.11,3.364 6.95,5.903 11.54,7.743 4.52,1.757 9.59,2.578 15.2,2.578 7.21,0 13.34,-1.457 18.53,-4.547 5.2,-3 9.09,-6.961 11.66,-11.793 2.56,-4.809 3.89,-9.777 3.89,-14.789 0,-4.649 -1.33,-7.688 -4.04,-9.039 -2.7,-1.36 -6.37,-2.059 -11.25,-2.059"
         style="fill:#594973;fill-opacity:1;fill-rule:nonzero;stroke:none"
         id="path68" /><path
         d="m 4362.2,378.48 33.53,0 c -0.45,6.372 -2.15,11.02 -5.1,14.192 -2.94,3.137 -6.81,4.719 -11.66,4.719 -4.62,0 -8.37,-1.582 -11.36,-4.739 -2.91,-3.222 -4.79,-7.902 -5.41,-14.172 z m 36.21,-10.488 -36.21,0 c 0.08,-4.203 0.92,-7.902 2.56,-11.101 1.64,-3.243 3.86,-5.649 6.56,-7.231 2.75,-1.668 5.78,-2.43 9.06,-2.43 2.21,0 4.18,0.211 6.04,0.731 1.83,0.508 3.67,1.391 5.31,2.449 1.72,1.07 3.3,2.289 4.76,3.578 1.45,1.242 3.38,2.973 5.65,5.121 0.96,0.789 2.28,1.262 4.06,1.262 1.9,0 3.46,-0.519 4.61,-1.539 1.15,-1.051 1.74,-2.57 1.74,-4.434 0,-1.699 -0.65,-3.636 -1.92,-5.878 -1.32,-2.258 -3.32,-4.399 -5.97,-6.43 -2.62,-2.039 -5.96,-3.738 -9.94,-5.168 -4.01,-1.313 -8.62,-1.992 -13.79,-1.992 -11.86,0 -21.12,3.422 -27.72,10.16 -6.6,6.769 -9.88,15.93 -9.88,27.582 0,5.457 0.82,10.547 2.4,15.199 1.64,4.668 4.01,8.731 7.13,12.027 3.13,3.364 6.95,5.903 11.54,7.743 4.57,1.757 9.61,2.578 15.16,2.578 7.21,0 13.44,-1.457 18.63,-4.547 5.14,-3 9.03,-6.961 11.62,-11.793 2.58,-4.809 3.83,-9.777 3.83,-14.789 0,-4.649 -1.31,-7.688 -3.98,-9.039 -2.68,-1.36 -6.39,-2.059 -11.25,-2.059"
         style="fill:#594973;fill-opacity:1;fill-rule:nonzero;stroke:none"
         id="path70" /><path
         d="m 4480.75,372.859 c 0,4.903 -0.74,9.102 -2.24,12.563 -1.51,3.539 -3.56,6.238 -6.18,8.109 -2.63,1.891 -5.56,2.801 -8.8,2.801 -5.06,0 -9.38,-2.012 -12.91,-6.102 -3.48,-3.98 -5.28,-9.921 -5.28,-17.699 0,-7.32 1.76,-13.07 5.28,-17.16 3.43,-4.129 7.75,-6.172 12.91,-6.172 3.12,0 5.91,0.922 8.51,2.699 2.66,1.821 4.75,4.442 6.33,8 1.56,3.641 2.38,7.922 2.38,12.961 z m -36.27,26.86 0,-2.137 c 3.54,4.258 7.13,7.41 10.86,9.387 3.75,2.051 7.99,3.023 12.76,3.023 5.66,0 10.89,-1.461 15.7,-4.371 4.78,-2.949 8.55,-7.25 11.37,-12.883 2.75,-5.597 4.14,-12.297 4.14,-20.066 0,-5.672 -0.82,-10.883 -2.43,-15.672 -1.58,-4.77 -3.78,-8.77 -6.6,-11.988 -2.79,-3.231 -6.07,-5.731 -9.88,-7.473 -3.81,-1.738 -7.93,-2.609 -12.3,-2.609 -5.32,0 -9.75,1.09 -13.32,3.191 -3.64,2.117 -7.06,5.238 -10.3,9.32 l 0,-27.742 c 0,-8.109 -3.01,-12.187 -8.83,-12.187 -3.53,0 -5.82,1.047 -6.97,3.117 -1.13,2.121 -1.66,5.211 -1.66,9.199 l 0,79.813 c 0,3.531 0.76,6.16 2.29,7.871 1.52,1.758 3.63,2.609 6.34,2.609 2.6,0 4.71,-0.851 6.35,-2.672 1.68,-1.777 2.48,-4.34 2.48,-7.73"
         style="fill:#594973;fill-opacity:1;fill-rule:nonzero;stroke:none"
         id="path72" /><path
         d="m 4532.67,399.641 0,-53.469 c 0,-3.672 -0.9,-6.492 -2.68,-8.371 -1.74,-1.93 -3.93,-2.871 -6.7,-2.871 -2.71,0 -4.9,0.941 -6.58,2.922 -1.68,1.937 -2.56,4.718 -2.56,8.32 l 0,52.91 c 0,3.656 0.88,6.438 2.56,8.219 1.68,1.91 3.87,2.82 6.58,2.82 2.77,0 4.96,-0.91 6.7,-2.82 1.78,-1.781 2.68,-4.332 2.68,-7.66 z m -9.11,19.058 c -2.63,0 -4.86,0.86 -6.66,2.371 -1.79,1.621 -2.75,3.84 -2.75,6.731 0,2.629 0.96,4.828 2.85,6.5 1.82,1.668 4.03,2.539 6.56,2.539 2.35,0 4.48,-0.789 6.33,-2.301 1.84,-1.57 2.78,-3.82 2.78,-6.738 0,-2.84 -0.9,-5.063 -2.74,-6.692 -1.8,-1.55 -3.96,-2.41 -6.37,-2.41"
         style="fill:#594973;fill-opacity:1;fill-rule:nonzero;stroke:none"
         id="path74" /><path
         d="m 4597.84,343.402 -16.35,26.836 -10.03,-9.508 0,-14.691 c 0,-3.539 -0.88,-6.269 -2.74,-8.219 -1.93,-1.949 -4.12,-2.89 -6.48,-2.89 -2.89,0 -5.08,0.941 -6.7,2.871 -1.7,1.879 -2.46,4.699 -2.46,8.371 l 0,78.848 c 0,4.121 0.74,7.261 2.3,9.378 1.64,2.161 3.91,3.254 6.86,3.254 2.83,0 5.07,-0.933 6.75,-2.91 1.66,-2.004 2.47,-4.832 2.47,-8.621 l 0,-44.851 20.83,21.839 c 2.6,2.692 4.54,4.571 5.86,5.52 1.37,1.023 3.03,1.492 4.97,1.492 2.32,0 4.21,-0.691 5.8,-2.223 1.5,-1.449 2.28,-3.277 2.28,-5.507 0,-2.711 -2.52,-6.313 -7.52,-10.821 l -9.86,-9 18.98,-29.832 c 1.45,-2.218 2.44,-3.886 3.05,-5.027 0.57,-1.129 0.9,-2.27 0.9,-3.27 0,-2.961 -0.78,-5.25 -2.38,-6.992 -1.63,-1.648 -3.79,-2.519 -6.37,-2.519 -2.27,0 -3.97,0.64 -5.24,1.859 -1.19,1.191 -2.83,3.422 -4.92,6.613"
         style="fill:#594973;fill-opacity:1;fill-rule:nonzero;stroke:none"
         id="path76" /><path
         d="m 4643.58,334.93 c -2.79,0 -5.21,0.902 -7.22,2.742 -2.05,1.777 -3.13,4.308 -3.13,7.558 0,2.762 1.02,5.141 2.97,7.11 1.95,1.992 4.4,3 7.19,3 2.83,0 5.27,-1.008 7.28,-2.961 2.02,-1.969 3.03,-4.316 3.03,-7.149 0,-3.199 -1.01,-5.761 -3.03,-7.558 -2.01,-1.84 -4.35,-2.742 -7.09,-2.742"
         style="fill:#594973;fill-opacity:1;fill-rule:nonzero;stroke:none"
         id="path78" /><path
         d="m 4741.12,357.84 c 0,-2.289 -0.68,-4.738 -2.09,-7.36 -1.36,-2.691 -3.47,-5.148 -6.27,-7.519 -2.83,-2.359 -6.42,-4.289 -10.68,-5.691 -4.3,-1.469 -9.18,-2.188 -14.51,-2.188 -11.43,0 -20.35,3.328 -26.76,10 -6.41,6.648 -9.63,15.559 -9.63,26.777 0,7.59 1.47,14.321 4.4,20.11 2.91,5.84 7.2,10.34 12.77,13.511 5.57,3.18 12.17,4.739 19.9,4.739 4.77,0 9.16,-0.668 13.17,-2.09 4.02,-1.348 7.4,-3.137 10.19,-5.391 2.77,-2.175 4.88,-4.547 6.35,-7.058 1.48,-2.551 2.21,-4.848 2.21,-7.039 0,-2.239 -0.82,-4.102 -2.5,-5.602 -1.64,-1.551 -3.64,-2.301 -5.98,-2.301 -1.54,0 -2.85,0.41 -3.83,1.16 -1.05,0.801 -2.15,2.063 -3.42,3.852 -2.22,3.43 -4.61,6.031 -7.09,7.742 -2.46,1.688 -5.6,2.547 -9.37,2.547 -5.43,0 -9.85,-2.16 -13.22,-6.398 -3.32,-4.289 -5.02,-10.102 -5.02,-17.5 0,-3.5 0.43,-6.692 1.32,-9.602 0.81,-2.887 2.09,-5.367 3.7,-7.488 1.6,-1.988 3.61,-3.602 5.87,-4.641 2.31,-1.058 4.89,-1.578 7.62,-1.578 3.67,0 6.88,0.887 9.53,2.539 2.62,1.801 4.96,4.34 7,7.899 1.15,2.07 2.36,3.699 3.65,4.812 1.33,1.227 2.91,1.789 4.8,1.789 2.31,0 4.12,-0.801 5.65,-2.539 1.46,-1.762 2.24,-3.551 2.24,-5.492"
         style="fill:#594973;fill-opacity:1;fill-rule:nonzero;stroke:none"
         id="path80" /><path
         d="m 4807.94,372.531 c 0,7.551 -1.7,13.41 -5,17.629 -3.3,4.18 -7.73,6.301 -13.4,6.301 -3.57,0 -6.76,-0.91 -9.55,-2.789 -2.73,-1.891 -4.86,-4.692 -6.37,-8.32 -1.48,-3.661 -2.22,-7.942 -2.22,-12.821 0,-4.832 0.74,-9.051 2.22,-12.652 1.45,-3.629 3.58,-6.34 6.29,-8.289 2.74,-1.93 5.96,-2.828 9.63,-2.828 5.67,0 10.1,2.027 13.4,6.238 3.3,4.27 5,10.129 5,17.531 z m 18.53,0 c 0,-5.461 -0.78,-10.562 -2.53,-15.203 -1.72,-4.687 -4.22,-8.687 -7.48,-11.996 -3.25,-3.352 -7.09,-5.953 -11.65,-7.773 -4.53,-1.727 -9.6,-2.629 -15.27,-2.629 -5.53,0 -10.6,0.902 -15.08,2.742 -4.43,1.777 -8.38,4.359 -11.66,7.687 -3.2,3.43 -5.76,7.379 -7.42,11.969 -1.66,4.563 -2.54,9.672 -2.54,15.203 0,5.598 0.88,10.688 2.64,15.43 1.66,4.578 4.12,8.598 7.28,11.879 3.25,3.308 7.15,5.832 11.7,7.609 4.57,1.821 9.57,2.672 15.08,2.672 5.67,0 10.7,-0.91 15.27,-2.711 4.57,-1.781 8.46,-4.347 11.72,-7.73 3.28,-3.321 5.71,-7.282 7.41,-11.91 1.75,-4.622 2.53,-9.7 2.53,-15.239"
         style="fill:#594973;fill-opacity:1;fill-rule:nonzero;stroke:none"
         id="path82" /><path
         d="m 4902.61,371.211 0,-24.621 c 0,-3.891 -0.88,-6.801 -2.62,-8.738 -1.8,-1.981 -4.12,-2.922 -7.01,-2.922 -2.79,0 -5.06,0.941 -6.82,2.922 -1.74,1.937 -2.63,4.847 -2.63,8.738 l 0,29.449 c 0,4.699 -0.14,8.242 -0.43,10.871 -0.32,2.559 -1.18,4.699 -2.6,6.309 -1.39,1.679 -3.6,2.461 -6.64,2.461 -6.02,0 -10.04,-2.051 -11.94,-6.211 -1.91,-4.16 -2.89,-10.117 -2.89,-17.86 l 0,-25.019 c 0,-3.852 -0.86,-6.731 -2.61,-8.699 -1.74,-1.95 -4.05,-2.961 -6.88,-2.961 -2.77,0 -5.06,1.011 -6.89,2.961 -1.78,1.968 -2.66,4.847 -2.66,8.699 l 0,52.949 c 0,3.43 0.76,6.09 2.38,7.871 1.64,1.801 3.75,2.711 6.33,2.711 2.58,0 4.69,-0.851 6.33,-2.48 1.76,-1.75 2.58,-4.11 2.58,-7.051 l 0,-1.719 c 3.2,3.801 6.64,6.609 10.31,8.41 3.63,1.778 7.73,2.711 12.17,2.711 4.69,0 8.67,-0.933 11.99,-2.773 3.38,-1.848 6.11,-4.66 8.28,-8.348 3.11,3.731 6.49,6.539 10.06,8.391 3.54,1.797 7.5,2.73 11.84,2.73 5.05,0 9.43,-0.972 13.08,-2.961 3.67,-2.039 6.37,-4.859 8.19,-8.531 1.62,-3.359 2.38,-8.609 2.38,-15.801 l 0,-36.109 c 0,-3.891 -0.92,-6.801 -2.68,-8.738 -1.72,-1.981 -4.02,-2.922 -6.93,-2.922 -2.77,0 -5.12,1.011 -6.86,2.961 -1.83,1.968 -2.71,4.847 -2.71,8.699 l 0,31.121 c 0,3.937 -0.14,7.141 -0.51,9.559 -0.39,2.371 -1.25,4.39 -2.71,5.992 -1.53,1.636 -3.77,2.418 -6.8,2.418 -2.46,0 -4.73,-0.731 -6.93,-2.149 -2.17,-1.402 -3.95,-3.371 -5.16,-5.859 -1.35,-3.07 -2.01,-8.582 -2.01,-16.461"
         style="fill:#594973;fill-opacity:1;fill-rule:nonzero;stroke:none"
         id="path84" /><path
         d="m 4013.45,457.82 c -0.35,1.16 -0.73,2.379 -1.12,3.539 6.16,0.571 10.36,8.039 7.35,13.551 -2.8,6.211 -12.39,6.969 -16.08,1.281 -3.94,-5.062 -0.86,-13.019 5.18,-14.64 0.41,-1.242 0.72,-2.571 1.11,-3.821 -9.29,-0.66 -18.79,-2.71 -26.64,-8.011 0.82,-2.199 1.62,-4.559 2.42,-6.809 15.8,6.91 33.44,5.43 50.08,3.762 0.59,2.187 1.13,4.387 1.68,6.59 -7.54,3.359 -15.78,4.609 -23.98,4.558"
         style="fill:#594973;fill-opacity:1;fill-rule:nonzero;stroke:none"
         id="path86" /><path
         d="m 4107.24,432.379 c -2.48,-1.25 -2.95,-4.289 -2.84,-6.797 -2.77,-2.684 -1.44,-6.793 -1.73,-10.133 -0.63,-1.91 -2.89,-2.14 -4.48,-2.867 -2.18,3.367 -4.49,6.539 -7.46,9.27 l 0.06,0.148 c -3.2,2.961 -6.64,5.672 -10.25,8.039 -2.89,-3.109 -5.96,-6.199 -8.75,-9.418 5.52,-6.101 10.66,-12.723 15.19,-19.582 3.15,-5.25 5.63,-10.84 7.83,-16.559 4.67,2.43 9.32,4.942 14.01,7.391 -2.48,5.711 -5.29,11.301 -8.3,16.758 2.05,1.121 4.86,2.191 5.15,4.91 0.24,3 -0.39,6.242 1.35,8.859 3.65,-2.328 9.16,0.293 9.2,4.684 0.49,4.609 -5.23,7.859 -8.98,5.297"
         style="fill:#594973;fill-opacity:1;fill-rule:nonzero;stroke:none"
         id="path88" /><path
         d="m 4070.5,394.461 c -1.13,-7.648 -8.42,-14.07 -16.21,-13.582 -4.51,-0.387 -8.85,1.73 -11.92,4.93 -2.2,2.73 -4,5.851 -4.31,9.48 -1.06,7.711 4.39,15.711 11.97,17.543 3.32,0.938 6.84,0.418 10.14,-0.383 7.09,-2.488 11.75,-10.57 10.33,-17.988 z m -68.54,-16.129 c -3.06,-4.422 -7.48,-7.863 -12.52,-9.793 -9.53,-3.547 -21.07,-1.109 -27.93,6.453 -4.76,5.246 -7.59,12.297 -7.09,19.469 0.39,8.91 5.9,17.23 13.73,21.391 5.94,3.199 13.13,3.777 19.67,1.949 2.72,-0.66 5.2,-1.949 7.54,-3.488 4.85,-3.403 8.42,-8.434 10.06,-14.141 2.23,-7.301 0.78,-15.492 -3.46,-21.84 z m 79.91,20.039 c -6.1,10.141 -12.7,20.219 -21.7,28 -10.34,9.141 -23.83,15.309 -37.84,15.238 -17.67,0.161 -35.58,-2.64 -51.85,-9.73 -15.33,-6.727 -28.69,-18.797 -35.43,-34.297 -6.52,-13.934 -6.41,-30.031 -3.48,-44.883 16.25,-4.058 32.8,-7.668 49.53,-8.429 16.59,-0.52 33.21,-0.911 49.67,1.351 22.58,3.02 44.73,10.117 64.45,21.68 0,0 -2.75,14.859 -13.35,31.07"
         style="fill:#594973;fill-opacity:1;fill-rule:nonzero;stroke:none"
         id="path90" /><path
         d="m 3935.24,420.992 c -6.6,-3.98 -12.03,-9.613 -16.58,-15.793 -1.33,2.481 -1.72,5.391 -3.44,7.59 -0.97,1.293 -2.75,0.75 -4.1,0.75 -1.77,-0.137 -3.47,0.332 -5.13,0.82 1.95,2.7 1.42,6.883 -1.53,8.692 -3.16,2.23 -8.06,0.289 -8.92,-3.492 -1.31,-4.11 3.06,-8.258 7.11,-7.168 2.16,-3.18 6.05,-2.672 9.35,-2.762 1.47,-2.598 2.62,-5.41 4.53,-7.75 -3.55,-6.981 -5.56,-14.797 -5.74,-22.617 4.57,-1.922 9.14,-3.852 13.69,-5.762 0.22,4.98 0.82,9.879 1.55,14.691 1.52,10.68 7.65,19.872 14.94,27.45 -1.8,1.91 -3.83,3.558 -5.73,5.351"
         style="fill:#594973;fill-opacity:1;fill-rule:nonzero;stroke:none"
         id="path92" /><path
         d="m 4041.57,341.012 c -16.78,-3.672 -34.06,-4.75 -51.19,-4 -11.58,0.547 -23.18,1.66 -34.47,4.168 -8.03,1.629 -15.9,3.972 -23.83,6.23 1.29,-10.07 5.37,-19.711 11.19,-28.039 6.88,-9.652 16.08,-18.492 27.5,-22.082 8.91,-2.437 19.53,-5.457 37.89,-5.137 15.16,0.227 30.04,2.161 43.32,7.86 8.58,3.66 16.58,8.668 23.52,14.968 5.96,5.629 10.64,12.649 13.85,20.141 3.12,7.141 5.95,19.879 5.66,26.449 -16.43,-9.34 -34.73,-17.449 -53.44,-20.558"
         style="fill:#594973;fill-opacity:1;fill-rule:nonzero;stroke:none"
         id="path94" /><path
         d="m 1025.07,0 1295.92,0 0,1442.83 -1295.92,0 0,-1442.83 z"
         style="fill:#594973;fill-opacity:1;fill-rule:nonzero;stroke:none"
         id="path96" /><path
         d="m 3223.45,4822.46 -127.7,0 0,259.12 -181.41,0 0,233.78 -63.94,0 0,-233.78 -181.41,0 0,-259.12 -96.31,0 -223.16,149.58 0,129.48 -682.17,0 0,-457.22 -664.48,474.91 0,-2246.55 664.48,-17.7 1171.15,0 0,18.56 384.95,0 0,1948.94"
         style="fill:#75536c;fill-opacity:1;fill-rule:nonzero;stroke:none"
         id="path98" /><path
         d="m 2038.03,1265 c 0,-35.9 -29.1,-65 -65,-65 l -600,0 c -35.9,0 -65,29.1 -65,65 0,35.9 29.1,65 65,65 l 600,0 c 35.9,0 65,-29.1 65,-65"
         style="fill:#efdab1;fill-opacity:1;fill-rule:nonzero;stroke:none"
         id="path100" /><path
         d="m 7037.67,4950.47 c 0,287.3 -232.9,520.2 -520.2,520.2 -287.29,0 -520.19,-232.9 -520.19,-520.2 0,-287.29 232.9,-520.19 520.19,-520.19 287.3,0 520.2,232.9 520.2,520.19"
         style="fill:#2f0c1f;fill-opacity:1;fill-rule:nonzero;stroke:none"
         id="path102" /><path
         d="m 6616.88,5359.54 0,0 c -6.27,1.52 -12.59,2.91 -18.97,4.15 -1.44,0.28 -2.89,0.5 -4.33,0.77 -4.92,0.9 -9.83,1.78 -14.8,2.5 -3.82,0.57 -7.66,1 -11.49,1.46 -2.62,0.32 -5.23,0.69 -7.89,0.95 -121.49,12.32 -247.33,-28 -340.42,-121.09 -164.39,-164.41 -164.39,-430.95 0.01,-595.36 l 0.36,0.36 c 76.22,-76.45 181.64,-123.78 298.12,-123.78 232.5,0 420.97,188.48 420.97,420.97 0,198.24 -137.05,364.37 -321.56,409.07"
         style="fill:#ffffff;fill-opacity:1;fill-rule:nonzero;stroke:none"
         id="path104" /><path
         d="m 6552.69,4950.47 c 0,19.47 -15.77,35.23 -35.22,35.23 -19.45,0 -35.21,-15.76 -35.21,-35.23 0,-19.44 15.76,-35.21 35.21,-35.21 19.45,0 35.22,15.77 35.22,35.21"
         style="fill:#941f4c;fill-opacity:1;fill-rule:nonzero;stroke:none"
         id="path106" /><path
         d="m 6532.53,4935.41 c -8.32,0 -15.07,6.75 -15.07,15.06 0,8.32 6.75,15.07 15.07,15.07 l 276.59,0 c 8.31,0 15.07,-6.75 15.07,-15.07 0,-8.31 -6.76,-15.06 -15.07,-15.06 l -276.59,0"
         style="fill:#941f4c;fill-opacity:1;fill-rule:nonzero;stroke:none"
         id="path108" /><path
         d="m 6496.16,4950.49 c 5.88,5.87 15.42,5.87 21.3,-0.02 5.89,-5.88 5.89,-15.4 0,-21.29 l -175.35,-175.35 c -5.87,-5.88 -15.41,-5.88 -21.3,0 -5.88,5.89 -5.88,15.42 0,21.31 l 175.35,175.35"
         style="fill:#941f4c;fill-opacity:1;fill-rule:nonzero;stroke:none"
         id="path110" /><path
         d="m 5993.09,7329.13 -193.46,0 0,-950.46 386.89,0 0,950.46 -193.43,0"
         style="fill:#594973;fill-opacity:1;fill-rule:nonzero;stroke:none"
         id="path114" /><path
         d="m 6186.52,6378.67 193.449,0 0,1022.27 -193.449,0 0,-1022.27 z"
         style="fill:#ffffff;fill-opacity:1;fill-rule:nonzero;stroke:none"
         id="path116" /><path
         d="m 6379.97,6378.67 232.742,0 0,950.453 -232.742,0 0,-950.453 z"
         style="fill:#efdab1;fill-opacity:1;fill-rule:nonzero;stroke:none"
         id="path118" /><path
         d="m 6612.71,6378.67 193.449,0 0,876.469 -193.449,0 0,-876.469 z"
         style="fill:#594973;fill-opacity:1;fill-rule:nonzero;stroke:none"
         id="path120" /><path
         d="m 6806.16,6378.67 154.148,0 0,1022.27 -154.148,0 0,-1022.27 z"
         style="fill:#ffffff;fill-opacity:1;fill-rule:nonzero;stroke:none"
         id="path122" /><path
         d="m 6960.31,6378.67 193.453,0 0,820.395 -193.453,0 0,-820.395 z"
         style="fill:#efdab1;fill-opacity:1;fill-rule:nonzero;stroke:none"
         id="path124" /><path
         d="m 7153.76,6378.67 96.7305,0 0,1078.34 -96.7305,0 0,-1078.34 z"
         style="fill:#941f4c;fill-opacity:1;fill-rule:nonzero;stroke:none"
         id="path126" /><path
         d="m 7253.17,6378.67 287.477,0 0,950.453 -287.477,0 0,-950.453 z"
         style="fill:#ffffff;fill-opacity:1;fill-rule:nonzero;stroke:none"
         id="path128" /><path
         d="m 7734.1,7114.96 -193.45,0 0,-736.29 386.9,0 0,736.29 -193.45,0"
         style="fill:#594973;fill-opacity:1;fill-rule:nonzero;stroke:none"
         id="path130" /><path
         d="m 7927.55,6378.67 193.449,0 0,950.453 -193.449,0 0,-950.453 z"
         style="fill:#941f4c;fill-opacity:1;fill-rule:nonzero;stroke:none"
         id="path132" /><path
         d="m 5389.82,6031.86 3097.24,0 0,357.172 -3097.24,0 0,-357.172 z"
         style="fill:#2f0c1f;fill-opacity:1;fill-rule:nonzero;stroke:none"
         id="path134" /><path
         d="m 952.781,4734.02 2917.22,0 0,236.281 -2917.22,0 0,-236.281 z"
         style="fill:#ffffff;fill-opacity:1;fill-rule:nonzero;stroke:none"
         id="path136" /><path
         d="m 725.352,2520.64 3312.08,0 0,352.879 -3312.08,0 0,-352.879 z"
         style="fill:#ffffff;fill-opacity:1;fill-rule:nonzero;stroke:none"
         id="path138" /><path
         d="m 2960.61,6236.43 c -25.96,0 -49.57,-9.83 -67.52,-25.85 -26.97,50.01 -79.81,84 -140.62,84 -33.42,0 -64.41,-10.3 -90.06,-27.85 -44.64,73.66 -125.56,122.88 -217.98,122.88 -82.32,0 -155.46,-39.08 -202.03,-99.65 -12.06,2.91 -24.59,4.62 -37.54,4.62 -88.19,0 -159.7,-71.5 -159.7,-159.7 l 1017,0 c 0,56.08 -45.47,101.55 -101.55,101.55"
         style="fill:#ffffff;fill-opacity:1;fill-rule:nonzero;stroke:none"
         id="path140" /><path
         d="m 2267.12,5409.44 c -25.96,0 -49.57,-9.82 -67.52,-25.85 -26.98,50 -79.82,84 -140.63,84 -33.41,0 -64.41,-10.29 -90.05,-27.84 -44.65,73.65 -125.57,122.88 -217.99,122.88 -82.31,0 -155.46,-39.08 -202.03,-99.66 -12.06,2.92 -24.58,4.62 -37.54,4.62 -88.19,0 -159.7,-71.5 -159.7,-159.69 l 1017,0 c 0,56.07 -45.46,101.54 -101.54,101.54"
         style="fill:#ffffff;fill-opacity:1;fill-rule:nonzero;stroke:none"
         id="path142" /><path
         d="m 1002.87,2977.1 -0.09,0 0,1756.92 0.09,0 0,-1756.92 m 2220.58,1408.25 0,348.67 536.55,0 0,-340.31 -478.43,0 c -20.18,0 -39.69,-2.92 -58.12,-8.36 m -1556.1,258.95 -125.53,89.72 125.53,0 0,-89.72"
         style="fill:#bbdabc;fill-opacity:1;fill-rule:nonzero;stroke:none"
         id="path144" /><path
         d="m 3076.5,2977.1 -2073.63,0 0,1756.92 538.95,0 125.53,-89.72 0,89.72 1556.1,0 0,-348.67 C 3138.5,4360.29 3076.5,4281.7 3076.5,4188.61 l 0,-1211.51"
         style="fill:#87717f;fill-opacity:1;fill-rule:nonzero;stroke:none"
         id="path146" /><path
         d="m 851.055,2689.83 3060.68,0 0,290.184 -3060.68,0 0,-290.184 z"
         style="fill:#ffffff;fill-opacity:1;fill-rule:nonzero;stroke:none"
         id="path148" /><path
         d="m 1689.2,1782.1 c 0,-70.43 -57.09,-127.51 -127.51,-127.51 l -687.104,0 c -70.41,0 -127.5,57.08 -127.5,127.51 l 0,77.91 c 0,70.43 57.09,127.5 127.5,127.5 l 687.104,0 c 70.42,0 127.51,-57.07 127.51,-127.5 l 0,-77.91"
         style="fill:#941f4c;fill-opacity:1;fill-rule:nonzero;stroke:none"
         id="path150" /><path
         d="m 2650.65,3270.19 c 0,87.1 -70.62,157.72 -157.72,157.72 -87.11,0 -157.72,-70.62 -157.72,-157.72 0,-87.1 70.61,-157.73 157.72,-157.73 87.1,0 157.72,70.63 157.72,157.73"
         style="fill:#594973;fill-opacity:1;fill-rule:nonzero;stroke:none"
         id="path152" /><path
         d="m 684.543,3004.18 403.077,-990.65 c 24.27,-59.62 92.51,-88.38 152.13,-64.13 59.61,24.26 88.38,92.5 64.12,152.12 L 900.777,3092.17 684.543,3004.18 z M 1269.26,1876.87 c -99.62,-40.54 -213.63,7.54 -254.17,107.15 L 597.246,3010.94 c -8.148,20.03 1.477,42.87 21.504,51.01 l 288.789,117.51 c 20.024,8.15 42.871,-1.48 51.02,-21.51 L 1376.41,2131.03 c 40.52,-99.6 -7.54,-213.63 -107.15,-254.16"
         style="fill:#941f4c;fill-opacity:1;fill-rule:nonzero;stroke:none"
         id="path154" /><path
         d="m 770.367,2787.2 992.113,399.48 c 59.71,24.04 88.72,92.18 64.68,151.88 -24.04,59.7 -92.18,88.73 -151.88,64.68 L 683.168,3003.76 770.367,2787.2 z M 1791.73,3114.03 763.297,2699.92 c -20.055,-8.07 -42.871,1.64 -50.949,21.71 l -116.45,289.19 c -8.082,20.07 1.641,42.87 21.696,50.95 l 1028.436,414.11 c 99.76,40.17 213.6,-8.31 253.76,-108.08 40.18,-99.74 -8.31,-213.58 -108.06,-253.77"
         style="fill:#941f4c;fill-opacity:1;fill-rule:nonzero;stroke:none"
         id="path156" /><path
         d="m 2284.05,3771.48 -228.5,228.52 -289.17,-289.18 226.08,-226.07 210.3,-504.74 290.17,290.18 2.26,2.25 290.16,290.18 -501.3,208.86"
         style="fill:#941f4c;fill-opacity:1;fill-rule:nonzero;stroke:none"
         id="path158" /><path
         d="m 1819.61,3420.82 54.14,-62.63 236.24,95.13 -49.02,64.69 -241.36,-97.19"
         style="fill:#941f4c;fill-opacity:1;fill-rule:nonzero;stroke:none"
         id="path160" /><path
         d="m 1141.23,2980.01 c 0,160.26 -129.92,290.18 -290.175,290.18 -160.258,0 -290.176,-129.92 -290.176,-290.18 0,-160.26 129.918,-290.18 290.176,-290.18 160.255,0 290.175,129.92 290.175,290.18"
         style="fill:#efdab1;fill-opacity:1;fill-rule:nonzero;stroke:none"
         id="path162" /><path
         d="m 1048.3,2980.01 c 0,108.94 -88.312,197.25 -197.245,197.25 -108.938,0 -197.246,-88.31 -197.246,-197.25 0,-108.94 88.308,-197.25 197.246,-197.25 108.933,0 197.245,88.31 197.245,197.25"
         style="fill:#941f4c;fill-opacity:1;fill-rule:nonzero;stroke:none"
         id="path164" /><path
         d="m -126.074,1812.83 0,-370 741.777,0 0,-1935.658 409.367,0 0,1935.658 1295.92,0 0,-1935.658 374.98,0 0,1935.658 4278.96,0 0,-1935.658 409.37,0 0,1935.658 741.77,0 0,370 -8252.144,0"
         style="fill:#2f0c1f;fill-opacity:1;fill-rule:nonzero;stroke:none"
         id="path166" /><path
         d="m 2109.99,4970.3 540.66,0 0,189.699 -540.66,0 0,-189.699 z"
         style="fill:#ffffff;fill-opacity:1;fill-rule:nonzero;stroke:none"
         id="path168" /><path
         d="m 1002.78,6376.26 0,171.85 617.71,179.1 592.69,0 -1210.4,-350.95"
         style="fill:#bbdabc;fill-opacity:1;fill-rule:nonzero;stroke:none"
         id="path170" /><path
         d="m 1002.78,6694 0,33.21 114.53,0 -114.53,-33.21"
         style="fill:#bbdabc;fill-opacity:1;fill-rule:nonzero;stroke:none"
         id="path172" /><path
         d="m 1002.78,6230.37 0,145.89 1210.4,350.95 503.18,0 -1713.58,-496.84"
         style="fill:#c9e0c7;fill-opacity:1;fill-rule:nonzero;stroke:none"
         id="path174" /><path
         d="m 1002.78,6548.11 0,145.89 114.53,33.21 503.18,0 -617.71,-179.1"
         style="fill:#c9e0c7;fill-opacity:1;fill-rule:nonzero;stroke:none"
         id="path176" /><path
         d="m 1002.78,5527.38 0,702.99 1713.58,496.84 1043.64,0 0,-366.69 -698.86,-211.17 c -7.03,49.23 -49.36,87.08 -100.53,87.08 -25.96,0 -49.57,-9.83 -67.52,-25.85 -26.97,50.01 -79.81,84 -140.62,84 -33.42,0 -64.41,-10.3 -90.06,-27.85 -44.64,73.66 -125.56,122.88 -217.98,122.88 -82.32,0 -155.46,-39.08 -202.03,-99.65 -12.06,2.91 -24.59,4.62 -37.54,4.62 -88.19,0 -159.7,-71.5 -159.7,-159.7 l 968.1,0 -2010.48,-607.5"
         style="fill:#bbdabc;fill-opacity:1;fill-rule:nonzero;stroke:none"
         id="path178" /><path
         d="m 3013.26,6134.88 -968.1,0 c 0,88.2 71.51,159.7 159.7,159.7 12.95,0 25.48,-1.71 37.54,-4.62 46.57,60.57 119.71,99.65 202.03,99.65 92.42,0 173.34,-49.22 217.98,-122.88 25.65,17.55 56.64,27.85 90.06,27.85 60.81,0 113.65,-33.99 140.62,-84 17.95,16.02 41.56,25.85 67.52,25.85 51.17,0 93.5,-37.85 100.53,-87.08 l -47.88,-14.47"
         style="fill:#edf4eb;fill-opacity:1;fill-rule:nonzero;stroke:none"
         id="path180" /><path
         d="m 3760,4970.3 -664.25,0 0,111.28 -181.41,0 0,233.78 -63.94,0 0,-233.78 -181.41,0 0,-111.28 -18.34,0 0,189.7 -540.66,0 0,-58.48 -442.64,0 0,-131.22 -456.12,0 -208.36,148.91 0,-148.91 -0.09,0 0,214.59 407.11,123.01 958.77,0 c 0,56.07 -45.46,101.54 -101.54,101.54 -25.96,0 -49.57,-9.82 -67.52,-25.85 -26.98,50 -79.82,84 -140.63,84 -33.41,0 -64.41,-10.29 -90.05,-27.84 -6.5,10.71 -13.76,20.91 -21.71,30.51 L 3760,6018.02 3760,4970.3"
         style="fill:#bbdabc;fill-opacity:1;fill-rule:nonzero;stroke:none"
         id="path182" /><path
         d="m 3095.75,4970.3 -426.76,0 0,111.28 181.41,0 0,233.78 63.94,0 0,-233.78 181.41,0 0,-111.28 m -985.76,0 -442.64,0 0,131.22 442.64,0 0,-131.22 m -898.76,0 -208.36,0 0,148.91 208.36,-148.91"
         style="fill:#87717f;fill-opacity:1;fill-rule:nonzero;stroke:none"
         id="path184" /><path
         d="m 3760,4970.3 -2757.22,0 2757.22,0"
         style="fill:#edf4eb;fill-opacity:1;fill-rule:nonzero;stroke:none"
         id="path186" /><path
         d="m 2368.66,5307.9 -958.77,0 537.32,162.36 c 7.95,-9.6 15.21,-19.8 21.71,-30.51 25.64,17.55 56.64,27.84 90.05,27.84 60.81,0 113.65,-34 140.63,-84 17.95,16.03 41.56,25.85 67.52,25.85 56.08,0 101.54,-45.47 101.54,-101.54"
         style="fill:#edf4eb;fill-opacity:1;fill-rule:nonzero;stroke:none"
         id="path188" /><path
         d="m 2650.65,4970.3 -540.66,0 0,189.7 540.66,0 0,-189.7"
         style="fill:#edf4eb;fill-opacity:1;fill-rule:nonzero;stroke:none"
         id="path190" /><path
         d="m 1002.78,5184.89 0,342.49 2010.48,607.5 48.9,0 c 0,4.92 -0.35,9.74 -1.02,14.47 l 698.86,211.17 0,-342.5 -1812.79,-547.76 c -46.72,56.42 -117.3,92.37 -196.28,92.37 -82.31,0 -155.46,-39.08 -202.03,-99.66 -12.06,2.92 -24.58,4.62 -37.54,4.62 -88.19,0 -159.7,-71.5 -159.7,-159.69 l 58.23,0 -407.11,-123.01"
         style="fill:#c9e0c7;fill-opacity:1;fill-rule:nonzero;stroke:none"
         id="path192" /><path
         d="m 3062.16,6134.88 -48.9,0 47.88,14.47 c 0.67,-4.73 1.02,-9.55 1.02,-14.47"
         style="fill:#f6fbf6;fill-opacity:1;fill-rule:nonzero;stroke:none"
         id="path194" /><path
         d="m 1409.89,5307.9 -58.23,0 c 0,88.19 71.51,159.69 159.7,159.69 12.96,0 25.48,-1.7 37.54,-4.62 46.57,60.58 119.72,99.66 202.03,99.66 78.98,0 149.56,-35.95 196.28,-92.37 L 1409.89,5307.9"
         style="fill:#f6fbf6;fill-opacity:1;fill-rule:nonzero;stroke:none"
         id="path196" /><path
         d="m 6029.64,4188.61 c 0,113.28 -91.83,205.1 -205.1,205.1 l -2542.97,0 c -113.26,0 -205.07,-91.82 -205.07,-205.1 l 0,-1339.83 2953.14,0 0,1339.83"
         style="fill:#941f4c;fill-opacity:1;fill-rule:nonzero;stroke:none"
         id="path198" /><path
         d="m 4580.53,4333.69 c 0,15.17 -12.31,27.46 -27.46,27.46 -15.17,0 -27.46,-12.29 -27.46,-27.46 0,-15.15 12.29,-27.45 27.46,-27.45 15.15,0 27.46,12.3 27.46,27.45"
         style="fill:#2f0c1f;fill-opacity:1;fill-rule:nonzero;stroke:none"
         id="path200" /><path
         d="m 3076.5,2848.78 0,-205.09 c 0,-113.25 91.81,-205.07 205.07,-205.07 l 877.95,0 0,-451.48 -262.68,0 0,-174.31 1312.45,0 0,174.31 -262.67,0 0,451.48 877.92,0 c 113.27,0 205.1,91.82 205.1,205.07 l 0,205.09 -2953.14,0"
         style="fill:#594973;fill-opacity:1;fill-rule:nonzero;stroke:none"
         id="path202" /><path
         d="m 4607.98,2643.69 c 0,30.33 -24.59,54.92 -54.91,54.92 -30.36,0 -54.92,-24.59 -54.92,-54.92 0,-30.33 24.56,-54.92 54.92,-54.92 30.32,0 54.91,24.59 54.91,54.92"
         style="fill:#bbdabc;fill-opacity:1;fill-rule:nonzero;stroke:none"
         id="path204" /><path
         d="m 4611.74,4256.01 -1419.8,0 0,-1303.73 2722.23,0 0,1303.73 -1302.43,0"
         style="fill:#efdab1;fill-opacity:1;fill-rule:nonzero;stroke:none"
         id="path206" /><path
         d="m 4498.15,3109.69 0,0"
         style="fill:#38293f;fill-opacity:1;fill-rule:nonzero;stroke:none"
         id="path208" /><path
         d="m 3688.15,2200.32 -423.11,-34.02 -34.01,423.13 423.11,34.03 34.01,-423.14"
         style="fill:#ffffff;fill-opacity:1;fill-rule:nonzero;stroke:none"
         id="path210" /><path
         d="m 3662.95,2513.96 -423.12,-34.02 -8.8,109.49 423.11,34.03 8.81,-109.5"
         style="fill:#efdab1;fill-opacity:1;fill-rule:nonzero;stroke:none"
         id="path212" /><path
         d="m 3624.62,2448.44 -339.17,-25.7 -1.82,23.95 339.18,25.68 1.81,-23.93"
         style="fill:#bbdabc;fill-opacity:1;fill-rule:nonzero;stroke:none"
         id="path214" /><path
         d="m 3627.5,2389 -339.17,-25.68 -1.81,23.95 339.18,25.68 1.8,-23.95"
         style="fill:#bbdabc;fill-opacity:1;fill-rule:nonzero;stroke:none"
         id="path216" /><path
         d="m 3630.39,2329.59 -339.16,-25.7 -1.82,23.95 339.17,25.69 1.81,-23.94"
         style="fill:#bbdabc;fill-opacity:1;fill-rule:nonzero;stroke:none"
         id="path218" /><path
         d="m 3633.28,2270.17 -339.17,-25.7 -1.82,23.95 339.18,25.68 1.81,-23.93"
         style="fill:#bbdabc;fill-opacity:1;fill-rule:nonzero;stroke:none"
         id="path220" /><path
         d="m 7650.14,1812.83 -2182.84,0 c -54.14,17.58 -93.52,71.1 -93.52,134.41 l 0,23.07 102.12,0 0,437.5 318.98,0 c 65.76,0 124.29,30.94 161.82,79.06 44.6,37.62 72.94,93.91 72.94,156.82 l 0,205.09 -29.66,0 29.66,0 0,320.01 1492.39,0 c 66.01,0 119.52,-56.88 119.52,-127.03 l 0,-1071.45 102.1,0 0,-23.07 c 0,-63.31 -39.37,-116.83 -93.51,-134.41"
         style="fill:#a3ac9e;fill-opacity:1;fill-rule:nonzero;stroke:none"
         id="path222" /><path
         d="m 5794.88,2407.81 -318.98,0 0,30.81 348.64,0 c 50.35,0 96.47,18.14 132.16,48.25 -37.53,-48.12 -96.06,-79.06 -161.82,-79.06"
         style="fill:#8d8a87;fill-opacity:1;fill-rule:nonzero;stroke:none"
         id="path224" /><path
         d="m 7611.48,1806.73 -2105.53,0 c -13.45,0 -26.43,2.14 -38.65,6.1 l 2182.84,0 c -12.23,-3.96 -25.21,-6.1 -38.66,-6.1"
         style="fill:#2f0c1f;fill-opacity:1;fill-rule:nonzero;stroke:none"
         id="path226" /><path
         d="m 6029.64,2848.78 -553.74,0 0,103.5 438.27,0 0,216.51 115.47,0 0,-320.01"
         style="fill:#801a43;fill-opacity:1;fill-rule:nonzero;stroke:none"
         id="path228" /><path
         d="m 5824.54,2438.62 -348.64,0 0,410.16 553.74,0 0,-205.09 c 0,-62.91 -28.34,-119.2 -72.94,-156.82 -35.69,-30.11 -81.81,-48.25 -132.16,-48.25"
         style="fill:#513c63;fill-opacity:1;fill-rule:nonzero;stroke:none"
         id="path230" /><path
         d="m 5914.17,2952.28 -438.27,0 0,89.48 c 0,70.15 53.5,127.03 119.51,127.03 l 318.76,0 0,-216.51"
         style="fill:#caac96;fill-opacity:1;fill-rule:nonzero;stroke:none"
         id="path232" /><path
         d="m 3645.44,4256.01 -453.59,-353.88 0,-141.19 634.56,495.07 -180.97,0"
         style="fill:#f5e6cb;fill-opacity:1;fill-rule:nonzero;stroke:none"
         id="path234" /><path
         d="m 3992.71,4256.01 -800.86,-624.82 0,-142.09 992.6,766.91 -191.74,0"
         style="fill:#f5e6cb;fill-opacity:1;fill-rule:nonzero;stroke:none"
         id="path236" /><path
         d="m 7792.27,1970.31 0,1071.45 c 0,70.15 -53.52,127.03 -119.53,127.03 l -1926.62,0 c -66,0 -119.51,-56.88 -119.51,-127.03 l 0,-1071.45 2165.66,0"
         style="fill:#941f4c;fill-opacity:1;fill-rule:nonzero;stroke:none"
         id="path238" /><path
         d="m 5524.49,1970.31 0,-23.07 c 0,-77.6 59.18,-140.51 132.17,-140.51 l 2105.54,0 c 73,0 132.17,62.91 132.17,140.51 l 0,23.07 -2369.88,0"
         style="fill:#594973;fill-opacity:1;fill-rule:nonzero;stroke:none"
         id="path240" /><path
         d="m 6356.04,1970.31 0,-6.88 c 0,-23.15 17.65,-41.91 39.42,-41.91 l 627.95,0 c 21.77,0 39.41,18.76 39.41,41.91 l 0,6.88 -706.78,0"
         style="fill:#7b6d90;fill-opacity:1;fill-rule:nonzero;stroke:none"
         id="path242" /><path
         d="m 6750.46,3072.46 -992.61,-766.9 0,-238.93 1903.17,0 0,1005.83 -910.56,0"
         style="fill:#efdab1;fill-opacity:1;fill-rule:nonzero;stroke:none"
         id="path244" /><path
         d="m 6392.41,3072.46 -634.56,-495.08 0,-129.73 800.86,624.81 -166.3,0"
         style="fill:#efdab1;fill-opacity:1;fill-rule:nonzero;stroke:none"
         id="path246" /><path
         d="m 5757.85,3072.46 0,-353.88 453.6,353.88 -453.6,0"
         style="fill:#efdab1;fill-opacity:1;fill-rule:nonzero;stroke:none"
         id="path248" /><path
         d="m 6211.45,3072.46 -453.6,-353.88 0,-141.2 634.56,495.08 -180.96,0"
         style="fill:#f5e6cb;fill-opacity:1;fill-rule:nonzero;stroke:none"
         id="path250" /><path
         d="m 6558.71,3072.46 -800.86,-624.81 0,-142.09 992.61,766.9 -191.75,0"
         style="fill:#f5e6cb;fill-opacity:1;fill-rule:nonzero;stroke:none"
         id="path252" /><path
         d="m 6768.24,3120.46 c 0,9.81 -7.95,17.78 -17.78,17.78 -9.82,0 -17.77,-7.97 -17.77,-17.78 0,-9.82 7.95,-17.78 17.77,-17.78 9.83,0 17.78,7.96 17.78,17.78"
         style="fill:#2f0c1f;fill-opacity:1;fill-rule:nonzero;stroke:none"
         id="path254" /><path
         d="m 725.352,6846.19 3312.08,0 0,352.875 -3312.08,0 0,-352.875 z"
         style="fill:#ffffff;fill-opacity:1;fill-rule:nonzero;stroke:none"
         id="path256" /></g></g></svg>