<?xml version="1.0" encoding="utf-8"?>
<!-- Generator: Adobe Illustrator 16.0.0, SVG Export Plug-In . SVG Version: 6.00 Build 0)  -->
<!DOCTYPE svg PUBLIC "-//W3C//DTD SVG 1.1//EN" "http://www.w3.org/Graphics/SVG/1.1/DTD/svg11.dtd">
<svg version="1.1" id="Layer_1" xmlns="http://www.w3.org/2000/svg" xmlns:xlink="http://www.w3.org/1999/xlink" x="0px" y="0px"
	 width="42.035px" height="53.82px" viewBox="0 0 42.035 53.82" enable-background="new 0 0 42.035 53.82" xml:space="preserve">
<g>
	<path fill="#BE202E" d="M27.005,14.994c-3.191,1.829-5.362,2.127-5.987,2.176c-0.626-0.049-2.797-0.347-5.988-2.176
		C11.215,12.81-0.076,16.004,0,28.698s11.554,24.396,15.41,24.969c3.809,0.565,4.455-0.611,5.607-0.656
		c1.151,0.045,1.798,1.222,5.606,0.656c3.856-0.572,15.334-12.274,15.41-24.969S30.82,12.81,27.005,14.994z"/>
	<path fill="#3DB54A" d="M21.143,15.529c0,0,0.75-15.93,16.682-15.521C37.825,0.008,40.137,17.707,21.143,15.529z"/>
	<rect x="19.832" y="8.671" fill="#3DB54A" width="1.625" height="9.5"/>
</g>
</svg>
