<?xml version="1.0" encoding="UTF-8" standalone="no"?>
<!-- Created with Inkscape (http://www.inkscape.org/) -->

<svg
   xmlns:dc="http://purl.org/dc/elements/1.1/"
   xmlns:cc="http://creativecommons.org/ns#"
   xmlns:rdf="http://www.w3.org/1999/02/22-rdf-syntax-ns#"
   xmlns:svg="http://www.w3.org/2000/svg"
   xmlns="http://www.w3.org/2000/svg"
   xmlns:sodipodi="http://sodipodi.sourceforge.net/DTD/sodipodi-0.dtd"
   xmlns:inkscape="http://www.inkscape.org/namespaces/inkscape"
   width="89.747498"
   height="38.046249"
   id="svg7568"
   version="1.1"
   inkscape:version="0.48.4 r9939"
   sodipodi:docname="Novo documento 3">
  <defs
     id="defs7570" />
  <sodipodi:namedview
     id="base"
     pagecolor="#ffffff"
     bordercolor="#666666"
     borderopacity="1.0"
     inkscape:pageopacity="0.0"
     inkscape:pageshadow="2"
     inkscape:zoom="0.35"
     inkscape:cx="44.87375"
     inkscape:cy="19.023127"
     inkscape:document-units="px"
     inkscape:current-layer="layer1"
     showgrid="false"
     fit-margin-top="0"
     fit-margin-left="0"
     fit-margin-right="0"
     fit-margin-bottom="0"
     inkscape:window-width="624"
     inkscape:window-height="425"
     inkscape:window-x="370"
     inkscape:window-y="145"
     inkscape:window-maximized="0" />
  <metadata
     id="metadata7573">
    <rdf:RDF>
      <cc:Work
         rdf:about="">
        <dc:format>image/svg+xml</dc:format>
        <dc:type
           rdf:resource="http://purl.org/dc/dcmitype/StillImage" />
        <dc:title></dc:title>
      </cc:Work>
    </rdf:RDF>
  </metadata>
  <g
     inkscape:label="Camada 1"
     inkscape:groupmode="layer"
     id="layer1"
     transform="translate(-305.12625,-513.33906)">
    <g
       transform="matrix(0.125,0,0,-0.125,-382.15625,859.52656)"
       id="g7469">
      <path
         inkscape:connector-curvature="0"
         id="path4338"
         style="fill:#733022;fill-opacity:1;fill-rule:evenodd;stroke:none"
         d="m 5498.26,2694.38 636.95,0 0,-105.7 -636.95,0 0,13.72 623.23,0 0,78.25 -623.23,0 0,13.73" />
      <path
         inkscape:connector-curvature="0"
         id="path4340"
         style="fill:#d0d2d2;fill-opacity:1;fill-rule:evenodd;stroke:none"
         d="m 5516.79,2680.65 604.7,0 0,-78.25 -604.7,0 c 1.95,12.37 3,25.51 3,39.13 0,13.62 -1.05,26.75 -3,39.12" />
      <path
         inkscape:connector-curvature="0"
         id="path4342"
         style="fill:#5e3f52;fill-opacity:1;fill-rule:evenodd;stroke:none"
         d="m 5531.52,2465.13 583.41,0 0,123.551 -583.41,0 0,-123.551 z" />
      <path
         inkscape:connector-curvature="0"
         id="path4344"
         style="fill:#9d483a;fill-opacity:1;fill-rule:evenodd;stroke:none"
         d="m 6135.21,2694.38 -286.21,0 0,-13.73 272.49,0 0,-78.25 -272.49,0 0,-13.72 286.21,0 0,105.7" />
      <path
         inkscape:connector-curvature="0"
         id="path4346"
         style="fill:#e8e8e8;fill-opacity:1;fill-rule:evenodd;stroke:none"
         d="m 5849,2602.4 272.488,0 0,78.25 -272.488,0 0,-78.25 z" />
      <path
         inkscape:connector-curvature="0"
         id="path4348"
         style="fill:#f7985d;fill-opacity:1;fill-rule:evenodd;stroke:none"
         d="m 6216.24,2769.5 -636.95,0 0,-75.12 636.95,0 0,9.76 -623.22,0 0,55.6 623.22,0 0,9.76" />
      <path
         inkscape:connector-curvature="0"
         id="path4350"
         style="fill:#e8e8e8;fill-opacity:1;fill-rule:evenodd;stroke:none"
         d="m 6197.71,2759.74 -604.69,0 0,-55.6 604.69,0 c -1.95,8.78 -3,18.12 -3,27.8 0,9.68 1.05,19.02 3,27.8" />
      <path
         inkscape:connector-curvature="0"
         id="path4352"
         style="fill:#d7844f;fill-opacity:1;fill-rule:evenodd;stroke:none"
         d="m 5579.29,2769.5 286.21,0 0,-9.76 -272.48,0 0,-55.6 272.48,0 0,-9.76 -286.21,0 0,75.12" />
      <path
         inkscape:connector-curvature="0"
         id="path4354"
         style="fill:#d0d2d2;fill-opacity:1;fill-rule:evenodd;stroke:none"
         d="m 5593.02,2704.14 272.48,0 0,55.6016 -272.48,0 0,-55.6016 z" />
      <path
         inkscape:connector-curvature="0"
         id="path4356"
         style="fill:#d0d2d2;fill-opacity:1;fill-rule:evenodd;stroke:none"
         d="m 5867.83,2667.98 247.777,0 0,2.2578 -247.777,0 0,-2.2578 z" />
      <path
         inkscape:connector-curvature="0"
         id="path4358"
         style="fill:#d0d2d2;fill-opacity:1;fill-rule:evenodd;stroke:none"
         d="m 5871.95,2660.44 247.781,0 0,2.2578 -247.781,0 0,-2.2578 z" />
      <path
         inkscape:connector-curvature="0"
         id="path4360"
         style="fill:#d0d2d2;fill-opacity:1;fill-rule:evenodd;stroke:none"
         d="m 5859.94,2651.2 247.777,0 0,2.2617 -247.777,0 0,-2.2617 z" />
      <path
         inkscape:connector-curvature="0"
         id="path4362"
         style="fill:#d0d2d2;fill-opacity:1;fill-rule:evenodd;stroke:none"
         d="m 5868.86,2643.09 247.77,0 0,2.2617 -247.77,0 0,-2.2617 z" />
      <path
         inkscape:connector-curvature="0"
         id="path4364"
         style="fill:#d0d2d2;fill-opacity:1;fill-rule:evenodd;stroke:none"
         d="m 5861.65,2634.75 247.781,0 0,2.2695 -247.781,0 0,-2.2695 z" />
      <path
         inkscape:connector-curvature="0"
         id="path4366"
         style="fill:#d0d2d2;fill-opacity:1;fill-rule:evenodd;stroke:none"
         d="m 5865.77,2627.21 247.781,0 0,2.2695 -247.781,0 0,-2.2695 z" />
      <path
         inkscape:connector-curvature="0"
         id="path4368"
         style="fill:#d0d2d2;fill-opacity:1;fill-rule:evenodd;stroke:none"
         d="m 5853.76,2617.97 247.777,0 0,2.2695 -247.777,0 0,-2.2695 z" />
      <path
         inkscape:connector-curvature="0"
         id="path4370"
         style="fill:#d0d2d2;fill-opacity:1;fill-rule:evenodd;stroke:none"
         d="m 5862.68,2609.87 247.781,0 0,2.2578 -247.781,0 0,-2.2578 z" />
      <path
         inkscape:connector-curvature="0"
         id="path4372"
         style="fill:#b9bbba;fill-opacity:1;fill-rule:evenodd;stroke:none"
         d="m 5536.5,2668.87 294.18,0 0,2.2578 -294.18,0 0,-2.2578 z" />
      <path
         inkscape:connector-curvature="0"
         id="path4374"
         style="fill:#b9bbba;fill-opacity:1;fill-rule:evenodd;stroke:none"
         d="m 5541.39,2661.33 294.18,0 0,2.2578 -294.18,0 0,-2.2578 z" />
      <path
         inkscape:connector-curvature="0"
         id="path4376"
         style="fill:#b9bbba;fill-opacity:1;fill-rule:evenodd;stroke:none"
         d="m 5527.12,2652.09 294.188,0 0,2.2617 -294.188,0 0,-2.2617 z" />
      <path
         inkscape:connector-curvature="0"
         id="path4378"
         style="fill:#b9bbba;fill-opacity:1;fill-rule:evenodd;stroke:none"
         d="m 5537.72,2643.98 294.18,0 0,2.2695 -294.18,0 0,-2.2695 z" />
      <path
         inkscape:connector-curvature="0"
         id="path4380"
         style="fill:#b9bbba;fill-opacity:1;fill-rule:evenodd;stroke:none"
         d="m 5529.17,2635.65 294.18,0 0,2.2617 -294.18,0 0,-2.2617 z" />
      <path
         inkscape:connector-curvature="0"
         id="path4382"
         style="fill:#b9bbba;fill-opacity:1;fill-rule:evenodd;stroke:none"
         d="m 5534.06,2628.11 294.172,0 0,2.2617 -294.172,0 0,-2.2617 z" />
      <path
         inkscape:connector-curvature="0"
         id="path4384"
         style="fill:#b9bbba;fill-opacity:1;fill-rule:evenodd;stroke:none"
         d="m 5519.79,2618.87 294.191,0 0,2.2578 -294.191,0 0,-2.2578 z" />
      <path
         inkscape:connector-curvature="0"
         id="path4386"
         style="fill:#b9bbba;fill-opacity:1;fill-rule:evenodd;stroke:none"
         d="m 5530.39,2610.76 294.18,0 0,2.2578 -294.18,0 0,-2.2578 z" />
      <path
         inkscape:connector-curvature="0"
         id="path4388"
         style="fill:#b9bbba;fill-opacity:1;fill-rule:evenodd;stroke:none"
         d="m 5612.23,2748.07 230.5,0 0,1.3281 -230.5,0 0,-1.3281 z" />
      <path
         inkscape:connector-curvature="0"
         id="path4390"
         style="fill:#b9bbba;fill-opacity:1;fill-rule:evenodd;stroke:none"
         d="m 5616.06,2743.64 230.5,0 0,1.3281 -230.5,0 0,-1.3281 z" />
      <path
         inkscape:connector-curvature="0"
         id="path4392"
         style="fill:#b9bbba;fill-opacity:1;fill-rule:evenodd;stroke:none"
         d="m 5604.89,2738.21 230.488,0 0,1.3281 -230.488,0 0,-1.3281 z" />
      <path
         inkscape:connector-curvature="0"
         id="path4394"
         style="fill:#b9bbba;fill-opacity:1;fill-rule:evenodd;stroke:none"
         d="m 5613.18,2733.44 230.512,0 0,1.3281 -230.512,0 0,-1.3281 z" />
      <path
         inkscape:connector-curvature="0"
         id="path4396"
         style="fill:#b9bbba;fill-opacity:1;fill-rule:evenodd;stroke:none"
         d="m 5606.48,2728.55 230.5,0 0,1.3281 -230.5,0 0,-1.3281 z" />
      <path
         inkscape:connector-curvature="0"
         id="path4398"
         style="fill:#b9bbba;fill-opacity:1;fill-rule:evenodd;stroke:none"
         d="m 5610.31,2724.12 230.5,0 0,1.3203 -230.5,0 0,-1.3203 z" />
      <path
         inkscape:connector-curvature="0"
         id="path4400"
         style="fill:#b9bbba;fill-opacity:1;fill-rule:evenodd;stroke:none"
         d="m 5599.14,2718.68 230.5,0 0,1.3398 -230.5,0 0,-1.3398 z" />
      <path
         inkscape:connector-curvature="0"
         id="path4402"
         style="fill:#b9bbba;fill-opacity:1;fill-rule:evenodd;stroke:none"
         d="m 5607.44,2713.92 230.5,0 0,1.3281 -230.5,0 0,-1.3281 z" />
      <path
         inkscape:connector-curvature="0"
         id="path4404"
         style="fill:#b9bbba;fill-opacity:1;fill-rule:evenodd;stroke:none"
         d="m 5891.66,2747.37 280.379,0 0,1.3281 -280.379,0 0,-1.3281 z" />
      <path
         inkscape:connector-curvature="0"
         id="path4406"
         style="fill:#b9bbba;fill-opacity:1;fill-rule:evenodd;stroke:none"
         d="m 5896.33,2742.93 280.367,0 0,1.3398 -280.367,0 0,-1.3398 z" />
      <path
         inkscape:connector-curvature="0"
         id="path4408"
         style="fill:#b9bbba;fill-opacity:1;fill-rule:evenodd;stroke:none"
         d="m 5882.74,2737.51 280.371,0 0,1.3281 -280.371,0 0,-1.3281 z" />
      <path
         inkscape:connector-curvature="0"
         id="path4410"
         style="fill:#b9bbba;fill-opacity:1;fill-rule:evenodd;stroke:none"
         d="m 5892.84,2732.74 280.371,0 0,1.332 -280.371,0 0,-1.332 z" />
      <path
         inkscape:connector-curvature="0"
         id="path4412"
         style="fill:#b9bbba;fill-opacity:1;fill-rule:evenodd;stroke:none"
         d="m 5884.68,2727.85 280.379,0 0,1.3203 -280.379,0 0,-1.3203 z" />
      <path
         inkscape:connector-curvature="0"
         id="path4414"
         style="fill:#b9bbba;fill-opacity:1;fill-rule:evenodd;stroke:none"
         d="m 5889.34,2723.41 280.371,0 0,1.332 -280.371,0 0,-1.332 z" />
      <path
         inkscape:connector-curvature="0"
         id="path4416"
         style="fill:#b9bbba;fill-opacity:1;fill-rule:evenodd;stroke:none"
         d="m 5875.75,2717.98 280.371,0 0,1.332 -280.371,0 0,-1.332 z" />
      <path
         inkscape:connector-curvature="0"
         id="path4418"
         style="fill:#b9bbba;fill-opacity:1;fill-rule:evenodd;stroke:none"
         d="m 5885.84,2713.22 280.379,0 0,1.332 -280.379,0 0,-1.332 z" />
      <path
         inkscape:connector-curvature="0"
         id="path4420"
         style="fill:#a1a3a6;fill-opacity:1;fill-rule:evenodd;stroke:none"
         d="m 5559.66,2465.13 13.7305,0 0,123.551 -13.7305,0 0,-123.551 z" />
      <path
         inkscape:connector-curvature="0"
         id="path4422"
         style="fill:#a1a3a6;fill-opacity:1;fill-rule:evenodd;stroke:none"
         d="m 6083.36,2465.13 13.7305,0 0,123.551 -13.7305,0 0,-123.551 z" />
    </g>
  </g>
</svg>
