<?xml version="1.0" encoding="UTF-8" standalone="no"?>
<!-- Created with Inkscape (http://www.inkscape.org/) -->

<svg
   xmlns:dc="http://purl.org/dc/elements/1.1/"
   xmlns:cc="http://creativecommons.org/ns#"
   xmlns:rdf="http://www.w3.org/1999/02/22-rdf-syntax-ns#"
   xmlns:svg="http://www.w3.org/2000/svg"
   xmlns="http://www.w3.org/2000/svg"
   xmlns:sodipodi="http://sodipodi.sourceforge.net/DTD/sodipodi-0.dtd"
   xmlns:inkscape="http://www.inkscape.org/namespaces/inkscape"
   width="99.745354"
   height="90.58625"
   id="svg4622"
   version="1.1"
   inkscape:version="0.48.4 r9939"
   sodipodi:docname="cam.svg">
  <defs
     id="defs4624" />
  <sodipodi:namedview
     id="base"
     pagecolor="#ffffff"
     bordercolor="#666666"
     borderopacity="1.0"
     inkscape:pageopacity="0.0"
     inkscape:pageshadow="2"
     inkscape:zoom="0.35"
     inkscape:cx="208.44411"
     inkscape:cy="2.4359774"
     inkscape:document-units="px"
     inkscape:current-layer="layer1"
     showgrid="false"
     fit-margin-top="0"
     fit-margin-left="0"
     fit-margin-right="0"
     fit-margin-bottom="0"
     inkscape:window-width="624"
     inkscape:window-height="425"
     inkscape:window-x="370"
     inkscape:window-y="145"
     inkscape:window-maximized="0" />
  <metadata
     id="metadata4627">
    <rdf:RDF>
      <cc:Work
         rdf:about="">
        <dc:format>image/svg+xml</dc:format>
        <dc:type
           rdf:resource="http://purl.org/dc/dcmitype/StillImage" />
        <dc:title></dc:title>
      </cc:Work>
    </rdf:RDF>
  </metadata>
  <g
     inkscape:label="Camada 1"
     inkscape:groupmode="layer"
     id="layer1"
     transform="translate(-141.55589,-444.21191)">
    <path
       inkscape:connector-curvature="0"
       d="m 210.80862,466.50691 28.1975,0 c 1.2625,0 2.295,-1.0325 2.295,-2.295 l 0,-17.705 c 0,-1.2625 -1.0325,-2.295 -2.295,-2.295 l -28.1975,0 c -1.2625,0 -2.295,1.0325 -2.295,2.295 l 0,17.705 c 0,1.2625 1.0325,2.295 2.295,2.295"
       style="fill:#4a4e57;fill-opacity:1;fill-rule:evenodd;stroke:none"
       id="path686" />
    <path
       inkscape:connector-curvature="0"
       d="m 233.49862,449.71941 7.24625,-4.9375 c -0.4225,-0.34875 -1.04625,-0.57 -1.73875,-0.57 l -28.19625,0 c -0.6875,0 -1.30625,0.2175 -1.72625,0.56 l 7.35,5.0075 17.065,-0.06"
       style="fill:#636c72;fill-opacity:1;fill-rule:evenodd;stroke:none"
       id="path688" />
    <path
       inkscape:connector-curvature="0"
       d="m 215.56112,447.97066 18.6925,0 c 0.83625,0 1.52125,0.6825 1.52125,1.52 l 0,11.7375 c 0,0.83625 -0.685,1.52125 -1.52125,1.52125 l -18.6925,0 c -0.83625,0 -1.52125,-0.685 -1.52125,-1.52125 l 0,-11.7375 c 0,-0.8375 0.685,-1.52 1.52125,-1.52"
       style="fill:#4a4e57;fill-opacity:1;fill-rule:evenodd;stroke:none"
       id="path690" />
    <path
       inkscape:connector-curvature="0"
       d="m 147.63237,451.29566 87.5925,0 c 3.34125,0 6.07625,2.73375 6.07625,6.07625 l 0,57.06625 c 0,3.3425 -2.735,6.0775 -6.07625,6.0775 l -87.5925,0 c -3.3425,0 -6.07625,-2.735 -6.07625,-6.0775 l 0,-57.06625 c 0,-3.3425 2.73375,-6.07625 6.07625,-6.07625"
       style="fill:#f78e1e;fill-opacity:1;fill-rule:evenodd;stroke:none"
       id="path692" />
    <path
       inkscape:connector-curvature="0"
       d="m 229.83612,482.89691 c 2.915,0 5.29125,-2.3775 5.29125,-5.2925 0,-2.91375 -2.37625,-5.2925 -5.29125,-5.2925 -2.915,0 -5.2925,2.37875 -5.2925,5.2925 0,2.915 2.3775,5.2925 5.2925,5.2925"
       style="fill:#f1efef;fill-opacity:1;fill-rule:evenodd;stroke:none"
       id="path694" />
    <path
       inkscape:connector-curvature="0"
       d="m 143.14362,520.51566 c 32.215,0 64.43125,0 96.64875,0 1.32875,0 1.8875,0.985 1.2375,2.18625 -0.8925,1.6525 -1.78875,3.305 -2.67875,4.95875 l -2.67,4.95625 c -0.6475,1.2025 -2.12125,2.18125 -3.2575,2.18125 l -82.77625,0 c -1.13625,0 -2.54,-1.185 -3.115,-2.36875 l -2.375,-4.88 c -0.7925,-1.63 -1.59125,-3.255 -2.385,-4.88125 -0.5775,-1.18375 0.0412,-2.1525 1.37125,-2.1525"
       style="fill:#c32f2b;fill-opacity:1;fill-rule:evenodd;stroke:none"
       id="path696" />
    <path
       inkscape:connector-curvature="0"
       d="m 141.55612,522.05316 99.74512,0 0,-7.61523 -99.74512,0 0,7.61523 z"
       style="fill:#d4771f;fill-opacity:1;fill-rule:evenodd;stroke:none"
       id="path698" />
    <path
       inkscape:connector-curvature="0"
       d="m 141.55612,491.54316 99.74512,0 0,-7.61475 -99.74512,0 0,7.61475 z"
       style="fill:#d4771f;fill-opacity:1;fill-rule:evenodd;stroke:none"
       id="path700" />
    <path
       inkscape:connector-curvature="0"
       d="m 148.21987,528.19816 c 8.87875,0 77.55875,0 86.44,0 0.36625,0 0.52,0.27125 0.34125,0.60375 -0.245,0.455 -0.49375,0.91 -0.74,1.36625 l -0.73375,1.3675 c -0.18,0.33125 -0.585,0.6 -0.8975,0.6 l -82.61875,0 c -0.3125,0 -0.7,-0.32625 -0.85875,-0.65125 l -0.65375,-1.34625 c -0.21875,-0.44875 -0.44,-0.8975 -0.6575,-1.345 -0.15875,-0.32625 0.0113,-0.595 0.37875,-0.595"
       style="fill:#ef302e;fill-opacity:1;fill-rule:evenodd;stroke:none"
       id="path702" />
    <path
       inkscape:connector-curvature="0"
       d="m 187.54237,522.05316 3.88525,0 0,-54.834 -3.88525,0 0,54.834 z"
       style="fill:#3dbda8;fill-opacity:1;fill-rule:evenodd;stroke:none"
       id="path704" />
    <path
       inkscape:connector-curvature="0"
       d="m 191.42737,522.05316 3.88622,0 0,-54.834 -3.88622,0 0,54.834 z"
       style="fill:#ef302e;fill-opacity:1;fill-rule:evenodd;stroke:none"
       id="path706" />
    <path
       inkscape:connector-curvature="0"
       d="m 187.54237,491.54441 3.88525,0 0,-7.61523 -3.88525,0 0,7.61523 z"
       style="fill:#218470;fill-opacity:1;fill-rule:evenodd;stroke:none"
       id="path708" />
    <path
       inkscape:connector-curvature="0"
       d="m 191.42737,491.54441 3.88476,0 0,-7.61523 -3.88476,0 0,7.61523 z"
       style="fill:#c32f2b;fill-opacity:1;fill-rule:evenodd;stroke:none"
       id="path710" />
    <path
       inkscape:connector-curvature="0"
       d="m 187.54237,522.05316 3.88525,0 0,-7.61377 -3.88525,0 0,7.61377 z"
       style="fill:#218470;fill-opacity:1;fill-rule:evenodd;stroke:none"
       id="path712" />
    <path
       inkscape:connector-curvature="0"
       d="m 191.42737,522.05316 3.88476,0 0,-7.61377 -3.88476,0 0,7.61377 z"
       style="fill:#c32f2b;fill-opacity:1;fill-rule:evenodd;stroke:none"
       id="path714" />
    <path
       inkscape:connector-curvature="0"
       d="m 191.42862,482.65191 c 7.5625,0 13.73,-6.16875 13.73,-13.73125 0,-7.56125 -6.1675,-13.73 -13.73,-13.73 -7.5625,0 -13.73,6.16875 -13.73,13.73 0,7.5625 6.1675,13.73125 13.73,13.73125"
       style="fill:#f1efef;fill-opacity:1;fill-rule:evenodd;stroke:none"
       id="path716" />
    <path
       inkscape:connector-curvature="0"
       d="m 191.42862,479.17691 c 5.64875,0 10.25625,-4.6075 10.25625,-10.25625 0,-5.6475 -4.6075,-10.25625 -10.25625,-10.25625 -5.64875,0 -10.25625,4.60875 -10.25625,10.25625 0,5.64875 4.6075,10.25625 10.25625,10.25625"
       style="fill:#3dbda8;fill-opacity:1;fill-rule:evenodd;stroke:none"
       id="path718" />
    <path
       inkscape:connector-curvature="0"
       d="m 191.42862,476.95566 c 4.42625,0 8.035,-3.61 8.035,-8.035 0,-4.425 -3.60875,-8.03375 -8.035,-8.03375 -4.425,0 -8.03375,3.60875 -8.03375,8.03375 0,4.425 3.60875,8.035 8.03375,8.035"
       style="fill:#218470;fill-opacity:1;fill-rule:evenodd;stroke:none"
       id="path720" />
    <path
       inkscape:connector-curvature="0"
       d="m 191.42862,471.79816 c 1.585,0 2.8775,-1.2925 2.8775,-2.8775 0,-1.58375 -1.2925,-2.87625 -2.8775,-2.87625 -1.585,0 -2.8775,1.2925 -2.8775,2.87625 0,1.585 1.2925,2.8775 2.8775,2.8775"
       style="fill:#3dbda8;fill-opacity:1;fill-rule:evenodd;stroke:none"
       id="path722" />
    <path
       inkscape:connector-curvature="0"
       d="m 187.28862,463.68316 c 0.63375,-0.52125 1.64,-1.0325 2.6375,-1.25375 1.0025,-0.22125 1.34375,1.16875 0.3225,1.3925 -0.7825,0.1725 -1.49875,0.49875 -2.075,0.98125 -0.8575,0.72125 -1.73875,-0.42 -0.885,-1.12"
       style="fill:#3dbda8;fill-opacity:1;fill-rule:evenodd;stroke:none"
       id="path724" />
    <path
       inkscape:connector-curvature="0"
       d="m 185.15362,471.16316 c -0.64375,-1.8175 -0.45875,-3.73875 0.36125,-5.32875 0.52875,-0.955 1.755,-0.25125 1.26125,0.6575 -0.65375,1.25375 -0.80125,2.76625 -0.27625,4.19 0.39875,1.08375 -0.99125,1.4825 -1.34625,0.48125"
       style="fill:#3dbda8;fill-opacity:1;fill-rule:evenodd;stroke:none"
       id="path726" />
    <path
       inkscape:connector-curvature="0"
       d="m 215.52987,456.22816 18.72125,0 c 0.8375,0 1.52375,0.68625 1.52375,1.52375 l 0,11.755 c 0,0.83875 -0.68625,1.525 -1.52375,1.525 l -18.72125,0 c -0.83875,0 -1.525,-0.68625 -1.525,-1.525 l 0,-11.755 c 0,-0.8375 0.68625,-1.52375 1.525,-1.52375"
       style="fill:#f1efef;fill-opacity:1;fill-rule:evenodd;stroke:none"
       id="path728" />
    <path
       inkscape:connector-curvature="0"
       d="m 215.82612,457.26441 18.1275,0 c 0.46,0 0.83625,0.37625 0.83625,0.83625 l 0,11.05875 c 0,0.46 -0.37625,0.83625 -0.83625,0.83625 l -18.1275,0 c -0.46,0 -0.83625,-0.37625 -0.83625,-0.83625 l 0,-11.05875 c 0,-0.46 0.37625,-0.83625 0.83625,-0.83625"
       style="fill:#4a4e57;fill-opacity:1;fill-rule:evenodd;stroke:none"
       id="path730" />
    <path
       inkscape:connector-curvature="0"
       d="m 224.89112,469.27191 c 3.10625,0 5.64125,-2.53625 5.64125,-5.6425 0,-3.10625 -2.535,-5.64125 -5.64125,-5.64125 -3.1075,0 -5.6425,2.535 -5.6425,5.64125 0,3.10625 2.535,5.6425 5.6425,5.6425"
       style="fill:#636c72;fill-opacity:1;fill-rule:evenodd;stroke:none"
       id="path732" />
    <path
       inkscape:connector-curvature="0"
       d="m 224.89112,465.65066 c 1.1125,0 2.02125,-0.9075 2.02125,-2.02125 0,-1.11375 -0.90875,-2.02125 -2.02125,-2.02125 -1.11375,0 -2.0225,0.9075 -2.0225,2.02125 0,1.11375 0.90875,2.02125 2.0225,2.02125"
       style="fill:#4a4e57;fill-opacity:1;fill-rule:evenodd;stroke:none"
       id="path734" />
    <path
       inkscape:connector-curvature="0"
       d="m 146.35112,456.22816 20.245,0 c 0.42,0 0.7625,0.3425 0.7625,0.76125 l 0,5.87875 c 0,0.41875 -0.3425,0.7625 -0.7625,0.7625 l -20.245,0 c -0.42,0 -0.76125,-0.34375 -0.76125,-0.7625 l 0,-5.87875 c 0,-0.41875 0.34125,-0.76125 0.76125,-0.76125"
       style="fill:#f1efef;fill-opacity:1;fill-rule:evenodd;stroke:none"
       id="path736" />
    <path
       inkscape:connector-curvature="0"
       d="m 229.83612,481.78191 c 2.30125,0 4.17875,-1.87625 4.17875,-4.1775 0,-2.30125 -1.8775,-4.17875 -4.17875,-4.17875 -2.3025,0 -4.17875,1.8775 -4.17875,4.17875 0,2.30125 1.87625,4.1775 4.17875,4.1775"
       style="fill:#4a4e57;fill-opacity:1;fill-rule:evenodd;stroke:none"
       id="path738" />
    <path
       inkscape:connector-curvature="0"
       d="m 229.83612,480.56066 c 1.62875,0 2.95625,-1.32875 2.95625,-2.95625 0,-1.62875 -1.3275,-2.9575 -2.95625,-2.9575 -1.62875,0 -2.9575,1.32875 -2.9575,2.9575 0,1.6275 1.32875,2.95625 2.9575,2.95625"
       style="fill:#636c72;fill-opacity:1;fill-rule:evenodd;stroke:none"
       id="path740" />
    <path
       inkscape:connector-curvature="0"
       d="m 147.67612,457.55816 17.59625,0 c 0.2675,0 0.4875,0.21875 0.4875,0.4875 l 0,3.7675 c 0,0.26875 -0.22,0.48625 -0.4875,0.48625 l -17.59625,0 c -0.26875,0 -0.48875,-0.2175 -0.48875,-0.48625 l 0,-3.7675 c 0,-0.26875 0.22,-0.4875 0.48875,-0.4875"
       style="fill:#4a4e57;fill-opacity:1;fill-rule:evenodd;stroke:none"
       id="path742" />
  </g>
</svg>
