<?xml version="1.0" encoding="UTF-8" standalone="no"?>
<!-- Created with Inkscape (http://www.inkscape.org/) -->

<svg
   xmlns:dc="http://purl.org/dc/elements/1.1/"
   xmlns:cc="http://creativecommons.org/ns#"
   xmlns:rdf="http://www.w3.org/1999/02/22-rdf-syntax-ns#"
   xmlns:svg="http://www.w3.org/2000/svg"
   xmlns="http://www.w3.org/2000/svg"
   xmlns:sodipodi="http://sodipodi.sourceforge.net/DTD/sodipodi-0.dtd"
   xmlns:inkscape="http://www.inkscape.org/namespaces/inkscape"
   width="73.422501"
   height="113.1375"
   id="svg3394"
   version="1.1"
   inkscape:version="0.48.4 r9939"
   sodipodi:docname="Novo documento 3">
  <defs
     id="defs3396" />
  <sodipodi:namedview
     id="base"
     pagecolor="#ffffff"
     bordercolor="#666666"
     borderopacity="1.0"
     inkscape:pageopacity="0.0"
     inkscape:pageshadow="2"
     inkscape:zoom="0.35"
     inkscape:cx="-147.57446"
     inkscape:cy="-3.5812826"
     inkscape:document-units="px"
     inkscape:current-layer="layer1"
     showgrid="false"
     fit-margin-bottom="-0.3"
     fit-margin-top="0"
     fit-margin-left="0"
     fit-margin-right="0"
     inkscape:window-width="624"
     inkscape:window-height="425"
     inkscape:window-x="370"
     inkscape:window-y="145"
     inkscape:window-maximized="0" />
  <metadata
     id="metadata3399">
    <rdf:RDF>
      <cc:Work
         rdf:about="">
        <dc:format>image/svg+xml</dc:format>
        <dc:type
           rdf:resource="http://purl.org/dc/dcmitype/StillImage" />
        <dc:title></dc:title>
      </cc:Work>
    </rdf:RDF>
  </metadata>
  <g
     inkscape:label="Camada 1"
     inkscape:groupmode="layer"
     id="layer1"
     transform="translate(-497.57446,-415.6434)">
    <g
       transform="matrix(0.125,0,0,-0.125,352.25446,1002.3109)"
       id="g3369">
      <path
         inkscape:connector-curvature="0"
         id="path338"
         style="fill:#242c34;fill-opacity:1;fill-rule:nonzero;stroke:none"
         d="m 1685.63,4471.83 0,-481.62 -458.76,0 0,481.62 -64.31,0 0,-685.99 587.38,0 0,685.99 -64.31,0" />
      <path
         inkscape:connector-curvature="0"
         id="path340"
         style="fill:#ccd8b0;fill-opacity:1;fill-rule:nonzero;stroke:none"
         d="m 1685.45,3953.05 c 0,-22.1 -17.92,-40.02 -40.01,-40.02 l -377.3,0 c -22.1,0 -40.02,17.92 -40.02,40.02 l 0,700.27 c 0,22.11 17.92,40.02 40.02,40.02 l 377.3,0 c 22.09,0 40.01,-17.91 40.01,-40.02 l 0,-700.27" />
      <path
         inkscape:connector-curvature="0"
         id="path342"
         style="fill:#303e48;fill-opacity:1;fill-rule:nonzero;stroke:none"
         d="m 1256.7,4013.07 400.16,0 0,615.469 -400.16,0 0,-615.469 z" />
      <path
         inkscape:connector-curvature="0"
         id="path344"
         style="fill:#3a4f59;fill-opacity:1;fill-rule:nonzero;stroke:none"
         d="m 1256.7,4013.07 0,615.47 400.16,0 -400.16,-615.47" />
      <path
         inkscape:connector-curvature="0"
         id="path346"
         style="fill:#242c34;fill-opacity:1;fill-rule:nonzero;stroke:none"
         d="m 1520.39,3968.77 c 0,-9.47 -7.69,-17.16 -17.16,-17.16 l -92.89,0 c -9.48,0 -17.15,7.69 -17.15,17.16 0,9.47 7.67,17.14 17.15,17.14 l 92.89,0 c 9.47,0 17.16,-7.67 17.16,-17.14" />
      <path
         inkscape:connector-curvature="0"
         id="path348"
         style="fill:#242c34;fill-opacity:1;fill-rule:nonzero;stroke:none"
         d="m 1522.52,4657.61 c 0,-3.41 -2.75,-6.17 -6.16,-6.17 l -119.15,0 c -3.41,0 -6.17,2.76 -6.17,6.17 0,3.41 2.76,6.16 6.17,6.16 l 119.15,0 c 3.41,0 6.16,-2.75 6.16,-6.16" />
    </g>
  </g>
</svg>
