<?xml version="1.0" encoding="UTF-8" standalone="no"?>
<!-- Created with Inkscape (http://www.inkscape.org/) -->

<svg
   xmlns:dc="http://purl.org/dc/elements/1.1/"
   xmlns:cc="http://creativecommons.org/ns#"
   xmlns:rdf="http://www.w3.org/1999/02/22-rdf-syntax-ns#"
   xmlns:svg="http://www.w3.org/2000/svg"
   xmlns="http://www.w3.org/2000/svg"
   xmlns:sodipodi="http://sodipodi.sourceforge.net/DTD/sodipodi-0.dtd"
   xmlns:inkscape="http://www.inkscape.org/namespaces/inkscape"
   width="96.125"
   height="46.171249"
   id="svg3970"
   version="1.1"
   inkscape:version="0.48.4 r9939"
   sodipodi:docname="Novo documento 3">
  <defs
     id="defs3972" />
  <sodipodi:namedview
     id="base"
     pagecolor="#ffffff"
     bordercolor="#666666"
     borderopacity="1.0"
     inkscape:pageopacity="0.0"
     inkscape:pageshadow="2"
     inkscape:zoom="1.4"
     inkscape:cx="50.600586"
     inkscape:cy="30.867044"
     inkscape:document-units="px"
     inkscape:current-layer="layer1"
     showgrid="false"
     fit-margin-top="0"
     fit-margin-left="0"
     fit-margin-right="0"
     fit-margin-bottom="0"
     inkscape:window-width="624"
     inkscape:window-height="425"
     inkscape:window-x="740"
     inkscape:window-y="177"
     inkscape:window-maximized="0" />
  <metadata
     id="metadata3975">
    <rdf:RDF>
      <cc:Work
         rdf:about="">
        <dc:format>image/svg+xml</dc:format>
        <dc:type
           rdf:resource="http://purl.org/dc/dcmitype/StillImage" />
        <dc:title></dc:title>
      </cc:Work>
    </rdf:RDF>
  </metadata>
  <g
     inkscape:label="Camada 1"
     inkscape:groupmode="layer"
     id="layer1"
     transform="translate(-374.79464,-386.41945)">
    <g
       transform="matrix(0.125,0,0,-0.125,137.59089,1122.5932)"
       id="g3781">
      <path
         inkscape:connector-curvature="0"
         id="path530"
         style="fill:#ec4240;fill-opacity:1;fill-rule:evenodd;stroke:none"
         d="m 2082.31,5889.39 399.63,0 c 101.58,0 184.69,-83.11 184.69,-184.69 l 0,0 c 0,-101.58 -83.11,-184.68 -184.69,-184.68 l -399.63,0 c -101.58,0 -184.68,83.1 -184.68,184.68 l 0,0 c 0,101.58 83.1,184.69 184.68,184.69" />
      <path
         inkscape:connector-curvature="0"
         id="path532"
         style="fill:#fbca41;fill-opacity:1;fill-rule:evenodd;stroke:none"
         d="m 2083.65,5853.13 396.95,0 c 81.63,0 148.42,-66.79 148.42,-148.42 l 0,-0.01 c 0,-81.63 -66.79,-148.42 -148.42,-148.42 l -396.95,0 c -81.63,0 -148.42,66.79 -148.42,148.42 l 0,0.01 c 0,81.63 66.79,148.42 148.42,148.42" />
      <path
         inkscape:connector-curvature="0"
         id="path534"
         style="fill:#1d1e1d;fill-opacity:1;fill-rule:evenodd;stroke:none"
         d="m 2083.77,5842.3 396.71,0 c 75.68,0 137.59,-61.92 137.59,-137.59 l 0,-0.01 c 0,-75.68 -61.91,-137.59 -137.59,-137.59 l -396.71,0 c -75.67,0 -137.58,61.91 -137.58,137.59 l 0,0.01 c 0,75.67 61.91,137.59 137.58,137.59" />
      <path
         inkscape:connector-curvature="0"
         id="path536"
         style="fill:#4c4f52;fill-opacity:1;fill-rule:evenodd;stroke:none"
         d="m 2043.9,5725.87 21.1602,0 0,21.168 -21.1602,0 0,-21.168 z" />
      <path
         inkscape:connector-curvature="0"
         id="path538"
         style="fill:#4c4f52;fill-opacity:1;fill-rule:evenodd;stroke:none"
         d="m 2043.9,5694.12 21.1602,0 0,21.1602 -21.1602,0 0,-21.1602 z" />
      <path
         inkscape:connector-curvature="0"
         id="path540"
         style="fill:#4c4f52;fill-opacity:1;fill-rule:evenodd;stroke:none"
         d="m 2043.9,5662.37 21.1602,0 0,21.168 -21.1602,0 0,-21.168 z" />
      <path
         inkscape:connector-curvature="0"
         id="path542"
         style="fill:#4c4f52;fill-opacity:1;fill-rule:evenodd;stroke:none"
         d="m 2108.94,5757.62 21.1602,0 0,21.168 -21.1602,0 0,-21.168 z" />
      <path
         inkscape:connector-curvature="0"
         id="path544"
         style="fill:#4c4f52;fill-opacity:1;fill-rule:evenodd;stroke:none"
         d="m 2108.94,5725.87 21.1602,0 0,21.168 -21.1602,0 0,-21.168 z" />
      <path
         inkscape:connector-curvature="0"
         id="path546"
         style="fill:#4c4f52;fill-opacity:1;fill-rule:evenodd;stroke:none"
         d="m 2108.94,5694.12 21.1602,0 0,21.1602 -21.1602,0 0,-21.1602 z" />
      <path
         inkscape:connector-curvature="0"
         id="path548"
         style="fill:#4c4f52;fill-opacity:1;fill-rule:evenodd;stroke:none"
         d="m 2108.94,5662.37 21.1602,0 0,21.168 -21.1602,0 0,-21.168 z" />
      <path
         inkscape:connector-curvature="0"
         id="path550"
         style="fill:#4c4f52;fill-opacity:1;fill-rule:evenodd;stroke:none"
         d="m 2108.94,5630.62 21.1602,0 0,21.168 -21.1602,0 0,-21.168 z" />
      <path
         inkscape:connector-curvature="0"
         id="path552"
         style="fill:#4c4f52;fill-opacity:1;fill-rule:evenodd;stroke:none"
         d="m 2173.98,5725.87 21.168,0 0,21.168 -21.168,0 0,-21.168 z" />
      <path
         inkscape:connector-curvature="0"
         id="path554"
         style="fill:#4c4f52;fill-opacity:1;fill-rule:evenodd;stroke:none"
         d="m 2173.98,5662.37 21.168,0 0,21.168 -21.168,0 0,-21.168 z" />
      <path
         inkscape:connector-curvature="0"
         id="path556"
         style="fill:#4c4f52;fill-opacity:1;fill-rule:evenodd;stroke:none"
         d="m 2239.02,5757.62 21.1719,0 0,21.168 -21.1719,0 0,-21.168 z" />
      <path
         inkscape:connector-curvature="0"
         id="path558"
         style="fill:#4c4f52;fill-opacity:1;fill-rule:evenodd;stroke:none"
         d="m 2239.02,5725.87 21.1719,0 0,21.168 -21.1719,0 0,-21.168 z" />
      <path
         inkscape:connector-curvature="0"
         id="path560"
         style="fill:#4c4f52;fill-opacity:1;fill-rule:evenodd;stroke:none"
         d="m 2239.02,5694.12 21.1719,0 0,21.1602 -21.1719,0 0,-21.1602 z" />
      <path
         inkscape:connector-curvature="0"
         id="path562"
         style="fill:#4c4f52;fill-opacity:1;fill-rule:evenodd;stroke:none"
         d="m 2239.02,5662.37 21.1719,0 0,21.168 -21.1719,0 0,-21.168 z" />
      <path
         inkscape:connector-curvature="0"
         id="path564"
         style="fill:#4c4f52;fill-opacity:1;fill-rule:evenodd;stroke:none"
         d="m 2239.02,5630.62 21.1719,0 0,21.168 -21.1719,0 0,-21.168 z" />
      <path
         inkscape:connector-curvature="0"
         id="path566"
         style="fill:#4c4f52;fill-opacity:1;fill-rule:evenodd;stroke:none"
         d="m 2271.54,5757.62 21.1719,0 0,21.168 -21.1719,0 0,-21.168 z" />
      <path
         inkscape:connector-curvature="0"
         id="path568"
         style="fill:#4c4f52;fill-opacity:1;fill-rule:evenodd;stroke:none"
         d="m 2271.54,5694.12 21.1719,0 0,21.1602 -21.1719,0 0,-21.1602 z" />
      <path
         inkscape:connector-curvature="0"
         id="path570"
         style="fill:#4c4f52;fill-opacity:1;fill-rule:evenodd;stroke:none"
         d="m 2271.54,5630.62 21.1719,0 0,21.168 -21.1719,0 0,-21.168 z" />
      <path
         inkscape:connector-curvature="0"
         id="path572"
         style="fill:#4c4f52;fill-opacity:1;fill-rule:evenodd;stroke:none"
         d="m 2304.06,5757.62 21.1719,0 0,21.168 -21.1719,0 0,-21.168 z" />
      <path
         inkscape:connector-curvature="0"
         id="path574"
         style="fill:#4c4f52;fill-opacity:1;fill-rule:evenodd;stroke:none"
         d="m 2304.06,5725.87 21.1719,0 0,21.168 -21.1719,0 0,-21.168 z" />
      <path
         inkscape:connector-curvature="0"
         id="path576"
         style="fill:#4c4f52;fill-opacity:1;fill-rule:evenodd;stroke:none"
         d="m 2304.06,5694.12 21.1719,0 0,21.1602 -21.1719,0 0,-21.1602 z" />
      <path
         inkscape:connector-curvature="0"
         id="path578"
         style="fill:#4c4f52;fill-opacity:1;fill-rule:evenodd;stroke:none"
         d="m 2304.06,5662.37 21.1719,0 0,21.168 -21.1719,0 0,-21.168 z" />
      <path
         inkscape:connector-curvature="0"
         id="path580"
         style="fill:#4c4f52;fill-opacity:1;fill-rule:evenodd;stroke:none"
         d="m 2304.06,5630.62 21.1719,0 0,21.168 -21.1719,0 0,-21.168 z" />
      <path
         inkscape:connector-curvature="0"
         id="path582"
         style="fill:#4c4f52;fill-opacity:1;fill-rule:evenodd;stroke:none"
         d="m 2369.1,5725.87 21.1602,0 0,21.168 -21.1602,0 0,-21.168 z" />
      <path
         inkscape:connector-curvature="0"
         id="path584"
         style="fill:#4c4f52;fill-opacity:1;fill-rule:evenodd;stroke:none"
         d="m 2369.1,5662.37 21.1602,0 0,21.168 -21.1602,0 0,-21.168 z" />
      <path
         inkscape:connector-curvature="0"
         id="path586"
         style="fill:#4c4f52;fill-opacity:1;fill-rule:evenodd;stroke:none"
         d="m 2401.62,5694.12 21.168,0 0,21.1602 -21.168,0 0,-21.1602 z" />
      <path
         inkscape:connector-curvature="0"
         id="path588"
         style="fill:#4c4f52;fill-opacity:1;fill-rule:evenodd;stroke:none"
         d="m 2401.62,5662.37 21.168,0 0,21.168 -21.168,0 0,-21.168 z" />
      <path
         inkscape:connector-curvature="0"
         id="path590"
         style="fill:#4c4f52;fill-opacity:1;fill-rule:evenodd;stroke:none"
         d="m 2434.14,5757.62 21.168,0 0,21.168 -21.168,0 0,-21.168 z" />
      <path
         inkscape:connector-curvature="0"
         id="path592"
         style="fill:#4c4f52;fill-opacity:1;fill-rule:evenodd;stroke:none"
         d="m 2434.14,5725.87 21.168,0 0,21.168 -21.168,0 0,-21.168 z" />
      <path
         inkscape:connector-curvature="0"
         id="path594"
         style="fill:#4c4f52;fill-opacity:1;fill-rule:evenodd;stroke:none"
         d="m 2434.14,5694.12 21.168,0 0,21.1602 -21.168,0 0,-21.1602 z" />
      <path
         inkscape:connector-curvature="0"
         id="path596"
         style="fill:#4c4f52;fill-opacity:1;fill-rule:evenodd;stroke:none"
         d="m 2434.14,5662.37 21.168,0 0,21.168 -21.168,0 0,-21.168 z" />
      <path
         inkscape:connector-curvature="0"
         id="path598"
         style="fill:#4c4f52;fill-opacity:1;fill-rule:evenodd;stroke:none"
         d="m 2434.14,5630.62 21.168,0 0,21.168 -21.168,0 0,-21.168 z" />
      <path
         inkscape:connector-curvature="0"
         id="path600"
         style="fill:#4c4f52;fill-opacity:1;fill-rule:evenodd;stroke:none"
         d="m 2336.58,5694.12 21.168,0 0,21.1602 -21.168,0 0,-21.1602 z" />
      <path
         inkscape:connector-curvature="0"
         id="path602"
         style="fill:#4c4f52;fill-opacity:1;fill-rule:evenodd;stroke:none"
         d="m 2466.67,5662.37 21.1602,0 0,21.168 -21.1602,0 0,-21.168 z" />
      <path
         inkscape:connector-curvature="0"
         id="path604"
         style="fill:#4c4f52;fill-opacity:1;fill-rule:evenodd;stroke:none"
         d="m 2499.18,5725.87 21.1719,0 0,21.168 -21.1719,0 0,-21.168 z" />
      <path
         inkscape:connector-curvature="0"
         id="path606"
         style="fill:#4c4f52;fill-opacity:1;fill-rule:evenodd;stroke:none"
         d="m 2499.18,5662.37 21.1719,0 0,21.168 -21.1719,0 0,-21.168 z" />
      <path
         inkscape:connector-curvature="0"
         id="path608"
         style="fill:#4c4f52;fill-opacity:1;fill-rule:evenodd;stroke:none"
         d="m 2531.7,5725.87 21.1719,0 0,21.168 -21.1719,0 0,-21.168 z" />
      <path
         inkscape:connector-curvature="0"
         id="path610"
         style="fill:#ffffff;fill-opacity:1;fill-rule:evenodd;stroke:none"
         d="m 2011.38,5757.62 21.1602,0 0,21.168 -21.1602,0 0,-21.168 z" />
      <path
         inkscape:connector-curvature="0"
         id="path612"
         style="fill:#ffffff;fill-opacity:1;fill-rule:evenodd;stroke:none"
         d="m 2011.38,5725.87 21.1602,0 0,21.168 -21.1602,0 0,-21.168 z" />
      <path
         inkscape:connector-curvature="0"
         id="path614"
         style="fill:#ffffff;fill-opacity:1;fill-rule:evenodd;stroke:none"
         d="m 2011.38,5694.12 21.1602,0 0,21.1602 -21.1602,0 0,-21.1602 z" />
      <path
         inkscape:connector-curvature="0"
         id="path616"
         style="fill:#ffffff;fill-opacity:1;fill-rule:evenodd;stroke:none"
         d="m 2011.38,5662.37 21.1602,0 0,21.168 -21.1602,0 0,-21.168 z" />
      <path
         inkscape:connector-curvature="0"
         id="path618"
         style="fill:#ffffff;fill-opacity:1;fill-rule:evenodd;stroke:none"
         d="m 2011.38,5630.62 21.1602,0 0,21.168 -21.1602,0 0,-21.168 z" />
      <path
         inkscape:connector-curvature="0"
         id="path620"
         style="fill:#ffffff;fill-opacity:1;fill-rule:evenodd;stroke:none"
         d="m 2043.9,5757.62 21.1602,0 0,21.168 -21.1602,0 0,-21.168 z" />
      <path
         inkscape:connector-curvature="0"
         id="path622"
         style="fill:#ffffff;fill-opacity:1;fill-rule:evenodd;stroke:none"
         d="m 2043.9,5630.62 21.1602,0 0,21.168 -21.1602,0 0,-21.168 z" />
      <path
         inkscape:connector-curvature="0"
         id="path624"
         style="fill:#ffffff;fill-opacity:1;fill-rule:evenodd;stroke:none"
         d="m 2141.46,5757.62 21.168,0 0,21.168 -21.168,0 0,-21.168 z" />
      <path
         inkscape:connector-curvature="0"
         id="path626"
         style="fill:#ffffff;fill-opacity:1;fill-rule:evenodd;stroke:none"
         d="m 2141.46,5725.87 21.168,0 0,21.168 -21.168,0 0,-21.168 z" />
      <path
         inkscape:connector-curvature="0"
         id="path628"
         style="fill:#ffffff;fill-opacity:1;fill-rule:evenodd;stroke:none"
         d="m 2141.46,5694.12 21.168,0 0,21.1602 -21.168,0 0,-21.1602 z" />
      <path
         inkscape:connector-curvature="0"
         id="path630"
         style="fill:#ffffff;fill-opacity:1;fill-rule:evenodd;stroke:none"
         d="m 2141.46,5662.37 21.168,0 0,21.168 -21.168,0 0,-21.168 z" />
      <path
         inkscape:connector-curvature="0"
         id="path632"
         style="fill:#ffffff;fill-opacity:1;fill-rule:evenodd;stroke:none"
         d="m 2141.46,5630.62 21.168,0 0,21.168 -21.168,0 0,-21.168 z" />
      <path
         inkscape:connector-curvature="0"
         id="path634"
         style="fill:#ffffff;fill-opacity:1;fill-rule:evenodd;stroke:none"
         d="m 2173.98,5757.62 21.168,0 0,21.168 -21.168,0 0,-21.168 z" />
      <path
         inkscape:connector-curvature="0"
         id="path636"
         style="fill:#ffffff;fill-opacity:1;fill-rule:evenodd;stroke:none"
         d="m 2173.98,5694.12 21.168,0 0,21.1602 -21.168,0 0,-21.1602 z" />
      <path
         inkscape:connector-curvature="0"
         id="path638"
         style="fill:#ffffff;fill-opacity:1;fill-rule:evenodd;stroke:none"
         d="m 2173.98,5630.62 21.168,0 0,21.168 -21.168,0 0,-21.168 z" />
      <path
         inkscape:connector-curvature="0"
         id="path640"
         style="fill:#ffffff;fill-opacity:1;fill-rule:evenodd;stroke:none"
         d="m 2271.54,5725.87 21.1719,0 0,21.168 -21.1719,0 0,-21.168 z" />
      <path
         inkscape:connector-curvature="0"
         id="path642"
         style="fill:#ffffff;fill-opacity:1;fill-rule:evenodd;stroke:none"
         d="m 2271.54,5662.37 21.1719,0 0,21.168 -21.1719,0 0,-21.168 z" />
      <path
         inkscape:connector-curvature="0"
         id="path644"
         style="fill:#ffffff;fill-opacity:1;fill-rule:evenodd;stroke:none"
         d="m 2369.1,5757.62 21.1602,0 0,21.168 -21.1602,0 0,-21.168 z" />
      <path
         inkscape:connector-curvature="0"
         id="path646"
         style="fill:#ffffff;fill-opacity:1;fill-rule:evenodd;stroke:none"
         d="m 2369.1,5694.12 21.1602,0 0,21.1602 -21.1602,0 0,-21.1602 z" />
      <path
         inkscape:connector-curvature="0"
         id="path648"
         style="fill:#ffffff;fill-opacity:1;fill-rule:evenodd;stroke:none"
         d="m 2369.1,5630.62 21.1602,0 0,21.168 -21.1602,0 0,-21.168 z" />
      <path
         inkscape:connector-curvature="0"
         id="path650"
         style="fill:#ffffff;fill-opacity:1;fill-rule:evenodd;stroke:none"
         d="m 2401.62,5757.62 21.168,0 0,21.168 -21.168,0 0,-21.168 z" />
      <path
         inkscape:connector-curvature="0"
         id="path652"
         style="fill:#ffffff;fill-opacity:1;fill-rule:evenodd;stroke:none"
         d="m 2401.62,5725.87 21.168,0 0,21.168 -21.168,0 0,-21.168 z" />
      <path
         inkscape:connector-curvature="0"
         id="path654"
         style="fill:#ffffff;fill-opacity:1;fill-rule:evenodd;stroke:none"
         d="m 2401.62,5630.62 21.168,0 0,21.168 -21.168,0 0,-21.168 z" />
      <path
         inkscape:connector-curvature="0"
         id="path656"
         style="fill:#ffffff;fill-opacity:1;fill-rule:evenodd;stroke:none"
         d="m 2076.42,5757.62 21.168,0 0,21.168 -21.168,0 0,-21.168 z" />
      <path
         inkscape:connector-curvature="0"
         id="path658"
         style="fill:#ffffff;fill-opacity:1;fill-rule:evenodd;stroke:none"
         d="m 2076.42,5725.87 21.168,0 0,21.168 -21.168,0 0,-21.168 z" />
      <path
         inkscape:connector-curvature="0"
         id="path660"
         style="fill:#ffffff;fill-opacity:1;fill-rule:evenodd;stroke:none"
         d="m 2076.42,5694.12 21.168,0 0,21.1602 -21.168,0 0,-21.1602 z" />
      <path
         inkscape:connector-curvature="0"
         id="path662"
         style="fill:#ffffff;fill-opacity:1;fill-rule:evenodd;stroke:none"
         d="m 2076.42,5662.37 21.168,0 0,21.168 -21.168,0 0,-21.168 z" />
      <path
         inkscape:connector-curvature="0"
         id="path664"
         style="fill:#ffffff;fill-opacity:1;fill-rule:evenodd;stroke:none"
         d="m 2076.42,5630.62 21.168,0 0,21.168 -21.168,0 0,-21.168 z" />
      <path
         inkscape:connector-curvature="0"
         id="path666"
         style="fill:#ffffff;fill-opacity:1;fill-rule:evenodd;stroke:none"
         d="m 2206.5,5757.62 21.1719,0 0,21.168 -21.1719,0 0,-21.168 z" />
      <path
         inkscape:connector-curvature="0"
         id="path668"
         style="fill:#ffffff;fill-opacity:1;fill-rule:evenodd;stroke:none"
         d="m 2206.5,5725.87 21.1719,0 0,21.168 -21.1719,0 0,-21.168 z" />
      <path
         inkscape:connector-curvature="0"
         id="path670"
         style="fill:#ffffff;fill-opacity:1;fill-rule:evenodd;stroke:none"
         d="m 2206.5,5694.12 21.1719,0 0,21.1602 -21.1719,0 0,-21.1602 z" />
      <path
         inkscape:connector-curvature="0"
         id="path672"
         style="fill:#ffffff;fill-opacity:1;fill-rule:evenodd;stroke:none"
         d="m 2206.5,5662.37 21.1719,0 0,21.168 -21.1719,0 0,-21.168 z" />
      <path
         inkscape:connector-curvature="0"
         id="path674"
         style="fill:#ffffff;fill-opacity:1;fill-rule:evenodd;stroke:none"
         d="m 2206.5,5630.62 21.1719,0 0,21.168 -21.1719,0 0,-21.168 z" />
      <path
         inkscape:connector-curvature="0"
         id="path676"
         style="fill:#ffffff;fill-opacity:1;fill-rule:evenodd;stroke:none"
         d="m 2336.58,5757.62 21.168,0 0,21.168 -21.168,0 0,-21.168 z" />
      <path
         inkscape:connector-curvature="0"
         id="path678"
         style="fill:#ffffff;fill-opacity:1;fill-rule:evenodd;stroke:none"
         d="m 2336.58,5725.87 21.168,0 0,21.168 -21.168,0 0,-21.168 z" />
      <path
         inkscape:connector-curvature="0"
         id="path680"
         style="fill:#ffffff;fill-opacity:1;fill-rule:evenodd;stroke:none"
         d="m 2336.58,5662.37 21.168,0 0,21.168 -21.168,0 0,-21.168 z" />
      <path
         inkscape:connector-curvature="0"
         id="path682"
         style="fill:#ffffff;fill-opacity:1;fill-rule:evenodd;stroke:none"
         d="m 2336.58,5630.62 21.168,0 0,21.168 -21.168,0 0,-21.168 z" />
      <path
         inkscape:connector-curvature="0"
         id="path684"
         style="fill:#ffffff;fill-opacity:1;fill-rule:evenodd;stroke:none"
         d="m 2466.67,5757.62 21.1602,0 0,21.168 -21.1602,0 0,-21.168 z" />
      <path
         inkscape:connector-curvature="0"
         id="path686"
         style="fill:#ffffff;fill-opacity:1;fill-rule:evenodd;stroke:none"
         d="m 2466.67,5725.87 21.1602,0 0,21.168 -21.1602,0 0,-21.168 z" />
      <path
         inkscape:connector-curvature="0"
         id="path688"
         style="fill:#ffffff;fill-opacity:1;fill-rule:evenodd;stroke:none"
         d="m 2466.67,5694.12 21.1602,0 0,21.1602 -21.1602,0 0,-21.1602 z" />
      <path
         inkscape:connector-curvature="0"
         id="path690"
         style="fill:#ffffff;fill-opacity:1;fill-rule:evenodd;stroke:none"
         d="m 2466.67,5630.62 21.1602,0 0,21.168 -21.1602,0 0,-21.168 z" />
      <path
         inkscape:connector-curvature="0"
         id="path692"
         style="fill:#ffffff;fill-opacity:1;fill-rule:evenodd;stroke:none"
         d="m 2499.18,5757.62 21.1719,0 0,21.168 -21.1719,0 0,-21.168 z" />
      <path
         inkscape:connector-curvature="0"
         id="path694"
         style="fill:#ffffff;fill-opacity:1;fill-rule:evenodd;stroke:none"
         d="m 2499.18,5694.12 21.1719,0 0,21.1602 -21.1719,0 0,-21.1602 z" />
      <path
         inkscape:connector-curvature="0"
         id="path696"
         style="fill:#ffffff;fill-opacity:1;fill-rule:evenodd;stroke:none"
         d="m 2499.18,5630.62 21.1719,0 0,21.168 -21.1719,0 0,-21.168 z" />
      <path
         inkscape:connector-curvature="0"
         id="path698"
         style="fill:#ffffff;fill-opacity:1;fill-rule:evenodd;stroke:none"
         d="m 2531.7,5757.62 21.1719,0 0,21.168 -21.1719,0 0,-21.168 z" />
      <path
         inkscape:connector-curvature="0"
         id="path700"
         style="fill:#ffffff;fill-opacity:1;fill-rule:evenodd;stroke:none"
         d="m 2531.7,5694.12 21.1719,0 0,21.1602 -21.1719,0 0,-21.1602 z" />
      <path
         inkscape:connector-curvature="0"
         id="path702"
         style="fill:#ffffff;fill-opacity:1;fill-rule:evenodd;stroke:none"
         d="m 2531.7,5662.37 21.1719,0 0,21.168 -21.1719,0 0,-21.168 z" />
      <path
         inkscape:connector-curvature="0"
         id="path704"
         style="fill:#ffffff;fill-opacity:1;fill-rule:evenodd;stroke:none"
         d="m 2531.7,5630.62 21.1719,0 0,21.168 -21.1719,0 0,-21.168 z" />
    </g>
  </g>
</svg>
