<?xml version="1.0" encoding="UTF-8" standalone="no"?>
<!-- Created with Inkscape (http://www.inkscape.org/) -->

<svg
   xmlns:dc="http://purl.org/dc/elements/1.1/"
   xmlns:cc="http://creativecommons.org/ns#"
   xmlns:rdf="http://www.w3.org/1999/02/22-rdf-syntax-ns#"
   xmlns:svg="http://www.w3.org/2000/svg"
   xmlns="http://www.w3.org/2000/svg"
   xmlns:xlink="http://www.w3.org/1999/xlink"
   xmlns:sodipodi="http://sodipodi.sourceforge.net/DTD/sodipodi-0.dtd"
   xmlns:inkscape="http://www.inkscape.org/namespaces/inkscape"
   width="66.059029"
   height="66.349236"
   id="svg7794"
   version="1.1"
   inkscape:version="0.48.4 r9939"
   sodipodi:docname="Novo documento 8">
  <defs
     id="defs7796">
    <clipPath
       clipPathUnits="userSpaceOnUse"
       id="clipPath1658">
      <path
         inkscape:connector-curvature="0"
         d="m 4015.85,2595.69 c -25.9,3.34 -41.61,10.29 -41.74,10.37 l 0.03,0.68 c 1.32,0.85 2.9,0.85 10.06,0.01 14.63,-1.71 18.45,1.72 18.49,1.76 -0.68,1.4 -9.73,7.42 -17.74,10.11 -3.53,1.17 -3.8,1.41 -4.61,2.06 l -0.02,0.53 c 0.31,0.26 1.26,1.07 5.39,1.6 7,0.91 14.1,0.11 21.1,1.23 5.6,0.88 11.04,2.77 16.81,2.8 10.13,0.07 19.38,-4.86 29.45,-5.16 1.19,-0.02 29.03,-0.99 37.52,-10.53 1.02,-1.15 1.25,-2.6 -9.21,-4.97 -1.61,-0.35 -10.08,-2.5 -11.29,-3.68 0.2,-0.02 5.2,-0.66 20.24,2.09 l 1.14,0.21 c 4.22,0.78 4.51,0.7 5.43,0.46 -0.43,-1 -33.43,-15.77 -81.05,-9.57 z m 297.91,221.26 c -0.11,-1.74 -0.2,-3.48 -2.04,-4.54 -0.42,0.15 -0.64,0.23 -0.89,1.68 -0.36,1.86 -0.4,3.73 -0.38,5.62 -1.18,-2.76 -2.19,-5.59 -3.07,-8.44 -0.54,-2.65 -1.09,-5.64 -1.6,-9.09 -1.22,-8.45 -3.91,-16.74 -7.83,-24.79 -1.25,-3.33 -2.64,-6.61 -4.41,-9.76 -0.05,-0.08 -1.69,-1.9 -4.16,-4.64 -0.92,-1.23 -1.8,-2.27 -2.91,-3.46 l -1.07,-0.96 c -9.96,-11.01 -25.57,-28.16 -25.98,-28.27 l -1.6,1.48 c 1.33,4.58 2.26,7.75 2.78,10.02 0.05,2.33 0.09,4.09 0.1,5.45 -0.42,0.68 -1.11,1.21 -2.13,1.92 -8.59,-9.99 -13.06,-22.78 -22.07,-32.47 -1.14,-1.24 -20.76,-13.75 -20.93,-13.86 -4.98,-2.94 -9.69,-0.83 -14.22,1.98 -4.3,2.17 -8.5,5.27 -12.54,6.27 -2.36,0.16 -4.69,-0.7 -6.96,-3.44 -19.57,-23.31 -19.57,-23.31 -28.65,-26.43 -1.01,-0.35 -2.38,-0.78 -3.4,-1.11 -1.64,-0.47 -4.08,0.59 -5.47,1.6 -3.9,23.41 15.44,55.87 21.43,65.23 -19.33,14.82 -21.7,13.37 -61.21,-11.12 -23.04,-14.25 -18.87,2.41 -11.29,18.9 8.18,17.87 24.69,31.84 24.98,53.39 0.08,5.89 0.08,5.89 -11.42,26.02 -6.64,11.65 -3,25.21 -6.96,37.33 -2.01,6.15 -2.46,6.44 -4.93,8.04 -0.14,-0.15 -11.59,-17.19 -3.38,-28.53 0.24,-0.36 23.61,-33.78 -5.38,-35.34 -18.4,-1.62 -28.53,-2.5 -49.76,11 -8.61,5.46 -4.78,15.79 18.47,66.04 13.44,28.99 13.44,28.99 27.54,33.28 l 0.54,1.95 c -9.66,11.73 -9.66,11.73 -10.68,14.88 -2.2,6.65 0.61,10.79 1.93,12.77 3.51,5.17 3.8,5.59 1.08,8.63 -5.78,-0.6 -11.27,-9.82 -16.85,-3.88 -6.21,6.66 7.5,12.01 2.51,19.17 -5.59,4.64 -10.04,-4.97 -15.56,-1.25 -0.11,0.09 -0.2,0.18 -1.32,1.51 -3.74,10.16 7.47,32.3 -7.7,31.33 -18.75,-1.21 -30.14,-1.94 -37.29,-1.88 4.05,-1.43 7.96,-3.47 11.59,-6.28 12.46,-10.89 7.79,-28.08 15.01,-40.89 6.39,-11.34 20.88,-13.74 27.48,-24.85 5.22,-8.78 5.84,-12.92 6.4,-16.57 0.49,-3.29 -0.55,-7.76 -1.09,-11.04 -2.82,-16.74 -14.07,-29.48 -21.01,-44.25 -0.59,-1.29 -0.59,-1.29 -8.29,-30.86 -2.62,-10.02 -2.62,-10.02 6.24,-14.46 9.64,-4.82 11.69,-7.44 4.92,-13.47 -0.4,-0.36 -10.57,-9.1 -19.74,-8.19 -35.43,3.5 -43.35,-5.98 -59.12,-24.87 -8.6,-10.3 -11.82,-14.14 -17.21,-15.41 -18.72,-4.4 -18.72,-4.4 -20.53,-7.05 -10.41,-15.34 -46.54,-25.85 -50.54,-6.8 -2.69,12.72 12.32,59.09 13.75,62.22 3.3,7.16 10.58,10.76 15.08,16.81 5.64,7.58 5.95,12.43 6.74,24.11 1,15.25 19.22,23.74 16.02,40.64 -3.74,19.73 -31.74,7.33 -35.6,26.89 -0.62,18.81 -1.68,50.3 42.27,82.15 0.34,0.23 29.19,17.41 56.24,14.67 -1.15,1.12 -1.75,2.62 -2.56,4.62 -3.77,9.43 8.38,16.3 23.72,20.92 l 1.04,0.37 0.61,0.12 c 19.12,5.48 42.38,7.61 46.09,7 35.34,-5.85 35.34,-5.85 36.53,-5.03 4.95,3.48 4.09,11.71 11.11,13.46 16.86,4.23 41.25,2.01 46.66,1 38.54,-7.19 43.64,-30.64 44.28,-35.26 1.7,-12.43 1.7,-12.43 31.06,-29.66 9.13,-5.35 20.18,-5.19 29.46,-10.15 4.43,-2.36 6.9,-6.92 10.38,-10.34 4.07,-1.77 6.94,-2.88 9.09,-3.54 2.96,0.71 5.79,2.62 8.94,1.56 l 1.7,-2.2 c 1.75,-2.86 3.05,-5.92 4.12,-9.05 7.39,-15.49 10.35,-32.71 17.35,-48.35 1.15,-1.21 2.42,-2.39 3.81,-3.49 -0.16,1.52 -0.16,3.61 -0.03,5.14 l 0.08,-0.28 c -12.42,60.28 -45.69,116.57 -98.39,156.94 -116.33,89.16 -282.94,67.12 -372.09,-49.2 -89.14,-116.35 -67.1,-282.92 49.24,-372.1 116.34,-89.13 282.93,-67.09 372.07,49.25 29.33,38.27 46.56,81.96 52.42,126.55 l -0.11,-0.18 c -0.05,-0.99 -0.11,-1.97 -0.51,-2.83 z"
         id="path1660" />
    </clipPath>
    <radialGradient
       fx="0"
       fy="0"
       cx="0"
       cy="0"
       r="1"
       gradientUnits="userSpaceOnUse"
       gradientTransform="matrix(27.5193,-21.0885,-21.0885,-27.5193,406.801,294.767)"
       spreadMethod="pad"
       id="radialGradient1662">
      <stop
         style="stop-opacity:1;stop-color:#8fb4e3"
         offset="0"
         id="stop1664" />
      <stop
         style="stop-opacity:1;stop-color:#354da7"
         offset="0.793939"
         id="stop1666" />
      <stop
         style="stop-opacity:1;stop-color:#14232e"
         offset="1"
         id="stop1668" />
    </radialGradient>
    <clipPath
       clipPathUnits="userSpaceOnUse"
       id="clipPath1658-7">
      <path
         inkscape:connector-curvature="0"
         d="m 4015.85,2595.69 c -25.9,3.34 -41.61,10.29 -41.74,10.37 l 0.03,0.68 c 1.32,0.85 2.9,0.85 10.06,0.01 14.63,-1.71 18.45,1.72 18.49,1.76 -0.68,1.4 -9.73,7.42 -17.74,10.11 -3.53,1.17 -3.8,1.41 -4.61,2.06 l -0.02,0.53 c 0.31,0.26 1.26,1.07 5.39,1.6 7,0.91 14.1,0.11 21.1,1.23 5.6,0.88 11.04,2.77 16.81,2.8 10.13,0.07 19.38,-4.86 29.45,-5.16 1.19,-0.02 29.03,-0.99 37.52,-10.53 1.02,-1.15 1.25,-2.6 -9.21,-4.97 -1.61,-0.35 -10.08,-2.5 -11.29,-3.68 0.2,-0.02 5.2,-0.66 20.24,2.09 l 1.14,0.21 c 4.22,0.78 4.51,0.7 5.43,0.46 -0.43,-1 -33.43,-15.77 -81.05,-9.57 z m 297.91,221.26 c -0.11,-1.74 -0.2,-3.48 -2.04,-4.54 -0.42,0.15 -0.64,0.23 -0.89,1.68 -0.36,1.86 -0.4,3.73 -0.38,5.62 -1.18,-2.76 -2.19,-5.59 -3.07,-8.44 -0.54,-2.65 -1.09,-5.64 -1.6,-9.09 -1.22,-8.45 -3.91,-16.74 -7.83,-24.79 -1.25,-3.33 -2.64,-6.61 -4.41,-9.76 -0.05,-0.08 -1.69,-1.9 -4.16,-4.64 -0.92,-1.23 -1.8,-2.27 -2.91,-3.46 l -1.07,-0.96 c -9.96,-11.01 -25.57,-28.16 -25.98,-28.27 l -1.6,1.48 c 1.33,4.58 2.26,7.75 2.78,10.02 0.05,2.33 0.09,4.09 0.1,5.45 -0.42,0.68 -1.11,1.21 -2.13,1.92 -8.59,-9.99 -13.06,-22.78 -22.07,-32.47 -1.14,-1.24 -20.76,-13.75 -20.93,-13.86 -4.98,-2.94 -9.69,-0.83 -14.22,1.98 -4.3,2.17 -8.5,5.27 -12.54,6.27 -2.36,0.16 -4.69,-0.7 -6.96,-3.44 -19.57,-23.31 -19.57,-23.31 -28.65,-26.43 -1.01,-0.35 -2.38,-0.78 -3.4,-1.11 -1.64,-0.47 -4.08,0.59 -5.47,1.6 -3.9,23.41 15.44,55.87 21.43,65.23 -19.33,14.82 -21.7,13.37 -61.21,-11.12 -23.04,-14.25 -18.87,2.41 -11.29,18.9 8.18,17.87 24.69,31.84 24.98,53.39 0.08,5.89 0.08,5.89 -11.42,26.02 -6.64,11.65 -3,25.21 -6.96,37.33 -2.01,6.15 -2.46,6.44 -4.93,8.04 -0.14,-0.15 -11.59,-17.19 -3.38,-28.53 0.24,-0.36 23.61,-33.78 -5.38,-35.34 -18.4,-1.62 -28.53,-2.5 -49.76,11 -8.61,5.46 -4.78,15.79 18.47,66.04 13.44,28.99 13.44,28.99 27.54,33.28 l 0.54,1.95 c -9.66,11.73 -9.66,11.73 -10.68,14.88 -2.2,6.65 0.61,10.79 1.93,12.77 3.51,5.17 3.8,5.59 1.08,8.63 -5.78,-0.6 -11.27,-9.82 -16.85,-3.88 -6.21,6.66 7.5,12.01 2.51,19.17 -5.59,4.64 -10.04,-4.97 -15.56,-1.25 -0.11,0.09 -0.2,0.18 -1.32,1.51 -3.74,10.16 7.47,32.3 -7.7,31.33 -18.75,-1.21 -30.14,-1.94 -37.29,-1.88 4.05,-1.43 7.96,-3.47 11.59,-6.28 12.46,-10.89 7.79,-28.08 15.01,-40.89 6.39,-11.34 20.88,-13.74 27.48,-24.85 5.22,-8.78 5.84,-12.92 6.4,-16.57 0.49,-3.29 -0.55,-7.76 -1.09,-11.04 -2.82,-16.74 -14.07,-29.48 -21.01,-44.25 -0.59,-1.29 -0.59,-1.29 -8.29,-30.86 -2.62,-10.02 -2.62,-10.02 6.24,-14.46 9.64,-4.82 11.69,-7.44 4.92,-13.47 -0.4,-0.36 -10.57,-9.1 -19.74,-8.19 -35.43,3.5 -43.35,-5.98 -59.12,-24.87 -8.6,-10.3 -11.82,-14.14 -17.21,-15.41 -18.72,-4.4 -18.72,-4.4 -20.53,-7.05 -10.41,-15.34 -46.54,-25.85 -50.54,-6.8 -2.69,12.72 12.32,59.09 13.75,62.22 3.3,7.16 10.58,10.76 15.08,16.81 5.64,7.58 5.95,12.43 6.74,24.11 1,15.25 19.22,23.74 16.02,40.64 -3.74,19.73 -31.74,7.33 -35.6,26.89 -0.62,18.81 -1.68,50.3 42.27,82.15 0.34,0.23 29.19,17.41 56.24,14.67 -1.15,1.12 -1.75,2.62 -2.56,4.62 -3.77,9.43 8.38,16.3 23.72,20.92 l 1.04,0.37 0.61,0.12 c 19.12,5.48 42.38,7.61 46.09,7 35.34,-5.85 35.34,-5.85 36.53,-5.03 4.95,3.48 4.09,11.71 11.11,13.46 16.86,4.23 41.25,2.01 46.66,1 38.54,-7.19 43.64,-30.64 44.28,-35.26 1.7,-12.43 1.7,-12.43 31.06,-29.66 9.13,-5.35 20.18,-5.19 29.46,-10.15 4.43,-2.36 6.9,-6.92 10.38,-10.34 4.07,-1.77 6.94,-2.88 9.09,-3.54 2.96,0.71 5.79,2.62 8.94,1.56 l 1.7,-2.2 c 1.75,-2.86 3.05,-5.92 4.12,-9.05 7.39,-15.49 10.35,-32.71 17.35,-48.35 1.15,-1.21 2.42,-2.39 3.81,-3.49 -0.16,1.52 -0.16,3.61 -0.03,5.14 l 0.08,-0.28 c -12.42,60.28 -45.69,116.57 -98.39,156.94 -116.33,89.16 -282.94,67.12 -372.09,-49.2 -89.14,-116.35 -67.1,-282.92 49.24,-372.1 116.34,-89.13 282.93,-67.09 372.07,49.25 29.33,38.27 46.56,81.96 52.42,126.55 l -0.11,-0.18 c -0.05,-0.99 -0.11,-1.97 -0.51,-2.83 z"
         id="path1660-5" />
    </clipPath>
    <radialGradient
       fx="0"
       fy="0"
       cx="0"
       cy="0"
       r="1"
       gradientUnits="userSpaceOnUse"
       gradientTransform="matrix(27.5193,-21.0885,-21.0885,-27.5193,406.801,294.767)"
       spreadMethod="pad"
       id="radialGradient1662-3">
      <stop
         style="stop-opacity:1;stop-color:#8fb4e3"
         offset="0"
         id="stop1664-5" />
      <stop
         style="stop-opacity:1;stop-color:#354da7"
         offset="0.793939"
         id="stop1666-6" />
      <stop
         style="stop-opacity:1;stop-color:#14232e"
         offset="1"
         id="stop1668-2" />
    </radialGradient>
    <clipPath
       clipPathUnits="userSpaceOnUse"
       id="clipPath2662">
      <path
         inkscape:connector-curvature="0"
         d="m 4311.25,2899.24 c -1.48,2.58 -2.79,5.23 -4,7.92 -12.7,13.17 -11.73,32.04 -17.25,48.19 -1.15,2.43 -2.41,4.81 -3.79,7.14 l -0.16,0.22 c -0.65,0.91 -1.8,1.87 -2.71,2.5 -2.53,-0.8 -4.02,-1.27 -8.18,-0.02 -1.33,-0.31 -2.66,-0.4 -4.09,0.13 -1.98,0.78 -3.57,2.01 -5,3.41 -7.33,3.18 -18.62,8.49 -36.83,17.05 l -32.05,19.93 c -1.69,1.68 -2.55,3.38 -3.05,5.16 -3.61,7.94 -3.76,17.32 -9.26,24.45 -3.85,4.54 -8.9,8.68 -14.96,11.77 l -0.83,0.41 c -1.32,0.64 -2.69,1.22 -4.08,1.77 -2.01,0.76 -4.07,1.45 -6.26,2 -16.77,4.13 -56.61,4.57 -58.35,-3.9 -2.89,-14.04 -11.97,-11.71 -19.95,-9.63 -28.17,7.3 -28.89,7.46 -69.95,-0.03 l -1.65,-0.49 c -5.21,-1.87 -17.95,-11.4 -20.8,-16.37 -6.74,-11.68 15.74,-9.97 46.85,-7.61 12.81,0.99 12.96,-0.73 13.51,-6.41 0.79,-8.32 -1.98,-16.3 -2.33,-24.51 l 1.25,-2.07 c 0.06,-0.08 0.14,-0.14 1.54,-0.99 10.6,4.78 10.6,4.78 13.92,2.27 l 0.36,-0.34 c 2.19,-3.44 2.19,-3.44 -3.36,-17.28 3.13,-6.15 9.36,2.74 14.27,3.13 3.5,0.27 5.89,-3.42 5.94,-5.98 0.1,-4.92 -4.92,-7.52 -5.59,-12.12 -1.42,-9.89 12.26,-11.42 11.57,-20.9 -0.61,-8.09 -11.45,-2.84 -15.37,-7.76 l -35.47,-86.85 c 0.02,-0.15 5.62,-10.03 23.92,-13.92 6.86,-1.25 15.6,-1.79 26.78,-0.99 l 0.83,0.07 c 20.75,1.9 -2.86,30.3 -0.36,46.07 l 0.16,1.01 c 4.46,18.65 9.43,18.81 11.66,15.95 1.05,-1.35 2.12,-2.75 3.82,-7.3 l 1.03,-2.88 c 3.46,-9.88 2.26,-20.46 4.65,-30.5 1.78,-7.61 10.31,-10.63 12.31,-18.12 6.39,-23.73 -5.67,-40.21 -9.61,-45.61 -24.77,-33.87 -18.71,-44.92 -18.63,-45.02 25.36,5.65 48.51,41.95 75.94,17.5 l -15.35,-39.53 c -8.94,-14.16 -6.7,-23.55 -4.58,-27.91 l 2.68,0.05 2.61,0.87 c 8.48,2.91 10.16,4.94 26.17,24.42 3.1,3.76 6.32,4.33 9.64,3.5 4.04,-0.24 8.21,-3.54 12.54,-6.27 3.97,-1.96 8,-3.13 12.11,-1.04 21.87,11.2 23.11,13.41 31.16,27.96 2.77,5.03 11.18,17.97 15.55,20.21 0.42,-0.39 0.58,-0.56 0.53,-4.7 0.62,-1.04 0.61,-2.43 -0.1,-5.45 -0.06,-2.34 -0.14,-5.24 -0.23,-8.88 2.85,0.55 2.85,0.55 9.94,14.02 3.24,6.19 10.31,7.44 15.09,11.63 1.49,1.66 2.82,3.11 3.98,4.42 0.8,1.03 1.6,2.19 2.59,3.71 2.3,3.5 4.23,7.08 5.98,10.69 4.1,10.99 5.98,22.67 9.43,33.88 0.95,4.33 1.97,7.58 3.07,9.7 0.06,2.54 0.14,5.08 -0.27,7.58 -0.89,5.12 -3.51,9.72 -4.36,14.83 -0.03,0.12 -1.97,12.39 -1.97,16.26 0,2.67 0.46,4 0.6,4.36 1.02,2.5 4.43,2.68 5.24,5.38 0.21,0.66 0.5,2.33 1.01,5.6 0.84,5.25 1.17,5.43 1.72,5.74 1.58,-0.76 1.29,-2.5 2,-3.72 l 0.39,0.09 c 0.05,0.12 0.41,1.86 0.32,6.02 -0.78,7.16 -1.81,14.29 -3.17,21.38 l -0.91,1.79 c 0.46,-4.67 0.46,-4.67 0.2,-7.04 z"
         id="path2664" />
    </clipPath>
    <radialGradient
       fx="0"
       fy="0"
       cx="0"
       cy="0"
       r="1"
       gradientUnits="userSpaceOnUse"
       gradientTransform="matrix(27.5186,-21.0879,-21.0879,-27.5186,406.802,294.768)"
       spreadMethod="pad"
       id="radialGradient2666">
      <stop
         style="stop-opacity:1;stop-color:#8fb4e3"
         offset="0"
         id="stop2668" />
      <stop
         style="stop-opacity:1;stop-color:#354da7"
         offset="0.793939"
         id="stop2670" />
      <stop
         style="stop-opacity:1;stop-color:#14232e"
         offset="1"
         id="stop2672" />
    </radialGradient>
    <radialGradient
       fx="0"
       fy="0"
       cx="0"
       cy="0"
       r="1"
       gradientUnits="userSpaceOnUse"
       gradientTransform="matrix(36.8018,-28.2018,-28.2018,-36.8018,402.579,305.037)"
       spreadMethod="pad"
       id="radialGradient2676">
      <stop
         style="stop-opacity:1;stop-color:#c9e213"
         offset="0"
         id="stop2678" />
      <stop
         style="stop-opacity:1;stop-color:#79af2b"
         offset="0.757576"
         id="stop2680" />
      <stop
         style="stop-opacity:1;stop-color:#446627"
         offset="1"
         id="stop2682" />
    </radialGradient>
    <clipPath
       clipPathUnits="userSpaceOnUse"
       id="clipPath1972">
      <path
         inkscape:connector-curvature="0"
         d="m 4008.79,3000.69 -2.29,1.57 c -8.2,5.24 -20.28,7.47 -33.6,6.37 l -41.04,-13.91 c -14.37,-10.17 -23.61,-20.78 -29.61,-30.96 -7.04,-12.88 -11.2,-28.69 -10.81,-47.64 0.08,-1.02 0.3,-1.88 0.79,-2.65 l 0.14,-0.16 0.68,-0.79 0.26,-0.28 0.16,-0.12 c 1.18,-0.82 2.43,-1.49 3.76,-2.08 1.48,-0.61 3.31,-1.24 5.57,-1.92 9.58,-2.63 20.22,-3.51 23.65,-16.16 l 0.03,-0.14 c 2.56,-8.02 -0.1,-14.43 -3.91,-20.44 -4.58,-7.76 -10.96,-14.91 -11.57,-24.04 -0.37,-4.99 -0.64,-8.57 -1.18,-11.71 -0.51,-3.94 -1.02,-5.03 -2.23,-7.4 l -0.29,-0.46 -0.97,-1.97 c -4.18,-7.82 -12.81,-11.71 -17.18,-19.37 -0.14,-0.26 -14.68,-50.3 -14.82,-57.32 -0.31,-13.96 13.65,-13.57 13.78,-13.55 l 31.51,13.43 c 3.3,3.29 4.63,8.35 9.26,10.47 5.39,2.47 11.23,-0.55 16.68,1.42 15.83,5.74 19.28,23.33 31.32,32.7 18.26,14.19 43.59,-0.65 61.52,14.91 1.6,1.4 1.98,1.99 2.92,3.4 -2.48,6.75 -9.76,6.09 -14.49,9.35 -2.38,1.65 -2.38,1.65 0.46,17.77 3.21,18.27 4.53,25.82 17.59,46.25 14.62,22.84 11.47,37.32 11.06,38.88 -0.1,0.39 -0.56,1.79 -1.38,3.76 l -0.14,0.32 -0.48,1.13 -0.28,0.58 -0.59,1.27 -0.24,0.48 c -0.6,1.24 -1.32,2.55 -2.12,3.88 -5.85,9.57 -17.17,12.9 -24.45,20.84 l -0.56,0.55 -0.86,1.07 -0.6,0.72 -0.24,0.39 -0.3,0.46 c -7.91,12.11 -2.51,28.92 -13.55,39.92 l -1.36,1.18 z"
         id="path1974" />
    </clipPath>
    <radialGradient
       fx="0"
       fy="0"
       cx="0"
       cy="0"
       r="1"
       gradientUnits="userSpaceOnUse"
       gradientTransform="matrix(27.5183,-21.0877,-21.0877,-27.5183,406.802,294.768)"
       spreadMethod="pad"
       id="radialGradient1976">
      <stop
         style="stop-opacity:1;stop-color:#8fb4e3"
         offset="0"
         id="stop1978" />
      <stop
         style="stop-opacity:1;stop-color:#354da7"
         offset="0.793939"
         id="stop1980" />
      <stop
         style="stop-opacity:1;stop-color:#14232e"
         offset="1"
         id="stop1982" />
    </radialGradient>
    <radialGradient
       fx="0"
       fy="0"
       cx="0"
       cy="0"
       r="1"
       gradientUnits="userSpaceOnUse"
       gradientTransform="matrix(36.8011,-28.2012,-28.2012,-36.8011,402.581,305.037)"
       spreadMethod="pad"
       id="radialGradient1986">
      <stop
         style="stop-opacity:1;stop-color:#c9e213"
         offset="0"
         id="stop1988" />
      <stop
         style="stop-opacity:1;stop-color:#79af2b"
         offset="0.757576"
         id="stop1990" />
      <stop
         style="stop-opacity:1;stop-color:#446627"
         offset="1"
         id="stop1992" />
    </radialGradient>
    <clipPath
       clipPathUnits="userSpaceOnUse"
       id="clipPath4422">
      <path
         inkscape:connector-curvature="0"
         d="m 4016.11,2595.95 c -24.11,3.06 -39.2,9.39 -39.3,9.44 l 0.1,0.57 c 1.21,0.84 2.54,0.86 8.92,0.11 15.72,-1.81 19.62,2.08 19.63,2.12 0.42,0.96 -3.02,2.83 -5.26,4.06 -2.81,1.52 -5.36,3.48 -8.31,4.75 -2.93,1.28 -6.28,1.48 -8.93,3.47 0.28,0.46 0.66,1.13 4.59,1.6 6.17,0.74 12.4,0.21 18.61,0.85 5.07,0.53 9.93,2.21 15,2.69 1.62,0.15 3.77,0.3 5.37,0.13 1.65,-0.16 1.65,-0.16 18.68,-4.59 3.47,-0.91 7.07,-0.33 10.55,-0.96 6.83,-1.19 13.77,-1.48 20.49,-3.19 2.58,-0.66 11.79,-6.45 11.91,-7.02 0.12,-0.46 0.33,-1.34 -7.82,-3.21 -0.09,-0.02 -11.31,-2.66 -13.15,-4.34 l 0.74,-0.37 c 1.32,-0.32 3.03,-0.43 5.28,-0.31 4.08,0.23 9.77,1.06 15.96,2.01 1.52,0.25 3.15,0.5 4.86,0.78 -0.24,-0.15 -31.37,-14.48 -77.92,-8.59 z m 75.36,8.85 -1.14,-0.21 c -15.04,-2.75 -20.04,-2.11 -20.24,-2.09 1.21,1.18 9.68,3.33 11.29,3.68 10.46,2.37 10.23,3.82 9.21,4.97 -8.49,9.54 -36.33,10.51 -37.52,10.53 -10.07,0.3 -19.32,5.23 -29.45,5.16 -5.77,-0.03 -11.21,-1.92 -16.81,-2.8 -7,-1.12 -14.1,-0.32 -21.1,-1.23 -4.13,-0.53 -5.08,-1.34 -5.39,-1.6 l 0.02,-0.53 c 0.81,-0.65 1.08,-0.89 4.61,-2.06 8.01,-2.69 17.06,-8.71 17.74,-10.11 -0.04,-0.04 -3.86,-3.47 -18.49,-1.76 -7.16,0.84 -8.74,0.84 -10.06,-0.01 l -0.03,-0.68 c 0.13,-0.08 15.84,-7.03 41.74,-10.37 47.62,-6.2 80.62,8.57 81.05,9.57 -0.92,0.24 -1.21,0.32 -5.43,-0.46 z"
         id="path4424" />
    </clipPath>
    <radialGradient
       fx="0"
       fy="0"
       cx="0"
       cy="0"
       r="1"
       gradientUnits="userSpaceOnUse"
       gradientTransform="matrix(27.5196,-21.0887,-21.0887,-27.5196,406.806,294.768)"
       spreadMethod="pad"
       id="radialGradient4426">
      <stop
         style="stop-opacity:1;stop-color:#8fb4e3"
         offset="0"
         id="stop4428" />
      <stop
         style="stop-opacity:1;stop-color:#354da7"
         offset="0.793939"
         id="stop4430" />
      <stop
         style="stop-opacity:1;stop-color:#14232e"
         offset="1"
         id="stop4432" />
    </radialGradient>
    <radialGradient
       fx="0"
       fy="0"
       cx="0"
       cy="0"
       r="1"
       gradientUnits="userSpaceOnUse"
       gradientTransform="matrix(36.8011,-28.2012,-28.2012,-36.8011,402.585,305.037)"
       spreadMethod="pad"
       id="radialGradient4436">
      <stop
         style="stop-opacity:1;stop-color:#aad81c"
         offset="0"
         id="stop4438" />
      <stop
         style="stop-opacity:1;stop-color:#57802c"
         offset="0.757576"
         id="stop4440" />
      <stop
         style="stop-opacity:1;stop-color:#446627"
         offset="1"
         id="stop4442" />
    </radialGradient>
    <radialGradient
       inkscape:collect="always"
       xlink:href="#radialGradient1662-3"
       id="radialGradient8071"
       gradientUnits="userSpaceOnUse"
       gradientTransform="matrix(27.5193,-21.0885,-21.0885,-27.5193,406.801,294.767)"
       spreadMethod="pad"
       cx="0"
       cy="0"
       fx="0"
       fy="0"
       r="1" />
    <radialGradient
       inkscape:collect="always"
       xlink:href="#radialGradient1976"
       id="radialGradient8073"
       gradientUnits="userSpaceOnUse"
       gradientTransform="matrix(27.5183,-21.0877,-21.0877,-27.5183,406.802,294.768)"
       spreadMethod="pad"
       cx="0"
       cy="0"
       fx="0"
       fy="0"
       r="1" />
    <radialGradient
       inkscape:collect="always"
       xlink:href="#radialGradient1986"
       id="radialGradient8075"
       gradientUnits="userSpaceOnUse"
       gradientTransform="matrix(36.8011,-28.2012,-28.2012,-36.8011,402.581,305.037)"
       spreadMethod="pad"
       cx="0"
       cy="0"
       fx="0"
       fy="0"
       r="1" />
    <radialGradient
       inkscape:collect="always"
       xlink:href="#radialGradient2666"
       id="radialGradient8077"
       gradientUnits="userSpaceOnUse"
       gradientTransform="matrix(27.5186,-21.0879,-21.0879,-27.5186,406.802,294.768)"
       spreadMethod="pad"
       cx="0"
       cy="0"
       fx="0"
       fy="0"
       r="1" />
    <radialGradient
       inkscape:collect="always"
       xlink:href="#radialGradient2676"
       id="radialGradient8079"
       gradientUnits="userSpaceOnUse"
       gradientTransform="matrix(36.8018,-28.2018,-28.2018,-36.8018,402.579,305.037)"
       spreadMethod="pad"
       cx="0"
       cy="0"
       fx="0"
       fy="0"
       r="1" />
    <radialGradient
       inkscape:collect="always"
       xlink:href="#radialGradient4426"
       id="radialGradient8081"
       gradientUnits="userSpaceOnUse"
       gradientTransform="matrix(27.5196,-21.0887,-21.0887,-27.5196,406.806,294.768)"
       spreadMethod="pad"
       cx="0"
       cy="0"
       fx="0"
       fy="0"
       r="1" />
    <radialGradient
       inkscape:collect="always"
       xlink:href="#radialGradient4436"
       id="radialGradient8083"
       gradientUnits="userSpaceOnUse"
       gradientTransform="matrix(36.8011,-28.2012,-28.2012,-36.8011,402.585,305.037)"
       spreadMethod="pad"
       cx="0"
       cy="0"
       fx="0"
       fy="0"
       r="1" />
  </defs>
  <sodipodi:namedview
     id="base"
     pagecolor="#ffffff"
     bordercolor="#666666"
     borderopacity="1.0"
     inkscape:pageopacity="0.0"
     inkscape:pageshadow="2"
     inkscape:zoom="2.8"
     inkscape:cx="38.386135"
     inkscape:cy="30.916379"
     inkscape:document-units="px"
     inkscape:current-layer="layer1"
     showgrid="false"
     fit-margin-top="0"
     fit-margin-left="0"
     fit-margin-right="0"
     fit-margin-bottom="0"
     inkscape:window-width="1366"
     inkscape:window-height="716"
     inkscape:window-x="0"
     inkscape:window-y="0"
     inkscape:window-maximized="1" />
  <metadata
     id="metadata7799">
    <rdf:RDF>
      <cc:Work
         rdf:about="">
        <dc:format>image/svg+xml</dc:format>
        <dc:type
           rdf:resource="http://purl.org/dc/dcmitype/StillImage" />
        <dc:title></dc:title>
      </cc:Work>
    </rdf:RDF>
  </metadata>
  <g
     inkscape:label="Camada 1"
     inkscape:groupmode="layer"
     id="layer1"
     transform="translate(-324.11334,-276.33043)">
    <g
       id="g8054"
       transform="translate(-59.779855,-26.388905)">
      <g
         id="g1654"
         transform="matrix(0.125,0,0,-0.125,-89.345276,692.74679)">
        <g
           clip-path="url(#clipPath1658-7)"
           id="g1656">
          <path
             id="path1670"
             style="fill:url(#radialGradient8071);fill-opacity:1;fill-rule:nonzero;stroke:none"
             d="m 4015.85,2595.69 c -25.9,3.34 -41.61,10.29 -41.74,10.37 l 0.03,0.68 c 1.32,0.85 2.9,0.85 10.06,0.01 14.63,-1.71 18.45,1.72 18.49,1.76 -0.68,1.4 -9.73,7.42 -17.74,10.11 -3.53,1.17 -3.8,1.41 -4.61,2.06 l -0.02,0.53 c 0.31,0.26 1.26,1.07 5.39,1.6 7,0.91 14.1,0.11 21.1,1.23 5.6,0.88 11.04,2.77 16.81,2.8 10.13,0.07 19.38,-4.86 29.45,-5.16 1.19,-0.02 29.03,-0.99 37.52,-10.53 1.02,-1.15 1.25,-2.6 -9.21,-4.97 -1.61,-0.35 -10.08,-2.5 -11.29,-3.68 0.2,-0.02 5.2,-0.66 20.24,2.09 l 1.14,0.21 c 4.22,0.78 4.51,0.7 5.43,0.46 -0.43,-1 -33.43,-15.77 -81.05,-9.57 z m 297.91,221.26 c -0.11,-1.74 -0.2,-3.48 -2.04,-4.54 -0.42,0.15 -0.64,0.23 -0.89,1.68 -0.36,1.86 -0.4,3.73 -0.38,5.62 -1.18,-2.76 -2.19,-5.59 -3.07,-8.44 -0.54,-2.65 -1.09,-5.64 -1.6,-9.09 -1.22,-8.45 -3.91,-16.74 -7.83,-24.79 -1.25,-3.33 -2.64,-6.61 -4.41,-9.76 -0.05,-0.08 -1.69,-1.9 -4.16,-4.64 -0.92,-1.23 -1.8,-2.27 -2.91,-3.46 l -1.07,-0.96 c -9.96,-11.01 -25.57,-28.16 -25.98,-28.27 l -1.6,1.48 c 1.33,4.58 2.26,7.75 2.78,10.02 0.05,2.33 0.09,4.09 0.1,5.45 -0.42,0.68 -1.11,1.21 -2.13,1.92 -8.59,-9.99 -13.06,-22.78 -22.07,-32.47 -1.14,-1.24 -20.76,-13.75 -20.93,-13.86 -4.98,-2.94 -9.69,-0.83 -14.22,1.98 -4.3,2.17 -8.5,5.27 -12.54,6.27 -2.36,0.16 -4.69,-0.7 -6.96,-3.44 -19.57,-23.31 -19.57,-23.31 -28.65,-26.43 -1.01,-0.35 -2.38,-0.78 -3.4,-1.11 -1.64,-0.47 -4.08,0.59 -5.47,1.6 -3.9,23.41 15.44,55.87 21.43,65.23 -19.33,14.82 -21.7,13.37 -61.21,-11.12 -23.04,-14.25 -18.87,2.41 -11.29,18.9 8.18,17.87 24.69,31.84 24.98,53.39 0.08,5.89 0.08,5.89 -11.42,26.02 -6.64,11.65 -3,25.21 -6.96,37.33 -2.01,6.15 -2.46,6.44 -4.93,8.04 -0.14,-0.15 -11.59,-17.19 -3.38,-28.53 0.24,-0.36 23.61,-33.78 -5.38,-35.34 -18.4,-1.62 -28.53,-2.5 -49.76,11 -8.61,5.46 -4.78,15.79 18.47,66.04 13.44,28.99 13.44,28.99 27.54,33.28 l 0.54,1.95 c -9.66,11.73 -9.66,11.73 -10.68,14.88 -2.2,6.65 0.61,10.79 1.93,12.77 3.51,5.17 3.8,5.59 1.08,8.63 -5.78,-0.6 -11.27,-9.82 -16.85,-3.88 -6.21,6.66 7.5,12.01 2.51,19.17 -5.59,4.64 -10.04,-4.97 -15.56,-1.25 -0.11,0.09 -0.2,0.18 -1.32,1.51 -3.74,10.16 7.47,32.3 -7.7,31.33 -18.75,-1.21 -30.14,-1.94 -37.29,-1.88 4.05,-1.43 7.96,-3.47 11.59,-6.28 12.46,-10.89 7.79,-28.08 15.01,-40.89 6.39,-11.34 20.88,-13.74 27.48,-24.85 5.22,-8.78 5.84,-12.92 6.4,-16.57 0.49,-3.29 -0.55,-7.76 -1.09,-11.04 -2.82,-16.74 -14.07,-29.48 -21.01,-44.25 -0.59,-1.29 -0.59,-1.29 -8.29,-30.86 -2.62,-10.02 -2.62,-10.02 6.24,-14.46 9.64,-4.82 11.69,-7.44 4.92,-13.47 -0.4,-0.36 -10.57,-9.1 -19.74,-8.19 -35.43,3.5 -43.35,-5.98 -59.12,-24.87 -8.6,-10.3 -11.82,-14.14 -17.21,-15.41 -18.72,-4.4 -18.72,-4.4 -20.53,-7.05 -10.41,-15.34 -46.54,-25.85 -50.54,-6.8 -2.69,12.72 12.32,59.09 13.75,62.22 3.3,7.16 10.58,10.76 15.08,16.81 5.64,7.58 5.95,12.43 6.74,24.11 1,15.25 19.22,23.74 16.02,40.64 -3.74,19.73 -31.74,7.33 -35.6,26.89 -0.62,18.81 -1.68,50.3 42.27,82.15 0.34,0.23 29.19,17.41 56.24,14.67 -1.15,1.12 -1.75,2.62 -2.56,4.62 -3.77,9.43 8.38,16.3 23.72,20.92 l 1.04,0.37 0.61,0.12 c 19.12,5.48 42.38,7.61 46.09,7 35.34,-5.85 35.34,-5.85 36.53,-5.03 4.95,3.48 4.09,11.71 11.11,13.46 16.86,4.23 41.25,2.01 46.66,1 38.54,-7.19 43.64,-30.64 44.28,-35.26 1.7,-12.43 1.7,-12.43 31.06,-29.66 9.13,-5.35 20.18,-5.19 29.46,-10.15 4.43,-2.36 6.9,-6.92 10.38,-10.34 4.07,-1.77 6.94,-2.88 9.09,-3.54 2.96,0.71 5.79,2.62 8.94,1.56 l 1.7,-2.2 c 1.75,-2.86 3.05,-5.92 4.12,-9.05 7.39,-15.49 10.35,-32.71 17.35,-48.35 1.15,-1.21 2.42,-2.39 3.81,-3.49 -0.16,1.52 -0.16,3.61 -0.03,5.14 l 0.08,-0.28 c -12.42,60.28 -45.69,116.57 -98.39,156.94 -116.33,89.16 -282.94,67.12 -372.09,-49.2 -89.14,-116.35 -67.1,-282.92 49.24,-372.1 116.34,-89.13 282.93,-67.09 372.07,49.25 29.33,38.27 46.56,81.96 52.42,126.55 l -0.11,-0.18 c -0.05,-0.99 -0.11,-1.97 -0.51,-2.83"
             inkscape:connector-curvature="0" />
        </g>
      </g>
      <g
         id="g1968"
         transform="matrix(0.125,0,0,-0.125,-89.345276,692.74679)">
        <g
           clip-path="url(#clipPath1972)"
           id="g1970">
          <path
             id="path1984"
             style="fill:url(#radialGradient8073);fill-opacity:1;fill-rule:nonzero;stroke:none"
             d="m 4008.79,3000.69 -2.29,1.57 c -8.2,5.24 -20.28,7.47 -33.6,6.37 l -41.04,-13.91 c -14.37,-10.17 -23.61,-20.78 -29.61,-30.96 -7.04,-12.88 -11.2,-28.69 -10.81,-47.64 0.08,-1.02 0.3,-1.88 0.79,-2.65 l 0.14,-0.16 0.68,-0.79 0.26,-0.28 0.16,-0.12 c 1.18,-0.82 2.43,-1.49 3.76,-2.08 1.48,-0.61 3.31,-1.24 5.57,-1.92 9.58,-2.63 20.22,-3.51 23.65,-16.16 l 0.03,-0.14 c 2.56,-8.02 -0.1,-14.43 -3.91,-20.44 -4.58,-7.76 -10.96,-14.91 -11.57,-24.04 -0.37,-4.99 -0.64,-8.57 -1.18,-11.71 -0.51,-3.94 -1.02,-5.03 -2.23,-7.4 l -0.29,-0.46 -0.97,-1.97 c -4.18,-7.82 -12.81,-11.71 -17.18,-19.37 -0.14,-0.26 -14.68,-50.3 -14.82,-57.32 -0.31,-13.96 13.65,-13.57 13.78,-13.55 l 31.51,13.43 c 3.3,3.29 4.63,8.35 9.26,10.47 5.39,2.47 11.23,-0.55 16.68,1.42 15.83,5.74 19.28,23.33 31.32,32.7 18.26,14.19 43.59,-0.65 61.52,14.91 1.6,1.4 1.98,1.99 2.92,3.4 -2.48,6.75 -9.76,6.09 -14.49,9.35 -2.38,1.65 -2.38,1.65 0.46,17.77 3.21,18.27 4.53,25.82 17.59,46.25 14.62,22.84 11.47,37.32 11.06,38.88 -0.1,0.39 -0.56,1.79 -1.38,3.76 l -0.14,0.32 -0.48,1.13 -0.28,0.58 -0.59,1.27 -0.24,0.48 c -0.6,1.24 -1.32,2.55 -2.12,3.88 -5.85,9.57 -17.17,12.9 -24.45,20.84 l -0.56,0.55 -0.86,1.07 -0.6,0.72 -0.24,0.39 -0.3,0.46 c -7.91,12.11 -2.51,28.92 -13.55,39.92 l -1.36,1.18"
             inkscape:connector-curvature="0" />
          <path
             id="path1994"
             style="fill:url(#radialGradient8075);fill-opacity:1;fill-rule:nonzero;stroke:none"
             d="m 4008.79,3000.69 -2.29,1.57 c -8.2,5.24 -20.28,7.47 -33.6,6.37 l -41.04,-13.91 c -14.37,-10.17 -23.61,-20.78 -29.61,-30.96 -7.04,-12.88 -11.2,-28.69 -10.81,-47.64 0.08,-1.02 0.3,-1.88 0.79,-2.65 l 0.14,-0.16 0.68,-0.79 0.26,-0.28 0.16,-0.12 c 1.18,-0.82 2.43,-1.49 3.76,-2.08 1.48,-0.61 3.31,-1.24 5.57,-1.92 9.58,-2.63 20.22,-3.51 23.65,-16.16 l 0.03,-0.14 c 2.56,-8.02 -0.1,-14.43 -3.91,-20.44 -4.58,-7.76 -10.96,-14.91 -11.57,-24.04 -0.37,-4.99 -0.64,-8.57 -1.18,-11.71 -0.51,-3.94 -1.02,-5.03 -2.23,-7.4 l -0.29,-0.46 -0.97,-1.97 c -4.18,-7.82 -12.81,-11.71 -17.18,-19.37 -0.14,-0.26 -14.68,-50.3 -14.82,-57.32 -0.31,-13.96 13.65,-13.57 13.78,-13.55 l 31.51,13.43 c 3.3,3.29 4.63,8.35 9.26,10.47 5.39,2.47 11.23,-0.55 16.68,1.42 15.83,5.74 19.28,23.33 31.32,32.7 18.26,14.19 43.59,-0.65 61.52,14.91 1.6,1.4 1.98,1.99 2.92,3.4 -2.48,6.75 -9.76,6.09 -14.49,9.35 -2.38,1.65 -2.38,1.65 0.46,17.77 3.21,18.27 4.53,25.82 17.59,46.25 14.62,22.84 11.47,37.32 11.06,38.88 -0.1,0.39 -0.56,1.79 -1.38,3.76 l -0.14,0.32 -0.48,1.13 -0.28,0.58 -0.59,1.27 -0.24,0.48 c -0.6,1.24 -1.32,2.55 -2.12,3.88 -5.85,9.57 -17.17,12.9 -24.45,20.84 l -0.56,0.55 -0.86,1.07 -0.6,0.72 -0.24,0.39 -0.3,0.46 c -7.91,12.11 -2.51,28.92 -13.55,39.92 l -1.36,1.18"
             inkscape:connector-curvature="0" />
        </g>
      </g>
      <g
         id="g2658"
         transform="matrix(0.125,0,0,-0.125,-89.345276,692.74679)">
        <g
           clip-path="url(#clipPath2662)"
           id="g2660">
          <path
             id="path2674"
             style="fill:url(#radialGradient8077);fill-opacity:1;fill-rule:nonzero;stroke:none"
             d="m 4311.25,2899.24 c -1.48,2.58 -2.79,5.23 -4,7.92 -12.7,13.17 -11.73,32.04 -17.25,48.19 -1.15,2.43 -2.41,4.81 -3.79,7.14 l -0.16,0.22 c -0.65,0.91 -1.8,1.87 -2.71,2.5 -2.53,-0.8 -4.02,-1.27 -8.18,-0.02 -1.33,-0.31 -2.66,-0.4 -4.09,0.13 -1.98,0.78 -3.57,2.01 -5,3.41 -7.33,3.18 -18.62,8.49 -36.83,17.05 l -32.05,19.93 c -1.69,1.68 -2.55,3.38 -3.05,5.16 -3.61,7.94 -3.76,17.32 -9.26,24.45 -3.85,4.54 -8.9,8.68 -14.96,11.77 l -0.83,0.41 c -1.32,0.64 -2.69,1.22 -4.08,1.77 -2.01,0.76 -4.07,1.45 -6.26,2 -16.77,4.13 -56.61,4.57 -58.35,-3.9 -2.89,-14.04 -11.97,-11.71 -19.95,-9.63 -28.17,7.3 -28.89,7.46 -69.95,-0.03 l -1.65,-0.49 c -5.21,-1.87 -17.95,-11.4 -20.8,-16.37 -6.74,-11.68 15.74,-9.97 46.85,-7.61 12.81,0.99 12.96,-0.73 13.51,-6.41 0.79,-8.32 -1.98,-16.3 -2.33,-24.51 l 1.25,-2.07 c 0.06,-0.08 0.14,-0.14 1.54,-0.99 10.6,4.78 10.6,4.78 13.92,2.27 l 0.36,-0.34 c 2.19,-3.44 2.19,-3.44 -3.36,-17.28 3.13,-6.15 9.36,2.74 14.27,3.13 3.5,0.27 5.89,-3.42 5.94,-5.98 0.1,-4.92 -4.92,-7.52 -5.59,-12.12 -1.42,-9.89 12.26,-11.42 11.57,-20.9 -0.61,-8.09 -11.45,-2.84 -15.37,-7.76 l -35.47,-86.85 c 0.02,-0.15 5.62,-10.03 23.92,-13.92 6.86,-1.25 15.6,-1.79 26.78,-0.99 l 0.83,0.07 c 20.75,1.9 -2.86,30.3 -0.36,46.07 l 0.16,1.01 c 4.46,18.65 9.43,18.81 11.66,15.95 1.05,-1.35 2.12,-2.75 3.82,-7.3 l 1.03,-2.88 c 3.46,-9.88 2.26,-20.46 4.65,-30.5 1.78,-7.61 10.31,-10.63 12.31,-18.12 6.39,-23.73 -5.67,-40.21 -9.61,-45.61 -24.77,-33.87 -18.71,-44.92 -18.63,-45.02 25.36,5.65 48.51,41.95 75.94,17.5 l -15.35,-39.53 c -8.94,-14.16 -6.7,-23.55 -4.58,-27.91 l 2.68,0.05 2.61,0.87 c 8.48,2.91 10.16,4.94 26.17,24.42 3.1,3.76 6.32,4.33 9.64,3.5 4.04,-0.24 8.21,-3.54 12.54,-6.27 3.97,-1.96 8,-3.13 12.11,-1.04 21.87,11.2 23.11,13.41 31.16,27.96 2.77,5.03 11.18,17.97 15.55,20.21 0.42,-0.39 0.58,-0.56 0.53,-4.7 0.62,-1.04 0.61,-2.43 -0.1,-5.45 -0.06,-2.34 -0.14,-5.24 -0.23,-8.88 2.85,0.55 2.85,0.55 9.94,14.02 3.24,6.19 10.31,7.44 15.09,11.63 1.49,1.66 2.82,3.11 3.98,4.42 0.8,1.03 1.6,2.19 2.59,3.71 2.3,3.5 4.23,7.08 5.98,10.69 4.1,10.99 5.98,22.67 9.43,33.88 0.95,4.33 1.97,7.58 3.07,9.7 0.06,2.54 0.14,5.08 -0.27,7.58 -0.89,5.12 -3.51,9.72 -4.36,14.83 -0.03,0.12 -1.97,12.39 -1.97,16.26 0,2.67 0.46,4 0.6,4.36 1.02,2.5 4.43,2.68 5.24,5.38 0.21,0.66 0.5,2.33 1.01,5.6 0.84,5.25 1.17,5.43 1.72,5.74 1.58,-0.76 1.29,-2.5 2,-3.72 l 0.39,0.09 c 0.05,0.12 0.41,1.86 0.32,6.02 -0.78,7.16 -1.81,14.29 -3.17,21.38 l -0.91,1.79 c 0.46,-4.67 0.46,-4.67 0.2,-7.04"
             inkscape:connector-curvature="0" />
          <path
             id="path2684"
             style="fill:url(#radialGradient8079);fill-opacity:1;fill-rule:nonzero;stroke:none"
             d="m 4311.25,2899.24 c -1.48,2.58 -2.79,5.23 -4,7.92 -12.7,13.17 -11.73,32.04 -17.25,48.19 -1.15,2.43 -2.41,4.81 -3.79,7.14 l -0.16,0.22 c -0.65,0.91 -1.8,1.87 -2.71,2.5 -2.53,-0.8 -4.02,-1.27 -8.18,-0.02 -1.33,-0.31 -2.66,-0.4 -4.09,0.13 -1.98,0.78 -3.57,2.01 -5,3.41 -7.33,3.18 -18.62,8.49 -36.83,17.05 l -32.05,19.93 c -1.69,1.68 -2.55,3.38 -3.05,5.16 -3.61,7.94 -3.76,17.32 -9.26,24.45 -3.85,4.54 -8.9,8.68 -14.96,11.77 l -0.83,0.41 c -1.32,0.64 -2.69,1.22 -4.08,1.77 -2.01,0.76 -4.07,1.45 -6.26,2 -16.77,4.13 -56.61,4.57 -58.35,-3.9 -2.89,-14.04 -11.97,-11.71 -19.95,-9.63 -28.17,7.3 -28.89,7.46 -69.95,-0.03 l -1.65,-0.49 c -5.21,-1.87 -17.95,-11.4 -20.8,-16.37 -6.74,-11.68 15.74,-9.97 46.85,-7.61 12.81,0.99 12.96,-0.73 13.51,-6.41 0.79,-8.32 -1.98,-16.3 -2.33,-24.51 l 1.25,-2.07 c 0.06,-0.08 0.14,-0.14 1.54,-0.99 10.6,4.78 10.6,4.78 13.92,2.27 l 0.36,-0.34 c 2.19,-3.44 2.19,-3.44 -3.36,-17.28 3.13,-6.15 9.36,2.74 14.27,3.13 3.5,0.27 5.89,-3.42 5.94,-5.98 0.1,-4.92 -4.92,-7.52 -5.59,-12.12 -1.42,-9.89 12.26,-11.42 11.57,-20.9 -0.61,-8.09 -11.45,-2.84 -15.37,-7.76 l -35.47,-86.85 c 0.02,-0.15 5.62,-10.03 23.92,-13.92 6.86,-1.25 15.6,-1.79 26.78,-0.99 l 0.83,0.07 c 20.75,1.9 -2.86,30.3 -0.36,46.07 l 0.16,1.01 c 4.46,18.65 9.43,18.81 11.66,15.95 1.05,-1.35 2.12,-2.75 3.82,-7.3 l 1.03,-2.88 c 3.46,-9.88 2.26,-20.46 4.65,-30.5 1.78,-7.61 10.31,-10.63 12.31,-18.12 6.39,-23.73 -5.67,-40.21 -9.61,-45.61 -24.77,-33.87 -18.71,-44.92 -18.63,-45.02 25.36,5.65 48.51,41.95 75.94,17.5 l -15.35,-39.53 c -8.94,-14.16 -6.7,-23.55 -4.58,-27.91 l 2.68,0.05 2.61,0.87 c 8.48,2.91 10.16,4.94 26.17,24.42 3.1,3.76 6.32,4.33 9.64,3.5 4.04,-0.24 8.21,-3.54 12.54,-6.27 3.97,-1.96 8,-3.13 12.11,-1.04 21.87,11.2 23.11,13.41 31.16,27.96 2.77,5.03 11.18,17.97 15.55,20.21 0.42,-0.39 0.58,-0.56 0.53,-4.7 0.62,-1.04 0.61,-2.43 -0.1,-5.45 -0.06,-2.34 -0.14,-5.24 -0.23,-8.88 2.85,0.55 2.85,0.55 9.94,14.02 3.24,6.19 10.31,7.44 15.09,11.63 1.49,1.66 2.82,3.11 3.98,4.42 0.8,1.03 1.6,2.19 2.59,3.71 2.3,3.5 4.23,7.08 5.98,10.69 4.1,10.99 5.98,22.67 9.43,33.88 0.95,4.33 1.97,7.58 3.07,9.7 0.06,2.54 0.14,5.08 -0.27,7.58 -0.89,5.12 -3.51,9.72 -4.36,14.83 -0.03,0.12 -1.97,12.39 -1.97,16.26 0,2.67 0.46,4 0.6,4.36 1.02,2.5 4.43,2.68 5.24,5.38 0.21,0.66 0.5,2.33 1.01,5.6 0.84,5.25 1.17,5.43 1.72,5.74 1.58,-0.76 1.29,-2.5 2,-3.72 l 0.39,0.09 c 0.05,0.12 0.41,1.86 0.32,6.02 -0.78,7.16 -1.81,14.29 -3.17,21.38 l -0.91,1.79 c 0.46,-4.67 0.46,-4.67 0.2,-7.04"
             inkscape:connector-curvature="0" />
        </g>
      </g>
      <g
         id="g4418"
         transform="matrix(0.125,0,0,-0.125,-89.345276,692.74679)">
        <g
           clip-path="url(#clipPath4422)"
           id="g4420">
          <path
             id="path4434"
             style="fill:url(#radialGradient8081);fill-opacity:1;fill-rule:nonzero;stroke:none"
             d="m 4016.11,2595.95 c -24.11,3.06 -39.2,9.39 -39.3,9.44 l 0.1,0.57 c 1.21,0.84 2.54,0.86 8.92,0.11 15.72,-1.81 19.62,2.08 19.63,2.12 0.42,0.96 -3.02,2.83 -5.26,4.06 -2.81,1.52 -5.36,3.48 -8.31,4.75 -2.93,1.28 -6.28,1.48 -8.93,3.47 0.28,0.46 0.66,1.13 4.59,1.6 6.17,0.74 12.4,0.21 18.61,0.85 5.07,0.53 9.93,2.21 15,2.69 1.62,0.15 3.77,0.3 5.37,0.13 1.65,-0.16 1.65,-0.16 18.68,-4.59 3.47,-0.91 7.07,-0.33 10.55,-0.96 6.83,-1.19 13.77,-1.48 20.49,-3.19 2.58,-0.66 11.79,-6.45 11.91,-7.02 0.12,-0.46 0.33,-1.34 -7.82,-3.21 -0.09,-0.02 -11.31,-2.66 -13.15,-4.34 l 0.74,-0.37 c 1.32,-0.32 3.03,-0.43 5.28,-0.31 4.08,0.23 9.77,1.06 15.96,2.01 1.52,0.25 3.15,0.5 4.86,0.78 -0.24,-0.15 -31.37,-14.48 -77.92,-8.59 z m 75.36,8.85 -1.14,-0.21 c -15.04,-2.75 -20.04,-2.11 -20.24,-2.09 1.21,1.18 9.68,3.33 11.29,3.68 10.46,2.37 10.23,3.82 9.21,4.97 -8.49,9.54 -36.33,10.51 -37.52,10.53 -10.07,0.3 -19.32,5.23 -29.45,5.16 -5.77,-0.03 -11.21,-1.92 -16.81,-2.8 -7,-1.12 -14.1,-0.32 -21.1,-1.23 -4.13,-0.53 -5.08,-1.34 -5.39,-1.6 l 0.02,-0.53 c 0.81,-0.65 1.08,-0.89 4.61,-2.06 8.01,-2.69 17.06,-8.71 17.74,-10.11 -0.04,-0.04 -3.86,-3.47 -18.49,-1.76 -7.16,0.84 -8.74,0.84 -10.06,-0.01 l -0.03,-0.68 c 0.13,-0.08 15.84,-7.03 41.74,-10.37 47.62,-6.2 80.62,8.57 81.05,9.57 -0.92,0.24 -1.21,0.32 -5.43,-0.46"
             inkscape:connector-curvature="0" />
          <path
             id="path4444"
             style="fill:url(#radialGradient8083);fill-opacity:1;fill-rule:nonzero;stroke:none"
             d="m 4016.11,2595.95 c -24.11,3.06 -39.2,9.39 -39.3,9.44 l 0.1,0.57 c 1.21,0.84 2.54,0.86 8.92,0.11 15.72,-1.81 19.62,2.08 19.63,2.12 0.42,0.96 -3.02,2.83 -5.26,4.06 -2.81,1.52 -5.36,3.48 -8.31,4.75 -2.93,1.28 -6.28,1.48 -8.93,3.47 0.28,0.46 0.66,1.13 4.59,1.6 6.17,0.74 12.4,0.21 18.61,0.85 5.07,0.53 9.93,2.21 15,2.69 1.62,0.15 3.77,0.3 5.37,0.13 1.65,-0.16 1.65,-0.16 18.68,-4.59 3.47,-0.91 7.07,-0.33 10.55,-0.96 6.83,-1.19 13.77,-1.48 20.49,-3.19 2.58,-0.66 11.79,-6.45 11.91,-7.02 0.12,-0.46 0.33,-1.34 -7.82,-3.21 -0.09,-0.02 -11.31,-2.66 -13.15,-4.34 l 0.74,-0.37 c 1.32,-0.32 3.03,-0.43 5.28,-0.31 4.08,0.23 9.77,1.06 15.96,2.01 1.52,0.25 3.15,0.5 4.86,0.78 -0.24,-0.15 -31.37,-14.48 -77.92,-8.59 z m 75.36,8.85 -1.14,-0.21 c -15.04,-2.75 -20.04,-2.11 -20.24,-2.09 1.21,1.18 9.68,3.33 11.29,3.68 10.46,2.37 10.23,3.82 9.21,4.97 -8.49,9.54 -36.33,10.51 -37.52,10.53 -10.07,0.3 -19.32,5.23 -29.45,5.16 -5.77,-0.03 -11.21,-1.92 -16.81,-2.8 -7,-1.12 -14.1,-0.32 -21.1,-1.23 -4.13,-0.53 -5.08,-1.34 -5.39,-1.6 l 0.02,-0.53 c 0.81,-0.65 1.08,-0.89 4.61,-2.06 8.01,-2.69 17.06,-8.71 17.74,-10.11 -0.04,-0.04 -3.86,-3.47 -18.49,-1.76 -7.16,0.84 -8.74,0.84 -10.06,-0.01 l -0.03,-0.68 c 0.13,-0.08 15.84,-7.03 41.74,-10.37 47.62,-6.2 80.62,8.57 81.05,9.57 -0.92,0.24 -1.21,0.32 -5.43,-0.46"
             inkscape:connector-curvature="0" />
        </g>
      </g>
    </g>
  </g>
</svg>
