<?xml version="1.0" encoding="UTF-8" standalone="no"?>
<!-- Created with Inkscape (http://www.inkscape.org/) -->

<svg
   xmlns:dc="http://purl.org/dc/elements/1.1/"
   xmlns:cc="http://creativecommons.org/ns#"
   xmlns:rdf="http://www.w3.org/1999/02/22-rdf-syntax-ns#"
   xmlns:svg="http://www.w3.org/2000/svg"
   xmlns="http://www.w3.org/2000/svg"
   xmlns:sodipodi="http://sodipodi.sourceforge.net/DTD/sodipodi-0.dtd"
   xmlns:inkscape="http://www.inkscape.org/namespaces/inkscape"
   width="89.969254"
   height="168.88362"
   id="svg4436"
   version="1.1"
   inkscape:version="0.48.4 r9939"
   sodipodi:docname="Novo documento 3">
  <defs
     id="defs4438" />
  <sodipodi:namedview
     id="base"
     pagecolor="#ffffff"
     bordercolor="#666666"
     borderopacity="1.0"
     inkscape:pageopacity="0.0"
     inkscape:pageshadow="2"
     inkscape:zoom="0.35"
     inkscape:cx="32.12748"
     inkscape:cy="190.1561"
     inkscape:document-units="px"
     inkscape:current-layer="layer1"
     showgrid="false"
     fit-margin-top="0"
     fit-margin-left="0"
     fit-margin-right="0"
     fit-margin-bottom="0"
     inkscape:window-width="624"
     inkscape:window-height="425"
     inkscape:window-x="370"
     inkscape:window-y="145"
     inkscape:window-maximized="0" />
  <metadata
     id="metadata4441">
    <rdf:RDF>
      <cc:Work
         rdf:about="">
        <dc:format>image/svg+xml</dc:format>
        <dc:type
           rdf:resource="http://purl.org/dc/dcmitype/StillImage" />
        <dc:title></dc:title>
      </cc:Work>
    </rdf:RDF>
  </metadata>
  <g
     inkscape:label="Camada 1"
     inkscape:groupmode="layer"
     id="layer1"
     transform="translate(-317.87252,-553.63465)">
    <g
       transform="matrix(0.125,0,0,-0.125,263.77052,774.63353)"
       id="g4405">
      <path
         inkscape:connector-curvature="0"
         id="path1148"
         style="fill:#f57e4b;fill-opacity:1;fill-rule:nonzero;stroke:none"
         d="m 913.75,1695.09 11.715,-184.3 -211.254,24.25 -15.523,161.02" />
      <path
         inkscape:connector-curvature="0"
         id="path1150"
         style="fill:#f07525;fill-opacity:1;fill-rule:nonzero;stroke:none"
         d="m 684.602,1593.47 c -12.336,47.48 -37.942,88.01 0.691,133.61 35.504,41.85 88.918,48.01 135.859,34.48 35.332,-10.18 111.289,-36.74 89.395,-87.27 -19.34,-44.79 -96.719,-43.16 -133.363,-30.16 -23.547,8.39 -42.375,19.49 -62.735,33.91 1.496,-29.28 2.145,-69.94 13.781,-95.78" />
      <path
         inkscape:connector-curvature="0"
         id="path1152"
         style="fill:#f9ae78;fill-opacity:1;fill-rule:nonzero;stroke:none"
         d="m 611.09,638.34 54.055,1018.53 c 0,0 195.835,-154.92 308.617,21.19 L 926.035,689.871 611.09,638.34" />
      <path
         inkscape:connector-curvature="0"
         id="path1154"
         style="fill:#501316;fill-opacity:1;fill-rule:nonzero;stroke:none"
         d="m 1101.35,1374.67 -8.63,-163.91 -184.025,43.14 2.871,143.77" />
      <path
         inkscape:connector-curvature="0"
         id="path1156"
         style="fill:#5a2814;fill-opacity:1;fill-rule:nonzero;stroke:none"
         d="m 888.57,1308.52 c -6.004,43.18 -24.433,81.63 14.375,117.91 35.649,33.3 83.426,33.21 123.495,16.42 30.13,-12.59 94.45,-43.84 69.94,-86.25 -21.69,-37.51 -89.83,-28.13 -120.837,-12.85 -19.934,9.79 -35.422,21.57 -51.895,36.37 -1.71,-25.97 -5.312,-61.94 2.297,-85.96" />
      <path
         inkscape:connector-curvature="0"
         id="path1158"
         style="fill:#a2401e;fill-opacity:1;fill-rule:nonzero;stroke:none"
         d="M 725.355,472.891 877.93,1366.52 c 0,0 156.94,-156.9 274.64,-13.07 L 1008.71,485.969 725.355,472.891" />
      <path
         inkscape:connector-curvature="0"
         id="path1160"
         style="fill:#fbc432;fill-opacity:1;fill-rule:nonzero;stroke:none"
         d="m 735.484,1473.67 11.707,-184.28 -211.257,24.24 -15.524,161.05" />
      <path
         inkscape:connector-curvature="0"
         id="path1162"
         style="fill:#e8941c;fill-opacity:1;fill-rule:nonzero;stroke:none"
         d="m 506.328,1372.05 c -12.336,47.51 -37.945,88.05 0.699,133.61 35.508,41.88 88.907,48.01 135.86,34.48 35.32,-10.17 111.285,-36.7 89.394,-87.25 -19.347,-44.78 -96.718,-43.16 -133.371,-30.15 -23.539,8.38 -42.379,19.49 -62.726,33.88 1.492,-29.26 2.132,-69.92 13.781,-95.74" />
      <path
         inkscape:connector-curvature="0"
         id="path1164"
         style="fill:#f8f78d;fill-opacity:1;fill-rule:nonzero;stroke:none"
         d="m 432.816,416.922 54.059,1018.568 c 0,0 195.84,-154.95 308.613,21.16 L 747.77,468.449 432.816,416.922" />
    </g>
  </g>
</svg>
