<?xml version="1.0" encoding="UTF-8" standalone="no"?>
<!-- Created with Inkscape (http://www.inkscape.org/) -->

<svg
   xmlns:dc="http://purl.org/dc/elements/1.1/"
   xmlns:cc="http://creativecommons.org/ns#"
   xmlns:rdf="http://www.w3.org/1999/02/22-rdf-syntax-ns#"
   xmlns:svg="http://www.w3.org/2000/svg"
   xmlns="http://www.w3.org/2000/svg"
   xmlns:sodipodi="http://sodipodi.sourceforge.net/DTD/sodipodi-0.dtd"
   xmlns:inkscape="http://www.inkscape.org/namespaces/inkscape"
   width="208.88876"
   height="170.47888"
   id="svg3576"
   version="1.1"
   inkscape:version="0.48.4 r9939"
   sodipodi:docname="Novo documento 3">
  <defs
     id="defs3578" />
  <sodipodi:namedview
     id="base"
     pagecolor="#ffffff"
     bordercolor="#666666"
     borderopacity="1.0"
     inkscape:pageopacity="0.0"
     inkscape:pageshadow="2"
     inkscape:zoom="0.35"
     inkscape:cx="223.01581"
     inkscape:cy="148.09659"
     inkscape:document-units="px"
     inkscape:current-layer="layer1"
     showgrid="false"
     fit-margin-top="0"
     fit-margin-left="0"
     fit-margin-right="0"
     fit-margin-bottom="0"
     inkscape:window-width="624"
     inkscape:window-height="425"
     inkscape:window-x="281"
     inkscape:window-y="137"
     inkscape:window-maximized="0" />
  <metadata
     id="metadata3581">
    <rdf:RDF>
      <cc:Work
         rdf:about="">
        <dc:format>image/svg+xml</dc:format>
        <dc:type
           rdf:resource="http://purl.org/dc/dcmitype/StillImage" />
        <dc:title></dc:title>
      </cc:Work>
    </rdf:RDF>
  </metadata>
  <g
     inkscape:label="Camada 1"
     inkscape:groupmode="layer"
     id="layer1"
     transform="translate(-126.98419,-509.97989)">
    <path
       inkscape:connector-curvature="0"
       d="m 264.8267,529.21989 c -0.855,1.7075 -2.4975,2.61875 -3.69875,2.08 -18.88875,-8.48875 -40.515,-8.48875 -59.39875,0 -1.20375,0.53875 -2.85,-0.3725 -3.70125,-2.08 -0.0637,-0.13625 -0.1275,-0.26375 -0.18625,-0.39375 -0.85625,-1.705 -0.47125,-3.625 0.87125,-4.23375 20.80375,-9.3375 44.62,-9.3375 65.43,0 1.3425,0.60375 1.72375,2.52875 0.87125,4.23375 -0.0625,0.13 -0.12625,0.2575 -0.1875,0.39375"
       style="fill:#1b3451;fill-opacity:1;fill-rule:nonzero;stroke:none"
       id="path402" />
    <path
       inkscape:connector-curvature="0"
       d="m 264.14295,524.59239 c -20.8,-9.3375 -44.62625,-9.3375 -65.43,0 -1.3425,0.60375 -1.7275,2.52875 -0.87125,4.23375 21.18375,-10.37875 45.98875,-10.37875 67.1725,0 0.8525,-1.705 0.46625,-3.625 -0.87125,-4.23375"
       style="fill:#254b7a;fill-opacity:1;fill-rule:nonzero;stroke:none"
       id="path404" />
    <path
       inkscape:connector-curvature="0"
       d="m 204.88795,548.93864 c 0,1.2675 -1.02125,2.28875 -2.2925,2.28875 l -0.37625,0 c -1.2575,0 -2.2825,-1.02125 -2.2825,-2.28875 l 0,-19.43625 c 0,-1.26125 1.025,-2.2925 2.2825,-2.2925 l 0.37625,0 c 1.27125,0 2.2925,1.03125 2.2925,2.2925 l 0,19.43625"
       style="fill:#afb5ad;fill-opacity:1;fill-rule:nonzero;stroke:none"
       id="path406" />
    <path
       inkscape:connector-curvature="0"
       d="m 207.9417,540.36114 c 0,3.0525 -2.475,5.53 -5.535,5.53 -3.05125,0 -5.525,-2.4775 -5.525,-5.53 0,-3.04375 2.47375,-5.52125 5.525,-5.52125 3.06,0 5.535,2.4775 5.535,5.52125"
       style="fill:#afb5ad;fill-opacity:1;fill-rule:nonzero;stroke:none"
       id="path408" />
    <path
       inkscape:connector-curvature="0"
       d="m 262.92545,548.93864 c 0,1.2675 -1.02375,2.28875 -2.28125,2.28875 l -0.3875,0 c -1.2625,0 -2.285,-1.02125 -2.285,-2.28875 l 0,-19.43625 c 0,-1.26125 1.0225,-2.2925 2.285,-2.2925 l 0.3875,0 c 1.2575,0 2.28125,1.03125 2.28125,2.2925 l 0,19.43625"
       style="fill:#afb5ad;fill-opacity:1;fill-rule:nonzero;stroke:none"
       id="path410" />
    <path
       inkscape:connector-curvature="0"
       d="m 265.9742,540.36114 c 0,3.0525 -2.4725,5.53 -5.5275,5.53 -3.05625,0 -5.525,-2.4775 -5.525,-5.53 0,-3.04375 2.46875,-5.52125 5.525,-5.52125 3.055,0 5.5275,2.4775 5.5275,5.52125"
       style="fill:#afb5ad;fill-opacity:1;fill-rule:nonzero;stroke:none"
       id="path412" />
    <path
       inkscape:connector-curvature="0"
       d="m 335.87295,673.59351 c 0,3.79 -3.07375,6.86525 -6.86,6.86525 l -195.165,0 c -3.7975,0 -6.86375,-3.07525 -6.86375,-6.86525 l 0,-126.54862 c 0,-3.79375 3.06625,-6.8675 6.86375,-6.8675 l 195.165,0 c 3.78625,0 6.86,3.07375 6.86,6.8675 l 0,126.54863"
       style="fill:#1b3451;fill-opacity:1;fill-rule:nonzero;stroke:none"
       id="path414" />
    <path
       inkscape:connector-curvature="0"
       d="m 329.01295,675.21214 -195.165,0 c -3.7975,0 -6.86375,-3.07613 -6.86375,-6.86475 l 0,5.24613 c 0,3.78999 3.06625,6.86525 6.86375,6.86525 l 195.165,0 c 3.78625,0 6.86,-3.07526 6.86,-6.86525 l 0,-5.24613 c 0,3.78862 -3.07375,6.86475 -6.86,6.86475"
       style="fill:#182c3f;fill-opacity:1;fill-rule:nonzero;stroke:none"
       id="path416" />
    <path
       inkscape:connector-curvature="0"
       d="m 231.42545,619.31489 c -32.7875,0 -65.575,-3.84 -97.68,-11.51875 -3.7375,-0.91125 -6.76625,-4.76875 -6.76125,-8.54 0,-15.49875 0,-30.995 0,-46.49625 l 0,0 c 0,13.59625 0,27.18875 0,40.7825 -0.005,3.7725 3.02375,7.63 6.76125,8.54125 32.105,7.67875 64.8925,11.5175 97.68,11.5175 32.7875,0 65.57625,-3.83875 97.6825,-11.5175 3.75,-0.91125 6.765,-4.76875 6.765,-8.54125 l 0,5.71375 c 0,3.77125 -3.015,7.62875 -6.765,8.54 -32.10625,7.67875 -64.895,11.51875 -97.6825,11.51875"
       style="fill:#192f47;fill-opacity:1;fill-rule:nonzero;stroke:none"
       id="path418" />
    <path
       inkscape:connector-curvature="0"
       d="m 335.87295,593.54239 c 0,3.7725 -3.015,7.63 -6.765,8.54125 -64.2125,15.3575 -131.15125,15.3575 -195.3625,0 -3.7375,-0.91125 -6.76625,-4.76875 -6.76125,-8.54125 0,-15.4975 0,-30.995 0,-46.4975 -0.005,-3.76875 3.05875,-6.8425 6.86375,-6.8675 65.04875,0 130.1075,0 195.165,0 3.79375,0.025 6.86,3.09875 6.86,6.8675 0,15.5025 0,31 0,46.4975"
       style="fill:#254b7a;fill-opacity:1;fill-rule:nonzero;stroke:none"
       id="path420" />
    <path
       inkscape:connector-curvature="0"
       d="m 218.08545,540.17739 0,60.46 c 0,3.0325 1.02625,5.49625 2.28375,5.49625 l 22.11875,0 c 1.2575,0 2.2825,-2.46375 2.2825,-5.49625 l 0,-60.46 -26.685,0"
       style="fill:#1b3451;fill-opacity:1;fill-rule:nonzero;stroke:none"
       id="path422" />
    <path
       inkscape:connector-curvature="0"
       d="m 335.87295,551.22739 c -30.36625,0 -60.73625,0 -91.1025,0 l 0,-11.05 c 28.08125,0 56.16,0 84.2425,0 3.79375,0.025 6.86,3.09875 6.86,6.8675 0,1.39375 0,2.78875 0,4.1825 m -117.7875,0 c -30.36875,0 -60.735,0 -91.10125,0 0,-1.39375 0,-2.78875 0,-4.1825 -0.005,-3.76875 3.05875,-6.8425 6.86375,-6.8675 28.0775,0 56.1575,0 84.2375,0 l 0,11.05"
       style="fill:#22436c;fill-opacity:1;fill-rule:nonzero;stroke:none"
       id="path424" />
    <path
       inkscape:connector-curvature="0"
       d="m 244.77045,551.22739 c -8.895,0 -17.79,0 -26.685,0 l 0,-11.05 c 8.895,0 17.79125,0 26.685,0 l 0,11.05"
       style="fill:#192f47;fill-opacity:1;fill-rule:nonzero;stroke:none"
       id="path426" />
    <path
       inkscape:connector-curvature="0"
       d="m 243.2492,627.84864 c -0.009,1.11112 -0.88125,2.35762 -1.9775,2.71125 -6.41375,1.97988 -13.27375,1.97988 -19.6925,0 -1.09875,-0.35362 -1.9725,-1.60013 -1.9725,-2.71125 0,-7.8675 0,-15.74125 0,-23.62375 0,-1.11 0.88125,-2.35375 1.9725,-2.69875 6.41875,-1.97875 13.27875,-1.97875 19.6925,0 1.09625,0.345 1.96875,1.58875 1.9775,2.69875 0,7.8825 0,15.75625 0,23.62375"
       style="fill:#ace1eb;fill-opacity:1;fill-rule:nonzero;stroke:none"
       id="path428" />
    <path
       inkscape:connector-curvature="0"
       d="m 241.2717,602.32739 c -6.41375,-1.865 -13.27375,-1.865 -19.6925,0 -1.09125,0.32 -1.9725,1.5 -1.9725,2.54 0,3.43375 0,6.85875 0,10.2925 l 0.22,0.035 c 7.8025,0 15.6075,0 23.4225,0 0,-3.44375 0,-6.88875 0,-10.3275 -0.009,-1.04 -0.88125,-2.22 -1.9775,-2.54"
       style="fill:#d5f0fc;fill-opacity:1;fill-rule:nonzero;stroke:none"
       id="path430" />
    <path
       inkscape:connector-curvature="0"
       d="m 239.58295,603.31239 c -5.3125,-1.545 -10.99625,-1.545 -16.31375,0 -0.90375,0.265 -1.63375,1.24125 -1.63375,2.10375 0,2.84375 0,5.68125 0,8.52625 l 0.18375,0.0275 c 6.4625,0 12.93,0 19.40125,0 0,-2.85125 0,-5.705 0,-8.55375 -0.008,-0.8625 -0.73,-1.83875 -1.6375,-2.10375"
       style="fill:#fafeff;fill-opacity:1;fill-rule:nonzero;stroke:none"
       id="path432" />
    <path
       inkscape:connector-curvature="0"
       d="m 219.6067,617.38489 c 0,3.49375 0,6.98875 0,10.46375 0,1.11112 0.87375,2.35762 1.9725,2.71125 6.41875,1.97987 13.27875,1.97987 19.6925,0 1.09625,-0.35363 1.96875,-1.60013 1.9775,-2.71125 0,-3.475 0,-6.97 0,-10.46375 l -23.6425,0"
       style="fill:#ace1eb;fill-opacity:1;fill-rule:nonzero;stroke:none"
       id="path434" />
    <path
       inkscape:connector-curvature="0"
       d="m 231.42795,630.01251 c -3.135,0 -6.2475,-0.46637 -9.25,-1.38875 -0.235,-0.0739 -0.5425,-0.54012 -0.5425,-0.75762 l 0,-8.45375 19.585,0 0,8.43625 c 0,0.2525 -0.32875,0.70125 -0.56875,0.7825 -2.98125,0.915 -6.08875,1.38137 -9.22375,1.38137"
       style="fill:#d5f0fc;fill-opacity:1;fill-rule:nonzero;stroke:none"
       id="path436" />
    <path
       inkscape:connector-curvature="0"
       d="m 235.0042,529.40114 c 0,1.76625 -1.4325,3.19875 -3.1975,3.19875 -1.76375,0 -3.19625,-1.4325 -3.19625,-3.19875 l 0,-16.22375 c 0,-1.76625 1.4325,-3.1975 3.19625,-3.1975 1.765,0 3.1975,1.43125 3.1975,3.1975 l 0,16.22375"
       style="fill:#ac8465;fill-opacity:1;fill-rule:nonzero;stroke:none"
       id="path438" />
  </g>
</svg>
