<?xml version="1.0" encoding="utf-8"?>
<!-- Generator: Adobe Illustrator 16.0.0, SVG Export Plug-In . SVG Version: 6.00 Build 0)  -->
<!DOCTYPE svg PUBLIC "-//W3C//DTD SVG 1.1//EN" "http://www.w3.org/Graphics/SVG/1.1/DTD/svg11.dtd">
<svg version="1.1" id="Layer_1" xmlns="http://www.w3.org/2000/svg" xmlns:xlink="http://www.w3.org/1999/xlink" x="0px" y="0px"
	 width="132px" height="178px" viewBox="0 0 132 178" enable-background="new 0 0 132 178" xml:space="preserve">
<g>
	<path fill="#BAE1EB" d="M107.108,173.027c-0.287,2.735-2.771,4.973-5.521,4.973H27.333c-2.75,0-5.202-2.241-5.45-4.979L6.7,4.979
		C6.452,2.241,8.5,0,11.25,0h109c2.75,0,4.766,2.237,4.479,4.973L107.108,173.027z"/>
	<path fill="#ABD7E3" d="M132,14c0,2.75-2.25,5-5,5H5c-2.75,0-5-2.25-5-5V5c0-2.75,2.25-5,5-5h122c2.75,0,5,2.25,5,5V14z"/>
</g>
</svg>
