<?xml version="1.0" encoding="utf-8"?>
<!-- Generator: Adobe Illustrator 16.0.0, SVG Export Plug-In . SVG Version: 6.00 Build 0)  -->
<!DOCTYPE svg PUBLIC "-//W3C//DTD SVG 1.1//EN" "http://www.w3.org/Graphics/SVG/1.1/DTD/svg11.dtd">
<svg version="1.1" id="Layer_1" xmlns="http://www.w3.org/2000/svg" xmlns:xlink="http://www.w3.org/1999/xlink" x="0px" y="0px"
	 width="500px" height="500px" viewBox="0 0 500 500" enable-background="new 0 0 500 500" xml:space="preserve">
<rect x="0" fill="#E6E7E8" width="500" height="500"/>
<rect x="0" fill="#D1D2D3" width="277.088" height="453.343"/>
<linearGradient id="SVGID_1_" gradientUnits="userSpaceOnUse" x1="78.4229" y1="268.4346" x2="78.4228" y2="385.2065">
	<stop  offset="0" style="stop-color:#BCBEC0"/>
	<stop  offset="0.1315" style="stop-color:#B5B7B9;stop-opacity:0.8685"/>
	<stop  offset="0.6712" style="stop-color:#9C9EA1;stop-opacity:0.3288"/>
	<stop  offset="1" style="stop-color:#939598;stop-opacity:0"/>
</linearGradient>
<polygon fill="url(#SVGID_1_)" points="67.5,315.555 1,382.055 1,452.555 155.846,452.555 "/>
<rect x="277.089" fill="#BFBFBF" width="23.911" height="404.583"/>
<g>
	<path fill="#21CEC9" d="M425.389,281.354c0,0.193-0.127,0.348-0.291,0.348h-16.842c-0.161,0-0.292-0.154-0.292-0.348V208.84
		c0-0.195,0.131-0.352,0.292-0.352h16.842c0.164,0,0.291,0.157,0.291,0.352V281.354z"/>
	<path fill="#06B2A1" d="M425.389,281.354c0,0.193-0.017,0.348-0.038,0.348h-2.082c-0.02,0-0.037-0.154-0.037-0.348V208.84
		c0-0.195,0.018-0.352,0.037-0.352h2.082c0.021,0,0.038,0.157,0.038,0.352V281.354z"/>
	<g>
		<rect x="407.964" y="227.302" fill="#00A79D" width="17.425" height="37.22"/>
	</g>
	<g>
		<path fill="#F4724E" d="M408.021,281.386c0,0.175-0.071,0.315-0.156,0.315h-9.226c-0.09,0-0.159-0.141-0.159-0.315v-65.347
			c0-0.174,0.069-0.315,0.159-0.315h9.226c0.085,0,0.156,0.142,0.156,0.315V281.386z"/>
	</g>
	<g>
		<path fill="#E2684B" d="M408.021,281.386c0,0.175-0.011,0.315-0.026,0.315h-1.563c-0.014,0-0.025-0.141-0.025-0.315v-65.347
			c0-0.174,0.012-0.315,0.025-0.315h1.563c0.016,0,0.026,0.142,0.026,0.315V281.386z"/>
	</g>
	<g>
		<path fill="#AF6B4E" d="M398.486,281.386c0,0.175-0.069,0.315-0.157,0.315h-9.229c-0.086,0-0.156-0.141-0.156-0.315v-65.347
			c0-0.174,0.07-0.315,0.156-0.315h9.229c0.088,0,0.157,0.142,0.157,0.315V281.386z"/>
	</g>
	<g>
		<path fill="#9B5D48" d="M398.486,281.386c0,0.175-0.007,0.315-0.022,0.315h-1.421c-0.014,0-0.024-0.141-0.024-0.315v-65.347
			c0-0.174,0.011-0.315,0.024-0.315h1.421c0.016,0,0.022,0.142,0.022,0.315V281.386z"/>
	</g>
	<path fill="#4BAFDB" d="M377.249,210.888c0-0.186,0.088-0.34,0.196-0.34h11.484c0.109,0,0.198,0.154,0.198,0.34v70.477
		c0,0.187-0.089,0.337-0.198,0.337h-11.484c-0.108,0-0.196-0.15-0.196-0.337V210.888z"/>
	<path fill="#46A5C6" d="M387.673,210.888c0-0.186,0.01-0.34,0.025-0.34h1.402c0.016,0,0.027,0.154,0.027,0.34v70.477
		c0,0.187-0.012,0.337-0.027,0.337h-1.402c-0.016,0-0.025-0.15-0.025-0.337V210.888z"/>
	<g>
		<path fill="#F9A74E" d="M377.329,281.477c0,0.127-0.106,0.225-0.239,0.225h-13.738c-0.132,0-0.237-0.098-0.237-0.225v-46.239
			c0-0.123,0.105-0.222,0.237-0.222h13.738c0.133,0,0.239,0.1,0.239,0.222V281.477z"/>
	</g>
	<g>
		<path fill="#EA9949" d="M377.329,281.477c0,0.127-0.017,0.225-0.037,0.225h-2.006c-0.02,0-0.036-0.098-0.036-0.225v-46.239
			c0-0.123,0.017-0.222,0.036-0.222h2.006c0.021,0,0.037,0.1,0.037,0.222V281.477z"/>
	</g>
	<g>
		<path fill="#21CEC9" d="M363.177,281.426c0,0.152-0.093,0.275-0.199,0.275h-11.48c-0.111,0-0.199-0.123-0.199-0.275v-57.542
			c0-0.157,0.088-0.281,0.199-0.281h11.48c0.106,0,0.199,0.124,0.199,0.281V281.426z"/>
	</g>
	<g>
		<path fill="#1FBFB7" d="M363.177,281.426c0,0.152-0.011,0.275-0.026,0.275h-1.55c-0.013,0-0.025-0.123-0.025-0.275v-57.542
			c0-0.157,0.013-0.281,0.025-0.281h1.55c0.016,0,0.026,0.124,0.026,0.281V281.426z"/>
	</g>
	<g>
		<path fill="#F4724E" d="M338.603,223.225c0.055-0.143,0.2-0.22,0.322-0.173l12.959,4.993c0.121,0.05,0.177,0.204,0.121,0.35
			l-20.702,53.688c-0.059,0.143-0.204,0.22-0.326,0.174l-12.955-4.996c-0.123-0.047-0.179-0.201-0.123-0.348L338.603,223.225z"/>
	</g>
	<g>
		<path fill="#E2684B" d="M349.85,227.565c0.057-0.144,0.12-0.254,0.139-0.246l2.08,0.797c0.02,0.011-0.008,0.133-0.063,0.278
			l-20.704,53.688c-0.057,0.143-0.118,0.254-0.136,0.246l-2.081-0.801c-0.021-0.009,0.008-0.133,0.064-0.277L349.85,227.565z"/>
	</g>
</g>
<g>
	<g>
		<path fill="#231F20" d="M466.446,340.661c-0.272,0-0.494-0.224-0.494-0.497v-88.922c0-0.273,0.222-0.495,0.494-0.495
			c0.275,0,0.495,0.222,0.495,0.495v88.922C466.941,340.438,466.722,340.661,466.446,340.661z"/>
		<path fill="#231F20" d="M466.115,273.228c-0.188,0-0.371-0.11-0.453-0.298l-8.264-18.841c-0.11-0.251,0.004-0.543,0.256-0.653
			c0.25-0.111,0.543,0.004,0.653,0.254l8.263,18.843c0.11,0.25-0.003,0.542-0.252,0.653
			C466.252,273.214,466.183,273.228,466.115,273.228z"/>
		<path fill="#231F20" d="M466.446,287.441c-0.054,0-0.109-0.008-0.161-0.027c-0.262-0.092-0.397-0.373-0.305-0.633l8.594-24.463
			c0.092-0.256,0.376-0.393,0.633-0.302c0.256,0.091,0.393,0.374,0.302,0.632l-8.592,24.462
			C466.844,287.314,466.652,287.441,466.446,287.441z"/>
		<path fill="#231F20" d="M464.133,327.771c-0.274,0-0.495-0.222-0.495-0.496v-39.337c0-0.273,0.221-0.496,0.495-0.496
			c0.272,0,0.497,0.223,0.497,0.496v39.337C464.63,327.549,464.405,327.771,464.133,327.771z"/>
		<path fill="#231F20" d="M463.987,306.471c-0.124,0-0.251-0.049-0.35-0.146l-20.493-20.494c-0.193-0.195-0.193-0.508,0-0.702
			c0.194-0.194,0.506-0.194,0.699,0l20.495,20.495c0.193,0.194,0.193,0.509,0,0.701
			C464.241,306.422,464.115,306.471,463.987,306.471z"/>
		<path fill="#231F20" d="M464.133,296.367c-0.127,0-0.252-0.048-0.349-0.145c-0.193-0.195-0.193-0.508,0-0.702l16.196-16.198
			c0.193-0.193,0.509-0.193,0.703,0c0.192,0.193,0.192,0.508,0,0.702l-16.198,16.198
			C464.387,296.319,464.26,296.367,464.133,296.367z"/>
		<path fill="#231F20" d="M464.011,291.904c-0.128,0-0.256-0.048-0.351-0.145l-8.182-8.184c-0.195-0.193-0.195-0.507,0-0.699
			c0.193-0.195,0.508-0.195,0.701,0l8.181,8.18c0.193,0.193,0.193,0.508,0,0.703C464.264,291.856,464.135,291.904,464.011,291.904z"
			/>
		<path fill="#231F20" d="M459.672,287.565c-0.275,0-0.496-0.222-0.496-0.495v-12.893c0-0.275,0.221-0.496,0.496-0.496
			c0.272,0,0.495,0.221,0.495,0.496v12.893C460.167,287.344,459.944,287.565,459.672,287.565z"/>
		<path fill="#231F20" d="M451.634,294.074c-0.274,0-0.496-0.221-0.496-0.496v-13.264c0-0.275,0.222-0.496,0.496-0.496
			c0.273,0,0.495,0.221,0.495,0.496v13.264C452.129,293.854,451.907,294.074,451.634,294.074z"/>
		<path fill="#231F20" d="M477.274,283.103c-0.274,0-0.496-0.223-0.496-0.495v-9.547c0-0.273,0.222-0.494,0.496-0.494
			c0.273,0,0.495,0.221,0.495,0.494v9.547C477.77,282.88,477.548,283.103,477.274,283.103z"/>
	</g>
	<g>
		<path fill="#754C29" d="M466.681,320.055v43.117h-13.095c0,0-0.771-8.105,4.468-20.643c5.235-12.536,4.314-22.475,4.314-22.475
			H466.681z"/>
		<path fill="#754C29" d="M464.333,320.055v43.117h13.096c0,0,0.77-8.105-4.473-20.643c-5.235-12.536-4.311-22.475-4.311-22.475
			H464.333z"/>
	</g>
</g>
<g>
	<g>
		<g>
			<path fill="#D1D3D4" d="M253.697,443.839c0,3.358,2.725,2.603,6.082,2.603h107.986c3.359,0,6.08,0.756,6.08-2.603v-66.845
				c0-3.356-2.721-6.081-6.08-6.081H259.779c-3.357,0-6.082,2.725-6.082,6.081V443.839z"/>
			<path fill="#58595B" d="M253.697,442.004v-65.01c0-3.356,2.725-6.081,6.082-6.081h107.986c3.359,0,6.08,2.725,6.08,6.081v65.01
				H253.697z"/>
			<rect x="257.113" y="374.214" fill="#E2684B" width="113.32" height="65.045"/>
		</g>
		<g>
			<path fill="#808285" d="M239.645,446.538c0,0,2.495,3.022,15.136,3.022h60.854v-4.614l-75.819-0.479L239.645,446.538z"/>
			<path fill="#808285" d="M388.131,445.591c0,0-3.156,3.97-15.793,3.97h-60.855v-4.614l75.82-0.479L388.131,445.591z"/>
			<path fill="#A7A9AC" d="M237.787,444.262c0,1.203,1.172,2.18,2.617,2.18h145.625c1.441,0,2.617-0.977,2.617-2.18l0,0
				c0-1.204-1.176-2.178-2.617-2.178H240.404C238.958,442.084,237.787,443.058,237.787,444.262L237.787,444.262z"/>
		</g>
	</g>
	<defs>
		<filter id="Adobe_OpacityMaskFilter" filterUnits="userSpaceOnUse" x="300.174" y="442.037" width="26.082" height="2.756">
			<feFlood  style="flood-color:white;flood-opacity:1" result="back"/>
			<feBlend  in="SourceGraphic" in2="back" mode="normal"/>
		</filter>
	</defs>
	<mask maskUnits="userSpaceOnUse" x="300.174" y="442.037" width="26.082" height="2.756" id="SVGID_2_">
		<g filter="url(#Adobe_OpacityMaskFilter)">
			<defs>
				<filter id="Adobe_OpacityMaskFilter_1_" filterUnits="userSpaceOnUse" x="300.174" y="442.037" width="26.082" height="2.756">
					<feFlood  style="flood-color:white;flood-opacity:1" result="back"/>
					<feBlend  in="SourceGraphic" in2="back" mode="normal"/>
				</filter>
			</defs>
			<mask maskUnits="userSpaceOnUse" x="300.174" y="442.037" width="26.082" height="2.756" id="SVGID_2_">
				<g filter="url(#Adobe_OpacityMaskFilter_1_)">
				</g>
			</mask>
			
				<linearGradient id="SVGID_3_" gradientUnits="userSpaceOnUse" x1="192.7852" y1="445.6631" x2="192.7852" y2="439.8542" gradientTransform="matrix(-1 0 0 1 506 0)">
				<stop  offset="0" style="stop-color:#FFFFFF"/>
				<stop  offset="1" style="stop-color:#000000"/>
			</linearGradient>
			<path mask="url(#SVGID_2_)" fill="url(#SVGID_3_)" d="M326.256,442.037c0,0-1.232,2.756-2.752,2.756h-20.578
				c-1.52,0-2.752-1.234-2.752-2.756l0,0"/>
		</g>
	</mask>
	
		<linearGradient id="SVGID_4_" gradientUnits="userSpaceOnUse" x1="192.7852" y1="445.6631" x2="192.7852" y2="439.8542" gradientTransform="matrix(-1 0 0 1 506 0)">
		<stop  offset="0" style="stop-color:#58595B"/>
		<stop  offset="1" style="stop-color:#F1F1F2"/>
	</linearGradient>
	<path opacity="0.5" fill="url(#SVGID_4_)" d="M326.256,442.037c0,0-1.232,2.756-2.752,2.756h-20.578
		c-1.52,0-2.752-1.234-2.752-2.756l0,0"/>
</g>
<rect y="447.055" fill="#231F20" width="500" height="14"/>
<g>
	<g>
		<g>
			<path fill="#939598" d="M182.159,445.909c0,0-2.303-2.391-5.206-4.986c-2.896-2.597-2.491-4.506-2.491-4.506l-0.778-10.35
				h-17.838h-0.896h-17.839l-0.781,10.35c0,0,0.407,1.909-2.491,4.506c-2.899,2.596-5.203,4.986-5.203,4.986
				s-0.334,0.578-0.334,1.398c0,0.822,0.481,0.856,2.488,0.856c1.773,0,19.919,0,24.16,0c0.563,0,0.896,0,0.896,0
				c4.238,0,22.381,0,24.156,0c2.008,0,2.489-0.034,2.489-0.856C182.491,446.487,182.159,445.909,182.159,445.909z"/>
		</g>
		<g>
			<path fill="#939598" d="M244.544,419.013c0,4.981-4.041,9.022-9.025,9.022H75.269c-4.983,0-9.025-4.041-9.025-9.022v-99.2
				c0-4.985,4.042-9.023,9.025-9.023h160.25c4.984,0,9.025,4.038,9.025,9.023V419.013z"/>
			<path fill="#58595B" d="M244.544,416.285v-96.473c0-4.985-4.041-9.023-9.025-9.023H75.269c-4.983,0-9.025,4.038-9.025,9.023
				v96.473H244.544z"/>
			<rect x="72.868" y="316.583" fill="#4BAFDB" width="165.054" height="94.732"/>
		</g>
	</g>
	<path fill="#58595B" d="M158.401,422.111c0,1.661-1.345,3.006-3.004,3.006l0,0c-1.662,0-3.008-1.345-3.008-3.006l0,0
		c0-1.659,1.346-3.008,3.008-3.008l0,0C157.056,419.104,158.401,420.452,158.401,422.111L158.401,422.111z"/>
</g>
<g>
	<g>
		<g>
			<polygon fill="#1E8481" points="25.624,399.5 26.438,399.635 32.317,428.678 31.563,428.831 			"/>
			<polygon fill="#1E8481" points="23.586,400.121 24.302,399.766 30.241,429.1 29.484,429.252 			"/>
			
				<rect x="27.217" y="399.335" transform="matrix(-0.98 0.1988 -0.1988 -0.98 137.6725 814.7744)" fill="#22A0A0" width="1.429" height="29.928"/>
			<path fill="#F3E1D1" d="M25.663,399.49c0,0-0.243,0.672-0.514,0.67c-0.27-0.002-0.806-0.448-0.887-0.386
				c-0.082,0.064-0.117,0.561-0.327,0.613c-0.21,0.051-0.331-0.179-0.331-0.179l0.474-4.49l2.36,3.916
				C26.438,399.635,26.101,400.241,25.663,399.49z"/>
			<path fill="#22A0A0" d="M24.933,397.137l-0.855-1.418l-0.173,1.628C23.905,397.347,24.495,397.595,24.933,397.137z"/>
		</g>
		<g>
			<polygon fill="#84B285" points="30.997,398.698 31.803,398.873 36.356,428.151 35.596,428.271 			"/>
			<polygon fill="#84B285" points="28.933,399.229 29.663,398.906 34.261,428.479 33.5,428.597 			"/>
			
				<rect x="31.915" y="398.625" transform="matrix(-0.9882 0.153 -0.153 -0.9882 128.1669 817.3118)" fill="#93CF97" width="1.429" height="29.927"/>
			<path fill="#F3E1D1" d="M31.037,398.693c0,0-0.273,0.658-0.545,0.644c-0.271-0.014-0.784-0.484-0.868-0.425
				c-0.084,0.061-0.141,0.555-0.355,0.598c-0.212,0.041-0.322-0.194-0.322-0.194l0.677-4.463l2.179,4.021
				C31.803,398.873,31.44,399.46,31.037,398.693z"/>
			<path fill="#93CF97" d="M30.413,396.309l-0.789-1.456l-0.247,1.618C29.377,396.471,29.955,396.745,30.413,396.309z"/>
		</g>
		<g>
			<polygon fill="#84B285" points="50.375,400.02 51.075,400.456 45.427,429.542 44.67,429.397 			"/>
			<polygon fill="#84B285" points="48.254,399.817 49.05,399.76 43.346,429.139 42.589,428.992 			"/>
			
				<rect x="46.145" y="399.616" transform="matrix(-0.9814 -0.1919 0.1919 -0.9814 13.2862 830.4451)" fill="#93CF97" width="1.43" height="29.927"/>
			<path fill="#F3E1D1" d="M50.414,400.027c0,0-0.479,0.524-0.729,0.421c-0.25-0.106-0.574-0.724-0.674-0.695
				c-0.098,0.029-0.321,0.474-0.535,0.44c-0.214-0.031-0.237-0.29-0.237-0.29l2.15-3.97l0.687,4.522
				C51.075,400.456,50.533,400.885,50.414,400.027z"/>
			<path fill="#93CF97" d="M50.638,397.572l-0.25-1.639l-0.78,1.438C49.608,397.372,50.058,397.826,50.638,397.572z"/>
		</g>
		<g>
			<polygon fill="#D35E5E" points="37.887,398.565 38.658,398.86 38.658,428.492 37.887,428.492 			"/>
			<polygon fill="#D35E5E" points="35.766,398.771 36.538,398.565 36.538,428.492 35.766,428.492 			"/>
			<rect x="36.497" y="398.565" fill="#F06766" width="1.431" height="29.927"/>
			<path fill="#F3E1D1" d="M37.927,398.565c0,0-0.372,0.609-0.637,0.552c-0.264-0.055-0.7-0.597-0.793-0.552
				c-0.092,0.047-0.224,0.524-0.441,0.534c-0.216,0.01-0.29-0.239-0.29-0.239l1.356-4.306l1.536,4.306
				C38.658,398.86,38.207,399.387,37.927,398.565z"/>
			<path fill="#F06766" d="M37.678,396.114l-0.556-1.56l-0.494,1.56C36.628,396.114,37.157,396.475,37.678,396.114z"/>
		</g>
		<g>
			<polygon fill="#1E8481" points="44.479,399.01 45.206,399.402 41.408,428.788 40.644,428.69 			"/>
			<polygon fill="#1E8481" points="42.349,398.941 43.14,398.838 39.304,428.518 38.54,428.418 			"/>
			
				<rect x="41.178" y="398.799" transform="matrix(-0.9919 -0.1271 0.1271 -0.9919 30.8539 829.4962)" fill="#22A0A0" width="1.429" height="29.928"/>
			<path fill="#F3E1D1" d="M44.519,399.014c0,0-0.447,0.557-0.702,0.469c-0.256-0.088-0.618-0.684-0.715-0.65
				c-0.098,0.033-0.291,0.491-0.507,0.474c-0.215-0.02-0.255-0.276-0.255-0.276l1.896-4.097l0.972,4.47
				C45.206,399.402,44.692,399.864,44.519,399.014z"/>
			<path fill="#22A0A0" d="M44.586,396.551l-0.353-1.618l-0.69,1.485C43.544,396.418,44.024,396.841,44.586,396.551z"/>
		</g>
	</g>
	<g>
		<polygon fill="#8B5E3C" points="49.774,448.596 26.201,448.596 23.191,410.184 52.784,410.184 		"/>
		<rect x="22.686" y="409.856" fill="#8B5E3C" width="30.603" height="7.352"/>
	</g>
</g>
<rect x="301" y="280.992" fill="#231F20" width="141" height="8.125"/>
<rect x="421.833" y="361.658" fill="#231F20" width="78.167" height="8.125"/>
<g>
	<g>
		<g>
			
				<rect x="413.792" y="416.241" transform="matrix(-0.4601 0.8879 -0.8879 -0.4601 1019.3177 215.0326)" fill="#58595B" width="60.978" height="2.373"/>
			
				<rect x="406.282" y="414.266" transform="matrix(-0.4601 0.8879 -0.8879 -0.4601 1006.599 218.8164)" fill="#58595B" width="60.978" height="2.373"/>
			
				<rect x="436.487" y="323.688" transform="matrix(-0.7926 0.6097 -0.6097 -0.7926 1000.5262 368.0516)" fill="#58595B" width="2.37" height="60.977"/>
			<polygon fill="#58595B" points="450.376,385.022 452.256,383.578 415.043,335.272 413.162,336.718 			"/>
			<path fill="#00A79D" d="M405.064,327.342l4.611-4.61c3.302-3.302,8.692-3.266,12.043,0.084c3.349,3.348,3.385,8.738,0.083,12.04
				l-4.614,4.613c1.541,7.007-1.048,15.449-7.419,21.827l-26.533-26.532C389.61,328.391,398.059,325.803,405.064,327.342z"/>
			<circle fill="#00A79D" cx="456.333" cy="383.638" r="9.485"/>
			
				<linearGradient id="SVGID_5_" gradientUnits="userSpaceOnUse" x1="913.0156" y1="383.6387" x2="924.5908" y2="383.6387" gradientTransform="matrix(-1 0 0 1 1375.1367 0)">
				<stop  offset="0" style="stop-color:#414042"/>
				<stop  offset="1" style="stop-color:#808285"/>
			</linearGradient>
			<circle opacity="0.2" fill="url(#SVGID_5_)" cx="456.333" cy="383.638" r="5.788"/>
		</g>
		<g>
			<rect x="399.627" y="442.124" fill="#2B190E" width="51.374" height="6.917"/>
		</g>
	</g>
</g>
<g>
	<g>
		<g>
			<rect x="148.802" fill="#FBB040" width="3.56" height="95.804"/>
			<g>
				<path fill="#FBB040" d="M178.639,138.871c0-20.095-12.339-49.88-27.558-49.88s-27.556,29.785-27.556,49.88
					c0,3.201,0.315,5.907,0.904,8.2h53.306C178.322,144.778,178.639,142.072,178.639,138.871z"/>
			</g>
		</g>
		<g>
			<rect x="186.116" fill="#911020" width="2.35" height="68.983"/>
			<g>
				<g>
					<path fill="#911020" d="M205.463,97.382c0-13.251-8.137-32.892-18.173-32.892c-10.034,0-18.169,19.641-18.169,32.892
						c0,2.11,0.208,3.894,0.595,5.408h35.151C205.255,101.275,205.463,99.492,205.463,97.382z"/>
				</g>
			</g>
		</g>
		<g>
			<rect x="120.506" fill="#F9C98A" width="1.788" height="56.567"/>
			<g>
				<path fill="#F9C98A" d="M135.228,78.176c0-10.083-6.19-25.028-13.827-25.028s-13.826,14.945-13.826,25.028
					c0,1.606,0.159,2.963,0.454,4.115h26.745C135.069,81.139,135.228,79.782,135.228,78.176z"/>
			</g>
		</g>
	</g>
</g>
<polyline fill="#5CC1E5" points="72.868,316.583 72.868,411.315 168.231,316.583 "/>
<polyline fill="#EA7159" points="257.118,374.182 257.118,439.273 322.643,374.182 "/>
<linearGradient id="SVGID_6_" gradientUnits="userSpaceOnUse" x1="371.25" y1="270.5547" x2="371.25" y2="316.555">
	<stop  offset="0" style="stop-color:#BCBEC0"/>
	<stop  offset="0.1315" style="stop-color:#B5B7B9;stop-opacity:0.8685"/>
	<stop  offset="0.6712" style="stop-color:#9C9EA1;stop-opacity:0.3288"/>
	<stop  offset="1" style="stop-color:#939598;stop-opacity:0"/>
</linearGradient>
<polygon fill="url(#SVGID_6_)" points="442,289.117 388.031,343.086 300.5,343.086 300.5,289.117 "/>
<linearGradient id="SVGID_7_" gradientUnits="userSpaceOnUse" x1="429.25" y1="350.5547" x2="429.25" y2="396.555">
	<stop  offset="0" style="stop-color:#BCBEC0"/>
	<stop  offset="0.1315" style="stop-color:#B5B7B9;stop-opacity:0.8685"/>
	<stop  offset="0.6712" style="stop-color:#9C9EA1;stop-opacity:0.3288"/>
	<stop  offset="1" style="stop-color:#939598;stop-opacity:0"/>
</linearGradient>
<polygon fill="url(#SVGID_7_)" points="500,369.117 446.031,423.086 358.5,423.086 422,369.117 "/>
<g>
	<rect x="341.238" y="284.829" opacity="0.4" fill="#808185" width="20.207" height="23.226"/>
	<path fill="#F9A74E" d="M361.708,284.829h-20.47v22.813l8.862-0.516c0,0,2.744-0.245,5.305-1.155
		c2.568-0.914,4.952-2.492,5.017-2.589C361.939,301.024,361.708,284.829,361.708,284.829z"/>
	<path fill="#E59545" d="M360.422,303.382c0,0-3.082,1.133-5.247-0.207c0,0,0.23,3.264-5.249,3.951c0,0,4.826-0.392,7.021-1.271
		C359.604,304.79,360.422,303.382,360.422,303.382z"/>
	<rect x="341.238" y="284.829" fill="#F9B978" width="20.502" height="3.674"/>
</g>
<g>
	<rect x="364.389" y="284.829" opacity="0.4" fill="#808185" width="20.207" height="23.226"/>
	<path fill="#F9A74E" d="M384.858,284.829h-20.47v22.813l8.862-0.516c0,0,2.743-0.245,5.304-1.155
		c2.569-0.914,4.953-2.492,5.018-2.589C385.09,301.024,384.858,284.829,384.858,284.829z"/>
	<path fill="#E59545" d="M383.572,303.382c0,0-3.083,1.133-5.247-0.207c0,0,0.229,3.264-5.249,3.951c0,0,4.826-0.392,7.021-1.271
		C382.754,304.79,383.572,303.382,383.572,303.382z"/>
	<rect x="364.389" y="284.829" fill="#F9B978" width="20.502" height="3.674"/>
</g>
<linearGradient id="SVGID_8_" gradientUnits="userSpaceOnUse" x1="424.9736" y1="92.3428" x2="315.7421" y2="201.5743">
	<stop  offset="0" style="stop-color:#BCBEC0"/>
	<stop  offset="0.1315" style="stop-color:#B5B7B9;stop-opacity:0.8685"/>
	<stop  offset="0.6712" style="stop-color:#9C9EA1;stop-opacity:0.3288"/>
	<stop  offset="1" style="stop-color:#939598;stop-opacity:0"/>
</linearGradient>
<polygon fill="url(#SVGID_8_)" points="410.165,159.462 301.407,263.244 301.407,163.595 356.985,108.018 "/>
<g>
	<g>
		<path fill="#E6E7E8" d="M126.861,358.715h-10.569v9.658h-3.008v-21.059h3.008v8.762h10.569v-8.762h3.009v21.059h-3.009V358.715z"
			/>
		<path fill="#E6E7E8" d="M144.278,346.836c2.829,0,5.194,0.998,7.097,2.993c1.966,2.057,2.947,4.731,2.947,8.022
			c0,3.271-0.981,5.939-2.947,8.008c-1.902,1.994-4.309,2.992-7.22,2.992c-2.921,0-5.333-0.998-7.236-2.992
			c-1.964-2.078-2.947-4.737-2.947-7.977c0-3.333,0.982-6.018,2.947-8.054C138.843,347.834,141.296,346.836,144.278,346.836z
			 M144.047,349.475c-2.026,0-3.702,0.766-5.029,2.298c-1.328,1.532-1.991,3.56-1.991,6.079c0,2.5,0.663,4.516,1.991,6.048
			c1.327,1.543,3.039,2.314,5.137,2.314c2.099,0,3.806-0.771,5.122-2.314c1.327-1.532,1.99-3.543,1.99-6.032
			c0-2.52-0.663-4.551-1.99-6.095C147.961,350.24,146.217,349.475,144.047,349.475z"/>
		<path fill="#E6E7E8" d="M169.828,368.373h-2.377l-4.891-12.65c-0.575-1.533-1.054-2.983-1.435-4.352
			c0.082,1.234,0.134,2.777,0.154,4.629v12.373h-2.839v-21.059h3.688l5.245,13.469c0.494,1.336,0.92,2.582,1.28,3.733
			c0.534-1.604,0.962-2.823,1.281-3.657l5.214-13.453h3.688v20.967H176V356c0.009-1.656,0.062-3.199,0.153-4.629
			c-0.442,1.523-0.962,3.066-1.559,4.629L169.828,368.373z"/>
		<path fill="#E6E7E8" d="M198.602,347.314v2.638h-11.786v6.31h10.769v2.469h-10.769v7.006h12.203v2.637h-15.213v-21.059H198.602z"
			/>
	</g>
	<g>
		<path fill="#E6E7E8" d="M135.961,372.518c1.372,0,2.52,0.484,3.443,1.451c0.953,0.999,1.429,2.296,1.429,3.893
			c0,1.586-0.476,2.881-1.429,3.885c-0.923,0.968-2.09,1.451-3.503,1.451c-1.417,0-2.587-0.483-3.51-1.451
			c-0.954-1.009-1.43-2.299-1.43-3.869c0-1.617,0.476-2.92,1.43-3.908C133.324,373.002,134.514,372.518,135.961,372.518z
			 M135.848,373.797c-0.982,0-1.796,0.371-2.439,1.115s-0.965,1.727-0.965,2.949c0,1.213,0.322,2.19,0.965,2.934
			c0.644,0.749,1.474,1.123,2.492,1.123c1.019,0,1.846-0.374,2.484-1.123c0.644-0.743,0.966-1.719,0.966-2.926
			c0-1.223-0.322-2.209-0.966-2.957C137.747,374.168,136.901,373.797,135.848,373.797z"/>
		<path fill="#E6E7E8" d="M149.732,372.75v1.279h-5.441v3.047h4.559v1.227h-4.559v4.662h-1.459V372.75H149.732z"/>
		<path fill="#E6E7E8" d="M158.146,372.75v1.279h-5.442v3.047h4.559v1.227h-4.559v4.662h-1.459V372.75H158.146z"/>
		<path fill="#E6E7E8" d="M161.117,372.75v10.215h-1.461V372.75H161.117z"/>
		<path fill="#E6E7E8" d="M172.066,375.818l-1.438,0.127c-0.114-0.529-0.331-0.963-0.651-1.303
			c-0.533-0.563-1.232-0.846-2.095-0.846c-1.059,0-1.888,0.424-2.485,1.273c-0.504,0.708-0.756,1.608-0.756,2.701
			c0,1.139,0.267,2.096,0.801,2.874c0.573,0.849,1.377,1.272,2.41,1.272c1.022,0,1.809-0.414,2.357-1.242
			c0.294-0.445,0.479-0.98,0.555-1.609h1.474c-0.104,0.928-0.395,1.719-0.869,2.373c-0.843,1.172-2.025,1.758-3.547,1.758
			c-1.537,0-2.734-0.582-3.593-1.744c-0.748-1.012-1.122-2.225-1.122-3.637c0-1.496,0.419-2.737,1.258-3.721
			c0.896-1.052,2.07-1.578,3.518-1.578c1.366,0,2.451,0.454,3.255,1.361C171.582,374.384,171.891,375.029,172.066,375.818z"/>
		<path fill="#E6E7E8" d="M181.137,372.75v1.279h-5.717v3.061h5.224v1.198h-5.224v3.397h5.921v1.279h-7.381V372.75H181.137z"/>
	</g>
</g>
<g>
	<path fill="#00A79D" d="M86.162,431.976v5.608c0,3.865,3.147,7.013,7.013,7.013h0.988v1.581c0,2.798,2.267,5.065,5.064,5.065
		h14.412c2.798,0,5.064-2.268,5.064-5.065v-25.64H94.164v4.425h-0.988C89.309,424.963,86.162,428.109,86.162,431.976z
		 M90.059,431.976c0-1.719,1.397-3.116,3.116-3.116h0.988V440.7h-0.988c-1.719,0-3.116-1.399-3.116-3.116V431.976z"/>
</g>
<path opacity="0.2" fill="#939598" d="M288.686,25.024c0.045-0.019,0.076-0.053,0.092-0.098l0,0
	c0.016-0.046,0.057-0.166-0.213-0.604c-0.004-0.003-0.004-0.006-0.006-0.01c-0.559-0.947-1.355-1.89-1.805-2.253
	c0-0.001-0.002-0.002-0.004-0.003c-0.18-0.127-0.316-0.189-0.416-0.191c-0.031,0-0.061,0.009-0.088,0.018
	c-0.041,0.012-0.107,0.043-0.145,0.067c-0.572,0.386-2.52,1.849-3.541,4.447c0,0.003-0.086,0.197-0.197,0.421
	c-0.107,0.219-0.256,0.517-0.396,0.83c-0.004,0.008-0.008,0.015-0.012,0.021c-0.006,0.005-0.012,0.01-0.018,0.015
	c-0.441,0.331-0.902,0.604-1.311,0.845c-0.4,0.237-0.746,0.443-0.992,0.652c-0.041,0.035-0.084,0.072-0.127,0.107
	c-0.006-0.054-0.014-0.108-0.02-0.162c-0.021-0.166-0.006-0.344,0.047-0.529c0.002-0.004,0.002-0.008,0.004-0.012
	c0-0.002,0-0.003,0-0.004c0.074-0.361,0.193-0.721,0.307-1.068c0.002-0.002,0.002-0.004,0.002-0.006
	c0.051-0.151,0.102-0.307,0.148-0.459c0.102-0.328,0.205-0.604,0.307-0.87c0.146-0.387,0.299-0.786,0.438-1.344
	c0.176-0.716,0.385-1.659,0.428-2.618c0.027-0.62-0.008-1.311-0.477-1.736c-0.039-0.035-0.088-0.061-0.146-0.072
	c-0.027-0.006-0.057-0.009-0.088-0.009c-0.176-0.003-0.387,0.079-0.5,0.123c-0.004,0.002-0.01,0.004-0.016,0.006
	c-0.008,0.003-0.016,0.007-0.025,0.009c-0.381,0.141-0.779,0.332-1.256,0.607c-0.074,0.041-0.418,0.244-0.756,0.477
	c-0.699,0.479-0.797,0.682-0.811,0.791c-0.008,0.07,0.016,0.138,0.066,0.185c0.488,0.445,0.416,1.296,0.369,1.859
	c-0.107,1.089-0.361,1.893-0.654,2.823c0,0.002-0.002,0.004-0.002,0.007c-0.074,0.231-0.148,0.472-0.227,0.728
	c-0.004,0.014-0.008,0.025-0.012,0.037c-0.016,0.01-0.035,0.02-0.053,0.028c-1.594,0.817-2.393,1.228-3.834,1.35l-0.004,0.001
	c-0.158,0.02-0.309,0.029-0.447,0.027c-0.838-0.008-1.131-0.395-1.291-0.732c-0.01-0.021-0.021-0.045-0.033-0.068
	c0.021-0.015,0.043-0.029,0.066-0.045c0.805-0.549,1.686-1.194,2.617-1.917c1.895-1.47,2.961-3.185,2.846-4.59
	c-0.055-0.667-0.387-1.198-0.936-1.493c-0.818-0.449-1.828-0.586-2.246-0.596c-0.018,0-0.035-0.001-0.051-0.001
	c-1.232-0.012-2.516,0.608-3.611,1.747c-1.025,1.064-1.738,2.335-2.119,3.777c-0.195,0.732-0.289,2.023-0.123,2.822
	c0.002,0.01,0.004,0.02,0.006,0.031c-0.004,0-0.008,0.002-0.012,0.004c-1.195,0.519-1.529,0.586-2.572,0.754
	c-0.178,0.025-0.342,0.039-0.49,0.041c-0.855,0.01-1.037-0.369-1.186-0.674c-0.01-0.021-0.021-0.043-0.031-0.064
	c0.02-0.016,0.037-0.031,0.057-0.046c0.742-0.61,1.551-1.321,2.402-2.114c1.725-1.607,2.604-3.402,2.344-4.804
	c-0.123-0.663-0.506-1.169-1.078-1.425c-0.674-0.303-1.369-0.445-2.125-0.437c-0.01,0-0.021,0-0.031,0
	c-0.043,0.001-0.086,0.003-0.127,0.005c-1.244,0.066-2.469,0.783-3.451,2.02c-0.906,1.141-1.527,2.635-1.705,4.101
	c-0.121,1.007-0.029,1.969,0.268,2.783c0.01,0.023,0.018,0.047,0.027,0.071c-0.023,0.012-0.045,0.025-0.066,0.039
	c-0.092,0.052-0.313,0.219-0.426,0.225c-0.434-0.006-0.547-0.867-0.572-1.405c-0.033-0.707,0.043-1.541,0.092-2.093
	c0.012-0.125,0.023-0.236,0.031-0.332c0.008-0.103,0.016-0.205,0.023-0.309c0.02-0.252,0.041-0.509,0.063-0.756
	c0-0.023,0.004-0.047,0.004-0.07c0.078-0.911,0.158-1.854,0.146-2.792c-0.004-0.449-0.031-0.979-0.184-1.497
	c-0.129-0.429-0.35-0.693-0.658-0.789c-0.049-0.014-0.1-0.021-0.148-0.021c-0.102,0-0.199,0.031-0.287,0.093
	c-0.002,0.001-0.004,0.003-0.004,0.004c-0.002,0.001-0.004,0.002-0.008,0.003c-0.357,0.181-0.668,0.438-0.955,0.688
	c-0.258,0.223-0.506,0.461-0.738,0.707c-0.023,0.026-0.049,0.052-0.072,0.077c-0.24,0.253-0.512,0.541-0.65,0.858
	c-0.203,0.471-0.381,0.897-0.555,1.31c-0.383,0.915-1.48,2.798-1.48,2.798c0.098-0.48,0.193-0.979,0.283-1.482
	c0.031-0.164,0.059-0.324,0.088-0.482c0.291-1.604,0.521-2.871,0.637-4.611c0.016-0.227,0.031-0.443,0.045-0.652
	c0-0.002,0-0.004,0-0.005c0.109-1.526,0.188-2.629-0.053-4.306c-0.131-0.911-0.578-3.13-1.92-4.055
	c-0.045-0.031-0.088-0.061-0.133-0.089c-0.043-0.026-0.094-0.042-0.152-0.042c-0.188,0-0.371,0.121-0.566,0.241
	c-0.342,0.212-0.767,0.555-1.222,0.95c-0.448,0.389-0.849,0.746-1.101,1.088c-0.001,0.002-0.003,0.004-0.005,0.006
	c-0.321,0.416-0.297,0.558-0.289,0.604c0.009,0.05,0.035,0.091,0.075,0.116c1.262,0.807,1.754,2.305,1.964,3.521
	c0.292,1.828,0.307,2.692,0.208,4.525c-0.092,1.717-0.31,3.578-0.668,5.689c-0.047,0.279-0.118,0.744-0.176,1.121
	c-0.031,0.201-0.063,0.407-0.078,0.502c-0.002,0.01-0.004,0.02-0.006,0.029c-0.007,0.008-0.015,0.015-0.022,0.022
	c-0.085,0.08-1.471,1.271-2.378,1.449c-0.137,0.021-0.269,0.03-0.392,0.032c-0.987,0.01-1.544-0.546-1.753-1.75
	c-0.32-1.848,0.445-4.463,2.061-5.258c0.022-0.012,0.084-0.037,0.086-0.039c0.003,0,0.006-0.001,0.008-0.002
	c0.035-0.007,0.07-0.011,0.102-0.011c0.15-0.001,0.265,0.07,0.352,0.22c0.176,0.305,0.09,1.023-0.319,1.896
	c-0.001,0.001-0.001,0.003-0.002,0.004s-0.001,0.003-0.001,0.004c-0.082,0.229-0.105,0.374,0.033,0.513
	c0.098,0.1,0.717,0.088,0.803,0.085c0.08-0.004,0.135,0.005,0.246-0.086c0.299-0.249,0.838-1.29,1.037-1.983
	c0.277-0.961,0.064-2.241-0.776-2.721c-0.819-0.467-1.656-0.493-2.228-0.46c-1.241,0.083-2.434,0.833-3.355,2.112
	c-0.854,1.182-1.393,2.716-1.482,4.207c-0.058,0.952,0.072,1.814,0.396,2.635c0.007,0.019,0.014,0.037,0.021,0.057
	c-0.015,0.014-0.029,0.027-0.045,0.042c-0.62,0.584-1.293,1.06-2.482,1.511c-0.326,0.125-0.616,0.19-0.863,0.191
	c-0.499,0.002-0.736-0.24-0.921-0.469c-0.015-0.019-0.03-0.037-0.046-0.057c0.016-0.02,0.032-0.038,0.049-0.057
	c0.623-0.725,1.291-1.557,1.982-2.475c1.412-1.868,1.948-3.775,1.43-5.102c-0.245-0.626-0.717-1.056-1.33-1.209
	c-0.368-0.094-0.785-0.141-1.236-0.139c-0.469,0.002-0.873,0.057-1.097,0.107c-1.207,0.271-2.278,1.18-3.015,2.559
	c-0.677,1.268-1.012,2.834-0.92,4.299c0.061,0.953,0.313,1.823,0.752,2.587c0.012,0.022,0.025,0.044,0.037,0.065
	c-0.02,0.018-0.039,0.033-0.06,0.05c-0.63,0.515-1.404,1.095-2.37,1.489c-0.267,0.104-0.518,0.157-0.744,0.159
	c-0.627,0.005-0.957-0.39-1.098-0.558c-0.016-0.019-0.03-0.036-0.045-0.055c0.014-0.019,0.028-0.037,0.043-0.057
	c0.561-0.756,1.154-1.621,1.766-2.572c1.242-1.936,1.612-3.863,0.981-5.158c-0.297-0.611-0.803-1.014-1.424-1.133
	c-0.339-0.065-0.678-0.098-1.009-0.096c-0.398,0.004-0.824,0.054-1.312,0.187c-1.179,0.341-2.167,1.305-2.781,2.715
	c-0.565,1.3-0.767,2.878-0.552,4.333c0.158,1.072,0.535,2.032,1.092,2.775c0.016,0.023,0.033,0.047,0.051,0.069
	c-0.516,0.506-1.654,1.43-1.67,1.381c-0.457-1.521-2.391-7.144-2.599-7.694c0.021-0.014,0.04-0.029,0.061-0.045
	c1.169-0.881,2.513-1.938,3.654-3.354c1.302-1.615,2.217-3.079,2.83-4.627c1.467-3.707,0.282-6.668-2.451-7.346
	c-4.096-1.016-11.295,1.527-14.573,7.432c-0.925,1.666-1.194,3.398-1.061,4.854c0.079,0.859,0.35,1.772,1.25,2.624
	c0.031,0.028,0.085,0.063,0.174,0.062c0.171-0.002,0.38-0.128,0.563-0.25c0.001-0.001,0.002-0.002,0.004-0.003
	c0.01-0.007,0.019-0.013,0.024-0.017c0.372-0.236,0.753-0.544,1.2-0.967c0.446-0.422,0.776-0.787,1.039-1.151
	c0.004-0.005,0.008-0.011,0.012-0.016c0.182-0.24,0.406-0.579,0.25-0.742c0-0.001-0.001-0.002-0.002-0.003
	c0-0.001-0.001-0.002-0.002-0.003c-1.296-1.622-0.981-3.296-0.478-4.194c2.328-4.154,7.917-5.132,9.787-3.541
	c1.107,0.942,1.52,2.789,0.94,4.42c-0.812,2.281-2.675,4.289-3.84,5.211c-0.278-0.586-2.256-6.566-3.679-7.721
	c-0.075-0.062-0.223-0.146-0.325-0.148c-0.15-0.004-0.426,0.078-0.623,0.246c-1.464,1.25-1.76,2.634-1.831,3.348
	c-0.012,0.56,0.168-1.126,2.984,5.188c0.024,0.048,0.049,0.096,0.073,0.143c-0.054-0.004-0.107-0.007-0.161-0.01
	c-0.445-0.026-1.147-0.269-1.216-0.285c-0.013-0.002-0.025-0.006-0.038-0.008c-0.011,0.006-0.022,0.014-0.033,0.021
	c-0.346,0.223-1.782,1.585-1.793,1.954c-0.001,0.051,0.018,0.094,0.056,0.119c0.524,0.366,1.336,0.373,2.347,0.359
	c0.49-0.006,1.023-0.061,1.585-0.16c0.022-0.004,0.09-0.008,0.113-0.012c0.01,0.02,2.823,6.554,3.392,9.322
	c0.043,0.209,0.181,0.246,0.323,0.254c0.002,0,0.003,0,0.005,0c0.004,0.001,0.008,0.002,0.013,0.003
	c0.002-0.001,0.004-0.001,0.005-0.002c0.007,0.001,0.014,0.001,0.02,0.001c0.004-0.003,0.008-0.006,0.012-0.008
	c0.005-0.002,0.011-0.004,0.017-0.006c0.63-0.178,2.257-1.203,2.599-1.636c0.022-0.027,0.041-0.057,0.055-0.088
	c0.002-0.005,0.005-0.011,0.008-0.016c0.004-0.004,0.008-0.009,0.012-0.012c0.287-0.278,1.746-1.644,1.994-1.882
	c0.018-0.018,0.086,0.043,0.136,0.074c0.546,0.353,1.19,0.546,2.031,0.609c0.073,0.005,0.155,0.008,0.243,0.008
	c0.497-0.005,1.077-0.104,1.443-0.246c1.572-0.615,2.836-1.563,3.619-2.248c0.018-0.016,0.035-0.031,0.053-0.047
	c0.043,0.028,0.084,0.057,0.127,0.086c0.556,0.381,1.229,0.631,1.947,0.725c0.171,0.023,0.347,0.033,0.521,0.033
	c0.301-0.002,0.607-0.038,0.911-0.109c0.142-0.033,0.286-0.074,0.429-0.122c0.001-0.001,0.002-0.001,0.004-0.001
	c1.088-0.4,2.256-1.166,3.462-2.302c0.051-0.048,0.046-0.044,0.097-0.091c0.025,0.029,0.056,0.06,0.056,0.06
	c0.028,0.026,0.058,0.054,0.087,0.08c0.281,0.261,1.031,0.896,1.91,1.153c1.486,0.438,2.963-0.252,3.887-0.948
	c0.098-0.073,0.311-0.244,0.365-0.286c-0.006,0.066-0.012,0.18-0.018,0.248c-0.013,0.153-0.025,0.326-0.008,0.439
	c0.039,0.245,0.104,0.287,0.277,0.288c0.02,0,0.043,0.001,0.071,0.003c0.003,0,0.007,0,0.012,0c0.239,0,1.562-0.385,2.284-0.902
	c0.002-0.002,0.004-0.003,0.006-0.004c0.002-0.002,0.004-0.002,0.006-0.004c0.098-0.049,0.174-0.156,0.234-0.332
	c0-0.002,0-0.004,0.002-0.006c0-0.003,0-0.006,0.002-0.008c0.086-0.518,0.096-0.73,0.113-1.117c0.01-0.188,0.02-0.424,0.043-0.758
	c0-0.01,0-0.02,0.002-0.029c0.006-0.008,0.012-0.014,0.018-0.021c0.385-0.483,1.73-2.207,2.922-4.1
	c0.059-0.094,0.117-0.187,0.176-0.28c-0.004,0.109-0.006,0.219-0.01,0.329c-0.014,0.457-0.045,0.92-0.068,1.23
	c-0.008,0.116-0.018,0.232-0.025,0.349c-0.018,0.253-0.039,0.507-0.059,0.761c-0.008,0.109-0.016,0.217-0.025,0.324
	c-0.063,0.801-0.123,1.557-0.105,2.409c0.008,0.429,0.037,0.724,0.18,1.24c0.117,0.423,0.305,0.693,0.574,0.829
	c0.133,0.067,0.283,0.103,0.445,0.104c0.004,0,0.006,0,0.01,0c0.609-0.008,2.137-0.443,3.057-0.998
	c0.002-0.001,0.504-0.32,0.525-0.334c0.055,0.057,0.131,0.14,0.188,0.195c0.73,0.729,2.205,1.193,3.688,1.03
	c1.428-0.183,2.916-0.808,3.842-1.243c0.021-0.01,0.043-0.02,0.063-0.029c0.049,0.056,0.096,0.111,0.143,0.166
	c0.416,0.482,0.957,0.85,1.654,1.123c0.439,0.172,0.912,0.263,1.41,0.27c0.006,0,0.014,0,0.02,0
	c0.141,0.001,0.287-0.004,0.434-0.017c1.031-0.108,1.598-0.168,3.875-1.362c0.074-0.039,0.268-0.141,0.291-0.155
	c-0.02,0.072-0.045,0.164-0.063,0.235c-0.104,0.387-0.189,0.879,0.061,1.25c0.1,0.146,0.246,0.24,0.436,0.279
	c0.033,0.006,0.07,0.01,0.113,0.01c0.492,0.005,1.689-0.389,1.961-0.515c0.189-0.088,1.475-0.928,2.529-1.778
	c0.08-0.064,0.16-0.129,0.24-0.193c-0.031,0.097-0.064,0.193-0.098,0.29c-1.932,5.722-2.832,8.306-4.141,9.552
	c-0.057,0.053-0.111,0.105-0.166,0.158c0.004-0.076,0.008-0.15,0.014-0.227c0.014-0.232,0.072-0.504,0.193-0.906
	c0.309-1.021,0.719-1.752,1.018-2.285c0.357-0.637,0.574-1.021,0.332-1.353c-0.002-0.003-0.004-0.004-0.006-0.007
	c0-0.001-0.002-0.003-0.002-0.006c-0.178-0.348-0.6-0.682-0.771-0.809c-0.395-0.291-0.834-0.518-1.27-0.652
	c-0.002-0.001-0.004-0.002-0.006-0.002c-0.16-0.051-0.432-0.135-0.672-0.138c-0.15-0.001-0.27,0.03-0.354,0.095
	c-0.002,0.001-0.004,0.003-0.006,0.004c0,0.002-0.002,0.004-0.004,0.006c-0.25,0.26-0.5,0.521-0.75,0.781
	c-0.002,0.003-0.004,0.006-0.008,0.009s-0.008,0.005-0.01,0.007c-1.088,0.662-6.887,0.566-8.852,0.557
	c-0.314-0.001-0.607-0.004-0.875-0.006c-0.066,0-0.131-0.001-0.197-0.002c-1.441-0.024-3.342-0.053-5.271-0.061
	c-2.191-0.008-4.137,0.012-5.951,0.059c-4.37,0.111-8.294,0.377-11.811,0.807c-0.076,0.008-0.152,0.018-0.229,0.025
	c-1.815,0.203-4.854,0.545-8.088,1.279c-3.938,0.895-6.979,2.111-9.041,3.605c-0.319,0.229-0.752,0.916-1.012,1.326
	c-0.031,0.05-0.06,0.096-0.085,0.135c-0.284,0.443-0.473,0.822-0.596,1.195c-0.002,0.006-0.004,0.013-0.007,0.02
	c-0.058,0.172-0.192,0.573,0.025,0.721c0.042,0.029,0.091,0.044,0.144,0.043c0.178-0.002,0.366-0.173,0.479-0.275
	c0.013-0.013,0.025-0.023,0.035-0.033c0.001,0,0.002-0.001,0.003-0.002c0,0,0.058-0.045,0.079-0.063
	c0.098-0.075,0.205-0.154,0.325-0.24c0.207-0.147,0.432-0.296,0.688-0.453c0.472-0.289,0.992-0.569,1.593-0.855
	c0.023-0.012,0.045-0.021,0.068-0.032c0.071-0.033,0.144-0.065,0.216-0.099c0.15-0.067,0.308-0.136,0.483-0.211
	c0.303-0.129,0.623-0.257,0.979-0.393c0.663-0.253,1.363-0.494,2.138-0.736c3.704-1.176,9.786-1.898,12.229-2.148
	c3.473-0.368,7.369-0.596,11.725-0.688c2.416-0.051,4.83-0.05,6.666-0.041c0.918,0.002,1.836,0.01,2.754,0.016
	c0.428,0.004,0.854,0.007,1.281,0.01c2.549-0.003,7.73-0.123,9.523-0.441c0.002,0,0.002-0.001,0.006-0.001
	c0.713-0.125,1.922-0.565,3.176-1.17c-0.002-0.001-2.396,1.653-2.502,1.771c-0.354,1.356,0.063,2.171,0.404,2.665
	c0.557,0.803,2.783,1.674,3.752,0.992c1.652-1.166,2.891-4.222,4.232-7.424C284.703,29.886,286.346,25.981,288.686,25.024z
	 M229.938,30.199c-0.039,0.055-0.078,0.108-0.117,0.163c-0.015-0.064-0.029-0.129-0.044-0.193c-0.183-0.793-0.208-1.674-0.071-2.479
	c0.173-1.028,0.604-1.86,1.211-2.341c0.018-0.016,0.039-0.031,0.061-0.046c0.01-0.007,0.019-0.013,0.028-0.02
	c0.011,0.001,0.022,0.003,0.034,0.003c0.121,0.014,0.35,0.17,0.463,0.352c0.359,0.571,0.303,1.91-1.027,3.807
	C230.296,29.698,230.115,29.952,229.938,30.199z M237.742,28.44c-0.043,0.052-0.087,0.104-0.131,0.155
	c-0.009-0.065-0.019-0.132-0.027-0.198c-0.238-1.662,0.219-3.828,1.555-4.752c0.029-0.02,0.058-0.037,0.084-0.053
	c0.004-0.002,0.008-0.005,0.013-0.008c0.005,0,0.009-0.002,0.015-0.003c0.004-0.001,0.008-0.001,0.012-0.002c0.003,0,0.006,0,0.01,0
	c0.124-0.001,0.321,0.175,0.43,0.384c0.311,0.59,0.139,1.924-1.356,3.748C238.156,27.942,237.953,28.188,237.742,28.44z
	 M262.76,26.793c0.002-0.067,0.004-0.135,0.008-0.202c0.033-0.811,0.242-1.672,0.592-2.426c0.445-0.964,1.09-1.679,1.814-2.013
	c0.023-0.011,0.051-0.021,0.076-0.032c0.01-0.004,0.021-0.008,0.031-0.012c0.01,0.004,0.02,0.007,0.029,0.01
	c0.1,0.032,0.291,0.225,0.357,0.443c0.193,0.637-0.223,1.929-2.025,3.48c-0.244,0.211-0.49,0.419-0.727,0.619
	C262.863,26.705,262.811,26.749,262.76,26.793z M270.77,26.979c0.01-0.068,0.021-0.136,0.031-0.204
	c0.117-0.8,0.414-1.636,0.84-2.354c0.545-0.923,1.266-1.585,2.027-1.864c0.033-0.012,0.068-0.023,0.1-0.031
	c0.004-0.002,0.01-0.002,0.014-0.004c0.004,0,0.008,0,0.012,0c0.131,0.002,0.283,0.257,0.328,0.475
	c0.129,0.645-0.422,1.895-2.389,3.303c-0.246,0.176-0.512,0.364-0.791,0.561C270.885,26.9,270.826,26.94,270.77,26.979z"/>
<g>
	<g>
		<g>
			<g>
				<circle fill="#F4724E" cx="379.757" cy="137.015" r="37.961"/>
				<circle fill="#D1D2D3" cx="379.756" cy="137.015" r="31.7"/>
			</g>
			<g>
				<circle fill="#808285" cx="379.756" cy="137.015" r="4.5"/>
			</g>
		</g>
		<g>
			<circle fill="#808285" cx="379.756" cy="136.954" r="4.5"/>
			<rect x="379.168" y="110.611" fill="#808285" width="1.174" height="27.003"/>
			<rect x="361.364" y="135.779" fill="#808285" width="18.587" height="2.349"/>
		</g>
	</g>
</g>
</svg>
