<?xml version="1.0" encoding="utf-8"?>
<!-- Generator: Adobe Illustrator 16.0.0, SVG Export Plug-In . SVG Version: 6.00 Build 0)  -->
<!DOCTYPE svg PUBLIC "-//W3C//DTD SVG 1.1//EN" "http://www.w3.org/Graphics/SVG/1.1/DTD/svg11.dtd">
<svg version="1.1" id="Layer_1" xmlns="http://www.w3.org/2000/svg" xmlns:xlink="http://www.w3.org/1999/xlink" x="0px" y="0px"
	 width="500px" height="500px" viewBox="0 0 500 500" enable-background="new 0 0 500 500" xml:space="preserve">
<g>
	<rect x="0" fill="#FECA5A" width="500" height="500"/>
	<rect x="0" fill="#D1D3D4" width="500" height="500"/>
</g>
<rect x="0" y="411.481" fill="#603913" width="500" height="24.023"/>
<rect x="0" y="435.505" fill="#2B190E" width="500" height="11.31"/>
<linearGradient id="SVGID_1_" gradientUnits="userSpaceOnUse" x1="175.4385" y1="35.3613" x2="46.3877" y2="176.5103">
	<stop  offset="0" style="stop-color:#603913"/>
	<stop  offset="1" style="stop-color:#C49A6C;stop-opacity:0"/>
</linearGradient>
<polygon opacity="0.3" fill="url(#SVGID_1_)" points="146.703,173.854 76.289,244.267 6.406,244.267 8.649,110.725 59.686,59.688 
	"/>
<linearGradient id="SVGID_2_" gradientUnits="userSpaceOnUse" x1="472.8467" y1="113.1836" x2="391.4196" y2="202.2442">
	<stop  offset="0" style="stop-color:#603913"/>
	<stop  offset="1" style="stop-color:#C49A6C;stop-opacity:0"/>
</linearGradient>
<polygon opacity="0.3" fill="url(#SVGID_2_)" points="443.39,180.784 372.976,251.198 365.674,195.022 416.711,143.985 "/>
<g>
	<g>
		<g>
			
				<radialGradient id="SVGID_3_" cx="25.6377" cy="112.8335" r="54.0125" gradientTransform="matrix(0.9735 0 0 0.9792 80.2404 9.5563)" gradientUnits="userSpaceOnUse">
				<stop  offset="0" style="stop-color:#FFFFFF"/>
				<stop  offset="0.7346" style="stop-color:#F6F6F6"/>
				<stop  offset="1" style="stop-color:#F1F1F2"/>
			</radialGradient>
			<path fill="url(#SVGID_3_)" d="M60.058,60.605V179.48h90.282V60.605H60.058z"/>
			<path fill="#BC8864" d="M59.004,59.34v121.404h92.437V59.34H59.004z M147.609,176.91H62.838V63.6h84.771V176.91z"/>
			<path fill="#754D32" d="M60.48,61.237v118.032h89.789V61.237H60.48z M146.475,175.475h-82.2V65.031h82.2V175.475z"/>
			<path fill="#8B5E3C" d="M59.637,59.972v120.139h91.474V59.972H59.637z M147.319,176.318H63.432V64.188h83.887V176.318z"/>
		</g>
		<g>
			<g>
				<g opacity="0.1">
					<rect x="73.914" y="73.743" fill="#8C8678" width="63.144" height="92.178"/>
				</g>
				<g>
					<rect x="75.293" y="75.148" fill="#8C8678" width="59.862" height="89.367"/>
				</g>
			</g>
		</g>
	</g>
	<g>
		<defs>
			<rect id="SVGID_4_" x="75.293" y="75.148" width="59.862" height="89.367"/>
		</defs>
		<clipPath id="SVGID_5_">
			<use xlink:href="#SVGID_4_"  overflow="visible"/>
		</clipPath>
		<g clip-path="url(#SVGID_5_)">
			<path opacity="0.4" fill="#FFFFFF" d="M64.297,142.753v-4.189h-0.523v2.555l-1.231,1.11h-2.608v14.135h-6.63v1.222h-0.523v0.873
				h-2.793v0.873h-1.396v1.222h-0.773c0-2.269-1.842-4.128-3.937-4.356v-0.585c0-0.25-0.273-0.453-0.523-0.453
				c-0.25,0-0.523,0.204-0.523,0.453v0.585c-2.271,0.227-3.86,2.087-3.86,4.356h-0.33v3.49l0,0v5.759h26.874v-12.577v-14.471H64.297
				z"/>
			<polygon opacity="0.7" fill="#FFFFFF" points="58.684,169.641 58.684,163.335 65.604,156.414 67.309,156.414 67.309,138.039 
				73.578,138.039 73.578,154.311 78.907,154.311 78.907,152.735 80.972,152.735 80.972,151.539 83.257,151.539 83.257,164.206 
				84.343,164.206 84.343,149.255 84.886,149.255 84.886,144.526 86.355,144.526 86.355,138.237 86.896,138.237 86.896,134.632 
				89.78,134.632 89.78,138.237 90.285,138.237 90.285,144.526 91.083,144.526 91.083,148.983 91.979,148.983 91.979,166.163 
				112.829,166.163 112.829,169.859 			"/>
			<polygon opacity="0.7" fill="#FFFFFF" points="93.331,166.38 93.331,153.043 94.998,153.043 94.998,130.608 95.939,130.608 
				95.939,129.232 96.683,129.232 96.683,126.785 98.459,126.785 98.459,129.249 99.566,129.249 99.566,130.608 100.652,130.608 
				100.652,152.843 103.315,152.843 103.315,135.066 106.196,135.066 106.196,133.327 107.502,133.327 107.502,131.913 
				110.166,131.913 110.166,133.272 111.145,133.272 111.145,134.903 112.719,134.903 112.719,158.334 118.593,158.334 
				118.593,166.235 120.222,166.235 120.222,127.528 132.256,127.528 132.256,166.235 133.851,166.235 133.851,136.952 
				138.634,141.734 138.634,166.38 160.779,166.38 160.779,169.859 80.646,169.859 80.646,167.033 93.148,167.033 			"/>
			<polygon opacity="0.4" fill="#F2F2F2" points="59.72,163.721 59.72,140.188 62.661,140.188 62.661,100.604 64.323,100.604 
				64.323,98.174 65.634,98.174 65.634,93.856 68.771,93.856 68.771,98.204 70.718,98.204 70.718,100.602 72.637,100.602 
				72.637,139.836 77.338,139.836 77.338,108.469 82.421,108.469 82.421,105.4 84.724,105.4 84.724,102.906 89.424,102.906 
				89.424,105.304 91.151,105.304 91.151,108.182 93.932,108.182 93.932,149.523 104.292,149.523 104.292,163.465 107.167,163.465 
				107.167,95.169 128.399,95.169 128.399,163.465 131.212,163.465 131.212,111.795 139.655,120.236 139.655,163.721 
				178.725,163.721 178.725,169.859 38.646,169.859 38.646,164.872 59.399,164.872 			"/>
			<polygon opacity="0.2" fill="#FFFFFF" points="135.508,166.05 135.508,151.449 137.332,151.449 137.332,126.887 138.363,126.887 
				138.363,125.379 139.179,125.379 139.179,122.701 141.122,122.701 141.122,125.399 142.333,125.399 142.333,126.885 
				143.522,126.885 143.522,151.23 146.44,151.23 146.44,131.768 149.594,131.768 149.594,129.863 151.023,129.863 151.023,128.316 
				153.939,128.316 153.939,129.803 155.01,129.803 155.01,131.589 156.735,131.589 156.735,157.242 163.165,157.242 
				163.165,165.892 164.952,165.892 164.952,123.515 178.122,123.515 178.122,165.892 178.252,165.892 178.252,133.831 
				178.252,139.068 178.252,166.05 178.252,166.05 178.252,169.859 121.622,169.859 121.622,166.764 135.31,166.764 			"/>
		</g>
	</g>
</g>
<linearGradient id="SVGID_6_" gradientUnits="userSpaceOnUse" x1="348.5068" y1="264.1387" x2="221.5353" y2="403.0134">
	<stop  offset="0" style="stop-color:#603913"/>
	<stop  offset="1" style="stop-color:#C49A6C;stop-opacity:0"/>
</linearGradient>
<polygon fill="url(#SVGID_6_)" points="186.364,289.245 145.728,329.881 145.728,436.333 331.052,436.333 362.443,404.94 "/>
<g>
	<g>
		<g>
			<path fill="#939598" d="M301.203,426.32c0,0-2.359-2.449-5.334-5.108c-2.968-2.662-2.553-4.617-2.553-4.617l-0.797-10.605
				h-18.278h-0.917h-18.279l-0.8,10.605c0,0,0.417,1.955-2.553,4.617c-2.971,2.659-5.332,5.108-5.332,5.108
				s-0.342,0.593-0.342,1.434c0,0.843,0.493,0.878,2.549,0.878c1.817,0,20.411,0,24.757,0c0.576,0,0.917,0,0.917,0
				c4.343,0,22.934,0,24.752,0c2.058,0,2.551-0.035,2.551-0.878C301.544,426.913,301.203,426.32,301.203,426.32z"/>
		</g>
		<g>
			<path fill="#939598" d="M365.129,398.761c0,5.104-4.142,9.245-9.249,9.245H191.677c-5.106,0-9.248-4.141-9.248-9.245V297.113
				c0-5.108,4.142-9.246,9.248-9.246H355.88c5.107,0,9.249,4.138,9.249,9.246V398.761z"/>
			<path fill="#58595B" d="M365.129,395.967v-98.854c0-5.108-4.142-9.246-9.249-9.246H191.677c-5.106,0-9.248,4.138-9.248,9.246
				v98.854H365.129z"/>
			<rect x="189.217" y="293.804" fill="#F9A74E" width="169.125" height="97.07"/>
		</g>
	</g>
	<path fill="#58595B" d="M276.859,401.936c0,1.703-1.378,3.081-3.078,3.081l0,0c-1.702,0-3.081-1.378-3.081-3.081l0,0
		c0-1.699,1.379-3.081,3.081-3.081l0,0C275.481,398.854,276.859,400.236,276.859,401.936L276.859,401.936z"/>
</g>
<g>
	<g>
		<path fill="#21CEC9" d="M285.066,200.49c0,0.155-0.102,0.279-0.232,0.279h-13.497c-0.129,0-0.233-0.125-0.233-0.279v-58.11
			c0-0.156,0.104-0.282,0.233-0.282h13.497c0.131,0,0.232,0.126,0.232,0.282V200.49z"/>
		<path fill="#06B2A1" d="M285.066,200.49c0,0.155-0.013,0.279-0.03,0.279h-1.669c-0.016,0-0.029-0.125-0.029-0.279v-58.11
			c0-0.156,0.014-0.282,0.029-0.282h1.669c0.018,0,0.03,0.126,0.03,0.282V200.49z"/>
		<g>
			<rect x="271.104" y="157.175" fill="#00A79D" width="13.963" height="29.826"/>
		</g>
		<g>
			<path fill="#F4724E" d="M271.149,200.516c0,0.14-0.058,0.253-0.126,0.253h-7.394c-0.071,0-0.127-0.113-0.127-0.253v-52.367
				c0-0.139,0.056-0.253,0.127-0.253h7.394c0.068,0,0.126,0.114,0.126,0.253V200.516z"/>
		</g>
		<g>
			<path fill="#E2684B" d="M271.149,200.516c0,0.14-0.009,0.253-0.021,0.253h-1.252c-0.011,0-0.021-0.113-0.021-0.253v-52.367
				c0-0.139,0.01-0.253,0.021-0.253h1.252c0.013,0,0.021,0.114,0.021,0.253V200.516z"/>
		</g>
		<g>
			<path fill="#AF6B4E" d="M263.509,200.516c0,0.14-0.057,0.253-0.127,0.253h-7.396c-0.068,0-0.125-0.113-0.125-0.253v-52.367
				c0-0.139,0.057-0.253,0.125-0.253h7.396c0.07,0,0.127,0.114,0.127,0.253V200.516z"/>
		</g>
		<g>
			<path fill="#9B5D48" d="M263.509,200.516c0,0.14-0.007,0.253-0.019,0.253h-1.14c-0.01,0-0.019-0.113-0.019-0.253v-52.367
				c0-0.139,0.009-0.253,0.019-0.253h1.14c0.012,0,0.019,0.114,0.019,0.253V200.516z"/>
		</g>
		<path fill="#4BAFDB" d="M246.489,144.021c0-0.148,0.07-0.272,0.157-0.272h9.203c0.088,0,0.159,0.124,0.159,0.272v56.478
			c0,0.149-0.071,0.271-0.159,0.271h-9.203c-0.087,0-0.157-0.121-0.157-0.271V144.021z"/>
		<path fill="#46A5C6" d="M254.843,144.021c0-0.148,0.007-0.272,0.02-0.272h1.124c0.013,0,0.022,0.124,0.022,0.272v56.478
			c0,0.149-0.01,0.271-0.022,0.271h-1.124c-0.013,0-0.02-0.121-0.02-0.271V144.021z"/>
		<g>
			<path fill="#F9A74E" d="M246.553,200.589c0,0.102-0.085,0.18-0.191,0.18h-11.01c-0.105,0-0.189-0.078-0.189-0.18v-37.056
				c0-0.098,0.084-0.178,0.189-0.178h11.01c0.106,0,0.191,0.08,0.191,0.178V200.589z"/>
		</g>
		<g>
			<path fill="#EA9949" d="M246.553,200.589c0,0.102-0.013,0.18-0.029,0.18h-1.607c-0.016,0-0.029-0.078-0.029-0.18v-37.056
				c0-0.098,0.014-0.178,0.029-0.178h1.607c0.017,0,0.029,0.08,0.029,0.178V200.589z"/>
		</g>
		<g>
			<path fill="#21CEC9" d="M235.211,200.548c0,0.122-0.073,0.221-0.159,0.221h-9.201c-0.089,0-0.159-0.099-0.159-0.221v-46.112
				c0-0.126,0.069-0.225,0.159-0.225h9.201c0.085,0,0.159,0.099,0.159,0.225V200.548z"/>
		</g>
		<g>
			<path fill="#1FBFB7" d="M235.211,200.548c0,0.122-0.008,0.221-0.021,0.221h-1.242c-0.01,0-0.021-0.099-0.021-0.221v-46.112
				c0-0.126,0.011-0.225,0.021-0.225h1.242c0.013,0,0.021,0.099,0.021,0.225V200.548z"/>
		</g>
		<g>
			<path fill="#F4724E" d="M215.519,153.907c0.043-0.115,0.16-0.176,0.258-0.138l10.385,4.001c0.097,0.041,0.141,0.164,0.097,0.28
				l-16.591,43.023c-0.047,0.114-0.163,0.176-0.261,0.14l-10.382-4.003c-0.099-0.038-0.143-0.161-0.099-0.28L215.519,153.907z"/>
		</g>
		<g>
			<path fill="#E2684B" d="M224.533,157.385c0.045-0.115,0.095-0.204,0.11-0.197l1.667,0.639c0.017,0.008-0.006,0.106-0.05,0.223
				l-16.592,43.023c-0.045,0.114-0.093,0.204-0.108,0.197l-1.668-0.642c-0.017-0.007,0.007-0.106,0.051-0.222L224.533,157.385z"/>
		</g>
	</g>
	<g>
		<g>
			<path fill="#231F20" d="M338.444,235.707c-0.272,0-0.494-0.223-0.494-0.498v-88.921c0-0.274,0.222-0.496,0.494-0.496
				c0.275,0,0.495,0.222,0.495,0.496v88.921C338.939,235.483,338.72,235.707,338.444,235.707z"/>
			<path fill="#231F20" d="M338.113,168.273c-0.188,0-0.371-0.111-0.453-0.297l-8.264-18.841c-0.11-0.251,0.004-0.543,0.256-0.654
				c0.25-0.11,0.543,0.004,0.653,0.254l8.263,18.843c0.11,0.25-0.003,0.542-0.252,0.653
				C338.25,168.259,338.181,168.273,338.113,168.273z"/>
			<path fill="#231F20" d="M338.444,182.487c-0.054,0-0.109-0.008-0.161-0.027c-0.262-0.092-0.397-0.374-0.305-0.634l8.594-24.462
				c0.092-0.256,0.376-0.393,0.633-0.302c0.256,0.091,0.393,0.374,0.302,0.632l-8.592,24.462
				C338.842,182.36,338.65,182.487,338.444,182.487z"/>
			<path fill="#231F20" d="M336.131,222.816c-0.274,0-0.495-0.221-0.495-0.496v-39.336c0-0.274,0.221-0.496,0.495-0.496
				c0.272,0,0.497,0.222,0.497,0.496v39.336C336.628,222.595,336.403,222.816,336.131,222.816z"/>
			<path fill="#231F20" d="M335.985,201.516c-0.124,0-0.251-0.048-0.35-0.146l-20.493-20.495c-0.193-0.194-0.193-0.507,0-0.702
				c0.194-0.194,0.506-0.194,0.699,0l20.495,20.496c0.193,0.194,0.193,0.508,0,0.701
				C336.239,201.467,336.113,201.516,335.985,201.516z"/>
			<path fill="#231F20" d="M336.131,191.413c-0.127,0-0.252-0.048-0.349-0.146c-0.193-0.194-0.193-0.507,0-0.702l16.196-16.198
				c0.193-0.193,0.509-0.193,0.703,0c0.192,0.194,0.192,0.508,0,0.702l-16.198,16.198
				C336.385,191.365,336.258,191.413,336.131,191.413z"/>
			<path fill="#231F20" d="M336.009,186.949c-0.128,0-0.256-0.047-0.351-0.145l-8.182-8.183c-0.195-0.194-0.195-0.507,0-0.7
				c0.193-0.194,0.508-0.194,0.701,0l8.181,8.181c0.193,0.193,0.193,0.507,0,0.702C336.262,186.902,336.133,186.949,336.009,186.949
				z"/>
			<path fill="#231F20" d="M331.67,182.611c-0.275,0-0.496-0.222-0.496-0.495v-12.893c0-0.275,0.221-0.497,0.496-0.497
				c0.272,0,0.495,0.222,0.495,0.497v12.893C332.165,182.389,331.942,182.611,331.67,182.611z"/>
			<path fill="#231F20" d="M323.632,189.12c-0.274,0-0.496-0.221-0.496-0.496V175.36c0-0.275,0.222-0.496,0.496-0.496
				c0.273,0,0.495,0.221,0.495,0.496v13.264C324.127,188.898,323.905,189.12,323.632,189.12z"/>
			<path fill="#231F20" d="M349.272,178.148c-0.274,0-0.496-0.223-0.496-0.496v-9.546c0-0.273,0.222-0.495,0.496-0.495
				c0.273,0,0.495,0.222,0.495,0.495v9.546C349.768,177.925,349.546,178.148,349.272,178.148z"/>
		</g>
		<g>
			<path fill="#754C29" d="M338.679,215.1v43.118h-13.095c0,0-0.771-8.105,4.468-20.643c5.235-12.537,4.314-22.475,4.314-22.475
				H338.679z"/>
			<path fill="#754C29" d="M336.331,215.1v43.118h13.096c0,0,0.77-8.105-4.473-20.643c-5.235-12.537-4.311-22.475-4.311-22.475
				H336.331z"/>
		</g>
	</g>
	<path fill="#8B5E3C" d="M478.929,232.541v-56.724H357.103v56.724H478.929z M365.695,182.406h104.639v43.545H365.695V182.406z"/>
	<rect x="385.583" y="41.456" fill="#8B5E3C" width="7.967" height="137.248"/>
	<rect x="457.955" y="227.365" fill="#8B5E3C" width="7.967" height="38.509"/>
	<rect x="303.252" y="41.456" fill="#8B5E3C" width="7.969" height="224.418"/>
	<rect x="179.362" y="134.41" fill="#8B5E3C" width="7.968" height="74.692"/>
	<rect x="179.362" y="134.41" fill="#8B5E3C" width="212.197" height="7.967"/>
	<rect x="303.252" y="41.456" fill="#8B5E3C" width="90.298" height="7.967"/>
	<rect x="179.362" y="201.134" fill="#8B5E3C" width="128.136" height="7.968"/>
	<rect x="303.252" y="258.417" fill="#8B5E3C" width="155.563" height="7.457"/>
	<g>
		<defs>
			<filter id="Adobe_OpacityMaskFilter" filterUnits="userSpaceOnUse" x="250.916" y="60.673" width="116.634" height="125.434">
				<feFlood  style="flood-color:white;flood-opacity:1" result="back"/>
				<feBlend  in="SourceGraphic" in2="back" mode="normal"/>
			</filter>
		</defs>
		<mask maskUnits="userSpaceOnUse" x="250.916" y="60.673" width="116.634" height="125.434" id="SVGID_7_">
			<g filter="url(#Adobe_OpacityMaskFilter)">
				<defs>
					
						<filter id="Adobe_OpacityMaskFilter_1_" filterUnits="userSpaceOnUse" x="250.916" y="60.673" width="116.634" height="125.434">
						<feFlood  style="flood-color:white;flood-opacity:1" result="back"/>
						<feBlend  in="SourceGraphic" in2="back" mode="normal"/>
					</filter>
				</defs>
				<mask maskUnits="userSpaceOnUse" x="250.916" y="60.673" width="116.634" height="125.434" id="SVGID_7_">
					<g filter="url(#Adobe_OpacityMaskFilter_1_)">
					</g>
				</mask>
				<linearGradient id="SVGID_8_" gradientUnits="userSpaceOnUse" x1="365.749" y1="69.9888" x2="291.9986" y2="145.4155">
					<stop  offset="0" style="stop-color:#FFFFFF"/>
					<stop  offset="1" style="stop-color:#000000"/>
				</linearGradient>
				<polygon mask="url(#SVGID_7_)" fill="url(#SVGID_8_)" points="327.041,60.673 250.916,136.799 300.225,186.106 367.55,118.78 
									"/>
			</g>
		</mask>
		<linearGradient id="SVGID_9_" gradientUnits="userSpaceOnUse" x1="365.749" y1="69.9888" x2="291.9986" y2="145.4155">
			<stop  offset="0" style="stop-color:#414042"/>
			<stop  offset="1" style="stop-color:#808285"/>
		</linearGradient>
		<polygon opacity="0.2" fill="url(#SVGID_9_)" points="327.041,60.673 250.916,136.799 300.225,186.106 367.55,118.78 		"/>
		<g>
			<g>
				<g>
					<circle fill="#F4724E" cx="347.809" cy="90.646" r="36.131"/>
					<circle fill="#FFE8BB" cx="347.808" cy="90.646" r="30.172"/>
				</g>
				<g>
					<circle fill="#808285" cx="347.808" cy="90.646" r="4.283"/>
				</g>
			</g>
			<g>
				<circle fill="#808285" cx="347.808" cy="90.587" r="4.283"/>
				<rect x="347.249" y="65.515" fill="#808285" width="1.117" height="25.701"/>
				<rect x="330.303" y="89.47" fill="#808285" width="17.691" height="2.235"/>
			</g>
		</g>
	</g>
</g>
<g>
	<g>
		<path fill="#EFEFEF" d="M227.82,354.846h-3.885l-6.596-25.871h3.677l3.923,16.678c0.481,2.301,0.79,3.981,0.929,5.042
			c0.088-0.467,0.222-1.187,0.398-2.16c0.24-1.289,0.437-2.249,0.588-2.882l4.037-16.678h4.605l4.114,16.186
			c0.505,1.984,0.865,3.829,1.08,5.534c0.417-2.426,0.777-4.271,1.08-5.534l3.848-16.186h3.677l-6.633,25.871h-3.885l-4.492-17.551
			c-0.518-2.147-0.872-3.848-1.061-5.099c-0.229,1.466-0.576,3.171-1.043,5.118L227.82,354.846z"/>
		<path fill="#EFEFEF" d="M264.078,328.387c3.474,0,6.381,1.225,8.719,3.677c2.414,2.527,3.62,5.813,3.62,9.855
			c0,4.019-1.206,7.298-3.62,9.837c-2.338,2.452-5.295,3.678-8.87,3.678c-3.589,0-6.552-1.226-8.89-3.678
			c-2.413-2.552-3.619-5.818-3.619-9.8c0-4.093,1.206-7.391,3.619-9.893C257.399,329.611,260.414,328.387,264.078,328.387z
			 M263.794,331.628c-2.489,0-4.549,0.941-6.179,2.823c-1.631,1.883-2.444,4.373-2.444,7.468c0,3.07,0.813,5.548,2.444,7.43
			c1.63,1.896,3.734,2.844,6.312,2.844s4.674-0.947,6.293-2.844c1.629-1.882,2.444-4.352,2.444-7.41
			c0-3.096-0.815-5.592-2.444-7.487C268.601,332.569,266.46,331.628,263.794,331.628z"/>
		<path fill="#EFEFEF" d="M285.174,344.175v10.671h-3.696v-25.871h10.556c2.238,0,3.906,0.233,5.005,0.7
			c1.592,0.658,2.735,1.713,3.431,3.166c0.467,0.985,0.701,2.097,0.701,3.336c0,2.867-1.326,4.978-3.979,6.33
			c0.77,0.367,1.388,0.847,1.856,1.44c0.403,0.519,0.683,1.062,0.834,1.63c0.177,0.683,0.297,1.479,0.36,2.389l0.17,2.198
			c0.077,1.2,0.209,2.154,0.397,2.861c0.178,0.632,0.469,1.238,0.872,1.82h-4.49c-0.241-0.834-0.449-2.395-0.626-4.682l-0.171-1.915
			c-0.253-2.678-1.637-4.036-4.15-4.074H285.174z M285.174,341.143h6.178c1.92,0,3.367-0.354,4.341-1.063
			c1.148-0.846,1.725-2.046,1.725-3.601c0-1.112-0.335-2.053-1.005-2.824c-0.822-0.959-2.11-1.44-3.866-1.44h-7.372V341.143z"/>
		<path fill="#EFEFEF" d="M316.54,339.379l11.694,15.467h-4.568l-9.532-13.116l-4.151,4.094v9.022h-3.695v-25.871h3.695v12.471
			l12.471-12.471h4.701L316.54,339.379z"/>
	</g>
	<g>
		<g>
			<g>
				<path fill="#EFEFEF" d="M259.33,359.42v10.258h-1.678V359.42h-3.658v-1.469h8.994v1.469H259.33z"/>
				<path fill="#EFEFEF" d="M266.219,357.951v11.727h-1.675v-11.727H266.219z"/>
				<path fill="#EFEFEF" d="M275.326,369.678h-1.323l-2.726-7.045c-0.319-0.854-0.586-1.661-0.797-2.423
					c0.046,0.688,0.074,1.547,0.086,2.578v6.89h-1.581v-11.727h2.053l2.92,7.5c0.276,0.744,0.515,1.438,0.714,2.078
					c0.298-0.893,0.535-1.57,0.714-2.035l2.902-7.49h2.056v11.674h-1.581v-6.89c0.006-0.923,0.034-1.782,0.084-2.578
					c-0.245,0.849-0.535,1.707-0.867,2.578L275.326,369.678z"/>
				<path fill="#EFEFEF" d="M291.348,357.951v1.469h-6.563v3.514h5.995v1.375h-5.995v3.9h6.795v1.469h-8.473v-11.727H291.348z"/>
			</g>
		</g>
		<g>
			<rect x="221.217" y="363.895" fill="#EFEFEF" width="31.187" height="0.981"/>
			<rect x="293.168" y="363.895" fill="#EFEFEF" width="31.188" height="0.981"/>
		</g>
	</g>
</g>
<g>
	<rect x="377.255" y="259.333" opacity="0.4" fill="#808185" width="31.714" height="36.451"/>
	<path fill="#F9A74E" d="M409.381,259.333h-32.126v35.804l13.909-0.81c0,0,4.306-0.386,8.324-1.814
		c4.031-1.434,7.773-3.91,7.873-4.063C409.744,284.751,409.381,259.333,409.381,259.333z"/>
	<path fill="#E59545" d="M407.361,288.45c0,0-4.836,1.779-8.234-0.323c0,0,0.361,5.122-8.237,6.2c0,0,7.575-0.615,11.018-1.994
		C406.078,290.661,407.361,288.45,407.361,288.45z"/>
	<rect x="377.255" y="259.333" fill="#F9B978" width="32.177" height="5.766"/>
</g>
<g>
	<rect x="413.588" y="259.333" opacity="0.4" fill="#808185" width="31.714" height="36.451"/>
	<path fill="#F9A74E" d="M445.714,259.333h-32.126v35.804l13.909-0.81c0,0,4.306-0.386,8.324-1.814
		c4.031-1.434,7.773-3.91,7.873-4.063C446.077,284.751,445.714,259.333,445.714,259.333z"/>
	<path fill="#E59545" d="M443.694,288.45c0,0-4.836,1.779-8.234-0.323c0,0,0.361,5.122-8.237,6.2c0,0,7.575-0.615,11.018-1.994
		C442.411,290.661,443.694,288.45,443.694,288.45z"/>
	<rect x="413.588" y="259.333" fill="#F9B978" width="32.177" height="5.766"/>
</g>
<g>
	<path fill="#21CEC9" d="M382.236,423.449c-0.286,0-0.52-0.092-0.52-0.211v-12.291c0-0.117,0.233-0.211,0.52-0.211h107.324
		c0.291,0,0.526,0.094,0.526,0.211v12.291c0,0.119-0.235,0.211-0.526,0.211H382.236z"/>
	<path fill="#06B2A1" d="M382.236,423.449c-0.286,0-0.52-0.013-0.52-0.028V421.9c0-0.011,0.233-0.026,0.52-0.026h107.324
		c0.291,0,0.526,0.016,0.526,0.026v1.521c0,0.016-0.235,0.028-0.526,0.028H382.236z"/>
	<g>
		<rect x="407.146" y="410.736" fill="#00A79D" width="55.087" height="12.713"/>
	</g>
	<g>
		<path fill="#F4724E" d="M382.183,410.778c-0.257,0-0.466-0.055-0.466-0.116v-6.732c0-0.064,0.209-0.114,0.466-0.114h96.726
			c0.258,0,0.468,0.05,0.468,0.114v6.732c0,0.062-0.21,0.116-0.468,0.116H382.183z"/>
	</g>
	<g>
		<path fill="#E2684B" d="M382.183,410.778c-0.257,0-0.466-0.008-0.466-0.02v-1.142c0-0.009,0.209-0.017,0.466-0.017h96.726
			c0.258,0,0.468,0.008,0.468,0.017v1.142c0,0.012-0.21,0.02-0.468,0.02H382.183z"/>
	</g>
	<g>
		<path fill="#AF6B4E" d="M382.183,403.818c-0.257,0-0.466-0.05-0.466-0.112v-6.734c0-0.063,0.209-0.114,0.466-0.114h96.726
			c0.258,0,0.468,0.052,0.468,0.114v6.734c0,0.063-0.21,0.112-0.468,0.112H382.183z"/>
	</g>
	<g>
		<path fill="#9B5D48" d="M382.183,403.818c-0.257,0-0.466-0.003-0.466-0.016v-1.037c0-0.01,0.209-0.017,0.466-0.017h96.726
			c0.258,0,0.468,0.007,0.468,0.017v1.037c0,0.013-0.21,0.016-0.468,0.016H382.183z"/>
	</g>
	<path fill="#4BAFDB" d="M486.533,388.323c0.273,0,0.502,0.065,0.502,0.143v8.381c0,0.08-0.231,0.146-0.502,0.146H382.217
		c-0.276,0-0.5-0.065-0.5-0.146l0.003-8.381c0-0.077,0.221-0.143,0.497-0.143H486.533z"/>
	<path fill="#46A5C6" d="M486.533,395.93c0.271,0,0.502,0.008,0.502,0.018v1.024c0,0.011-0.231,0.021-0.502,0.021H382.217
		c-0.276,0-0.5-0.01-0.5-0.021v-1.024c0-0.01,0.224-0.018,0.5-0.018H486.533z"/>
	<g>
		<path fill="#F9A74E" d="M382.052,388.382c-0.188,0-0.332-0.079-0.332-0.175v-10.024c0-0.095,0.145-0.173,0.332-0.173h68.438
			c0.183,0,0.331,0.078,0.331,0.173v10.024c0,0.096-0.148,0.175-0.331,0.175H382.052z"/>
	</g>
	<g>
		<path fill="#EA9949" d="M382.052,388.382c-0.188,0-0.332-0.012-0.332-0.026v-1.465c0-0.013,0.145-0.025,0.332-0.025h68.438
			c0.183,0,0.331,0.013,0.331,0.025v1.465c0,0.015-0.148,0.026-0.331,0.026H382.052z"/>
	</g>
	<g>
		<path fill="#21CEC9" d="M382.128,378.055c-0.23,0-0.408-0.066-0.408-0.145v-8.379c0-0.079,0.178-0.143,0.408-0.143h85.169
			c0.236,0,0.417,0.063,0.417,0.143v8.379c0,0.078-0.181,0.145-0.417,0.145H382.128z"/>
	</g>
	<g>
		<path fill="#1FBFB7" d="M382.128,378.055c-0.23,0-0.408-0.008-0.408-0.021v-1.128c0-0.01,0.178-0.021,0.408-0.021h85.169
			c0.236,0,0.417,0.011,0.417,0.021v1.128c0,0.013-0.181,0.021-0.417,0.021H382.128z"/>
	</g>
</g>
<g>
	<path fill="#39B54A" d="M431.28,145.547c0,0,0.863-22.276,19.201-21.706C450.481,123.842,453.144,148.593,431.28,145.547z"/>
	<path fill="#39B54A" d="M431.077,145.903c0,0-18.306-1.662-17.33-23.917C413.747,121.986,434.186,119.436,431.077,145.903z"/>
	<g>
		<polygon fill="#8B5E3C" points="443.773,175.929 420.201,175.929 417.191,145.119 446.783,145.119 		"/>
		<rect x="416.686" y="144.856" fill="#8B5E3C" width="30.604" height="5.896"/>
	</g>
</g>
<g>
	<path fill="#A7A9AC" d="M132.479,352.451H60.643c0,0-0.345,0.021-0.345-0.747c0-0.769,0.345-0.803,0.345-0.803h71.836
		c0,0,0.293,0.118,0.293,0.823S132.479,352.451,132.479,352.451z"/>
	<path fill="#A7A9AC" d="M132.478,364.997H60.504c0,0-0.346,0.021-0.346-0.747s0.346-0.803,0.346-0.803h71.974
		c0,0,0.294,0.119,0.294,0.824S132.478,364.997,132.478,364.997z"/>
	<path fill="#A7A9AC" d="M132.477,377.543H60.225c0,0-0.347,0.021-0.347-0.747c0-0.768,0.347-0.803,0.347-0.803h72.252
		c0,0,0.295,0.118,0.295,0.823C132.771,377.522,132.477,377.543,132.477,377.543z"/>
	<path fill="#A7A9AC" d="M132.478,390.09H60.364c0,0-0.347,0.02-0.347-0.748s0.347-0.803,0.347-0.803h72.113
		c0,0,0.294,0.119,0.294,0.824S132.478,390.09,132.478,390.09z"/>
	<circle fill="#39B54A" cx="81.413" cy="351.703" r="3.902"/>
	<circle fill="#39B54A" cx="91.833" cy="351.703" r="3.902"/>
	<circle fill="#39B54A" cx="102.252" cy="351.703" r="3.902"/>
	<circle fill="#39B54A" cx="112.672" cy="351.703" r="3.902"/>
	<circle fill="#39B54A" cx="123.092" cy="351.703" r="3.902"/>
	<circle fill="#BE1E2D" cx="90.629" cy="364.488" r="3.902"/>
	<circle fill="#BE1E2D" cx="101.699" cy="364.488" r="3.902"/>
	<circle fill="#BE1E2D" cx="112.769" cy="364.488" r="3.902"/>
	<circle fill="#BE1E2D" cx="123.839" cy="364.488" r="3.902"/>
	<circle fill="#4BAFDB" cx="90.629" cy="376.859" r="3.902"/>
	<circle fill="#F9A74E" cx="100.758" cy="389.645" r="3.902"/>
	<circle fill="#F9A74E" cx="78.451" cy="389.645" r="3.902"/>
	<circle fill="#F9A74E" cx="112.049" cy="389.645" r="3.902"/>
	<circle fill="#F9A74E" cx="123.34" cy="389.645" r="3.902"/>
	<circle fill="#4BAFDB" cx="69.375" cy="376.859" r="3.902"/>
	<circle fill="#4BAFDB" cx="101.422" cy="376.859" r="3.902"/>
	<circle fill="#4BAFDB" cx="112.215" cy="376.859" r="3.902"/>
	<circle fill="#4BAFDB" cx="123.009" cy="376.859" r="3.902"/>
	<polygon fill="#754C29" points="138.203,341.342 138.203,412.064 54.348,412.064 54.348,341.342 60.391,341.342 60.391,406.197 
		132.161,406.197 132.161,341.342 	"/>
</g>
<g>
	<g>
		<g>
			
				<rect x="24.071" y="369.512" transform="matrix(0.4601 0.8879 -0.8879 0.4601 368.3774 136.9139)" fill="#58595B" width="95.076" height="3.7"/>
			
				<rect x="35.779" y="366.432" transform="matrix(0.4601 0.8879 -0.8879 0.4601 371.9645 124.8556)" fill="#58595B" width="95.076" height="3.701"/>
			<polygon fill="#58595B" points="54.367,311.526 51.436,309.273 109.458,233.957 112.39,236.209 			"/>
			<polygon fill="#58595B" points="62.104,320.837 59.174,318.585 117.194,243.268 120.127,245.521 			"/>
			<path fill="#00A79D" d="M132.753,230.903l-7.189-7.189c-5.148-5.147-13.554-5.091-18.777,0.131
				c-5.221,5.22-5.278,13.625-0.129,18.773l7.193,7.191c-2.403,10.926,1.634,24.089,11.568,34.033l41.369-41.369
				C156.849,232.538,143.677,228.502,132.753,230.903z"/>
			<circle fill="#00A79D" cx="52.815" cy="318.678" r="14.788"/>
			<linearGradient id="SVGID_10_" gradientUnits="userSpaceOnUse" x1="43.7915" y1="318.6777" x2="61.8394" y2="318.6777">
				<stop  offset="0" style="stop-color:#414042"/>
				<stop  offset="1" style="stop-color:#808285"/>
			</linearGradient>
			<circle opacity="0.2" fill="url(#SVGID_10_)" cx="52.815" cy="318.678" r="9.024"/>
		</g>
		<g>
			<rect x="61.13" y="409.868" fill="#2B190E" width="80.1" height="10.784"/>
		</g>
	</g>
</g>
<path opacity="0.2" d="M288.686,468.079c0.045-0.019,0.076-0.053,0.092-0.098l0,0c0.016-0.046,0.057-0.166-0.213-0.604
	c-0.004-0.003-0.004-0.006-0.006-0.01c-0.559-0.947-1.355-1.89-1.805-2.253c0-0.001-0.002-0.002-0.004-0.003
	c-0.18-0.127-0.316-0.189-0.416-0.191c-0.031,0-0.061,0.009-0.088,0.018c-0.041,0.012-0.107,0.043-0.145,0.067
	c-0.572,0.386-2.52,1.849-3.541,4.447c0,0.003-0.086,0.197-0.197,0.421c-0.107,0.219-0.256,0.517-0.396,0.83
	c-0.004,0.008-0.008,0.015-0.012,0.021c-0.006,0.005-0.012,0.01-0.018,0.015c-0.441,0.331-0.902,0.604-1.311,0.845
	c-0.4,0.237-0.746,0.443-0.992,0.652c-0.041,0.035-0.084,0.072-0.127,0.107c-0.006-0.054-0.014-0.108-0.02-0.162
	c-0.021-0.166-0.006-0.344,0.047-0.529c0.002-0.004,0.002-0.008,0.004-0.012c0-0.002,0-0.003,0-0.004
	c0.074-0.361,0.193-0.721,0.307-1.068c0.002-0.002,0.002-0.004,0.002-0.006c0.051-0.151,0.102-0.307,0.148-0.459
	c0.102-0.328,0.205-0.604,0.307-0.87c0.146-0.387,0.299-0.786,0.438-1.344c0.176-0.716,0.385-1.659,0.428-2.618
	c0.027-0.62-0.008-1.311-0.477-1.736c-0.039-0.035-0.088-0.061-0.146-0.072c-0.027-0.006-0.057-0.009-0.088-0.009
	c-0.176-0.003-0.387,0.079-0.5,0.123c-0.004,0.002-0.01,0.004-0.016,0.006c-0.008,0.003-0.016,0.007-0.025,0.009
	c-0.381,0.141-0.779,0.332-1.256,0.607c-0.074,0.041-0.418,0.244-0.756,0.477c-0.699,0.479-0.797,0.682-0.811,0.791
	c-0.008,0.07,0.016,0.138,0.066,0.185c0.488,0.445,0.416,1.296,0.369,1.859c-0.107,1.089-0.361,1.893-0.654,2.823
	c0,0.002-0.002,0.004-0.002,0.007c-0.074,0.231-0.148,0.472-0.227,0.728c-0.004,0.014-0.008,0.025-0.012,0.037
	c-0.016,0.01-0.035,0.02-0.053,0.028c-1.594,0.817-2.393,1.228-3.834,1.35l-0.004,0.001c-0.158,0.02-0.309,0.029-0.447,0.027
	c-0.838-0.008-1.131-0.395-1.291-0.732c-0.01-0.021-0.021-0.045-0.033-0.068c0.021-0.015,0.043-0.029,0.066-0.045
	c0.805-0.549,1.686-1.194,2.617-1.917c1.895-1.47,2.961-3.185,2.846-4.59c-0.055-0.667-0.387-1.198-0.936-1.493
	c-0.818-0.449-1.828-0.586-2.246-0.596c-0.018,0-0.035-0.001-0.051-0.001c-1.232-0.012-2.516,0.608-3.611,1.747
	c-1.025,1.064-1.738,2.335-2.119,3.777c-0.195,0.732-0.289,2.023-0.123,2.822c0.002,0.01,0.004,0.02,0.006,0.031
	c-0.004,0-0.008,0.002-0.012,0.004c-1.195,0.519-1.529,0.586-2.572,0.754c-0.178,0.025-0.342,0.039-0.49,0.041
	c-0.855,0.01-1.037-0.369-1.186-0.674c-0.01-0.021-0.021-0.043-0.031-0.064c0.02-0.016,0.037-0.031,0.057-0.046
	c0.742-0.61,1.551-1.321,2.402-2.114c1.725-1.607,2.604-3.402,2.344-4.804c-0.123-0.663-0.506-1.169-1.078-1.425
	c-0.674-0.303-1.369-0.445-2.125-0.437c-0.01,0-0.021,0-0.031,0c-0.043,0.001-0.086,0.003-0.127,0.005
	c-1.244,0.066-2.469,0.783-3.451,2.02c-0.906,1.141-1.527,2.635-1.705,4.101c-0.121,1.007-0.029,1.969,0.268,2.783
	c0.01,0.023,0.018,0.047,0.027,0.071c-0.023,0.012-0.045,0.025-0.066,0.039c-0.092,0.052-0.313,0.219-0.426,0.225
	c-0.434-0.006-0.547-0.867-0.572-1.405c-0.033-0.707,0.043-1.541,0.092-2.093c0.012-0.125,0.023-0.236,0.031-0.332
	c0.008-0.103,0.016-0.205,0.023-0.309c0.02-0.252,0.041-0.509,0.063-0.756c0-0.023,0.004-0.047,0.004-0.07
	c0.078-0.911,0.158-1.854,0.146-2.792c-0.004-0.449-0.031-0.979-0.184-1.497c-0.129-0.429-0.35-0.693-0.658-0.789
	c-0.049-0.014-0.1-0.021-0.148-0.021c-0.102,0-0.199,0.031-0.287,0.093c-0.002,0.001-0.004,0.003-0.004,0.004
	c-0.002,0.001-0.004,0.002-0.008,0.003c-0.357,0.181-0.668,0.438-0.955,0.688c-0.258,0.223-0.506,0.461-0.738,0.707
	c-0.023,0.026-0.049,0.052-0.072,0.077c-0.24,0.253-0.512,0.541-0.65,0.858c-0.203,0.471-0.381,0.897-0.555,1.31
	c-0.383,0.915-1.48,2.798-1.48,2.798c0.098-0.48,0.193-0.979,0.283-1.482c0.031-0.164,0.059-0.324,0.088-0.482
	c0.291-1.604,0.521-2.871,0.637-4.611c0.016-0.227,0.031-0.443,0.045-0.652c0-0.002,0-0.004,0-0.005
	c0.109-1.526,0.188-2.629-0.053-4.306c-0.131-0.911-0.578-3.13-1.92-4.055c-0.045-0.031-0.088-0.061-0.133-0.089
	c-0.043-0.026-0.094-0.042-0.152-0.042c-0.188,0-0.371,0.121-0.566,0.241c-0.342,0.212-0.767,0.555-1.222,0.95
	c-0.448,0.389-0.849,0.746-1.101,1.088c-0.001,0.002-0.003,0.004-0.005,0.006c-0.321,0.416-0.297,0.558-0.289,0.604
	c0.009,0.05,0.035,0.091,0.075,0.116c1.262,0.807,1.754,2.305,1.964,3.521c0.292,1.828,0.307,2.692,0.208,4.525
	c-0.092,1.717-0.31,3.578-0.668,5.689c-0.047,0.279-0.118,0.744-0.176,1.121c-0.031,0.201-0.063,0.407-0.078,0.502
	c-0.002,0.01-0.004,0.02-0.006,0.029c-0.007,0.008-0.015,0.015-0.022,0.022c-0.085,0.08-1.471,1.271-2.378,1.449
	c-0.137,0.021-0.269,0.03-0.392,0.032c-0.987,0.01-1.544-0.546-1.753-1.75c-0.32-1.848,0.445-4.463,2.061-5.258
	c0.022-0.012,0.084-0.037,0.086-0.039c0.003,0,0.006-0.001,0.008-0.002c0.035-0.007,0.07-0.011,0.102-0.011
	c0.15-0.001,0.265,0.07,0.352,0.22c0.176,0.305,0.09,1.023-0.319,1.896c-0.001,0.001-0.001,0.003-0.002,0.004
	s-0.001,0.003-0.001,0.004c-0.082,0.229-0.105,0.374,0.033,0.513c0.098,0.1,0.717,0.088,0.803,0.085
	c0.08-0.004,0.135,0.005,0.246-0.086c0.299-0.249,0.838-1.29,1.037-1.983c0.277-0.961,0.064-2.241-0.776-2.721
	c-0.819-0.467-1.656-0.493-2.228-0.46c-1.241,0.083-2.434,0.833-3.355,2.112c-0.854,1.182-1.393,2.716-1.482,4.207
	c-0.058,0.952,0.072,1.814,0.396,2.635c0.007,0.019,0.014,0.037,0.021,0.057c-0.015,0.014-0.029,0.027-0.045,0.042
	c-0.62,0.584-1.293,1.06-2.482,1.511c-0.326,0.125-0.616,0.19-0.863,0.191c-0.499,0.002-0.736-0.24-0.921-0.469
	c-0.015-0.019-0.03-0.037-0.046-0.057c0.016-0.02,0.032-0.038,0.049-0.057c0.623-0.725,1.291-1.557,1.982-2.475
	c1.412-1.868,1.948-3.775,1.43-5.102c-0.245-0.626-0.717-1.056-1.33-1.209c-0.368-0.094-0.785-0.141-1.236-0.139
	c-0.469,0.002-0.873,0.057-1.097,0.107c-1.207,0.271-2.278,1.18-3.015,2.559c-0.677,1.268-1.012,2.834-0.92,4.299
	c0.061,0.953,0.313,1.823,0.752,2.587c0.012,0.022,0.025,0.044,0.037,0.065c-0.02,0.018-0.039,0.033-0.06,0.05
	c-0.63,0.515-1.404,1.095-2.37,1.489c-0.267,0.104-0.518,0.157-0.744,0.159c-0.627,0.005-0.957-0.39-1.098-0.558
	c-0.016-0.019-0.03-0.036-0.045-0.055c0.014-0.019,0.028-0.037,0.043-0.057c0.561-0.756,1.154-1.621,1.766-2.572
	c1.242-1.936,1.612-3.863,0.981-5.158c-0.297-0.611-0.803-1.014-1.424-1.133c-0.339-0.065-0.678-0.098-1.009-0.096
	c-0.398,0.004-0.824,0.054-1.312,0.187c-1.179,0.341-2.167,1.305-2.781,2.715c-0.565,1.3-0.767,2.878-0.552,4.333
	c0.158,1.072,0.535,2.032,1.092,2.775c0.016,0.023,0.033,0.047,0.051,0.069c-0.516,0.506-1.654,1.43-1.67,1.381
	c-0.457-1.521-2.391-7.144-2.599-7.694c0.021-0.014,0.04-0.029,0.061-0.045c1.169-0.881,2.513-1.938,3.654-3.354
	c1.302-1.615,2.217-3.079,2.83-4.627c1.467-3.707,0.282-6.668-2.451-7.346c-4.096-1.016-11.295,1.527-14.573,7.432
	c-0.925,1.666-1.194,3.398-1.061,4.854c0.079,0.859,0.35,1.772,1.25,2.624c0.031,0.028,0.085,0.063,0.174,0.062
	c0.171-0.002,0.38-0.128,0.563-0.25c0.001-0.001,0.002-0.002,0.004-0.003c0.01-0.007,0.019-0.013,0.024-0.017
	c0.372-0.236,0.753-0.544,1.2-0.967c0.446-0.422,0.776-0.787,1.039-1.151c0.004-0.005,0.008-0.011,0.012-0.016
	c0.182-0.24,0.406-0.579,0.25-0.742c0-0.001-0.001-0.002-0.002-0.003c0-0.001-0.001-0.002-0.002-0.003
	c-1.296-1.622-0.981-3.296-0.478-4.194c2.328-4.154,7.917-5.132,9.787-3.541c1.107,0.942,1.52,2.789,0.94,4.42
	c-0.812,2.281-2.675,4.289-3.84,5.211c-0.278-0.586-2.256-6.566-3.679-7.721c-0.075-0.062-0.223-0.146-0.325-0.148
	c-0.15-0.004-0.426,0.078-0.623,0.246c-1.464,1.25-1.76,2.634-1.831,3.348c-0.012,0.56,0.168-1.126,2.984,5.188
	c0.024,0.048,0.049,0.096,0.073,0.143c-0.054-0.004-0.107-0.007-0.161-0.01c-0.445-0.026-1.147-0.269-1.216-0.285
	c-0.013-0.002-0.025-0.006-0.038-0.008c-0.011,0.006-0.022,0.014-0.033,0.021c-0.346,0.223-1.782,1.585-1.793,1.954
	c-0.001,0.051,0.018,0.094,0.056,0.119c0.524,0.366,1.336,0.373,2.347,0.359c0.49-0.006,1.023-0.061,1.585-0.16
	c0.022-0.004,0.09-0.008,0.113-0.012c0.01,0.02,2.823,6.554,3.392,9.322c0.043,0.209,0.181,0.246,0.323,0.254
	c0.002,0,0.003,0,0.005,0c0.004,0.001,0.008,0.002,0.013,0.003c0.002-0.001,0.004-0.001,0.005-0.002
	c0.007,0.001,0.014,0.001,0.02,0.001c0.004-0.003,0.008-0.006,0.012-0.008c0.005-0.002,0.011-0.004,0.017-0.006
	c0.63-0.178,2.257-1.203,2.599-1.636c0.022-0.027,0.041-0.057,0.055-0.088c0.002-0.005,0.005-0.011,0.008-0.016
	c0.004-0.004,0.008-0.009,0.012-0.012c0.287-0.278,1.746-1.644,1.994-1.882c0.018-0.018,0.086,0.043,0.136,0.074
	c0.546,0.353,1.19,0.546,2.031,0.609c0.073,0.005,0.155,0.008,0.243,0.008c0.497-0.005,1.077-0.104,1.443-0.246
	c1.572-0.615,2.836-1.563,3.619-2.248c0.018-0.016,0.035-0.031,0.053-0.047c0.043,0.028,0.084,0.057,0.127,0.086
	c0.556,0.381,1.229,0.631,1.947,0.725c0.171,0.023,0.347,0.033,0.521,0.033c0.301-0.002,0.607-0.038,0.911-0.109
	c0.142-0.033,0.286-0.074,0.429-0.122c0.001-0.001,0.002-0.001,0.004-0.001c1.088-0.4,2.256-1.166,3.462-2.302
	c0.051-0.048,0.046-0.044,0.097-0.091c0.025,0.029,0.056,0.06,0.056,0.06c0.028,0.026,0.058,0.054,0.087,0.08
	c0.281,0.261,1.031,0.896,1.91,1.153c1.486,0.438,2.963-0.252,3.887-0.948c0.098-0.073,0.311-0.244,0.365-0.286
	c-0.006,0.066-0.012,0.18-0.018,0.248c-0.013,0.153-0.025,0.326-0.008,0.439c0.039,0.245,0.104,0.287,0.277,0.288
	c0.02,0,0.043,0.001,0.071,0.003c0.003,0,0.007,0,0.012,0c0.239,0,1.562-0.385,2.284-0.902c0.002-0.002,0.004-0.003,0.006-0.004
	c0.002-0.002,0.004-0.002,0.006-0.004c0.098-0.049,0.174-0.156,0.234-0.332c0-0.002,0-0.004,0.002-0.006
	c0-0.003,0-0.006,0.002-0.008c0.086-0.518,0.096-0.73,0.113-1.117c0.01-0.188,0.02-0.424,0.043-0.758c0-0.01,0-0.02,0.002-0.029
	c0.006-0.008,0.012-0.014,0.018-0.021c0.385-0.483,1.73-2.207,2.922-4.1c0.059-0.094,0.117-0.187,0.176-0.28
	c-0.004,0.109-0.006,0.219-0.01,0.329c-0.014,0.457-0.045,0.92-0.068,1.23c-0.008,0.116-0.018,0.232-0.025,0.349
	c-0.018,0.253-0.039,0.507-0.059,0.761c-0.008,0.109-0.016,0.217-0.025,0.324c-0.063,0.801-0.123,1.557-0.105,2.409
	c0.008,0.429,0.037,0.724,0.18,1.24c0.117,0.423,0.305,0.693,0.574,0.829c0.133,0.067,0.283,0.103,0.445,0.104
	c0.004,0,0.006,0,0.01,0c0.609-0.008,2.137-0.443,3.057-0.998c0.002-0.001,0.504-0.32,0.525-0.334
	c0.055,0.057,0.131,0.14,0.188,0.195c0.73,0.729,2.205,1.193,3.688,1.03c1.428-0.183,2.916-0.808,3.842-1.243
	c0.021-0.01,0.043-0.02,0.063-0.029c0.049,0.056,0.096,0.111,0.143,0.166c0.416,0.482,0.957,0.85,1.654,1.123
	c0.439,0.172,0.912,0.263,1.41,0.27c0.006,0,0.014,0,0.02,0c0.141,0.001,0.287-0.004,0.434-0.017
	c1.031-0.108,1.598-0.168,3.875-1.362c0.074-0.039,0.268-0.141,0.291-0.155c-0.02,0.072-0.045,0.164-0.063,0.235
	c-0.104,0.387-0.189,0.879,0.061,1.25c0.1,0.146,0.246,0.24,0.436,0.279c0.033,0.006,0.07,0.01,0.113,0.01
	c0.492,0.005,1.689-0.389,1.961-0.515c0.189-0.088,1.475-0.928,2.529-1.778c0.08-0.064,0.16-0.129,0.24-0.193
	c-0.031,0.097-0.064,0.193-0.098,0.29c-1.932,5.722-2.832,8.306-4.141,9.552c-0.057,0.053-0.111,0.105-0.166,0.158
	c0.004-0.076,0.008-0.15,0.014-0.227c0.014-0.232,0.072-0.504,0.193-0.906c0.309-1.021,0.719-1.752,1.018-2.285
	c0.357-0.637,0.574-1.021,0.332-1.353c-0.002-0.003-0.004-0.004-0.006-0.007c0-0.001-0.002-0.003-0.002-0.006
	c-0.178-0.348-0.6-0.682-0.771-0.809c-0.395-0.291-0.834-0.518-1.27-0.652c-0.002-0.001-0.004-0.002-0.006-0.002
	c-0.16-0.051-0.432-0.135-0.672-0.138c-0.15-0.001-0.27,0.03-0.354,0.095c-0.002,0.001-0.004,0.003-0.006,0.004
	c0,0.002-0.002,0.004-0.004,0.006c-0.25,0.26-0.5,0.521-0.75,0.781c-0.002,0.003-0.004,0.006-0.008,0.009s-0.008,0.005-0.01,0.007
	c-1.088,0.662-6.887,0.566-8.852,0.557c-0.314-0.001-0.607-0.004-0.875-0.006c-0.066,0-0.131-0.001-0.197-0.002
	c-1.441-0.024-3.342-0.053-5.271-0.061c-2.191-0.008-4.137,0.012-5.951,0.059c-4.37,0.111-8.294,0.377-11.811,0.807
	c-0.076,0.008-0.152,0.018-0.229,0.025c-1.815,0.203-4.854,0.545-8.088,1.279c-3.938,0.895-6.979,2.111-9.041,3.605
	c-0.319,0.229-0.752,0.916-1.012,1.326c-0.031,0.05-0.06,0.096-0.085,0.135c-0.284,0.443-0.473,0.822-0.596,1.195
	c-0.002,0.006-0.004,0.013-0.007,0.02c-0.058,0.172-0.192,0.573,0.025,0.721c0.042,0.029,0.091,0.044,0.144,0.043
	c0.178-0.002,0.366-0.173,0.479-0.275c0.013-0.013,0.025-0.023,0.035-0.033c0.001,0,0.002-0.001,0.003-0.002
	c0,0,0.058-0.045,0.079-0.063c0.098-0.075,0.205-0.154,0.325-0.24c0.207-0.147,0.432-0.296,0.688-0.453
	c0.472-0.289,0.992-0.569,1.593-0.855c0.023-0.012,0.045-0.021,0.068-0.032c0.071-0.033,0.144-0.065,0.216-0.099
	c0.15-0.067,0.308-0.136,0.483-0.211c0.303-0.129,0.623-0.257,0.979-0.393c0.663-0.253,1.363-0.494,2.138-0.736
	c3.704-1.176,9.786-1.898,12.229-2.148c3.473-0.368,7.369-0.596,11.725-0.688c2.416-0.051,4.83-0.05,6.666-0.041
	c0.918,0.002,1.836,0.01,2.754,0.016c0.428,0.004,0.854,0.007,1.281,0.01c2.549-0.003,7.73-0.123,9.523-0.441
	c0.002,0,0.002-0.001,0.006-0.001c0.713-0.125,1.922-0.565,3.176-1.17c-0.002-0.001-2.396,1.653-2.502,1.771
	c-0.354,1.356,0.063,2.171,0.404,2.665c0.557,0.803,2.783,1.674,3.752,0.992c1.652-1.166,2.891-4.222,4.232-7.424
	C284.703,472.94,286.346,469.036,288.686,468.079z M229.938,473.254c-0.039,0.055-0.078,0.108-0.117,0.163
	c-0.015-0.064-0.029-0.129-0.044-0.193c-0.183-0.793-0.208-1.674-0.071-2.479c0.173-1.028,0.604-1.86,1.211-2.341
	c0.018-0.016,0.039-0.031,0.061-0.046c0.01-0.007,0.019-0.013,0.028-0.02c0.011,0.001,0.022,0.003,0.034,0.003
	c0.121,0.014,0.35,0.17,0.463,0.352c0.359,0.571,0.303,1.91-1.027,3.807C230.296,472.753,230.115,473.007,229.938,473.254z
	 M237.742,471.495c-0.043,0.052-0.087,0.104-0.131,0.155c-0.009-0.065-0.019-0.132-0.027-0.198
	c-0.238-1.662,0.219-3.828,1.555-4.752c0.029-0.02,0.058-0.037,0.084-0.053c0.004-0.002,0.008-0.005,0.013-0.008
	c0.005,0,0.009-0.002,0.015-0.003c0.004-0.001,0.008-0.001,0.012-0.002c0.003,0,0.006,0,0.01,0c0.124-0.001,0.321,0.175,0.43,0.384
	c0.311,0.59,0.139,1.924-1.356,3.748C238.156,470.997,237.953,471.242,237.742,471.495z M262.76,469.848
	c0.002-0.067,0.004-0.135,0.008-0.202c0.033-0.811,0.242-1.672,0.592-2.426c0.445-0.964,1.09-1.679,1.814-2.013
	c0.023-0.011,0.051-0.021,0.076-0.032c0.01-0.004,0.021-0.008,0.031-0.012c0.01,0.004,0.02,0.007,0.029,0.01
	c0.1,0.032,0.291,0.225,0.357,0.443c0.193,0.637-0.223,1.929-2.025,3.48c-0.244,0.211-0.49,0.419-0.727,0.619
	C262.863,469.76,262.811,469.804,262.76,469.848z M270.77,470.034c0.01-0.068,0.021-0.136,0.031-0.204
	c0.117-0.8,0.414-1.636,0.84-2.354c0.545-0.923,1.266-1.585,2.027-1.864c0.033-0.012,0.068-0.023,0.1-0.031
	c0.004-0.002,0.01-0.002,0.014-0.004c0.004,0,0.008,0,0.012,0c0.131,0.002,0.283,0.257,0.328,0.475
	c0.129,0.645-0.422,1.895-2.389,3.303c-0.246,0.176-0.512,0.364-0.791,0.561C270.885,469.955,270.826,469.995,270.77,470.034z"/>
<g>
	<g>
		<path fill="#C69C6D" d="M205.848,134.041l24.078-36.922l57.119,37.137L205.848,134.041z M233.057,108.772l-10.673,16.313
			l36.599,0.542L233.057,108.772z"/>
	</g>
	<polygon fill="#D4AB8A" points="229.433,97.875 285.177,134.228 287.044,134.255 229.925,97.119 	"/>
	<g>
		<g>
			<g>
				
					<rect x="230.776" y="97.834" transform="matrix(0.8383 0.5451 -0.5451 0.8383 90.8554 -109.9598)" fill="#754C24" width="0.107" height="0.752"/>
			</g>
			<g>
				
					<rect x="231.153" y="98.08" transform="matrix(0.8376 0.5463 -0.5463 0.8376 91.329 -110.3124)" fill="#754C24" width="0.107" height="0.753"/>
			</g>
			<g>
				
					<rect x="231.531" y="98.326" transform="matrix(0.8384 0.545 -0.545 0.8384 91.2052 -110.2641)" fill="#754C24" width="0.105" height="0.752"/>
			</g>
			<g>
				
					<rect x="231.907" y="98.571" transform="matrix(0.839 0.5442 -0.5442 0.839 91.201 -110.2964)" fill="#754C24" width="0.108" height="0.753"/>
			</g>
		</g>
		<g>
			<g>
				
					<rect x="232.545" y="98.988" transform="matrix(0.8376 0.5463 -0.5463 0.8376 92.0507 -110.9254)" fill="#754C24" width="0.107" height="0.752"/>
			</g>
			<g>
				
					<rect x="232.921" y="99.234" transform="matrix(0.839 0.5442 -0.5442 0.839 91.7248 -110.7418)" fill="#754C24" width="0.108" height="0.752"/>
			</g>
			<g>
				
					<rect x="233.299" y="99.48" transform="matrix(0.837 0.5472 -0.5472 0.837 92.6893 -111.4223)" fill="#754C24" width="0.106" height="0.752"/>
			</g>
			<g>
				
					<rect x="233.674" y="99.725" transform="matrix(0.8341 0.5515 -0.5515 0.8341 93.9739 -112.3086)" fill="#754C24" width="0.107" height="0.751"/>
			</g>
		</g>
		<g>
			<g>
				
					<rect x="234.335" y="100.156" transform="matrix(0.8349 0.5505 -0.5505 0.8349 94.045 -112.4195)" fill="#754C24" width="0.106" height="0.752"/>
			</g>
			<g>
				
					<rect x="234.712" y="100.402" transform="matrix(0.8341 0.5515 -0.5515 0.8341 94.5194 -112.7684)" fill="#754C24" width="0.107" height="0.751"/>
			</g>
			<g>
				
					<rect x="235.089" y="100.647" transform="matrix(0.8383 0.5451 -0.5451 0.8383 93.0861 -111.8563)" fill="#754C24" width="0.107" height="0.752"/>
			</g>
			<g>
				
					<rect x="235.466" y="100.893" transform="matrix(0.8362 0.5484 -0.5484 0.8362 94.0992 -112.5653)" fill="#754C24" width="0.107" height="0.752"/>
			</g>
		</g>
		<g>
			<g>
				
					<rect x="236.126" y="101.324" transform="matrix(0.8383 0.5451 -0.5451 0.8383 93.6226 -112.3123)" fill="#754C24" width="0.107" height="0.752"/>
			</g>
			<g>
				
					<rect x="236.503" y="101.569" transform="matrix(0.8383 0.5451 -0.5451 0.8383 93.8171 -112.4779)" fill="#754C24" width="0.107" height="0.752"/>
			</g>
			<g>
				
					<rect x="236.88" y="101.814" transform="matrix(0.8404 0.5419 -0.5419 0.8404 93.1859 -112.0917)" fill="#754C24" width="0.106" height="0.753"/>
			</g>
			<g>
				
					<rect x="237.256" y="102.061" transform="matrix(0.8403 0.5421 -0.5421 0.8403 93.4331 -112.2926)" fill="#754C24" width="0.108" height="0.752"/>
			</g>
		</g>
		<g>
			<g>
				
					<rect x="237.961" y="102.52" transform="matrix(0.841 0.541 -0.541 0.841 93.5025 -112.4057)" fill="#754C24" width="0.107" height="0.753"/>
			</g>
			<g>
				
					<rect x="238.338" y="102.766" transform="matrix(0.8397 0.5431 -0.5431 0.8397 94.2284 -112.9272)" fill="#754C24" width="0.107" height="0.752"/>
			</g>
			<g>
				
					<rect x="238.715" y="103.012" transform="matrix(0.8362 0.5484 -0.5484 0.8362 95.7932 -113.9997)" fill="#754C24" width="0.107" height="0.752"/>
			</g>
			<g>
				
					<rect x="239.092" y="103.257" transform="matrix(0.8377 0.5461 -0.5461 0.8377 95.4094 -113.7841)" fill="#754C24" width="0.106" height="0.752"/>
			</g>
		</g>
		<g>
			<g>
				
					<rect x="239.752" y="103.689" transform="matrix(0.8355 0.5494 -0.5494 0.8355 96.6198 -114.6455)" fill="#754C24" width="0.108" height="0.752"/>
			</g>
			<g>
				
					<rect x="240.129" y="103.934" transform="matrix(0.8362 0.5484 -0.5484 0.8362 96.5303 -114.6242)" fill="#754C24" width="0.107" height="0.752"/>
			</g>
			<g>
				
					<rect x="240.506" y="104.179" transform="matrix(0.8341 0.5515 -0.5515 0.8341 97.5638 -115.3374)" fill="#754C24" width="0.107" height="0.752"/>
			</g>
			<g>
				
					<rect x="240.883" y="104.426" transform="matrix(0.837 0.5472 -0.5472 0.837 96.6324 -114.7661)" fill="#754C24" width="0.106" height="0.752"/>
			</g>
		</g>
		<g>
			<g>
				
					<rect x="241.498" y="104.826" transform="matrix(0.841 0.541 -0.541 0.841 95.3126 -113.9523)" fill="#754C24" width="0.107" height="0.753"/>
			</g>
			<g>
				
					<rect x="241.875" y="105.073" transform="matrix(0.8377 0.5461 -0.5461 0.8377 96.8527 -115.0094)" fill="#754C24" width="0.106" height="0.752"/>
			</g>
			<g>
				
					<rect x="242.252" y="105.318" transform="matrix(0.8376 0.5463 -0.5463 0.8376 97.085 -115.2001)" fill="#754C24" width="0.107" height="0.752"/>
			</g>
			<g>
				
					<rect x="242.629" y="105.564" transform="matrix(0.837 0.5472 -0.5472 0.837 97.5401 -115.5359)" fill="#754C24" width="0.106" height="0.752"/>
			</g>
		</g>
		<g>
			<g>
				
					<rect x="243.311" y="106.009" transform="matrix(0.8397 0.5431 -0.5431 0.8397 96.787 -115.1078)" fill="#754C24" width="0.107" height="0.753"/>
			</g>
			<g>
				
					<rect x="243.688" y="106.255" transform="matrix(0.8383 0.5451 -0.5451 0.8383 97.5331 -115.6373)" fill="#754C24" width="0.107" height="0.752"/>
			</g>
			<g>
				
					<rect x="244.065" y="106.5" transform="matrix(0.837 0.5472 -0.5472 0.837 98.2867 -116.1693)" fill="#754C24" width="0.106" height="0.752"/>
			</g>
			<g>
				
					<rect x="244.442" y="106.746" transform="matrix(0.8404 0.5419 -0.5419 0.8404 97.0654 -115.4028)" fill="#754C24" width="0.106" height="0.753"/>
			</g>
		</g>
		<g>
			<g>
				
					<rect x="245.08" y="107.162" transform="matrix(0.8362 0.5484 -0.5484 0.8362 99.1113 -116.8104)" fill="#754C24" width="0.107" height="0.752"/>
			</g>
			<g>
				
					<rect x="245.457" y="107.408" transform="matrix(0.8349 0.5505 -0.5505 0.8349 99.8736 -117.3438)" fill="#754C24" width="0.106" height="0.752"/>
			</g>
			<g>
				
					<rect x="245.833" y="107.654" transform="matrix(0.8376 0.5463 -0.5463 0.8376 98.9429 -116.777)" fill="#754C24" width="0.107" height="0.752"/>
			</g>
			<g>
				
					<rect x="246.21" y="107.9" transform="matrix(0.8362 0.5484 -0.5484 0.8362 99.7007 -117.3095)" fill="#754C24" width="0.107" height="0.752"/>
			</g>
		</g>
		<g>
			<g>
				
					<rect x="246.893" y="108.345" transform="matrix(0.8391 0.544 -0.544 0.8391 98.8855 -116.8465)" fill="#754C24" width="0.106" height="0.752"/>
			</g>
			<g>
				
					<rect x="247.269" y="108.59" transform="matrix(0.841 0.541 -0.541 0.841 98.2663 -116.4763)" fill="#754C24" width="0.107" height="0.752"/>
			</g>
			<g>
				
					<rect x="247.646" y="108.836" transform="matrix(0.8335 0.5526 -0.5526 0.8335 101.5983 -118.6842)" fill="#754C24" width="0.106" height="0.752"/>
			</g>
			<g>
				
					<rect x="248.023" y="109.082" transform="matrix(0.8362 0.5484 -0.5484 0.8362 100.646 -118.1101)" fill="#754C24" width="0.107" height="0.752"/>
			</g>
		</g>
		<g>
			<g>
				
					<rect x="248.705" y="109.527" transform="matrix(0.8362 0.5484 -0.5484 0.8362 101.0019 -118.4113)" fill="#754C24" width="0.107" height="0.752"/>
			</g>
			<g>
				
					<rect x="249.082" y="109.773" transform="matrix(0.8383 0.5451 -0.5451 0.8383 100.323 -118.0094)" fill="#754C24" width="0.107" height="0.752"/>
			</g>
			<g>
				
					<rect x="249.46" y="110.018" transform="matrix(0.8363 0.5483 -0.5483 0.8363 101.3654 -118.7253)" fill="#754C24" width="0.105" height="0.752"/>
			</g>
			<g>
				
					<rect x="249.835" y="110.264" transform="matrix(0.8424 0.5389 -0.5389 0.8424 99.0209 -117.2296)" fill="#754C24" width="0.108" height="0.753"/>
			</g>
		</g>
		<g>
			<g>
				
					<rect x="250.451" y="110.666" transform="matrix(0.8341 0.5515 -0.5515 0.8341 102.7908 -119.7469)" fill="#754C24" width="0.107" height="0.751"/>
			</g>
			<g>
				
					<rect x="250.828" y="110.912" transform="matrix(0.8355 0.5494 -0.5494 0.8355 102.4103 -119.5433)" fill="#754C24" width="0.108" height="0.751"/>
			</g>
			<g>
				
					<rect x="251.205" y="111.157" transform="matrix(0.8349 0.5505 -0.5505 0.8349 102.8866 -119.889)" fill="#754C24" width="0.106" height="0.752"/>
			</g>
			<g>
				
					<rect x="251.581" y="111.403" transform="matrix(0.8334 0.5526 -0.5526 0.8334 103.6819 -120.4376)" fill="#754C24" width="0.108" height="0.751"/>
			</g>
		</g>
		<g>
			<g>
				
					<rect x="252.264" y="111.848" transform="matrix(0.8403 0.5421 -0.5421 0.8403 101.1357 -118.8657)" fill="#754C24" width="0.108" height="0.753"/>
			</g>
			<g>
				
					<rect x="252.641" y="112.094" transform="matrix(0.8403 0.5421 -0.5421 0.8403 101.3293 -119.0311)" fill="#754C24" width="0.108" height="0.752"/>
			</g>
			<g>
				
					<rect x="253.019" y="112.339" transform="matrix(0.8403 0.5421 -0.5421 0.8403 101.5229 -119.1964)" fill="#754C24" width="0.108" height="0.753"/>
			</g>
			<g>
				
					<rect x="253.394" y="112.585" transform="matrix(0.8355 0.5494 -0.5494 0.8355 103.7518 -120.6777)" fill="#754C24" width="0.108" height="0.752"/>
			</g>
		</g>
		<g>
			<g>
				
					<rect x="254.033" y="113.001" transform="matrix(0.837 0.5472 -0.5472 0.837 103.4693 -120.5647)" fill="#754C24" width="0.106" height="0.752"/>
			</g>
			<g>
				
					<rect x="254.41" y="113.247" transform="matrix(0.8397 0.5431 -0.5431 0.8397 102.4967 -119.9748)" fill="#754C24" width="0.107" height="0.753"/>
			</g>
			<g>
				
					<rect x="254.787" y="113.493" transform="matrix(0.8391 0.544 -0.544 0.8391 102.9563 -120.3126)" fill="#754C24" width="0.106" height="0.752"/>
			</g>
			<g>
				
					<rect x="255.163" y="113.738" transform="matrix(0.8429 0.538 -0.538 0.8429 101.4866 -119.3914)" fill="#754C24" width="0.109" height="0.753"/>
			</g>
		</g>
		<g>
			<g>
				
					<rect x="255.868" y="114.198" transform="matrix(0.837 0.5472 -0.5472 0.837 104.4236 -121.3737)" fill="#754C24" width="0.106" height="0.752"/>
			</g>
			<g>
				
					<rect x="256.246" y="114.444" transform="matrix(0.8363 0.5483 -0.5483 0.8363 104.9027 -121.7212)" fill="#754C24" width="0.105" height="0.752"/>
			</g>
			<g>
				
					<rect x="256.621" y="114.689" transform="matrix(0.8424 0.5389 -0.5389 0.8424 102.4756 -120.1891)" fill="#754C24" width="0.108" height="0.752"/>
			</g>
			<g>
				
					<rect x="256.999" y="114.935" transform="matrix(0.837 0.5472 -0.5472 0.837 105.0114 -121.8724)" fill="#754C24" width="0.106" height="0.752"/>
			</g>
		</g>
		<g>
			<g>
				
					<rect x="257.636" y="115.352" transform="matrix(0.8403 0.5421 -0.5421 0.8403 103.893 -121.2188)" fill="#754C24" width="0.108" height="0.751"/>
			</g>
			<g>
				
					<rect x="258.014" y="115.597" transform="matrix(0.837 0.5472 -0.5472 0.837 105.539 -122.3198)" fill="#754C24" width="0.106" height="0.753"/>
			</g>
			<g>
				
					<rect x="258.39" y="115.843" transform="matrix(0.8328 0.5536 -0.5536 0.8328 107.5676 -123.6481)" fill="#754C24" width="0.107" height="0.752"/>
			</g>
			<g>
				
					<rect x="258.767" y="116.089" transform="matrix(0.8306 0.5568 -0.5568 0.8306 108.6814 -124.3885)" fill="#754C24" width="0.107" height="0.751"/>
			</g>
		</g>
		<g>
			<g>
				
					<rect x="259.427" y="116.519" transform="matrix(0.837 0.5472 -0.5472 0.837 106.2739 -122.9431)" fill="#754C24" width="0.106" height="0.753"/>
			</g>
			<g>
				
					<rect x="259.804" y="116.765" transform="matrix(0.837 0.5472 -0.5472 0.837 106.4699 -123.1093)" fill="#754C24" width="0.106" height="0.752"/>
			</g>
			<g>
				
					<rect x="260.181" y="117.011" transform="matrix(0.8355 0.5494 -0.5494 0.8355 107.2997 -123.679)" fill="#754C24" width="0.108" height="0.752"/>
			</g>
			<g>
				
					<rect x="260.558" y="117.256" transform="matrix(0.837 0.5472 -0.5472 0.837 106.8616 -123.4418)" fill="#754C24" width="0.106" height="0.752"/>
			</g>
		</g>
		<g>
			<g>
				
					<rect x="261.263" y="117.716" transform="matrix(0.8391 0.544 -0.544 0.8391 106.2962 -123.156)" fill="#754C24" width="0.106" height="0.752"/>
			</g>
			<g>
				
					<rect x="261.639" y="117.962" transform="matrix(0.8376 0.5463 -0.5463 0.8376 107.1402 -123.7373)" fill="#754C24" width="0.107" height="0.752"/>
			</g>
			<g>
				
					<rect x="262.016" y="118.207" transform="matrix(0.8418 0.5398 -0.5398 0.8418 105.4817 -122.7106)" fill="#754C24" width="0.107" height="0.753"/>
			</g>
			<g>
				
					<rect x="262.394" y="118.453" transform="matrix(0.837 0.5472 -0.5472 0.837 107.8159 -124.2511)" fill="#754C24" width="0.106" height="0.752"/>
			</g>
		</g>
		<g>
			<g>
				
					<rect x="262.986" y="118.84" transform="matrix(0.8349 0.5505 -0.5505 0.8349 109.0614 -125.1053)" fill="#754C24" width="0.106" height="0.752"/>
			</g>
			<g>
				
					<rect x="263.363" y="119.087" transform="matrix(0.8376 0.5463 -0.5463 0.8376 108.0345 -124.4968)" fill="#754C24" width="0.107" height="0.751"/>
			</g>
			<g>
				
					<rect x="263.74" y="119.331" transform="matrix(0.8376 0.5463 -0.5463 0.8376 108.2296 -124.6626)" fill="#754C24" width="0.107" height="0.752"/>
			</g>
			<g>
				
					<rect x="264.117" y="119.578" transform="matrix(0.8349 0.5505 -0.5505 0.8349 109.6539 -125.6058)" fill="#754C24" width="0.106" height="0.752"/>
			</g>
		</g>
		<g>
			<g>
				
					<rect x="264.777" y="120.007" transform="matrix(0.849 0.5284 -0.5284 0.849 103.5941 -121.7534)" fill="#754C24" width="0.108" height="0.753"/>
			</g>
			<g>
				
					<rect x="265.153" y="120.253" transform="matrix(0.8376 0.5463 -0.5463 0.8376 108.9627 -125.2849)" fill="#754C24" width="0.107" height="0.752"/>
			</g>
			<g>
				
					<rect x="265.53" y="120.499" transform="matrix(0.8397 0.5431 -0.5431 0.8397 108.218 -124.8513)" fill="#754C24" width="0.107" height="0.752"/>
			</g>
			<g>
				
					<rect x="265.908" y="120.744" transform="matrix(0.837 0.5472 -0.5472 0.837 109.6429 -125.8006)" fill="#754C24" width="0.106" height="0.753"/>
			</g>
		</g>
		<g>
			<g>
				
					<rect x="266.606" y="121.2" transform="matrix(0.8349 0.5505 -0.5505 0.8349 110.9581 -126.7081)" fill="#754C24" width="0.106" height="0.752"/>
			</g>
			<g>
				
					<rect x="266.983" y="121.447" transform="matrix(0.837 0.5472 -0.5472 0.837 110.2022 -126.2743)" fill="#754C24" width="0.106" height="0.752"/>
			</g>
			<g>
				
					<rect x="267.36" y="121.692" transform="matrix(0.8397 0.5431 -0.5431 0.8397 109.1589 -125.6535)" fill="#754C24" width="0.107" height="0.753"/>
			</g>
			<g>
				
					<rect x="267.736" y="121.937" transform="matrix(0.8403 0.5421 -0.5421 0.8403 109.0764 -125.6423)" fill="#754C24" width="0.108" height="0.752"/>
			</g>
		</g>
		<g>
			<g>
				
					<rect x="268.373" y="122.354" transform="matrix(0.8376 0.5463 -0.5463 0.8376 110.6328 -126.7029)" fill="#754C24" width="0.107" height="0.752"/>
			</g>
			<g>
				
					<rect x="268.751" y="122.599" transform="matrix(0.8376 0.5463 -0.5463 0.8376 110.8286 -126.8692)" fill="#754C24" width="0.107" height="0.752"/>
			</g>
			<g>
				
					<rect x="269.128" y="122.844" transform="matrix(0.8397 0.5431 -0.5431 0.8397 110.0682 -126.4289)" fill="#754C24" width="0.107" height="0.753"/>
			</g>
			<g>
				
					<rect x="269.504" y="123.091" transform="matrix(0.8376 0.5463 -0.5463 0.8376 111.2193 -127.2012)" fill="#754C24" width="0.107" height="0.752"/>
			</g>
		</g>
		<g>
			<g>
				
					<rect x="270.187" y="123.537" transform="matrix(0.8376 0.5463 -0.5463 0.8376 111.5737 -127.5017)" fill="#754C24" width="0.107" height="0.752"/>
			</g>
			<g>
				
					<rect x="270.564" y="123.782" transform="matrix(0.837 0.5472 -0.5472 0.837 112.0642 -127.8536)" fill="#754C24" width="0.106" height="0.751"/>
			</g>
			<g>
				
					<rect x="270.941" y="124.027" transform="matrix(0.8376 0.5463 -0.5463 0.8376 111.9642 -127.8339)" fill="#754C24" width="0.107" height="0.752"/>
			</g>
			<g>
				
					<rect x="271.317" y="124.273" transform="matrix(0.8376 0.5463 -0.5463 0.8376 112.1597 -127.9995)" fill="#754C24" width="0.107" height="0.753"/>
			</g>
		</g>
		<g>
			<g>
				
					<rect x="271.977" y="124.705" transform="matrix(0.8355 0.5494 -0.5494 0.8355 113.4672 -128.8951)" fill="#754C24" width="0.108" height="0.751"/>
			</g>
			<g>
				
					<rect x="272.354" y="124.95" transform="matrix(0.8403 0.5421 -0.5421 0.8403 111.4469 -127.6649)" fill="#754C24" width="0.108" height="0.752"/>
			</g>
			<g>
				
					<rect x="272.731" y="125.196" transform="matrix(0.8328 0.5536 -0.5536 0.8328 115.1443 -130.0241)" fill="#754C24" width="0.107" height="0.751"/>
			</g>
			<g>
				
					<rect x="273.108" y="125.441" transform="matrix(0.8412 0.5408 -0.5408 0.8412 111.4204 -127.7315)" fill="#754C24" width="0.106" height="0.752"/>
			</g>
		</g>
		<g>
			<g>
				
					<rect x="273.746" y="125.857" transform="matrix(0.8349 0.5505 -0.5505 0.8349 114.7004 -129.8695)" fill="#754C24" width="0.106" height="0.752"/>
			</g>
			<g>
				
					<rect x="274.123" y="126.102" transform="matrix(0.837 0.5472 -0.5472 0.837 113.9144 -129.423)" fill="#754C24" width="0.106" height="0.752"/>
			</g>
			<g>
				
					<rect x="274.499" y="126.349" transform="matrix(0.8429 0.538 -0.538 0.8429 111.3085 -127.8138)" fill="#754C24" width="0.109" height="0.752"/>
			</g>
			<g>
				
					<rect x="274.877" y="126.594" transform="matrix(0.8397 0.5431 -0.5431 0.8397 113.026 -128.9499)" fill="#754C24" width="0.107" height="0.753"/>
			</g>
		</g>
		<g>
			<g>
				
					<rect x="275.536" y="127.025" transform="matrix(0.8424 0.5389 -0.5389 0.8424 112.1054 -128.4383)" fill="#754C24" width="0.108" height="0.752"/>
			</g>
			<g>
				
					<rect x="275.914" y="127.27" transform="matrix(0.8424 0.5389 -0.5389 0.8424 112.2974 -128.6032)" fill="#754C24" width="0.108" height="0.753"/>
			</g>
			<g>
				
					<rect x="276.29" y="127.517" transform="matrix(0.8328 0.5536 -0.5536 0.8328 117.0242 -131.6062)" fill="#754C24" width="0.107" height="0.752"/>
			</g>
			<g>
				
					<rect x="276.668" y="127.762" transform="matrix(0.837 0.5472 -0.5472 0.837 115.2374 -130.5448)" fill="#754C24" width="0.106" height="0.752"/>
			</g>
		</g>
		<g>
			<g>
				
					<rect x="277.327" y="128.193" transform="matrix(0.8349 0.5505 -0.5505 0.8349 116.5778 -131.4549)" fill="#754C24" width="0.106" height="0.752"/>
			</g>
			<g>
				
					<rect x="277.703" y="128.438" transform="matrix(0.8362 0.5485 -0.5485 0.8362 116.1528 -131.2363)" fill="#754C24" width="0.109" height="0.752"/>
			</g>
			<g>
				
					<rect x="278.081" y="128.684" transform="matrix(0.8376 0.5463 -0.5463 0.8376 115.6674 -130.9781)" fill="#754C24" width="0.107" height="0.751"/>
			</g>
			<g>
				
					<rect x="278.458" y="128.93" transform="matrix(0.8397 0.5431 -0.5431 0.8397 114.8685 -130.5205)" fill="#754C24" width="0.107" height="0.752"/>
			</g>
		</g>
		<g>
			<g>
				
					<rect x="279.119" y="129.36" transform="matrix(0.8412 0.5408 -0.5408 0.8412 114.4944 -130.3594)" fill="#754C24" width="0.106" height="0.753"/>
			</g>
			<g>
				
					<rect x="279.494" y="129.605" transform="matrix(0.8403 0.5421 -0.5421 0.8403 115.1114 -130.7921)" fill="#754C24" width="0.108" height="0.753"/>
			</g>
			<g>
				
					<rect x="279.872" y="129.851" transform="matrix(0.837 0.5472 -0.5472 0.837 116.9034 -131.9579)" fill="#754C24" width="0.106" height="0.753"/>
			</g>
			<g>
				
					<rect x="280.248" y="130.098" transform="matrix(0.8349 0.5505 -0.5505 0.8349 118.1089 -132.7481)" fill="#754C24" width="0.106" height="0.752"/>
			</g>
		</g>
		<g>
			<g>
				
					<rect x="280.908" y="130.528" transform="matrix(0.8376 0.5463 -0.5463 0.8376 117.1336 -132.2231)" fill="#754C24" width="0.107" height="0.752"/>
			</g>
			<g>
				
					<rect x="281.286" y="130.774" transform="matrix(0.8355 0.5494 -0.5494 0.8355 118.3332 -133.0111)" fill="#754C24" width="0.108" height="0.752"/>
			</g>
			<g>
				
					<rect x="281.663" y="131.02" transform="matrix(0.8376 0.5463 -0.5463 0.8376 117.5251 -132.5552)" fill="#754C24" width="0.107" height="0.752"/>
			</g>
			<g>
				
					<rect x="282.039" y="131.265" transform="matrix(0.8355 0.5494 -0.5494 0.8355 118.7267 -133.3441)" fill="#754C24" width="0.108" height="0.752"/>
			</g>
		</g>
		<g>
			<g>
				
					<rect x="282.677" y="131.681" transform="matrix(0.8424 0.5389 -0.5389 0.8424 115.7405 -131.5522)" fill="#754C24" width="0.108" height="0.752"/>
			</g>
			<g>
				
					<rect x="283.053" y="131.927" transform="matrix(0.837 0.5472 -0.5472 0.837 118.5577 -133.3604)" fill="#754C24" width="0.106" height="0.751"/>
			</g>
			<g>
				
					<rect x="283.431" y="132.173" transform="matrix(0.8342 0.5515 -0.5515 0.8342 120.1053 -134.3588)" fill="#754C24" width="0.105" height="0.752"/>
			</g>
			<g>
				
					<rect x="283.808" y="132.419" transform="matrix(0.8349 0.5505 -0.5505 0.8349 119.9742 -134.3242)" fill="#754C24" width="0.106" height="0.752"/>
			</g>
		</g>
		<g>
			
				<rect x="284.489" y="132.863" transform="matrix(0.8409 0.5412 -0.5412 0.8409 117.3849 -132.7979)" fill="#754C24" width="0.109" height="0.753"/>
		</g>
		<g>
			
				<rect x="284.866" y="133.109" transform="matrix(0.8397 0.5431 -0.5431 0.8397 118.1653 -133.3306)" fill="#754C24" width="0.107" height="0.752"/>
		</g>
		<g>
			
				<rect x="285.243" y="133.354" transform="matrix(0.8424 0.5389 -0.5389 0.8424 117.0471 -132.6718)" fill="#754C24" width="0.108" height="0.753"/>
		</g>
		<g>
			<polygon fill="#754C24" points="285.925,133.691 285.834,133.633 285.444,134.231 285.571,134.234 			"/>
		</g>
		<g>
			<g>
				
					<rect x="230.255" y="97.569" transform="matrix(0.8376 0.5463 -0.5463 0.8376 91.0675 -109.8723)" fill="#754C24" width="0.161" height="1.335"/>
			</g>
			<g>
				
					<rect x="232.046" y="98.736" transform="matrix(0.839 0.5441 -0.5441 0.839 91.4618 -110.3035)" fill="#754C24" width="0.161" height="1.336"/>
			</g>
			<g>
				
					<rect x="233.837" y="99.904" transform="matrix(0.8395 0.5434 -0.5434 0.8395 92.195 -110.9621)" fill="#754C24" width="0.16" height="1.336"/>
			</g>
			<g>
				
					<rect x="235.627" y="101.072" transform="matrix(0.8381 0.5455 -0.5455 0.8381 93.6639 -112.1118)" fill="#754C24" width="0.16" height="1.336"/>
			</g>
			<g>
				
					<rect x="237.418" y="102.239" transform="matrix(0.8381 0.5455 -0.5455 0.8381 94.5905 -112.8996)" fill="#754C24" width="0.16" height="1.336"/>
			</g>
			<g>
				
					<rect x="239.209" y="103.408" transform="matrix(0.8363 0.5483 -0.5483 0.8363 96.2463 -114.1666)" fill="#754C24" width="0.159" height="1.336"/>
			</g>
			<g>
				
					<rect x="241" y="104.575" transform="matrix(0.839 0.5441 -0.5441 0.839 96.0807 -114.2352)" fill="#754C24" width="0.161" height="1.337"/>
			</g>
			<g>
				
					<rect x="242.79" y="105.744" transform="matrix(0.8381 0.5455 -0.5455 0.8381 97.3716 -115.263)" fill="#754C24" width="0.16" height="1.335"/>
			</g>
			<g>
				
					<rect x="244.581" y="106.911" transform="matrix(0.839 0.5441 -0.5441 0.839 97.928 -115.8081)" fill="#754C24" width="0.161" height="1.336"/>
			</g>
			<g>
				
					<rect x="246.371" y="108.078" transform="matrix(0.8385 0.5449 -0.5449 0.8385 99.053 -116.726)" fill="#754C24" width="0.161" height="1.337"/>
			</g>
			<g>
				
					<rect x="248.162" y="109.246" transform="matrix(0.8418 0.5398 -0.5398 0.8418 98.614 -116.6179)" fill="#754C24" width="0.16" height="1.337"/>
			</g>
			<g>
				
					<rect x="249.953" y="110.415" transform="matrix(0.8376 0.5463 -0.5463 0.8376 101.2835 -118.5465)" fill="#754C24" width="0.161" height="1.335"/>
			</g>
			<g>
				
					<rect x="251.743" y="111.582" transform="matrix(0.8376 0.5463 -0.5463 0.8376 102.2121 -119.335)" fill="#754C24" width="0.161" height="1.336"/>
			</g>
			<g>
				
					<rect x="253.534" y="112.75" transform="matrix(0.839 0.5441 -0.5441 0.839 102.5468 -119.7395)" fill="#754C24" width="0.161" height="1.336"/>
			</g>
			<g>
				
					<rect x="255.326" y="113.918" transform="matrix(0.8386 0.5448 -0.5448 0.8386 103.6498 -120.6419)" fill="#754C24" width="0.16" height="1.336"/>
			</g>
			<g>
				
					<rect x="257.116" y="115.086" transform="matrix(0.8353 0.5497 -0.5497 0.8353 105.9823 -122.3284)" fill="#754C24" width="0.159" height="1.335"/>
			</g>
			<g>
				
					<rect x="258.907" y="116.253" transform="matrix(0.839 0.5441 -0.5441 0.839 105.3182 -122.0991)" fill="#754C24" width="0.161" height="1.338"/>
			</g>
			<g>
				
					<rect x="260.698" y="117.421" transform="matrix(0.839 0.5441 -0.5441 0.839 106.2418 -122.8854)" fill="#754C24" width="0.161" height="1.336"/>
			</g>
			<g>
				
					<rect x="262.487" y="118.589" transform="matrix(0.8372 0.5469 -0.5469 0.8372 107.974 -124.1862)" fill="#754C24" width="0.16" height="1.335"/>
			</g>
			<g>
				
					<rect x="264.279" y="119.758" transform="matrix(0.8344 0.5512 -0.5512 0.8344 110.1578 -125.7656)" fill="#754C24" width="0.16" height="1.335"/>
			</g>
			<g>
				
					<rect x="266.069" y="120.924" transform="matrix(0.8408 0.5414 -0.5414 0.8408 108.2012 -124.7257)" fill="#754C24" width="0.161" height="1.337"/>
			</g>
			<g>
				
					<rect x="267.859" y="122.093" transform="matrix(0.8358 0.5491 -0.5491 0.8358 111.4019 -126.9545)" fill="#754C24" width="0.16" height="1.335"/>
			</g>
			<g>
				
					<rect x="269.65" y="123.26" transform="matrix(0.8353 0.5497 -0.5497 0.8353 112.5397 -127.8729)" fill="#754C24" width="0.159" height="1.335"/>
			</g>
			<g>
				
					<rect x="271.441" y="124.428" transform="matrix(0.8353 0.5497 -0.5497 0.8353 113.4766 -128.6649)" fill="#754C24" width="0.159" height="1.335"/>
			</g>
			<g>
				
					<rect x="273.232" y="125.595" transform="matrix(0.8376 0.5463 -0.5463 0.8376 113.3568 -128.7979)" fill="#754C24" width="0.161" height="1.336"/>
			</g>
			<g>
				
					<rect x="275.022" y="126.763" transform="matrix(0.8372 0.5469 -0.5469 0.8372 114.4856 -129.7111)" fill="#754C24" width="0.16" height="1.336"/>
			</g>
			<g>
				
					<rect x="276.814" y="127.932" transform="matrix(0.839 0.5441 -0.5441 0.839 114.5555 -129.9626)" fill="#754C24" width="0.161" height="1.335"/>
			</g>
			<g>
				
					<rect x="278.604" y="129.099" transform="matrix(0.8372 0.5469 -0.5469 0.8372 116.3462 -131.2899)" fill="#754C24" width="0.16" height="1.336"/>
			</g>
			<g>
				
					<rect x="280.395" y="130.267" transform="matrix(0.8376 0.5463 -0.5463 0.8376 117.0718 -131.9521)" fill="#754C24" width="0.161" height="1.336"/>
			</g>
			<g>
				
					<rect x="282.185" y="131.435" transform="matrix(0.8339 0.5519 -0.5519 0.8339 119.7782 -133.8345)" fill="#754C24" width="0.159" height="1.335"/>
			</g>
			<g>
				
					<rect x="283.976" y="132.602" transform="matrix(0.8362 0.5484 -0.5484 0.8362 119.6068 -133.9475)" fill="#754C24" width="0.161" height="1.336"/>
			</g>
		</g>
	</g>
	<g>
		<g>
			<path fill="#754C24" d="M229.744,99.581c-0.139,0.213-0.294,0.28-0.432,0.189c-0.122-0.079-0.13-0.248,0.002-0.457
				c0.137-0.209,0.302-0.266,0.429-0.183C229.875,99.217,229.874,99.382,229.744,99.581z M229.398,99.37
				c-0.106,0.163-0.116,0.288-0.039,0.338c0.086,0.055,0.194-0.018,0.297-0.177c0.101-0.154,0.126-0.281,0.04-0.338
				C229.622,99.145,229.51,99.2,229.398,99.37z"/>
		</g>
		<g>
			<path fill="#754C24" d="M231.441,100.365l-0.001-0.001l-0.148-0.012l0.026-0.076l0.184,0.017l0.072,0.046l-0.408,0.625
				l-0.082-0.053L231.441,100.365z"/>
		</g>
		<g>
			<path fill="#754C24" d="M232.645,101.929l0.034-0.052l0.108-0.021c0.259-0.048,0.383-0.082,0.446-0.175
				c0.042-0.063,0.049-0.143-0.044-0.203c-0.057-0.037-0.123-0.039-0.167-0.033l0.011-0.077c0.068-0.009,0.146,0.004,0.218,0.052
				c0.135,0.087,0.131,0.217,0.073,0.307c-0.075,0.115-0.22,0.154-0.434,0.194l-0.08,0.014l-0.001,0.001l0.28,0.183l-0.046,0.07
				L232.645,101.929z"/>
		</g>
		<g>
			<path fill="#754C24" d="M234.63,103.084c0.014,0.031,0.054,0.092,0.112,0.13c0.109,0.071,0.188,0.024,0.221-0.028
				c0.057-0.089,0.001-0.178-0.08-0.231l-0.047-0.031l0.042-0.063l0.047,0.03c0.062,0.041,0.16,0.06,0.208-0.015
				c0.033-0.05,0.029-0.114-0.049-0.165c-0.049-0.033-0.112-0.042-0.151-0.041l0.018-0.076c0.048-0.002,0.127,0.015,0.195,0.058
				c0.123,0.081,0.131,0.19,0.081,0.266c-0.041,0.064-0.116,0.094-0.21,0.072l-0.001,0.002c0.066,0.066,0.091,0.164,0.034,0.252
				c-0.065,0.1-0.2,0.137-0.35,0.039c-0.07-0.045-0.117-0.108-0.134-0.149L234.63,103.084z"/>
		</g>
		<g>
			<path fill="#754C24" d="M236.571,104.489l0.111-0.17l-0.291-0.189l0.037-0.057l0.539-0.217l0.091,0.06l-0.253,0.389l0.087,0.058
				l-0.043,0.065l-0.087-0.057l-0.111,0.17L236.571,104.489z M236.726,104.252l0.136-0.209c0.021-0.032,0.043-0.064,0.067-0.096
				l-0.003-0.002c-0.042,0.024-0.076,0.041-0.112,0.059l-0.292,0.112l-0.001,0.002L236.726,104.252z"/>
		</g>
		<g>
			<path fill="#754C24" d="M238.816,105.164l-0.238-0.155l-0.128,0.145c0.016,0.007,0.03,0.014,0.054,0.029
				c0.047,0.031,0.089,0.073,0.112,0.122c0.031,0.06,0.036,0.14-0.015,0.219c-0.08,0.122-0.236,0.15-0.373,0.062
				c-0.068-0.045-0.113-0.101-0.13-0.14l0.063-0.051c0.016,0.033,0.054,0.085,0.111,0.122c0.079,0.053,0.181,0.045,0.236-0.038
				c0.051-0.082,0.035-0.175-0.09-0.256c-0.035-0.023-0.066-0.038-0.091-0.05l0.237-0.274l0.299,0.195L238.816,105.164z"/>
		</g>
		<g>
			<path fill="#754C24" d="M240.631,106.331c-0.016-0.012-0.04-0.026-0.065-0.037c-0.148-0.065-0.281-0.013-0.362,0.08l0.003,0.002
				c0.055-0.019,0.128-0.019,0.197,0.027c0.111,0.072,0.137,0.202,0.058,0.324c-0.075,0.115-0.222,0.17-0.352,0.085
				c-0.134-0.087-0.153-0.249-0.048-0.411c0.081-0.123,0.188-0.191,0.29-0.213c0.085-0.018,0.175-0.003,0.26,0.039
				c0.028,0.012,0.05,0.025,0.065,0.035L240.631,106.331z M240.372,106.675c0.058-0.089,0.043-0.177-0.035-0.227
				c-0.051-0.034-0.12-0.033-0.171-0.002c-0.012,0.006-0.023,0.016-0.035,0.032c-0.065,0.104-0.067,0.21,0.021,0.268
				C240.226,106.793,240.314,106.765,240.372,106.675z"/>
		</g>
		<g>
			<path fill="#754C24" d="M242.492,107.459l-0.037,0.056l-0.644,0.392l-0.087-0.058l0.632-0.376l0.001-0.001l-0.305-0.2l0.045-0.07
				L242.492,107.459z"/>
		</g>
		<g>
			<path fill="#754C24" d="M243.546,108.812c0.051-0.079,0.135-0.104,0.232-0.087l0.002-0.004c-0.048-0.077-0.043-0.15-0.008-0.204
				c0.064-0.099,0.192-0.112,0.302-0.041c0.121,0.079,0.132,0.195,0.081,0.272c-0.034,0.053-0.097,0.092-0.198,0.079l-0.002,0.003
				c0.058,0.082,0.07,0.168,0.021,0.244c-0.071,0.108-0.212,0.121-0.331,0.043C243.515,109.032,243.487,108.903,243.546,108.812z
				 M243.886,109.027c0.05-0.076,0.02-0.146-0.048-0.226c-0.086-0.027-0.158-0.005-0.197,0.055c-0.044,0.062-0.033,0.149,0.046,0.2
				C243.764,109.107,243.844,109.092,243.886,109.027z M243.856,108.563c-0.041,0.063-0.016,0.127,0.043,0.194
				c0.066,0.017,0.133,0.005,0.169-0.052c0.033-0.049,0.037-0.122-0.039-0.171C243.96,108.488,243.892,108.508,243.856,108.563z"/>
		</g>
		<g>
			<path fill="#754C24" d="M245.336,110.119c0.017,0.015,0.04,0.026,0.07,0.042c0.054,0.025,0.113,0.035,0.17,0.025
				c0.065-0.01,0.132-0.046,0.191-0.113l-0.002-0.001c-0.063,0.02-0.129,0.012-0.191-0.028c-0.113-0.073-0.129-0.205-0.06-0.313
				c0.077-0.118,0.229-0.166,0.358-0.083c0.128,0.084,0.139,0.239,0.035,0.399c-0.09,0.137-0.199,0.204-0.298,0.222
				c-0.08,0.017-0.164,0.001-0.237-0.035c-0.034-0.015-0.062-0.031-0.082-0.046L245.336,110.119z M245.602,109.78
				c-0.051,0.079-0.039,0.164,0.034,0.212c0.057,0.037,0.12,0.038,0.166,0.015c0.01-0.004,0.02-0.012,0.028-0.026
				c0.07-0.106,0.083-0.214-0.005-0.272C245.751,109.662,245.659,109.692,245.602,109.78z"/>
		</g>
		<g>
			<path fill="#754C24" d="M247.364,110.749l-0.001-0.001l-0.147-0.012l0.025-0.075l0.184,0.016l0.073,0.047l-0.407,0.625
				l-0.082-0.054L247.364,110.749z"/>
			<path fill="#754C24" d="M247.94,111.448c-0.139,0.212-0.294,0.279-0.433,0.188c-0.122-0.079-0.13-0.248,0.003-0.456
				c0.137-0.209,0.303-0.266,0.429-0.184C248.071,111.083,248.07,111.249,247.94,111.448z M247.594,111.236
				c-0.106,0.163-0.115,0.287-0.039,0.337c0.086,0.057,0.193-0.017,0.297-0.177c0.101-0.153,0.126-0.28,0.039-0.337
				C247.818,111.011,247.706,111.066,247.594,111.236z"/>
		</g>
		<g>
			<path fill="#754C24" d="M249.127,111.898l-0.001-0.001l-0.147-0.012l0.026-0.076l0.183,0.016l0.073,0.047l-0.407,0.625
				l-0.083-0.053L249.127,111.898z"/>
			<path fill="#754C24" d="M249.62,112.221l-0.001-0.002l-0.147-0.012l0.026-0.076l0.184,0.017l0.072,0.046l-0.408,0.625
				l-0.082-0.054L249.62,112.221z"/>
		</g>
		<g>
			<path fill="#754C24" d="M250.909,113.06l-0.001,0l-0.148-0.013l0.026-0.076l0.184,0.017l0.072,0.047l-0.409,0.625l-0.082-0.053
				L250.909,113.06z"/>
			<path fill="#754C24" d="M250.861,113.808l0.034-0.052l0.108-0.021c0.259-0.048,0.384-0.082,0.446-0.175
				c0.041-0.064,0.05-0.143-0.045-0.203c-0.056-0.038-0.121-0.039-0.166-0.034l0.012-0.077c0.067-0.009,0.146,0.005,0.218,0.052
				c0.136,0.088,0.131,0.218,0.072,0.307c-0.075,0.115-0.219,0.154-0.434,0.195l-0.08,0.014l-0.001,0.002l0.281,0.183l-0.046,0.071
				L250.861,113.808z"/>
		</g>
		<g>
			<path fill="#754C24" d="M252.699,114.227l-0.003-0.001l-0.147-0.012l0.025-0.076l0.184,0.017l0.072,0.047l-0.406,0.625
				l-0.082-0.053L252.699,114.227z"/>
			<path fill="#754C24" d="M252.734,114.891c0.015,0.031,0.055,0.092,0.113,0.13c0.107,0.072,0.187,0.024,0.22-0.028
				c0.057-0.089,0.002-0.178-0.081-0.231l-0.047-0.03l0.043-0.064l0.047,0.03c0.061,0.041,0.159,0.06,0.208-0.014
				c0.032-0.05,0.029-0.114-0.049-0.166c-0.05-0.033-0.111-0.042-0.15-0.04l0.017-0.076c0.048-0.002,0.129,0.014,0.195,0.058
				c0.122,0.081,0.131,0.19,0.081,0.266c-0.042,0.064-0.115,0.094-0.211,0.071l-0.001,0.002c0.067,0.066,0.092,0.164,0.035,0.251
				c-0.065,0.101-0.201,0.137-0.351,0.04c-0.071-0.046-0.118-0.108-0.136-0.149L252.734,114.891z"/>
		</g>
		<g>
			<path fill="#754C24" d="M254.514,115.411l-0.003-0.001l-0.147-0.012l0.027-0.076l0.184,0.016l0.071,0.047l-0.407,0.625
				l-0.082-0.053L254.514,115.411z"/>
			<path fill="#754C24" d="M254.728,116.33l0.11-0.17l-0.29-0.189l0.037-0.056l0.539-0.217l0.091,0.06l-0.254,0.388l0.088,0.057
				l-0.043,0.066l-0.086-0.057l-0.112,0.17L254.728,116.33z M254.882,116.092l0.137-0.208c0.021-0.033,0.043-0.064,0.065-0.097
				l-0.003-0.001c-0.042,0.024-0.075,0.041-0.111,0.059l-0.291,0.112l-0.001,0.002L254.882,116.092z"/>
		</g>
		<g>
			<path fill="#754C24" d="M256.201,116.511l-0.003-0.001l-0.147-0.012l0.026-0.075l0.184,0.016l0.071,0.047l-0.406,0.625
				l-0.082-0.053L256.201,116.511z"/>
			<path fill="#754C24" d="M256.887,116.948l-0.238-0.155l-0.129,0.145c0.016,0.006,0.029,0.014,0.054,0.029
				c0.048,0.032,0.089,0.073,0.112,0.122c0.031,0.06,0.036,0.14-0.015,0.219c-0.08,0.122-0.235,0.15-0.372,0.062
				c-0.067-0.044-0.113-0.102-0.131-0.14l0.063-0.05c0.016,0.032,0.054,0.084,0.11,0.122c0.082,0.052,0.182,0.044,0.237-0.039
				c0.051-0.082,0.035-0.175-0.09-0.256c-0.035-0.023-0.065-0.038-0.091-0.05l0.235-0.274l0.299,0.196L256.887,116.948z"/>
		</g>
		<g>
			<path fill="#754C24" d="M258.084,117.739l-0.003-0.001l-0.146-0.012l0.026-0.076l0.184,0.016l0.072,0.047l-0.408,0.625
				l-0.081-0.053L258.084,117.739z"/>
			<path fill="#754C24" d="M258.763,118.155c-0.017-0.013-0.041-0.027-0.066-0.038c-0.147-0.064-0.281-0.013-0.364,0.08l0.005,0.002
				c0.055-0.019,0.128-0.018,0.197,0.027c0.112,0.072,0.137,0.203,0.058,0.325c-0.075,0.114-0.222,0.17-0.352,0.084
				c-0.134-0.087-0.154-0.249-0.048-0.411c0.081-0.123,0.188-0.191,0.29-0.213c0.086-0.017,0.175-0.003,0.261,0.039
				c0.026,0.013,0.049,0.026,0.063,0.036L258.763,118.155z M258.503,118.5c0.059-0.089,0.042-0.178-0.035-0.228
				c-0.053-0.034-0.12-0.032-0.173-0.002c-0.012,0.006-0.023,0.016-0.033,0.031c-0.065,0.104-0.067,0.21,0.021,0.268
				C258.356,118.617,258.443,118.588,258.503,118.5z"/>
		</g>
		<g>
			<path fill="#754C24" d="M259.873,118.906l-0.002-0.001l-0.146-0.012l0.024-0.076l0.185,0.017l0.072,0.047l-0.407,0.625
				l-0.082-0.054L259.873,118.906z"/>
			<path fill="#754C24" d="M260.64,119.294l-0.036,0.056l-0.645,0.392l-0.087-0.057l0.632-0.375l0.001-0.002l-0.306-0.199
				l0.045-0.07L260.64,119.294z"/>
		</g>
		<g>
			<path fill="#754C24" d="M261.654,120.068l-0.003-0.001l-0.146-0.012l0.025-0.076l0.185,0.017l0.071,0.046l-0.407,0.625
				l-0.081-0.053L261.654,120.068z"/>
			<path fill="#754C24" d="M261.703,120.652c0.051-0.079,0.135-0.104,0.233-0.086v-0.003c-0.048-0.079-0.043-0.151-0.008-0.205
				c0.064-0.1,0.193-0.112,0.302-0.041c0.122,0.079,0.133,0.194,0.083,0.272c-0.035,0.053-0.1,0.092-0.2,0.079l-0.002,0.002
				c0.059,0.082,0.071,0.168,0.021,0.245c-0.07,0.108-0.212,0.121-0.331,0.043C261.67,120.873,261.644,120.743,261.703,120.652z
				 M262.042,120.868c0.05-0.077,0.02-0.147-0.049-0.226c-0.086-0.027-0.157-0.004-0.196,0.055
				c-0.044,0.062-0.033,0.149,0.047,0.201C261.919,120.947,261.999,120.932,262.042,120.868z M262.014,120.404
				c-0.043,0.062-0.017,0.126,0.043,0.193c0.066,0.017,0.133,0.005,0.17-0.051c0.032-0.05,0.035-0.122-0.041-0.172
				C262.116,120.328,262.048,120.349,262.014,120.404z"/>
		</g>
		<g>
			<path fill="#754C24" d="M263.435,121.229l-0.002-0.001l-0.146-0.012l0.026-0.076l0.184,0.017l0.072,0.047l-0.408,0.625
				l-0.081-0.053L263.435,121.229z"/>
			<path fill="#754C24" d="M263.476,121.949c0.017,0.014,0.04,0.026,0.071,0.042c0.053,0.025,0.11,0.035,0.169,0.024
				c0.066-0.01,0.132-0.046,0.191-0.112l-0.003-0.002c-0.063,0.021-0.13,0.013-0.191-0.027c-0.112-0.074-0.131-0.206-0.06-0.313
				c0.078-0.119,0.231-0.166,0.358-0.083s0.139,0.239,0.034,0.398c-0.089,0.138-0.198,0.204-0.299,0.223
				c-0.078,0.016-0.163,0.001-0.236-0.035c-0.033-0.015-0.062-0.032-0.081-0.046L263.476,121.949z M263.741,121.61
				c-0.051,0.078-0.04,0.163,0.033,0.211c0.057,0.037,0.118,0.038,0.166,0.015c0.009-0.004,0.018-0.013,0.027-0.026
				c0.069-0.107,0.084-0.214-0.004-0.271C263.891,121.491,263.798,121.521,263.741,121.61z"/>
		</g>
		<g>
			<path fill="#754C24" d="M264.649,122.8l0.035-0.052l0.107-0.021c0.259-0.049,0.385-0.082,0.445-0.176
				c0.042-0.063,0.05-0.142-0.043-0.203c-0.057-0.038-0.123-0.039-0.168-0.034l0.013-0.077c0.068-0.009,0.146,0.005,0.218,0.051
				c0.135,0.089,0.132,0.218,0.073,0.307c-0.075,0.115-0.221,0.154-0.435,0.195l-0.081,0.013l-0.001,0.002l0.281,0.184l-0.045,0.069
				L264.649,122.8z"/>
			<path fill="#754C24" d="M265.767,123.073c-0.14,0.212-0.295,0.279-0.433,0.188c-0.122-0.08-0.13-0.248,0.003-0.456
				c0.137-0.208,0.301-0.266,0.43-0.184C265.896,122.708,265.896,122.875,265.767,123.073z M265.421,122.861
				c-0.106,0.163-0.116,0.287-0.039,0.337c0.087,0.056,0.193-0.017,0.298-0.177c0.101-0.153,0.126-0.281,0.039-0.337
				C265.645,122.636,265.531,122.691,265.421,122.861z"/>
		</g>
		<g>
			<path fill="#754C24" d="M266.475,123.99l0.033-0.052l0.107-0.021c0.259-0.048,0.385-0.082,0.446-0.175
				c0.042-0.063,0.049-0.142-0.043-0.203c-0.059-0.037-0.124-0.039-0.169-0.033l0.014-0.077c0.065-0.009,0.146,0.004,0.218,0.051
				c0.134,0.088,0.131,0.217,0.073,0.307c-0.075,0.114-0.221,0.154-0.435,0.195l-0.08,0.013l-0.003,0.002l0.281,0.184l-0.045,0.069
				L266.475,123.99z"/>
			<path fill="#754C24" d="M267.507,123.884l-0.002-0.001l-0.146-0.013l0.024-0.075l0.184,0.017l0.073,0.047l-0.407,0.625
				l-0.082-0.054L267.507,123.884z"/>
		</g>
		<g>
			<path fill="#754C24" d="M268.322,125.195l0.035-0.051l0.108-0.022c0.26-0.048,0.383-0.081,0.445-0.175
				c0.042-0.063,0.049-0.142-0.045-0.203c-0.057-0.036-0.121-0.039-0.166-0.034l0.012-0.076c0.067-0.008,0.146,0.005,0.219,0.051
				c0.135,0.087,0.131,0.218,0.072,0.308c-0.075,0.114-0.221,0.154-0.435,0.195l-0.08,0.014l-0.002,0.001l0.281,0.184l-0.045,0.069
				L268.322,125.195z"/>
			<path fill="#754C24" d="M268.816,125.517l0.033-0.052l0.109-0.021c0.258-0.048,0.382-0.081,0.445-0.176
				c0.041-0.063,0.049-0.142-0.044-0.202c-0.058-0.037-0.123-0.039-0.167-0.034l0.011-0.077c0.067-0.009,0.146,0.004,0.218,0.052
				c0.135,0.088,0.133,0.217,0.074,0.307c-0.075,0.114-0.221,0.154-0.436,0.195l-0.079,0.014l-0.001,0.001l0.28,0.184l-0.046,0.069
				L268.816,125.517z"/>
		</g>
		<g>
			<path fill="#754C24" d="M270.069,126.335l0.035-0.052l0.107-0.022c0.26-0.048,0.383-0.082,0.446-0.175
				c0.041-0.063,0.049-0.142-0.044-0.203c-0.059-0.037-0.123-0.039-0.168-0.034l0.012-0.077c0.067-0.008,0.146,0.004,0.219,0.052
				c0.135,0.088,0.131,0.218,0.073,0.307c-0.076,0.115-0.22,0.154-0.434,0.196l-0.081,0.013l-0.002,0.002l0.281,0.184l-0.046,0.07
				L270.069,126.335z"/>
			<path fill="#754C24" d="M270.646,126.572c0.013,0.031,0.054,0.091,0.112,0.13c0.107,0.071,0.187,0.024,0.221-0.029
				c0.056-0.088,0.002-0.177-0.08-0.231l-0.048-0.031l0.041-0.063l0.048,0.03c0.062,0.041,0.16,0.06,0.208-0.015
				c0.034-0.05,0.029-0.114-0.049-0.166c-0.049-0.033-0.112-0.042-0.151-0.04l0.02-0.076c0.048-0.003,0.127,0.014,0.194,0.058
				c0.122,0.081,0.13,0.19,0.08,0.266c-0.041,0.064-0.115,0.093-0.21,0.071l-0.001,0.002c0.066,0.066,0.092,0.165,0.035,0.251
				c-0.065,0.101-0.201,0.137-0.352,0.039c-0.07-0.045-0.117-0.108-0.134-0.149L270.646,126.572z"/>
		</g>
		<g>
			<path fill="#754C24" d="M271.859,127.501l0.033-0.052l0.109-0.021c0.258-0.049,0.384-0.083,0.444-0.176
				c0.042-0.063,0.051-0.143-0.044-0.203c-0.056-0.038-0.122-0.04-0.167-0.034l0.013-0.077c0.068-0.009,0.146,0.005,0.218,0.051
				c0.135,0.088,0.132,0.218,0.073,0.307c-0.075,0.115-0.22,0.154-0.435,0.195l-0.08,0.014l-0.002,0.002l0.281,0.184l-0.045,0.07
				L271.859,127.501z"/>
			<path fill="#754C24" d="M272.612,127.994l0.112-0.17l-0.291-0.189l0.037-0.056l0.539-0.217l0.09,0.059l-0.253,0.389l0.089,0.057
				l-0.044,0.067l-0.087-0.057l-0.111,0.17L272.612,127.994z M272.768,127.757l0.136-0.208c0.021-0.033,0.044-0.065,0.066-0.096
				l-0.003-0.002c-0.042,0.024-0.075,0.041-0.111,0.058l-0.291,0.113l-0.001,0.002L272.768,127.757z"/>
		</g>
		<g>
			<path fill="#754C24" d="M273.589,128.629l0.034-0.051l0.109-0.021c0.258-0.049,0.382-0.083,0.445-0.175
				c0.041-0.064,0.047-0.142-0.045-0.203c-0.057-0.037-0.123-0.039-0.167-0.034l0.012-0.076c0.067-0.009,0.146,0.005,0.218,0.051
				c0.135,0.088,0.132,0.218,0.073,0.307c-0.075,0.115-0.22,0.154-0.435,0.195l-0.08,0.013l-0.002,0.003l0.281,0.183l-0.046,0.07
				L273.589,128.629z"/>
			<path fill="#754C24" d="M274.815,128.641l-0.238-0.155l-0.13,0.144c0.017,0.007,0.031,0.015,0.055,0.03
				c0.048,0.031,0.089,0.073,0.113,0.121c0.03,0.061,0.035,0.14-0.016,0.219c-0.08,0.122-0.236,0.15-0.372,0.062
				c-0.068-0.044-0.113-0.101-0.131-0.14l0.063-0.05c0.015,0.032,0.055,0.085,0.111,0.122c0.079,0.052,0.181,0.044,0.236-0.039
				c0.052-0.081,0.035-0.174-0.091-0.256c-0.034-0.022-0.064-0.037-0.09-0.049l0.236-0.273l0.299,0.195L274.815,128.641z"/>
		</g>
		<g>
			<path fill="#754C24" d="M275.413,129.819l0.033-0.052l0.107-0.021c0.259-0.048,0.385-0.082,0.448-0.176
				c0.041-0.063,0.046-0.143-0.045-0.203c-0.058-0.037-0.123-0.038-0.167-0.033l0.011-0.077c0.067-0.009,0.146,0.004,0.218,0.051
				c0.136,0.087,0.132,0.217,0.074,0.307c-0.076,0.115-0.22,0.154-0.435,0.195l-0.081,0.013v0.002l0.281,0.184l-0.047,0.069
				L275.413,129.819z"/>
			<path fill="#754C24" d="M276.631,129.807c-0.017-0.012-0.04-0.025-0.065-0.037c-0.146-0.065-0.28-0.013-0.363,0.08l0.004,0.001
				c0.054-0.019,0.128-0.018,0.197,0.027c0.11,0.072,0.136,0.202,0.058,0.324c-0.076,0.114-0.223,0.17-0.353,0.085
				c-0.133-0.087-0.153-0.248-0.047-0.41c0.081-0.124,0.188-0.192,0.29-0.213c0.085-0.017,0.175-0.003,0.259,0.039
				c0.027,0.012,0.05,0.025,0.064,0.035L276.631,129.807z M276.372,130.152c0.058-0.089,0.042-0.176-0.036-0.227
				c-0.051-0.033-0.119-0.032-0.171-0.002c-0.013,0.006-0.024,0.016-0.034,0.031c-0.065,0.104-0.067,0.211,0.021,0.268
				C276.225,130.27,276.313,130.241,276.372,130.152z"/>
		</g>
		<g>
			<path fill="#754C24" d="M277.21,130.991l0.034-0.052l0.109-0.021c0.259-0.048,0.383-0.082,0.445-0.175
				c0.041-0.063,0.05-0.142-0.045-0.203c-0.057-0.036-0.122-0.039-0.167-0.034l0.012-0.076c0.068-0.009,0.146,0.004,0.219,0.051
				c0.135,0.087,0.131,0.217,0.072,0.307c-0.075,0.115-0.219,0.154-0.435,0.194l-0.079,0.014l-0.001,0.002l0.28,0.183l-0.047,0.07
				L277.21,130.991z"/>
			<path fill="#754C24" d="M278.517,130.953l-0.036,0.056l-0.643,0.392l-0.089-0.057l0.633-0.376v-0.002l-0.306-0.2l0.046-0.07
				L278.517,130.953z"/>
		</g>
		<g>
			<path fill="#754C24" d="M279.042,132.187l0.035-0.052l0.108-0.021c0.26-0.048,0.383-0.082,0.446-0.175
				c0.04-0.064,0.049-0.143-0.046-0.203c-0.057-0.037-0.121-0.039-0.166-0.034l0.011-0.077c0.068-0.009,0.147,0.005,0.219,0.051
				c0.134,0.088,0.132,0.218,0.073,0.308c-0.075,0.114-0.221,0.153-0.436,0.194l-0.079,0.015l-0.001,0.001l0.28,0.184l-0.046,0.069
				L279.042,132.187z"/>
			<path fill="#754C24" d="M279.632,132.344c0.051-0.079,0.135-0.104,0.233-0.086v-0.004c-0.048-0.078-0.043-0.149-0.007-0.204
				c0.064-0.099,0.192-0.111,0.301-0.04c0.122,0.079,0.133,0.194,0.082,0.272c-0.034,0.053-0.099,0.092-0.198,0.079l-0.002,0.003
				c0.058,0.082,0.069,0.167,0.021,0.243c-0.071,0.109-0.213,0.121-0.33,0.044C279.6,132.565,279.57,132.436,279.632,132.344z
				 M279.971,132.56c0.049-0.076,0.02-0.147-0.049-0.226c-0.086-0.027-0.158-0.004-0.196,0.056c-0.044,0.061-0.033,0.148,0.047,0.2
				C279.849,132.64,279.929,132.624,279.971,132.56z M279.941,132.095c-0.041,0.063-0.016,0.127,0.043,0.193
				c0.066,0.017,0.134,0.005,0.17-0.051c0.033-0.05,0.036-0.122-0.039-0.172C280.045,132.02,279.977,132.042,279.941,132.095z"/>
		</g>
		<g>
			<path fill="#754C24" d="M280.763,133.309l0.035-0.053l0.108-0.021c0.259-0.048,0.384-0.082,0.446-0.175
				c0.041-0.063,0.047-0.142-0.044-0.203c-0.058-0.037-0.124-0.039-0.169-0.034l0.012-0.077c0.069-0.009,0.147,0.004,0.219,0.052
				c0.136,0.088,0.132,0.217,0.072,0.307c-0.074,0.115-0.218,0.154-0.433,0.195l-0.08,0.013l-0.003,0.002l0.282,0.184l-0.046,0.07
				L280.763,133.309z"/>
			<path fill="#754C24" d="M281.344,133.602c0.018,0.015,0.039,0.026,0.071,0.042c0.054,0.025,0.112,0.035,0.17,0.025
				c0.065-0.01,0.132-0.046,0.19-0.113l-0.003-0.001c-0.062,0.019-0.129,0.011-0.19-0.029c-0.113-0.074-0.13-0.205-0.06-0.312
				c0.078-0.119,0.23-0.167,0.359-0.084c0.127,0.084,0.138,0.24,0.033,0.399c-0.089,0.137-0.198,0.204-0.299,0.222
				c-0.079,0.016-0.164,0.002-0.236-0.035c-0.032-0.015-0.061-0.031-0.08-0.046L281.344,133.602z M281.61,133.263
				c-0.053,0.078-0.04,0.163,0.032,0.21c0.058,0.037,0.119,0.038,0.166,0.015c0.011-0.004,0.02-0.012,0.028-0.025
				c0.069-0.107,0.084-0.214-0.005-0.272C281.76,133.144,281.666,133.174,281.61,133.263z"/>
		</g>
		<g>
			<path fill="#754C24" d="M283.177,133.978c-0.066-0.044-0.145-0.062-0.194-0.058l-0.018,0.075
				c0.039-0.001,0.102,0.008,0.152,0.041c0.078,0.051,0.08,0.116,0.048,0.166c-0.019,0.027-0.042,0.039-0.069,0.045l0.16,0
				c0.001-0.001,0.003-0.001,0.004-0.002C283.309,134.167,283.302,134.058,283.177,133.978z"/>
			<path fill="#754C24" d="M282.958,134.215l-0.048-0.031l-0.038,0.06h0.16C283.007,134.239,282.979,134.229,282.958,134.215z"/>
		</g>
	</g>
</g>
<g>
	<rect x="203.362" y="288.796" opacity="0.4" fill="#808185" width="21.939" height="25.216"/>
	<path fill="#D6DE23" d="M225.586,288.796h-22.225v24.769l9.623-0.56c0,0,2.979-0.267,5.758-1.256
		c2.789-0.992,5.378-2.705,5.446-2.81C225.838,306.38,225.586,288.796,225.586,288.796z"/>
	<path fill="#BBBB32" d="M224.189,308.939c0,0-3.345,1.231-5.696-0.224c0,0,0.25,3.543-5.699,4.289c0,0,5.24-0.425,7.622-1.38
		C223.301,310.469,224.189,308.939,224.189,308.939z"/>
	<rect x="203.362" y="288.796" fill="#F2EB54" width="22.26" height="3.989"/>
</g>
<g>
	<path fill="#F4724E" d="M148.972,404.274v5.039c0,3.473,2.827,6.3,6.301,6.3h0.888v1.421c0,2.514,2.037,4.551,4.55,4.551h12.948
		c2.514,0,4.55-2.037,4.55-4.551v-23.035H156.16v3.975h-0.888C151.799,397.974,148.972,400.801,148.972,404.274z M152.473,404.274
		c0-1.544,1.256-2.8,2.8-2.8h0.888v10.638h-0.888c-1.544,0-2.8-1.256-2.8-2.799V404.274z"/>
</g>
</svg>
