<?xml version="1.0" encoding="utf-8"?>
<!-- Generator: Adobe Illustrator 16.0.0, SVG Export Plug-In . SVG Version: 6.00 Build 0)  -->
<!DOCTYPE svg PUBLIC "-//W3C//DTD SVG 1.1//EN" "http://www.w3.org/Graphics/SVG/1.1/DTD/svg11.dtd">
<svg version="1.1" id="Layer_1" xmlns="http://www.w3.org/2000/svg" xmlns:xlink="http://www.w3.org/1999/xlink" x="0px" y="0px"
	 width="1400px" height="980px" viewBox="0 0 1400 980" enable-background="new 0 0 1400 980" xml:space="preserve">
<rect fill="#FFE7CC" width="1400" height="980"/>
<rect y="939" fill="#B7D1A6" width="1400" height="41"/>
<g>
	<path fill="#FFFFFF" d="M566,512c0,5.522-4.477,10-10,10H453c-5.523,0-10-4.478-10-10v-5c0-5.522,4.477-10,10-10h103
		c5.523,0,10,4.478,10,10V512z"/>
	<path fill="#FFFFFF" d="M222,504.5c0,5.247-4.253,9.5-9.5,9.5h-32c-5.247,0-9.5-4.253-9.5-9.5l0,0c0-5.247,4.253-9.5,9.5-9.5h32
		C217.747,495,222,499.253,222,504.5L222,504.5z"/>
</g>
<g>
	<rect x="434" y="533" fill="#AF877D" width="18" height="8"/>
	<rect x="947" y="533" fill="#AF877D" width="18" height="8"/>
	<path fill="#AF877D" d="M1323,525c0,5.522-4.85,10-10.832,10H83.832C77.85,535,73,530.522,73,525v-6c0-5.522,4.85-10,10.832-10
		h1228.336c5.982,0,10.832,4.478,10.832,10V525z"/>
	<path opacity="0.2" d="M1323,529.281c0,3.279-4.85,5.719-10.832,5.719H83.832C77.85,535,73,532.561,73,529.281v-3.563
		c0-3.279,4.85-5.719,10.832-5.719h1228.336c5.982,0,10.832,2.439,10.832,5.719V529.281z"/>
	<path fill="#AF877D" d="M403,910c0,5.522-4.477,10-10,10H117c-5.523,0-10-4.478-10-10V546c0-5.522,4.477-10,10-10h276
		c5.523,0,10,4.478,10,10V910z"/>
	<path fill="#AF877D" d="M1288,910c0,5.522-4.477,10-10,10h-276c-5.523,0-10-4.478-10-10V546c0-5.522,4.477-10,10-10h276
		c5.523,0,10,4.478,10,10V910z"/>
	<path opacity="0.2" d="M1282,902.427c0,5.287-4.286,9.573-9.573,9.573h-263.854c-5.287,0-9.573-4.286-9.573-9.573V553.573
		c0-5.287,4.286-9.573,9.573-9.573h263.854c5.287,0,9.573,4.286,9.573,9.573V902.427z"/>
	<rect x="117" y="920" fill="#AF877D" width="276" height="32"/>
	<rect x="1002" y="920" fill="#AF877D" width="276" height="32"/>
	<rect x="117" y="920" opacity="0.2" width="276" height="32"/>
	<rect x="1002" y="920" opacity="0.2" width="276" height="32"/>
	<g>
		<circle opacity="0.2" cx="1027" cy="728" r="13"/>
		<path fill="#AF877D" d="M1040,728c0.016,3.406-1.275,6.804-3.615,9.385c-2.308,2.601-5.713,4.344-9.385,4.61
			c-1.823,0.133-3.723-0.087-5.51-0.696c-1.781-0.62-3.473-1.591-4.899-2.89c-2.87-2.579-4.612-6.479-4.59-10.409
			c-0.024-3.931,1.711-7.834,4.583-10.416c1.424-1.304,3.12-2.271,4.902-2.894c1.791-0.612,3.685-0.828,5.514-0.695
			c3.674,0.268,7.08,2.016,9.387,4.617C1038.727,721.196,1040.016,724.594,1040,728z M1040,728c0.018-3.412-1.5-6.78-4.002-8.997
			c-1.244-1.116-2.716-1.938-4.254-2.457c-1.55-0.508-3.168-0.673-4.744-0.541c-3.154,0.272-6.023,1.797-7.969,4.026
			c-1.969,2.218-3.041,5.08-3.032,7.969c-0.01,2.888,1.055,5.754,3.025,7.976c1.944,2.233,4.819,3.759,7.976,4.029
			c3.146,0.299,6.508-0.764,9-3.005C1038.502,734.78,1040.017,731.412,1040,728z"/>
	</g>
	<rect x="425" y="539" fill="#AF877D" width="546" height="20"/>
	<rect x="425" y="549" opacity="0.2" width="546" height="10"/>
	<path opacity="0.2" d="M396,902.427c0,5.287-4.286,9.573-9.573,9.573H122.573c-5.287,0-9.573-4.286-9.573-9.573V553.573
		c0-5.287,4.286-9.573,9.573-9.573h263.854c5.287,0,9.573,4.286,9.573,9.573V902.427z"/>
	<g>
		<circle opacity="0.2" cx="140" cy="728" r="13"/>
		<path fill="#AF877D" d="M153,728c0.015,3.406-1.275,6.804-3.615,9.385c-2.308,2.601-5.713,4.344-9.385,4.61
			c-1.823,0.133-3.722-0.087-5.509-0.696c-1.782-0.62-3.473-1.591-4.9-2.89c-2.871-2.579-4.612-6.479-4.59-10.409
			c-0.024-3.931,1.711-7.834,4.583-10.416c1.425-1.304,3.121-2.271,4.903-2.894c1.79-0.612,3.684-0.828,5.513-0.695
			c3.674,0.268,7.081,2.016,9.387,4.617C151.726,721.196,153.015,724.594,153,728z M153,728c0.017-3.412-1.5-6.78-4.002-8.997
			c-1.243-1.116-2.715-1.938-4.253-2.457c-1.55-0.508-3.168-0.673-4.744-0.541c-3.154,0.272-6.023,1.797-7.968,4.026
			c-1.97,2.218-3.041,5.08-3.033,7.969c-0.01,2.888,1.055,5.754,3.025,7.976c1.945,2.233,4.82,3.759,7.976,4.029
			c3.147,0.299,6.507-0.764,9-3.005C151.501,734.78,153.017,731.412,153,728z"/>
	</g>
	<rect x="297" y="544" opacity="0.02" fill="#FFFFFF" width="48" height="368"/>
	<rect x="240" y="544" opacity="0.02" fill="#FFFFFF" width="24" height="368"/>
	<rect x="1197" y="544" opacity="0.02" fill="#FFFFFF" width="48" height="368"/>
	<rect x="1140" y="544" opacity="0.02" fill="#FFFFFF" width="24" height="368"/>
</g>
<g>
	<path fill="#3D3D3D" d="M779.492,938.5c0,5.229-2.74,9.5-6.121,9.5H608.11c-3.381,0-6.122-4.271-6.122-9.5l0,0
		c0-5.229,2.741-9.5,6.122-9.5h165.261C776.752,929,779.492,933.271,779.492,938.5L779.492,938.5z"/>
	<circle fill="#1E1E1E" cx="620.134" cy="960.072" r="14.594"/>
	<circle fill="#1E1E1E" cx="689.952" cy="960.072" r="14.594"/>
	<circle fill="#1E1E1E" cx="762.136" cy="960.072" r="14.595"/>
	<path fill="#3D3D3D" d="M700,848.731c0,5.119-4.15,9.269-9.27,9.269h-0.461c-5.12,0-9.27-4.149-9.27-9.269v-82.463
		c0-5.119,4.15-9.269,9.27-9.269h0.461c5.12,0,9.27,4.149,9.27,9.269V848.731z"/>
	<path fill="#3D3D3D" d="M709,934.469c0,5.426-6.923,9.531-15.134,9.531h-7.435c-8.21,0-14.431-4.105-14.431-9.531v-88.43
		c0-5.425,6.221-9.039,14.431-9.039h7.435c8.211,0,15.134,3.614,15.134,9.039V934.469z"/>
	<path fill="#232323" d="M709,926.132c0,4.966-3.595,10.868-7.7,10.868h-3.717c-4.106,0-7.583-5.902-7.583-10.868v-80.925
		c0-4.967,3.477-8.207,7.583-8.207h3.717c4.105,0,7.7,3.24,7.7,8.207V926.132z"/>
	<path fill="#3D3D3D" d="M708,840.153c0,4.886-3.961,8.847-8.847,8.847h-18.307c-4.886,0-8.847-3.961-8.847-8.847v-0.307
		c0-4.886,3.961-8.847,8.847-8.847h18.307c4.886,0,8.847,3.961,8.847,8.847V840.153z"/>
	<path fill="#3D3D3D" d="M749.908,758.5c0,4.084-2.508,7.5-5.604,7.5H633.627c-3.095,0-5.604-3.416-5.604-7.5l0,0
		c0-4.084,2.509-7.5,5.604-7.5h110.678C747.4,751,749.908,754.416,749.908,758.5L749.908,758.5z"/>
	<path fill="#DD6F97" d="M803,748.158c0,3.877-4.498,6.842-10.371,6.842H585.301c-5.872,0-11.301-2.965-11.301-6.842v-11.231
		c0-3.874,5.429-7.927,11.301-7.927h207.328c5.873,0,10.371,4.053,10.371,7.927V748.158z"/>
	<path fill="#DD6F97" d="M793.187,635.203C790.735,649.796,776.622,662,761.825,662H616.989c-14.797,0-28.968-12.193-31.49-26.774
		l-21.771-126.028c-2.522-14.58,7.385-28.391,22.016-30.606l79.977-12.151c14.631-2.217,38.558-2.139,53.17,0.192l73.315,11.692
		c14.612,2.332,24.564,16.308,22.113,30.899L793.187,635.203z"/>
	<path fill="#565656" d="M699,733.686c0,6.521-4.126,11.314-9.245,11.314h-0.396c-5.119,0-8.359-4.794-8.359-11.314V574.943
		c0-6.521,3.24-11.943,8.359-11.943h0.396c5.119,0,9.245,5.423,9.245,11.943V733.686z"/>
</g>
<g>
	<g>
		
			<rect x="857.525" y="378.178" transform="matrix(0.9813 -0.1925 0.1925 0.9813 -68.8705 174.117)" fill="#B9E29F" width="8.616" height="126.784"/>
		
			<rect x="861.794" y="377.762" transform="matrix(0.9813 -0.1925 0.1925 0.9813 -68.7511 174.5162)" opacity="0.05" width="4.308" height="126.785"/>
		<polygon fill="#FFFFFF" points="845.398,380.193 846.821,365.07 853.854,378.534 849.982,381.175 		"/>
		<polygon fill="#B9E29F" points="846.821,365.07 849.078,369.39 846.171,371.986 		"/>
	</g>
	<g>
		
			<rect x="869.553" y="374.808" transform="matrix(0.9975 -0.0705 0.0705 0.9975 -28.715 62.6885)" fill="#FFBDD8" width="8.617" height="126.785"/>
		
			<rect x="873.857" y="374.656" transform="matrix(0.9975 -0.0705 0.0705 0.9975 -28.6989 62.8397)" opacity="0.05" width="4.309" height="126.785"/>
		<polygon fill="#FFFFFF" points="865.107,375.474 868.378,360.641 873.702,374.866 869.535,377.012 		"/>
		<polygon fill="#FFBDD8" points="868.378,360.641 870.086,365.205 866.882,367.424 		"/>
	</g>
	<g>
		
			<rect x="881.074" y="374.615" transform="matrix(0.9992 0.0394 -0.0394 0.9992 17.9653 -34.5812)" fill="#8DD8C5" width="8.616" height="126.785"/>
		
			<rect x="885.38" y="374.7" transform="matrix(0.9992 0.0394 -0.0394 0.9992 17.9703 -34.666)" opacity="0.05" width="4.308" height="126.785"/>
		<polygon fill="#FFFFFF" points="883.566,374.699 888.446,360.314 892.177,375.039 887.8,376.714 		"/>
		<polygon fill="#8DD8C5" points="888.474,360.316 886.908,364.931 890.18,367.049 		"/>
	</g>
	<g>
		
			<rect x="892.638" y="373.044" transform="matrix(0.9745 0.2245 -0.2245 0.9745 120.9042 -190.2596)" fill="#FFCE94" width="8.616" height="126.784"/>
		<path fill="#FFE1C0" d="M915.375,375.629l-8.396-1.935c0,0,0.724-8.152,2.811-9.458c1.827-1.142,6.055-0.168,7.197,1.658
			C918.291,367.982,915.375,375.629,915.375,375.629z"/>
		
			<rect x="905.832" y="374.339" transform="matrix(0.9745 0.2245 -0.2245 0.9745 108.3655 -194.6647)" fill="#CCCCCC" width="8.616" height="9.642"/>
		
			<rect x="906.385" y="376.044" transform="matrix(0.9745 0.2245 -0.2245 0.9745 107.8411 -194.85)" fill="#E5E5E5" width="8.616" height="1.436"/>
		
			<rect x="905.832" y="378.442" transform="matrix(0.9745 0.2245 -0.2245 0.9745 108.3338 -194.6204)" fill="#E5E5E5" width="8.616" height="1.437"/>
		
			<rect x="905.28" y="380.842" transform="matrix(0.9745 0.2246 -0.2246 0.9745 108.9219 -194.5236)" fill="#E5E5E5" width="8.617" height="1.436"/>
	</g>
	<g>
		<path fill="#F291B9" d="M901.96,508.887c-0.048,0.562-0.55,1.113-1.114,1.113h-43.492c-0.564,0-1.066-0.552-1.119-1.113
			l-7.609-83.788c-0.051-0.562,0.369-1.099,0.933-1.099h58.674c0.564,0,0.986,0.537,0.938,1.099L901.96,508.887z"/>
		<path opacity="0.15" fill="#FFFFFF" d="M897.411,508.887c-0.009,0.562-0.099,1.113-0.2,1.113h-7.833
			c-0.102,0-0.192-0.552-0.201-1.113l3.553-83.788c-0.01-0.562,0.066-1.099,0.169-1.099h10.566c0.102,0,0.177,0.537,0.168,1.099
			L897.411,508.887z"/>
	</g>
</g>
<g>
	<path fill="#FFFFFF" d="M532,435c0,5.523-4.477,10-10,10H147c-5.523,0-10-4.477-10-10V163c0-5.523,4.477-10,10-10h375
		c5.523,0,10,4.477,10,10V435z"/>
	<rect x="153" y="169" fill="#494949" width="363" height="244"/>
	<g>
		<path fill="#2B2B2B" d="M137,427v14c0,7.15,5.921,13,13.071,13h369c7.15,0,12.929-5.85,12.929-13v-14H137z"/>
	</g>
	<path fill="#FFFFFF" d="M157,435c-6.449,0-6.449,10,0,10S163.449,435,157,435z"/>
	<path fill="#FFFFFF" d="M176,435c-6.449,0-6.449,10,0,10S182.449,435,176,435z"/>
	<polygon fill="#FFFFFF" points="378.571,509 290.571,509 302.071,454 367.071,454 	"/>
	<polygon fill="#FFFFFF" points="404.071,509 265.071,509 270.071,501 399.071,501 	"/>
	<rect x="302" y="454" fill="#DDDDDD" width="66" height="4"/>
	<polygon fill="#DDDDDD" points="377.571,501 291.571,501 292.571,497 376.571,497 	"/>
</g>
<g>
	<path fill="#C6BDB0" d="M1135.969,457.784c-4.867-0.423-8.969,1.902-13.969,4.789v-6.114c0-3.316-2.409-6.458-5.726-6.458h-46.512
		c-3.316,0-5.763,3.142-5.763,6.458v29.286c0,3.316,1.08,8.456,2.563,11.422l1.431,3.219c1.484,2.966,5.344,5.615,8.66,5.615h33.592
		c3.315,0,7.117-2.708,8.446-5.746l1.196-2.846c0.356-0.814,0.694-1.844,1-2.893c11.551,2.924,25.26-0.596,27.726-13.142
		C1150.263,472.987,1146,458.656,1135.969,457.784z M1140.335,479.417c-0.368,5.034-6.467,7.053-10.614,7.371
		c-2.484,0.19-5.18-0.046-7.574-0.735c0.002-0.103-0.146-0.208-0.146-0.308v-12.627c4-2.532,7.189-5.075,11.148-6.423
		C1139.152,464.651,1140.624,475.464,1140.335,479.417z"/>
	<path fill="#B7AFA5" d="M1138.39,506.848c-1.287,1.185-3.688,2.152-5.336,2.152h-74.902c-1.647,0-4.049-0.968-5.336-2.152
		l-2.812-2.641c-1.286-1.185-0.991-2.207,0.657-2.207h89.883c1.648,0,1.944,1.022,0.657,2.207L1138.39,506.848z"/>
	<path fill="#FFFFFF" d="M1071.485,397.795c2.265-0.227,4.646,0.391,6.692,1.682c2.042,1.315,3.625,3.397,4.497,5.687
		c0.895,2.293,1.187,4.73,1.176,7.093c-0.015,2.376-0.348,4.686-0.845,6.964c-1.063,4.735-3.626,8.711-5.739,12.483
		c-1.035,1.899-2.013,3.79-2.23,5.807c-0.286,2.014,0.46,4.124,1.686,6.028c-0.886-0.705-1.68-1.561-2.286-2.584
		c-0.617-1.019-0.975-2.225-1.091-3.454c-0.165-2.491,0.611-4.853,1.478-6.964c0.877-2.131,1.891-4.115,2.753-6.103
		c0.87-1.981,1.62-3.964,2.072-5.977c0.906-4.165,1.466-8.5,0.466-12.444c-0.515-1.949-1.451-3.792-2.969-5.209
		C1075.659,399.357,1073.675,398.325,1071.485,397.795z"/>
	<path fill="#FFFFFF" d="M1089.746,397.189c2.267,0.211,4.485,1.274,6.247,2.932c1.752,1.682,2.907,4.029,3.325,6.443
		c0.438,2.422,0.258,4.87-0.206,7.187c-0.469,2.329-1.238,4.532-2.161,6.673c-1.951,4.443-5.228,7.856-8.024,11.153
		c-1.379,1.666-2.701,3.335-3.3,5.272c-0.668,1.922-0.34,4.136,0.499,6.239c-0.735-0.861-1.35-1.853-1.749-2.975
		c-0.411-1.118-0.53-2.37-0.409-3.599c0.314-2.477,1.53-4.646,2.783-6.552c1.27-1.924,2.645-3.676,3.871-5.462
		c1.233-1.778,2.35-3.58,3.179-5.468c1.687-3.915,3.066-8.063,2.839-12.125c-0.13-2.011-0.698-3.999-1.916-5.681
		C1093.543,399.522,1091.793,398.128,1089.746,397.189z"/>
	<path fill="#FFFFFF" d="M1104.389,398.912c2.267,0.211,4.485,1.274,6.247,2.932c1.752,1.682,2.907,4.029,3.325,6.443
		c0.438,2.422,0.258,4.87-0.205,7.187c-0.47,2.329-1.239,4.532-2.162,6.673c-1.951,4.443-5.227,7.856-8.023,11.153
		c-1.38,1.666-2.702,3.335-3.301,5.272c-0.667,1.922-0.339,4.136,0.499,6.239c-0.735-0.861-1.35-1.853-1.749-2.975
		c-0.411-1.118-0.53-2.37-0.409-3.599c0.314-2.477,1.53-4.646,2.783-6.552c1.27-1.924,2.645-3.676,3.871-5.462
		c1.233-1.778,2.35-3.581,3.179-5.469c1.687-3.915,3.066-8.063,2.839-12.125c-0.13-2.011-0.698-3.999-1.916-5.681
		C1108.187,401.245,1106.436,399.851,1104.389,398.912z"/>
</g>
<path fill="#AF877D" d="M1231,341c-3.358,3.359-15.642,3.359-19,0c-3.712-3.712,0-21,0-21h19C1231,320,1234.712,337.288,1231,341z"
	/>
<g>
	<path fill="#AF877D" d="M1277,320c0,3.866-3.134,7-7,7H714c-3.866,0-7-3.134-7-7l0,0c0-3.866,3.134-7,7-7h556
		C1273.866,313,1277,316.134,1277,320L1277,320z"/>
	<path fill="#AF877D" d="M776,341c-3.358,3.359-15.642,3.359-19,0c-3.712-3.712,0-21,0-21h19C776,320,779.712,337.288,776,341z"/>
	<rect x="770" y="245" fill="#FFFFFF" width="80" height="68"/>
	<rect x="770" y="234" fill="#E86969" width="80" height="17"/>
	<g>
		<g>
			<circle fill="#FFFFFF" cx="839.149" cy="242.5" r="3.5"/>
		</g>
		<g>
			<circle fill="#FFFFFF" cx="824.149" cy="242.5" r="3.5"/>
		</g>
		<g>
			<circle fill="#FFFFFF" cx="809.149" cy="242.5" r="3.5"/>
		</g>
		<g>
			<circle fill="#FFFFFF" cx="794.149" cy="242.5" r="3.5"/>
		</g>
		<g>
			<circle fill="#FFFFFF" cx="779.149" cy="242.5" r="3.5"/>
		</g>
	</g>
	<g>
		<g>
			<path fill="#777777" d="M840,242c0,0.552-0.447,1-1,1l0,0c-0.553,0-1-0.448-1-1v-10c0-0.552,0.447-1,1-1l0,0c0.553,0,1,0.448,1,1
				V242z"/>
		</g>
		<g>
			<path fill="#777777" d="M825,242c0,0.552-0.447,1-1,1l0,0c-0.553,0-1-0.448-1-1v-10c0-0.552,0.447-1,1-1l0,0c0.553,0,1,0.448,1,1
				V242z"/>
		</g>
		<g>
			<path fill="#777777" d="M810,242c0,0.552-0.447,1-1,1l0,0c-0.553,0-1-0.448-1-1v-10c0-0.552,0.447-1,1-1l0,0c0.553,0,1,0.448,1,1
				V242z"/>
		</g>
		<g>
			<path fill="#777777" d="M795,242c0,0.552-0.447,1-1,1l0,0c-0.553,0-1-0.448-1-1v-10c0-0.552,0.447-1,1-1l0,0c0.553,0,1,0.448,1,1
				V242z"/>
		</g>
		<g>
			<path fill="#777777" d="M780,242c0,0.552-0.447,1-1,1l0,0c-0.553,0-1-0.448-1-1v-10c0-0.552,0.447-1,1-1l0,0c0.553,0,1,0.448,1,1
				V242z"/>
		</g>
	</g>
	<text transform="matrix(1 0 0 1 780.0654 304.9102)" fill="#9B9B9B" font-family="'MyriadPro-BoldCond'" font-size="68.3587">15</text>
</g>
<g>
	<path fill="#FFF59C" d="M942,309c0,2.209-1.791,4-4,4h-27c-2.209,0-4-1.791-4-4V203c0-2.209,1.791-4,4-4h27c2.209,0,4,1.791,4,4
		V309z"/>
	<path fill="#FFC78A" d="M965,309c0,2.209-1.791,4-4,4h-15c-2.209,0-4-1.791-4-4V173c0-2.209,1.791-4,4-4h15c2.209,0,4,1.791,4,4
		V309z"/>
	<path fill="#B2B6F9" d="M1003,309c0,2.209-1.791,4-4,4h-30c-2.209,0-4-1.791-4-4v-93c0-2.209,1.791-4,4-4h30c2.209,0,4,1.791,4,4
		V309z"/>
	<rect x="907" y="209" fill="#FFFFFF" width="35" height="6"/>
	<rect x="907" y="297" fill="#FFFFFF" width="35" height="6"/>
	<rect x="965" y="219" fill="#FFFFFF" width="38" height="4"/>
	<rect x="965" y="225" fill="#FFFFFF" width="38" height="4"/>
	<rect x="965" y="297" fill="#FFFFFF" width="38" height="4"/>
	<rect x="965" y="303" fill="#FFFFFF" width="38" height="4"/>
	<rect x="946" y="174" fill="#FFFFFF" width="3" height="74"/>
	<rect x="951" y="174" fill="#FFFFFF" width="4" height="41"/>
	<g>
		
			<rect x="1013" y="203" transform="matrix(0.9741 -0.2261 0.2261 0.9741 -31.7286 237.9379)" fill="#CCEDB7" width="20" height="109"/>
		
			<rect x="1023.899" y="269.24" transform="matrix(0.9741 -0.226 0.226 0.9741 -38.5013 239.2241)" fill="#FFFFFF" width="3.001" height="37"/>
		
			<rect x="1030.422" y="273.806" transform="matrix(0.9741 -0.226 0.226 0.9741 -38.6864 240.739)" fill="#FFFFFF" width="3.001" height="31"/>
	</g>
</g>
<g>
	<polygon fill="#A5B270" points="1180.43,127.008 1166.72,231.149 1176.36,231.853 1180.296,127.513 	"/>
	<polygon fill="#A5B270" points="1120.385,129.933 1128.414,234.762 1138.064,234.202 1121.116,130.345 	"/>
	<polygon fill="#A5B270" points="1131.661,129.933 1139.69,234.762 1149.34,234.202 1132.393,130.345 	"/>
	<polygon fill="#A5B270" points="1156.195,130.019 1155.481,234.615 1161.922,234.861 1156.891,130.491 	"/>
	<polygon fill="#B8C180" points="1112.805,127.008 1135.063,231.149 1122.462,231.853 1111.927,127.513 	"/>
	<polygon fill="#B8C180" points="1189.558,129.933 1182.652,234.762 1173.261,234.202 1188.601,130.345 	"/>
	<polygon fill="#B8C180" points="1170.606,129.933 1166.923,234.762 1156.727,234.202 1168.846,130.345 	"/>
	<polygon fill="#B8C180" points="1142.749,130.019 1158.549,234.615 1145.919,234.861 1141.841,130.491 	"/>
	<g>
		<polygon fill="#E8AB91" points="1185.308,313 1118.455,313 1110.401,229 1193.362,229 		"/>
		<path fill="#EFB7A3" d="M1192.295,310.075c-0.742,1.609-2.799,2.925-4.571,2.925h-72.489c-1.772,0-3.83-1.316-4.572-2.925
			l-2.133-4.385c-0.742-1.609,0.1-2.69,1.872-2.69h82.155c1.771,0,2.614,1.081,1.872,2.69L1192.295,310.075z"/>
		<path fill="#EFB7A3" d="M1199,235c0,3.101-2.899,6-6.443,6h-80.545c-3.544,0-6.443-2.899-6.443-6s2.899-6,6.443-6h80.545
			C1196.101,229,1199,231.899,1199,235z"/>
	</g>
</g>
</svg>
